{
  "title" : "", 
  "description" : "", 
  "author" : "", 
  "targetLoudness" : -18.0, 
  "shouldApplyLoudnessNormalization" : true, 
  "videoFormatFrameRate" : 30, 
  "audioFormatSampleRate" : 44100, 
  "allowSubFrameEditing" : false, 
  "width" : 1920.0, 
  "height" : 1080.0, 
  "version" : "9.0", 
  "editRate" : 705600000, 
  "authoringClientName" : {
    "name" : "Camtasia", 
    "platform" : "Mac", 
    "version" : "2025.1.2"
  }, 
  "sourceBin" : [
    {
      "id" : 1, 
      "src" : "./media/1750852176.613716/C01-S01-01.wav", 
      "rect" : [0, 0, 0, 0], 
      "lastMod" : "20250312T170820", 
      "loudnessNormalization" : true, 
      "sourceTracks" : [
        {
          "range" : [0, 156380], 
          "type" : 2, 
          "editRate" : 44100, 
          "trackRect" : [0, 0, 0, 0], 
          "sampleRate" : 44100, 
          "bitDepth" : 16, 
          "numChannels" : 1, 
          "integratedLUFS" : -15.7809468621328, 
          "peakLevel" : 0.5213623046875, 
          "metaData" : "C01-S01-01.wav;", 
          "parameters" : {
          }
        }
      ], 
      "metadata" : {
        "timeAdded" : "20250219T140225.804906"
      }
    }, 
    {
      "id" : 2, 
      "src" : "./media/1750852176.613913/C02-S01-02.wav", 
      "rect" : [0, 0, 0, 0], 
      "lastMod" : "20250312T170820", 
      "loudnessNormalization" : true, 
      "sourceTracks" : [
        {
          "range" : [0, 104563], 
          "type" : 2, 
          "editRate" : 44100, 
          "trackRect" : [0, 0, 0, 0], 
          "sampleRate" : 44100, 
          "bitDepth" : 16, 
          "numChannels" : 1, 
          "integratedLUFS" : -14.3958731615613, 
          "peakLevel" : 0.502960205078125, 
          "metaData" : "C02-S01-02.wav;", 
          "parameters" : {
          }
        }
      ], 
      "metadata" : {
        "timeAdded" : "20250219T141527.214530"
      }
    }, 
    {
      "id" : 3, 
      "src" : "./media/1750852176.614089/C02-S01-03.wav", 
      "rect" : [0, 0, 0, 0], 
      "lastMod" : "20250312T170820", 
      "loudnessNormalization" : true, 
      "sourceTracks" : [
        {
          "range" : [0, 125510], 
          "type" : 2, 
          "editRate" : 44100, 
          "trackRect" : [0, 0, 0, 0], 
          "sampleRate" : 44100, 
          "bitDepth" : 16, 
          "numChannels" : 1, 
          "integratedLUFS" : -14.7565949799533, 
          "peakLevel" : 0.532196044921875, 
          "metaData" : "C02-S01-03.wav;", 
          "parameters" : {
          }
        }
      ], 
      "metadata" : {
        "timeAdded" : "20250219T141535.921288"
      }
    }, 
    {
      "id" : 4, 
      "src" : "./media/1750852176.614528/C02-S01-04.wav", 
      "rect" : [0, 0, 0, 0], 
      "lastMod" : "20250312T170820", 
      "loudnessNormalization" : true, 
      "sourceTracks" : [
        {
          "range" : [0, 140945], 
          "type" : 2, 
          "editRate" : 44100, 
          "trackRect" : [0, 0, 0, 0], 
          "sampleRate" : 44100, 
          "bitDepth" : 16, 
          "numChannels" : 1, 
          "integratedLUFS" : -15.0865027622179, 
          "peakLevel" : 0.52362060546875, 
          "metaData" : "C02-S01-04.wav;", 
          "parameters" : {
          }
        }
      ], 
      "metadata" : {
        "timeAdded" : "20250219T141544.673839"
      }
    }, 
    {
      "id" : 5, 
      "src" : "./media/1750852176.615008/C03-S03-01.wav", 
      "rect" : [0, 0, 0, 0], 
      "lastMod" : "20250312T170820", 
      "loudnessNormalization" : true, 
      "sourceTracks" : [
        {
          "range" : [0, 330575], 
          "type" : 2, 
          "editRate" : 44100, 
          "trackRect" : [0, 0, 0, 0], 
          "sampleRate" : 44100, 
          "bitDepth" : 16, 
          "numChannels" : 1, 
          "integratedLUFS" : -14.9560501845903, 
          "peakLevel" : 0.627197265625, 
          "metaData" : "C03-S03-01.wav;", 
          "parameters" : {
          }
        }
      ], 
      "metadata" : {
        "timeAdded" : "20250219T141700.229629"
      }
    }, 
    {
      "id" : 6, 
      "src" : "./media/1750852176.615206/C04-S01-01.wav", 
      "rect" : [0, 0, 0, 0], 
      "lastMod" : "20250312T170820", 
      "loudnessNormalization" : true, 
      "sourceTracks" : [
        {
          "range" : [0, 182840], 
          "type" : 2, 
          "editRate" : 44100, 
          "trackRect" : [0, 0, 0, 0], 
          "sampleRate" : 44100, 
          "bitDepth" : 16, 
          "numChannels" : 1, 
          "integratedLUFS" : -15.8774554316973, 
          "peakLevel" : 0.58038330078125, 
          "metaData" : "C04-S01-01.wav;", 
          "parameters" : {
          }
        }
      ], 
      "metadata" : {
        "timeAdded" : "20250219T141812.910609"
      }
    }, 
    {
      "id" : 7, 
      "src" : "./media/1750852176.615376/C04-S03-01.wav", 
      "rect" : [0, 0, 0, 0], 
      "lastMod" : "20250312T170820", 
      "loudnessNormalization" : true, 
      "sourceTracks" : [
        {
          "range" : [0, 271040], 
          "type" : 2, 
          "editRate" : 44100, 
          "trackRect" : [0, 0, 0, 0], 
          "sampleRate" : 44100, 
          "bitDepth" : 16, 
          "numChannels" : 1, 
          "integratedLUFS" : -15.8320819620606, 
          "peakLevel" : 0.60015869140625, 
          "metaData" : "C04-S03-01.wav;", 
          "parameters" : {
          }
        }
      ], 
      "metadata" : {
        "timeAdded" : "20250219T141831.765504"
      }
    }, 
    {
      "id" : 8, 
      "src" : "./media/1750852176.615670/C04-S04-01.wav", 
      "rect" : [0, 0, 0, 0], 
      "lastMod" : "20250312T170820", 
      "loudnessNormalization" : true, 
      "sourceTracks" : [
        {
          "range" : [0, 323960], 
          "type" : 2, 
          "editRate" : 44100, 
          "trackRect" : [0, 0, 0, 0], 
          "sampleRate" : 44100, 
          "bitDepth" : 16, 
          "numChannels" : 1, 
          "integratedLUFS" : -15.6140178758416, 
          "peakLevel" : 0.6614990234375, 
          "metaData" : "C04-S04-01.wav;", 
          "parameters" : {
          }
        }
      ], 
      "metadata" : {
        "timeAdded" : "20250219T141839.738408"
      }
    }, 
    {
      "id" : 9, 
      "src" : "./media/1750852176.615839/C04-S05-01.wav", 
      "rect" : [0, 0, 0, 0], 
      "lastMod" : "20250312T170820", 
      "loudnessNormalization" : true, 
      "sourceTracks" : [
        {
          "range" : [0, 243478], 
          "type" : 2, 
          "editRate" : 44100, 
          "trackRect" : [0, 0, 0, 0], 
          "sampleRate" : 44100, 
          "bitDepth" : 16, 
          "numChannels" : 1, 
          "integratedLUFS" : -16.983156251052, 
          "peakLevel" : 0.5399169921875, 
          "metaData" : "C04-S05-01.wav;", 
          "parameters" : {
          }
        }
      ], 
      "metadata" : {
        "timeAdded" : "20250219T141849.623930"
      }
    }, 
    {
      "id" : 10, 
      "src" : "./media/1750852176.615998/C04-S06-01.wav", 
      "rect" : [0, 0, 0, 0], 
      "lastMod" : "20250312T170820", 
      "loudnessNormalization" : true, 
      "sourceTracks" : [
        {
          "range" : [0, 244580], 
          "type" : 2, 
          "editRate" : 44100, 
          "trackRect" : [0, 0, 0, 0], 
          "sampleRate" : 44100, 
          "bitDepth" : 16, 
          "numChannels" : 1, 
          "integratedLUFS" : -15.8157656743118, 
          "peakLevel" : 0.681915283203125, 
          "metaData" : "C04-S06-01.wav;", 
          "parameters" : {
          }
        }
      ], 
      "metadata" : {
        "timeAdded" : "20250219T141855.456633"
      }
    }, 
    {
      "id" : 11, 
      "src" : "./media/1750852176.616158/C04-S07-01.wav", 
      "rect" : [0, 0, 0, 0], 
      "lastMod" : "20250312T170820", 
      "loudnessNormalization" : true, 
      "sourceTracks" : [
        {
          "range" : [0, 327268], 
          "type" : 2, 
          "editRate" : 44100, 
          "trackRect" : [0, 0, 0, 0], 
          "sampleRate" : 44100, 
          "bitDepth" : 16, 
          "numChannels" : 1, 
          "integratedLUFS" : -16.4904922469371, 
          "peakLevel" : 0.5328369140625, 
          "metaData" : "C04-S07-01.wav;", 
          "parameters" : {
          }
        }
      ], 
      "metadata" : {
        "timeAdded" : "20250219T141903.212641"
      }
    }, 
    {
      "id" : 12, 
      "src" : "./media/1750852176.616594/C05-S01-01.wav", 
      "rect" : [0, 0, 0, 0], 
      "lastMod" : "20250312T170820", 
      "loudnessNormalization" : true, 
      "sourceTracks" : [
        {
          "range" : [0, 178430], 
          "type" : 2, 
          "editRate" : 44100, 
          "trackRect" : [0, 0, 0, 0], 
          "sampleRate" : 44100, 
          "bitDepth" : 16, 
          "numChannels" : 1, 
          "integratedLUFS" : -15.0859977731733, 
          "peakLevel" : 0.5909423828125, 
          "metaData" : "C05-S01-01.wav;", 
          "parameters" : {
          }
        }
      ], 
      "metadata" : {
        "timeAdded" : "20250219T141912.395442"
      }
    }, 
    {
      "id" : 13, 
      "src" : "./media/1750852176.616763/C05-S01-02.wav", 
      "rect" : [0, 0, 0, 0], 
      "lastMod" : "20250312T170820", 
      "loudnessNormalization" : true, 
      "sourceTracks" : [
        {
          "range" : [0, 224735], 
          "type" : 2, 
          "editRate" : 44100, 
          "trackRect" : [0, 0, 0, 0], 
          "sampleRate" : 44100, 
          "bitDepth" : 16, 
          "numChannels" : 1, 
          "integratedLUFS" : -15.4574226921005, 
          "peakLevel" : 0.5390625, 
          "metaData" : "C05-S01-02.wav;", 
          "parameters" : {
          }
        }
      ], 
      "metadata" : {
        "timeAdded" : "20250219T141920.641478"
      }
    }, 
    {
      "id" : 14, 
      "src" : "./media/1750852176.616936/C05-S02-01.wav", 
      "rect" : [0, 0, 0, 0], 
      "lastMod" : "20250312T170820", 
      "loudnessNormalization" : true, 
      "sourceTracks" : [
        {
          "range" : [0, 174020], 
          "type" : 2, 
          "editRate" : 44100, 
          "trackRect" : [0, 0, 0, 0], 
          "sampleRate" : 44100, 
          "bitDepth" : 16, 
          "numChannels" : 1, 
          "integratedLUFS" : -16.3052844432442, 
          "peakLevel" : 0.492401123046875, 
          "metaData" : "C05-S02-01.wav;", 
          "parameters" : {
          }
        }
      ], 
      "metadata" : {
        "timeAdded" : "20250219T141929.101945"
      }
    }, 
    {
      "id" : 15, 
      "src" : "./media/1750852176.617106/C05-S02-02.wav", 
      "rect" : [0, 0, 0, 0], 
      "lastMod" : "20250312T170820", 
      "loudnessNormalization" : true, 
      "sourceTracks" : [
        {
          "range" : [0, 248990], 
          "type" : 2, 
          "editRate" : 44100, 
          "trackRect" : [0, 0, 0, 0], 
          "sampleRate" : 44100, 
          "bitDepth" : 16, 
          "numChannels" : 1, 
          "integratedLUFS" : -15.0901517365424, 
          "peakLevel" : 0.589569091796875, 
          "metaData" : "C05-S02-02.wav;", 
          "parameters" : {
          }
        }
      ], 
      "metadata" : {
        "timeAdded" : "20250219T141935.007936"
      }
    }, 
    {
      "id" : 16, 
      "src" : "./media/1750852176.617456/C06-S01-01.wav", 
      "rect" : [0, 0, 0, 0], 
      "lastMod" : "20250312T170821", 
      "loudnessNormalization" : true, 
      "sourceTracks" : [
        {
          "range" : [0, 91333], 
          "type" : 2, 
          "editRate" : 44100, 
          "trackRect" : [0, 0, 0, 0], 
          "sampleRate" : 44100, 
          "bitDepth" : 16, 
          "numChannels" : 1, 
          "integratedLUFS" : -14.2799602578145, 
          "peakLevel" : 0.575714111328125, 
          "metaData" : "C06-S01-01.wav;", 
          "parameters" : {
          }
        }
      ], 
      "metadata" : {
        "timeAdded" : "20250219T141953.153753"
      }
    }, 
    {
      "id" : 17, 
      "src" : "./media/1750852176.617660/C06-S03-01.wav", 
      "rect" : [0, 0, 0, 0], 
      "lastMod" : "20250312T170821", 
      "loudnessNormalization" : true, 
      "sourceTracks" : [
        {
          "range" : [0, 322858], 
          "type" : 2, 
          "editRate" : 44100, 
          "trackRect" : [0, 0, 0, 0], 
          "sampleRate" : 44100, 
          "bitDepth" : 16, 
          "numChannels" : 1, 
          "integratedLUFS" : -15.7932083792208, 
          "peakLevel" : 0.6141357421875, 
          "metaData" : "C06-S03-01.wav;", 
          "parameters" : {
          }
        }
      ], 
      "metadata" : {
        "timeAdded" : "20250219T142019.077946"
      }
    }, 
    {
      "id" : 18, 
      "src" : "./media/1750852176.618017/C07-S01-01.wav", 
      "rect" : [0, 0, 0, 0], 
      "lastMod" : "20250312T170821", 
      "loudnessNormalization" : true, 
      "sourceTracks" : [
        {
          "range" : [0, 414365], 
          "type" : 2, 
          "editRate" : 44100, 
          "trackRect" : [0, 0, 0, 0], 
          "sampleRate" : 44100, 
          "bitDepth" : 16, 
          "numChannels" : 1, 
          "integratedLUFS" : -15.4877421781944, 
          "peakLevel" : 0.60260009765625, 
          "metaData" : "C07-S01-01.wav;", 
          "parameters" : {
          }
        }
      ], 
      "metadata" : {
        "timeAdded" : "20250219T142027.323668"
      }
    }, 
    {
      "id" : 19, 
      "src" : "./media/1750852176.618307/C07-S02-01.wav", 
      "rect" : [0, 0, 0, 0], 
      "lastMod" : "20250312T170821", 
      "loudnessNormalization" : true, 
      "sourceTracks" : [
        {
          "range" : [0, 150868], 
          "type" : 2, 
          "editRate" : 44100, 
          "trackRect" : [0, 0, 0, 0], 
          "sampleRate" : 44100, 
          "bitDepth" : 16, 
          "numChannels" : 1, 
          "integratedLUFS" : -16.0585509505754, 
          "peakLevel" : 0.563690185546875, 
          "metaData" : "C07-S02-01.wav;", 
          "parameters" : {
          }
        }
      ], 
      "metadata" : {
        "timeAdded" : "20250219T142035.841461"
      }
    }, 
    {
      "id" : 20, 
      "src" : "./media/1750852176.618487/C07-S02-02.wav", 
      "rect" : [0, 0, 0, 0], 
      "lastMod" : "20250312T170821", 
      "loudnessNormalization" : true, 
      "sourceTracks" : [
        {
          "range" : [0, 146458], 
          "type" : 2, 
          "editRate" : 44100, 
          "trackRect" : [0, 0, 0, 0], 
          "sampleRate" : 44100, 
          "bitDepth" : 16, 
          "numChannels" : 1, 
          "integratedLUFS" : -14.7480254774085, 
          "peakLevel" : 0.61468505859375, 
          "metaData" : "C07-S02-02.wav;", 
          "parameters" : {
          }
        }
      ], 
      "metadata" : {
        "timeAdded" : "20250219T142042.017605"
      }
    }, 
    {
      "id" : 21, 
      "src" : "./media/1750852176.618705/C01-S03-01.wav", 
      "rect" : [0, 0, 0, 0], 
      "lastMod" : "20250312T170821", 
      "loudnessNormalization" : true, 
      "sourceTracks" : [
        {
          "range" : [0, 172918], 
          "type" : 2, 
          "editRate" : 44100, 
          "trackRect" : [0, 0, 0, 0], 
          "sampleRate" : 44100, 
          "bitDepth" : 16, 
          "numChannels" : 1, 
          "integratedLUFS" : -15.2282921755129, 
          "peakLevel" : 0.572418212890625, 
          "metaData" : "C01-S03-01.wav;", 
          "parameters" : {
          }
        }
      ], 
      "metadata" : {
        "timeAdded" : "20250219T193340.260450"
      }
    }, 
    {
      "id" : 22, 
      "src" : "./media/1750852176.619089/C01-S03-02.wav", 
      "rect" : [0, 0, 0, 0], 
      "lastMod" : "20250312T170821", 
      "loudnessNormalization" : true, 
      "sourceTracks" : [
        {
          "range" : [0, 81410], 
          "type" : 2, 
          "editRate" : 44100, 
          "trackRect" : [0, 0, 0, 0], 
          "sampleRate" : 44100, 
          "bitDepth" : 16, 
          "numChannels" : 1, 
          "integratedLUFS" : -14.836858086669, 
          "peakLevel" : 0.618682861328125, 
          "metaData" : "C01-S03-02.wav;", 
          "parameters" : {
          }
        }
      ], 
      "metadata" : {
        "timeAdded" : "20250219T193346.081552"
      }
    }, 
    {
      "id" : 23, 
      "src" : "./media/1750852176.619287/C01-S04-01.wav", 
      "rect" : [0, 0, 0, 0], 
      "lastMod" : "20250312T170821", 
      "loudnessNormalization" : true, 
      "sourceTracks" : [
        {
          "range" : [0, 355933], 
          "type" : 2, 
          "editRate" : 44100, 
          "trackRect" : [0, 0, 0, 0], 
          "sampleRate" : 44100, 
          "bitDepth" : 16, 
          "numChannels" : 1, 
          "integratedLUFS" : -15.215288779622, 
          "peakLevel" : 0.65655517578125, 
          "metaData" : "C01-S04-01.wav;", 
          "parameters" : {
          }
        }
      ], 
      "metadata" : {
        "timeAdded" : "20250219T193353.331123"
      }
    }, 
    {
      "id" : 24, 
      "src" : "./media/1750852176.619487/C01-S04-02.wav", 
      "rect" : [0, 0, 0, 0], 
      "lastMod" : "20250312T170821", 
      "loudnessNormalization" : true, 
      "sourceTracks" : [
        {
          "range" : [0, 276553], 
          "type" : 2, 
          "editRate" : 44100, 
          "trackRect" : [0, 0, 0, 0], 
          "sampleRate" : 44100, 
          "bitDepth" : 16, 
          "numChannels" : 1, 
          "integratedLUFS" : -15.7185054146809, 
          "peakLevel" : 0.551422119140625, 
          "metaData" : "C01-S04-02.wav;", 
          "parameters" : {
          }
        }
      ], 
      "metadata" : {
        "timeAdded" : "20250219T193359.086447"
      }
    }, 
    {
      "id" : 25, 
      "src" : "./media/1750852176.619697/C02-S01-01.wav", 
      "rect" : [0, 0, 0, 0], 
      "lastMod" : "20250312T170821", 
      "loudnessNormalization" : true, 
      "sourceTracks" : [
        {
          "range" : [0, 127715], 
          "type" : 2, 
          "editRate" : 44100, 
          "trackRect" : [0, 0, 0, 0], 
          "sampleRate" : 44100, 
          "bitDepth" : 16, 
          "numChannels" : 1, 
          "integratedLUFS" : -14.8212974196766, 
          "peakLevel" : 0.5728759765625, 
          "metaData" : "C02-S01-01.wav;", 
          "parameters" : {
          }
        }
      ], 
      "metadata" : {
        "timeAdded" : "20250220T095353.517871"
      }
    }, 
    {
      "id" : 26, 
      "src" : "./media/1750852176.619920/c01-s01.mp4", 
      "rect" : [0, 0, 1920, 1080], 
      "lastMod" : "20250312T170821", 
      "loudnessNormalization" : true, 
      "sourceTracks" : [
        {
          "range" : [0, 5000], 
          "type" : 0, 
          "editRate" : 1000, 
          "trackRect" : [0, 0, 1920, 1080], 
          "sampleRate" : 30, 
          "bitDepth" : 0, 
          "numChannels" : 0, 
          "integratedLUFS" : 100.0, 
          "peakLevel" : -1.0, 
          "metaData" : "c01-s01.mp4;", 
          "parameters" : {
          }
        }
      ], 
      "metadata" : {
        "timeAdded" : "20250220T100715.200856"
      }
    }, 
    {
      "id" : 27, 
      "src" : "./media/1750852176.620169/c04-s01.mp4", 
      "rect" : [0, 0, 1920, 1080], 
      "lastMod" : "20250312T170821", 
      "loudnessNormalization" : true, 
      "sourceTracks" : [
        {
          "range" : [0, 2000], 
          "type" : 0, 
          "editRate" : 1000, 
          "trackRect" : [0, 0, 1920, 1080], 
          "sampleRate" : 30, 
          "bitDepth" : 0, 
          "numChannels" : 0, 
          "integratedLUFS" : 100.0, 
          "peakLevel" : -1.0, 
          "metaData" : "c04-s01.mp4;", 
          "parameters" : {
          }
        }
      ], 
      "metadata" : {
        "timeAdded" : "20250221T141057.987298"
      }
    }, 
    {
      "id" : 28, 
      "src" : "./media/1750852176.620388/Scene-09-01-Learn-WordPress-org-v.webp", 
      "rect" : [0, 0, 1920, 1080], 
      "lastMod" : "20250312T170821", 
      "loudnessNormalization" : true, 
      "sourceTracks" : [
        {
          "range" : [0, 1], 
          "type" : 1, 
          "editRate" : 600, 
          "trackRect" : [0, 0, 1920, 1080], 
          "sampleRate" : 0, 
          "bitDepth" : 0, 
          "numChannels" : 0, 
          "integratedLUFS" : 100.0, 
          "peakLevel" : -1.0, 
          "metaData" : "Scene-09-01-Learn-WordPress-org-v.webp;", 
          "parameters" : {
          }
        }
      ], 
      "metadata" : {
        "timeAdded" : "20250305T162121.018302"
      }
    }, 
    {
      "id" : 29, 
      "src" : "./media/1750852176.621203/C06-S01-02-Hosting.wav", 
      "rect" : [0, 0, 0, 0], 
      "lastMod" : "20250312T170822", 
      "loudnessNormalization" : true, 
      "sourceTracks" : [
        {
          "range" : [0, 31642], 
          "type" : 2, 
          "editRate" : 44100, 
          "trackRect" : [0, 0, 0, 0], 
          "sampleRate" : 44100, 
          "bitDepth" : 16, 
          "numChannels" : 1, 
          "integratedLUFS" : -16.1972919431567, 
          "peakLevel" : 0.452484130859375, 
          "metaData" : "C06-S01-02-Hosting.wav;", 
          "parameters" : {
          }
        }
      ], 
      "metadata" : {
        "timeAdded" : "20250307T145041.450120"
      }
    }, 
    {
      "id" : 30, 
      "src" : "./media/1750852176.621401/C06-S01-01-Domain.wav", 
      "rect" : [0, 0, 0, 0], 
      "lastMod" : "20250312T170822", 
      "loudnessNormalization" : true, 
      "sourceTracks" : [
        {
          "range" : [0, 29909], 
          "type" : 2, 
          "editRate" : 44100, 
          "trackRect" : [0, 0, 0, 0], 
          "sampleRate" : 44100, 
          "bitDepth" : 16, 
          "numChannels" : 1, 
          "integratedLUFS" : -11.8907391685085, 
          "peakLevel" : 0.533660888671875, 
          "metaData" : "C06-S01-01-Domain.wav;", 
          "parameters" : {
          }
        }
      ], 
      "metadata" : {
        "timeAdded" : "20250307T145102.678510"
      }
    }, 
    {
      "id" : 31, 
      "src" : "./media/1750852176.621618/c06-s04.mp4", 
      "rect" : [0, 0, 1920, 1080], 
      "lastMod" : "20250312T170822", 
      "loudnessNormalization" : true, 
      "sourceTracks" : [
        {
          "range" : [0, 8034], 
          "type" : 0, 
          "editRate" : 1000, 
          "trackRect" : [0, 0, 1920, 1080], 
          "sampleRate" : 30, 
          "bitDepth" : 0, 
          "numChannels" : 0, 
          "integratedLUFS" : 100.0, 
          "peakLevel" : -1.0, 
          "metaData" : "c06-s04.mp4;", 
          "parameters" : {
          }
        }
      ], 
      "metadata" : {
        "timeAdded" : "20250309T160858.466742"
      }
    }, 
    {
      "id" : 32, 
      "src" : "./media/1750852176.621817/c01-s04.mp4", 
      "rect" : [0, 0, 1920, 1080], 
      "lastMod" : "20250312T170822", 
      "loudnessNormalization" : true, 
      "sourceTracks" : [
        {
          "range" : [0, 16000], 
          "type" : 0, 
          "editRate" : 1000, 
          "trackRect" : [0, 0, 1920, 1080], 
          "sampleRate" : 30, 
          "bitDepth" : 0, 
          "numChannels" : 0, 
          "integratedLUFS" : 100.0, 
          "peakLevel" : -1.0, 
          "metaData" : "c01-s04.mp4;", 
          "parameters" : {
          }
        }
      ], 
      "metadata" : {
        "timeAdded" : "20250310T093919.684201"
      }
    }, 
    {
      "id" : 33, 
      "src" : "./media/1750852176.623271/c04-s07.mp4", 
      "rect" : [0, 0, 1920, 1080], 
      "lastMod" : "20250312T170823", 
      "loudnessNormalization" : true, 
      "sourceTracks" : [
        {
          "range" : [0, 9567], 
          "type" : 0, 
          "editRate" : 1000, 
          "trackRect" : [0, 0, 1920, 1080], 
          "sampleRate" : 30, 
          "bitDepth" : 0, 
          "numChannels" : 0, 
          "integratedLUFS" : 100.0, 
          "peakLevel" : -1.0, 
          "metaData" : "c04-s07.mp4;", 
          "parameters" : {
          }
        }
      ], 
      "metadata" : {
        "timeAdded" : "20250310T115018.918426"
      }
    }, 
    {
      "id" : 34, 
      "src" : "./media/1750852176.623680/c06-s03.mp4", 
      "rect" : [0, 0, 1920, 1080], 
      "lastMod" : "20250312T170823", 
      "loudnessNormalization" : true, 
      "sourceTracks" : [
        {
          "range" : [0, 3200], 
          "type" : 0, 
          "editRate" : 1000, 
          "trackRect" : [0, 0, 1920, 1080], 
          "sampleRate" : 30, 
          "bitDepth" : 0, 
          "numChannels" : 0, 
          "integratedLUFS" : 100.0, 
          "peakLevel" : -1.0, 
          "metaData" : "c06-s03.mp4;", 
          "parameters" : {
          }
        }
      ], 
      "metadata" : {
        "timeAdded" : "20250310T120236.759091"
      }
    }, 
    {
      "id" : 35, 
      "src" : "./media/1750852176.623874/c06-s02.mp4", 
      "rect" : [0, 0, 1920, 1080], 
      "lastMod" : "20250312T170823", 
      "loudnessNormalization" : true, 
      "sourceTracks" : [
        {
          "range" : [0, 8134], 
          "type" : 0, 
          "editRate" : 1000, 
          "trackRect" : [0, 0, 1920, 1080], 
          "sampleRate" : 30, 
          "bitDepth" : 0, 
          "numChannels" : 0, 
          "integratedLUFS" : 100.0, 
          "peakLevel" : -1.0, 
          "metaData" : "c06-s02.mp4;", 
          "parameters" : {
          }
        }, 
        {
          "range" : [0, 8057], 
          "type" : 2, 
          "editRate" : 1000, 
          "trackRect" : [0, 0, 0, 0], 
          "sampleRate" : 44100, 
          "bitDepth" : 0, 
          "numChannels" : 2, 
          "integratedLUFS" : -1.79769313486232e+308, 
          "peakLevel" : 0.0, 
          "metaData" : "c06-s02.mp4;", 
          "parameters" : {
          }
        }
      ], 
      "metadata" : {
        "timeAdded" : "20250310T121142.371287"
      }
    }, 
    {
      "id" : 36, 
      "src" : "./media/1750852176.624089/c01-s02.mp4", 
      "rect" : [0, 0, 1920, 1080], 
      "lastMod" : "20250312T170823", 
      "loudnessNormalization" : true, 
      "sourceTracks" : [
        {
          "range" : [0, 3000], 
          "type" : 0, 
          "editRate" : 1000, 
          "trackRect" : [0, 0, 1920, 1080], 
          "sampleRate" : 30, 
          "bitDepth" : 0, 
          "numChannels" : 0, 
          "integratedLUFS" : 100.0, 
          "peakLevel" : -1.0, 
          "metaData" : "c01-s02.mp4;", 
          "parameters" : {
          }
        }
      ], 
      "metadata" : {
        "timeAdded" : "20250310T133912.003854"
      }
    }, 
    {
      "id" : 37, 
      "src" : "./media/1750852176.624335/c03-s04.mp4", 
      "rect" : [0, 0, 1920, 1080], 
      "lastMod" : "20250312T170823", 
      "loudnessNormalization" : true, 
      "sourceTracks" : [
        {
          "range" : [0, 7000], 
          "type" : 0, 
          "editRate" : 1000, 
          "trackRect" : [0, 0, 1920, 1080], 
          "sampleRate" : 30, 
          "bitDepth" : 0, 
          "numChannels" : 0, 
          "integratedLUFS" : 100.0, 
          "peakLevel" : -1.0, 
          "metaData" : "c03-s04.mp4;", 
          "parameters" : {
          }
        }
      ], 
      "metadata" : {
        "timeAdded" : "20250310T142813.792874"
      }
    }, 
    {
      "id" : 38, 
      "src" : "./media/1750852176.624564/c02-s01.mp4", 
      "rect" : [0, 0, 1920, 1080], 
      "lastMod" : "20250312T170823", 
      "loudnessNormalization" : true, 
      "sourceTracks" : [
        {
          "range" : [0, 15000], 
          "type" : 0, 
          "editRate" : 1000, 
          "trackRect" : [0, 0, 1920, 1080], 
          "sampleRate" : 30, 
          "bitDepth" : 0, 
          "numChannels" : 0, 
          "integratedLUFS" : 100.0, 
          "peakLevel" : -1.0, 
          "metaData" : "c02-s01.mp4;", 
          "parameters" : {
          }
        }
      ], 
      "metadata" : {
        "timeAdded" : "20250310T143622.842293"
      }
    }, 
    {
      "id" : 39, 
      "src" : "./media/1750852176.624769/C03-S01-01.wav", 
      "rect" : [0, 0, 0, 0], 
      "lastMod" : "20250312T170823", 
      "loudnessNormalization" : true, 
      "sourceTracks" : [
        {
          "range" : [0, 139061], 
          "type" : 2, 
          "editRate" : 44100, 
          "trackRect" : [0, 0, 0, 0], 
          "sampleRate" : 44100, 
          "bitDepth" : 16, 
          "numChannels" : 1, 
          "integratedLUFS" : -14.7410979235935, 
          "peakLevel" : 0.595733642578125, 
          "metaData" : "C03-S01-01.wav;", 
          "parameters" : {
          }
        }
      ], 
      "metadata" : {
        "timeAdded" : "20250310T144756.394843"
      }
    }, 
    {
      "id" : 40, 
      "src" : "./media/1750852176.624958/c05-s01.mp4", 
      "rect" : [0, 0, 1920, 1080], 
      "lastMod" : "20250312T170824", 
      "loudnessNormalization" : true, 
      "sourceTracks" : [
        {
          "range" : [0, 9100], 
          "type" : 0, 
          "editRate" : 1000, 
          "trackRect" : [0, 0, 1920, 1080], 
          "sampleRate" : 30, 
          "bitDepth" : 0, 
          "numChannels" : 0, 
          "integratedLUFS" : 100.0, 
          "peakLevel" : -1.0, 
          "metaData" : "c05-s01.mp4;", 
          "parameters" : {
          }
        }
      ], 
      "metadata" : {
        "timeAdded" : "20250310T162606.968742"
      }
    }, 
    {
      "id" : 41, 
      "src" : "./media/1750852176.625137/c05-s02.mp4", 
      "rect" : [0, 0, 1920, 1080], 
      "lastMod" : "20250312T170824", 
      "loudnessNormalization" : true, 
      "sourceTracks" : [
        {
          "range" : [0, 9634], 
          "type" : 0, 
          "editRate" : 1000, 
          "trackRect" : [0, 0, 1920, 1080], 
          "sampleRate" : 30, 
          "bitDepth" : 0, 
          "numChannels" : 0, 
          "integratedLUFS" : 100.0, 
          "peakLevel" : -1.0, 
          "metaData" : "c05-s02.mp4;", 
          "parameters" : {
          }
        }
      ], 
      "metadata" : {
        "timeAdded" : "20250310T162615.681029"
      }
    }, 
    {
      "id" : 42, 
      "src" : "./media/1750852176.625502/c07-s01.mp4", 
      "rect" : [0, 0, 1920, 1080], 
      "lastMod" : "20250312T170824", 
      "loudnessNormalization" : true, 
      "sourceTracks" : [
        {
          "range" : [0, 16000], 
          "type" : 0, 
          "editRate" : 1000, 
          "trackRect" : [0, 0, 1920, 1080], 
          "sampleRate" : 30, 
          "bitDepth" : 0, 
          "numChannels" : 0, 
          "integratedLUFS" : 100.0, 
          "peakLevel" : -1.0, 
          "metaData" : "c07-s01.mp4;", 
          "parameters" : {
          }
        }, 
        {
          "range" : [0, 15929], 
          "type" : 2, 
          "editRate" : 1000, 
          "trackRect" : [0, 0, 0, 0], 
          "sampleRate" : 44100, 
          "bitDepth" : 0, 
          "numChannels" : 2, 
          "integratedLUFS" : -1.79769313486232e+308, 
          "peakLevel" : 0.0, 
          "metaData" : "c07-s01.mp4;", 
          "parameters" : {
          }
        }
      ], 
      "metadata" : {
        "timeAdded" : "20250311T085428.816538"
      }
    }, 
    {
      "id" : 43, 
      "src" : "./media/1750852176.625755/C01-S02-02.wav", 
      "rect" : [0, 0, 0, 0], 
      "lastMod" : "20250312T170824", 
      "loudnessNormalization" : true, 
      "sourceTracks" : [
        {
          "range" : [0, 150970], 
          "type" : 2, 
          "editRate" : 44100, 
          "trackRect" : [0, 0, 0, 0], 
          "sampleRate" : 44100, 
          "bitDepth" : 16, 
          "numChannels" : 1, 
          "integratedLUFS" : -15.892580441667, 
          "peakLevel" : 0.54083251953125, 
          "metaData" : "C01-S02-02.wav;", 
          "parameters" : {
          }
        }
      ], 
      "metadata" : {
        "timeAdded" : "20250311T091411.829348"
      }
    }, 
    {
      "id" : 44, 
      "src" : "./media/1750852176.626087/C03-S02-01.wav", 
      "rect" : [0, 0, 0, 0], 
      "lastMod" : "20250312T170824", 
      "loudnessNormalization" : true, 
      "sourceTracks" : [
        {
          "range" : [0, 124618], 
          "type" : 2, 
          "editRate" : 44100, 
          "trackRect" : [0, 0, 0, 0], 
          "sampleRate" : 44100, 
          "bitDepth" : 16, 
          "numChannels" : 1, 
          "integratedLUFS" : -15.7014540287467, 
          "peakLevel" : 0.5699462890625, 
          "metaData" : "C03-S02-01.wav;", 
          "parameters" : {
          }
        }
      ], 
      "metadata" : {
        "timeAdded" : "20250311T093043.168369"
      }
    }, 
    {
      "id" : 45, 
      "src" : "./media/1750852176.626281/C03-S02-02.wav", 
      "rect" : [0, 0, 0, 0], 
      "lastMod" : "20250312T170824", 
      "loudnessNormalization" : true, 
      "sourceTracks" : [
        {
          "range" : [0, 109196], 
          "type" : 2, 
          "editRate" : 44100, 
          "trackRect" : [0, 0, 0, 0], 
          "sampleRate" : 44100, 
          "bitDepth" : 16, 
          "numChannels" : 1, 
          "integratedLUFS" : -15.7134202257629, 
          "peakLevel" : 0.59637451171875, 
          "metaData" : "C03-S02-02.wav;", 
          "parameters" : {
          }
        }
      ], 
      "metadata" : {
        "timeAdded" : "20250311T093143.670490"
      }
    }, 
    {
      "id" : 46, 
      "src" : "./media/1750852176.626477/C03-S02-03.wav", 
      "rect" : [0, 0, 0, 0], 
      "lastMod" : "20250312T170824", 
      "loudnessNormalization" : true, 
      "sourceTracks" : [
        {
          "range" : [0, 204177], 
          "type" : 2, 
          "editRate" : 44100, 
          "trackRect" : [0, 0, 0, 0], 
          "sampleRate" : 44100, 
          "bitDepth" : 16, 
          "numChannels" : 1, 
          "integratedLUFS" : -15.5918606897591, 
          "peakLevel" : 0.5855712890625, 
          "metaData" : "C03-S02-03.wav;", 
          "parameters" : {
          }
        }
      ], 
      "metadata" : {
        "timeAdded" : "20250311T093201.377941"
      }
    }, 
    {
      "id" : 47, 
      "src" : "./media/1750852176.626665/C03-S04-01.wav", 
      "rect" : [0, 0, 0, 0], 
      "lastMod" : "20250312T170824", 
      "loudnessNormalization" : true, 
      "sourceTracks" : [
        {
          "range" : [0, 111623], 
          "type" : 2, 
          "editRate" : 44100, 
          "trackRect" : [0, 0, 0, 0], 
          "sampleRate" : 44100, 
          "bitDepth" : 16, 
          "numChannels" : 1, 
          "integratedLUFS" : -15.5598442193459, 
          "peakLevel" : 0.647186279296875, 
          "metaData" : "C03-S04-01.wav;", 
          "parameters" : {
          }
        }
      ], 
      "metadata" : {
        "timeAdded" : "20250311T093955.512996"
      }
    }, 
    {
      "id" : 48, 
      "src" : "./media/1750852176.627002/C03-S04-02.wav", 
      "rect" : [0, 0, 0, 0], 
      "lastMod" : "20250312T170824", 
      "loudnessNormalization" : true, 
      "sourceTracks" : [
        {
          "range" : [0, 143739], 
          "type" : 2, 
          "editRate" : 44100, 
          "trackRect" : [0, 0, 0, 0], 
          "sampleRate" : 44100, 
          "bitDepth" : 16, 
          "numChannels" : 1, 
          "integratedLUFS" : -15.739083962693, 
          "peakLevel" : 0.576263427734375, 
          "metaData" : "C03-S04-02.wav;", 
          "parameters" : {
          }
        }
      ], 
      "metadata" : {
        "timeAdded" : "20250311T094001.615564"
      }
    }, 
    {
      "id" : 49, 
      "src" : "./media/1750852176.627327/C04-S02-01.wav", 
      "rect" : [0, 0, 0, 0], 
      "lastMod" : "20250312T170824", 
      "loudnessNormalization" : true, 
      "sourceTracks" : [
        {
          "range" : [0, 66077], 
          "type" : 2, 
          "editRate" : 44100, 
          "trackRect" : [0, 0, 0, 0], 
          "sampleRate" : 44100, 
          "bitDepth" : 16, 
          "numChannels" : 1, 
          "integratedLUFS" : -15.7332095336864, 
          "peakLevel" : 0.468048095703125, 
          "metaData" : "C04-S02-01.wav;", 
          "parameters" : {
          }
        }
      ], 
      "metadata" : {
        "timeAdded" : "20250311T094642.433822"
      }
    }, 
    {
      "id" : 50, 
      "src" : "./media/1750852176.627520/C04-S02-02.wav", 
      "rect" : [0, 0, 0, 0], 
      "lastMod" : "20250312T170825", 
      "loudnessNormalization" : true, 
      "sourceTracks" : [
        {
          "range" : [0, 127662], 
          "type" : 2, 
          "editRate" : 44100, 
          "trackRect" : [0, 0, 0, 0], 
          "sampleRate" : 44100, 
          "bitDepth" : 16, 
          "numChannels" : 1, 
          "integratedLUFS" : -14.6126888775304, 
          "peakLevel" : 0.53173828125, 
          "metaData" : "C04-S02-02.wav;", 
          "parameters" : {
          }
        }
      ], 
      "metadata" : {
        "timeAdded" : "20250311T094648.375675"
      }
    }, 
    {
      "id" : 51, 
      "src" : "./media/1750852176.627699/C04-S02-03.wav", 
      "rect" : [0, 0, 0, 0], 
      "lastMod" : "20250312T170825", 
      "loudnessNormalization" : true, 
      "sourceTracks" : [
        {
          "range" : [0, 313979], 
          "type" : 2, 
          "editRate" : 44100, 
          "trackRect" : [0, 0, 0, 0], 
          "sampleRate" : 44100, 
          "bitDepth" : 16, 
          "numChannels" : 1, 
          "integratedLUFS" : -15.7674760457384, 
          "peakLevel" : 0.53363037109375, 
          "metaData" : "C04-S02-03.wav;", 
          "parameters" : {
          }
        }
      ], 
      "metadata" : {
        "timeAdded" : "20250311T094652.915177"
      }
    }, 
    {
      "id" : 52, 
      "src" : "./media/1750852176.628028/C06-S01-03.wav", 
      "rect" : [0, 0, 0, 0], 
      "lastMod" : "20250312T170825", 
      "loudnessNormalization" : true, 
      "sourceTracks" : [
        {
          "range" : [0, 310730], 
          "type" : 2, 
          "editRate" : 44100, 
          "trackRect" : [0, 0, 0, 0], 
          "sampleRate" : 44100, 
          "bitDepth" : 16, 
          "numChannels" : 1, 
          "integratedLUFS" : -16.2451380921358, 
          "peakLevel" : 0.622528076171875, 
          "metaData" : "C06-S01-03.wav;", 
          "parameters" : {
          }
        }
      ], 
      "metadata" : {
        "timeAdded" : "20250311T123045.296290"
      }
    }, 
    {
      "id" : 53, 
      "src" : "./media/1750852176.628377/C06-S02-02.wav", 
      "rect" : [0, 0, 0, 0], 
      "lastMod" : "20250312T170825", 
      "loudnessNormalization" : true, 
      "sourceTracks" : [
        {
          "range" : [0, 354656], 
          "type" : 2, 
          "editRate" : 44100, 
          "trackRect" : [0, 0, 0, 0], 
          "sampleRate" : 44100, 
          "bitDepth" : 16, 
          "numChannels" : 1, 
          "integratedLUFS" : -15.1850965575147, 
          "peakLevel" : 0.687103271484375, 
          "metaData" : "C06-S02-02.wav;", 
          "parameters" : {
          }
        }
      ], 
      "metadata" : {
        "timeAdded" : "20250311T123412.685807"
      }
    }, 
    {
      "id" : 54, 
      "src" : "./media/1750852176.628565/C01-S01-01.wav", 
      "rect" : [0, 0, 0, 0], 
      "lastMod" : "20250312T170825", 
      "loudnessNormalization" : true, 
      "sourceTracks" : [
        {
          "range" : [0, 116084], 
          "type" : 2, 
          "editRate" : 44100, 
          "trackRect" : [0, 0, 0, 0], 
          "sampleRate" : 44100, 
          "bitDepth" : 16, 
          "numChannels" : 1, 
          "integratedLUFS" : -15.1413447958396, 
          "peakLevel" : 0.50238037109375, 
          "metaData" : "C01-S01-01.wav;", 
          "parameters" : {
          }
        }
      ], 
      "metadata" : {
        "timeAdded" : "20250311T130202.105278"
      }
    }, 
    {
      "id" : 55, 
      "src" : "./media/1750852176.628760/C01-S02-02.wav", 
      "rect" : [0, 0, 0, 0], 
      "lastMod" : "20250312T170825", 
      "loudnessNormalization" : true, 
      "sourceTracks" : [
        {
          "range" : [0, 134456], 
          "type" : 2, 
          "editRate" : 44100, 
          "trackRect" : [0, 0, 0, 0], 
          "sampleRate" : 44100, 
          "bitDepth" : 16, 
          "numChannels" : 1, 
          "integratedLUFS" : -15.0666192963449, 
          "peakLevel" : 0.519012451171875, 
          "metaData" : "C01-S02-02.wav;", 
          "parameters" : {
          }
        }
      ], 
      "metadata" : {
        "timeAdded" : "20250311T130249.840087"
      }
    }, 
    {
      "id" : 56, 
      "src" : "./media/1750852176.629070/C01-S03-01.wav", 
      "rect" : [0, 0, 0, 0], 
      "lastMod" : "20250312T170825", 
      "loudnessNormalization" : true, 
      "sourceTracks" : [
        {
          "range" : [0, 194341], 
          "type" : 2, 
          "editRate" : 44100, 
          "trackRect" : [0, 0, 0, 0], 
          "sampleRate" : 44100, 
          "bitDepth" : 16, 
          "numChannels" : 1, 
          "integratedLUFS" : -15.2218299290707, 
          "peakLevel" : 0.561126708984375, 
          "metaData" : "C01-S03-01.wav;", 
          "parameters" : {
          }
        }
      ], 
      "metadata" : {
        "timeAdded" : "20250311T130839.099376"
      }
    }, 
    {
      "id" : 57, 
      "src" : "./media/1750852176.629261/C01-S03-02.wav", 
      "rect" : [0, 0, 0, 0], 
      "lastMod" : "20250312T170825", 
      "loudnessNormalization" : true, 
      "sourceTracks" : [
        {
          "range" : [0, 64864], 
          "type" : 2, 
          "editRate" : 44100, 
          "trackRect" : [0, 0, 0, 0], 
          "sampleRate" : 44100, 
          "bitDepth" : 16, 
          "numChannels" : 1, 
          "integratedLUFS" : -15.9167356782531, 
          "peakLevel" : 0.49200439453125, 
          "metaData" : "C01-S03-02.wav;", 
          "parameters" : {
          }
        }
      ], 
      "metadata" : {
        "timeAdded" : "20250311T130942.313191"
      }
    }, 
    {
      "id" : 58, 
      "src" : "./media/1750852176.629436/C01-S04-01.wav", 
      "rect" : [0, 0, 0, 0], 
      "lastMod" : "20250312T170825", 
      "loudnessNormalization" : true, 
      "sourceTracks" : [
        {
          "range" : [0, 182308], 
          "type" : 2, 
          "editRate" : 44100, 
          "trackRect" : [0, 0, 0, 0], 
          "sampleRate" : 44100, 
          "bitDepth" : 16, 
          "numChannels" : 1, 
          "integratedLUFS" : -14.9768820363526, 
          "peakLevel" : 0.500091552734375, 
          "metaData" : "C01-S04-01.wav;", 
          "parameters" : {
          }
        }
      ], 
      "metadata" : {
        "timeAdded" : "20250311T131124.547286"
      }
    }, 
    {
      "id" : 59, 
      "src" : "./media/1750852176.629625/C01-S04-02.wav", 
      "rect" : [0, 0, 0, 0], 
      "lastMod" : "20250312T170825", 
      "loudnessNormalization" : true, 
      "sourceTracks" : [
        {
          "range" : [0, 72745], 
          "type" : 2, 
          "editRate" : 44100, 
          "trackRect" : [0, 0, 0, 0], 
          "sampleRate" : 44100, 
          "bitDepth" : 16, 
          "numChannels" : 1, 
          "integratedLUFS" : -15.1975162722985, 
          "peakLevel" : 0.515045166015625, 
          "metaData" : "C01-S04-02.wav;", 
          "parameters" : {
          }
        }
      ], 
      "metadata" : {
        "timeAdded" : "20250311T131213.294187"
      }
    }, 
    {
      "id" : 60, 
      "src" : "./media/1750852176.629823/C01-S04-03.wav", 
      "rect" : [0, 0, 0, 0], 
      "lastMod" : "20250312T170825", 
      "loudnessNormalization" : true, 
      "sourceTracks" : [
        {
          "range" : [0, 115435], 
          "type" : 2, 
          "editRate" : 44100, 
          "trackRect" : [0, 0, 0, 0], 
          "sampleRate" : 44100, 
          "bitDepth" : 16, 
          "numChannels" : 1, 
          "integratedLUFS" : -15.0204553250812, 
          "peakLevel" : 0.529571533203125, 
          "metaData" : "C01-S04-03.wav;", 
          "parameters" : {
          }
        }
      ], 
      "metadata" : {
        "timeAdded" : "20250311T131525.614450"
      }
    }, 
    {
      "id" : 61, 
      "src" : "./media/1750852176.630018/C01-S04-04.wav", 
      "rect" : [0, 0, 0, 0], 
      "lastMod" : "20250312T170825", 
      "loudnessNormalization" : true, 
      "sourceTracks" : [
        {
          "range" : [0, 117794], 
          "type" : 2, 
          "editRate" : 44100, 
          "trackRect" : [0, 0, 0, 0], 
          "sampleRate" : 44100, 
          "bitDepth" : 16, 
          "numChannels" : 1, 
          "integratedLUFS" : -15.2402352656079, 
          "peakLevel" : 0.640350341796875, 
          "metaData" : "C01-S04-04.wav;", 
          "parameters" : {
          }
        }
      ], 
      "metadata" : {
        "timeAdded" : "20250311T131530.592909"
      }
    }, 
    {
      "id" : 62, 
      "src" : "./media/1750852176.630233/C02-S01-01.wav", 
      "rect" : [0, 0, 0, 0], 
      "lastMod" : "20250312T170825", 
      "loudnessNormalization" : true, 
      "sourceTracks" : [
        {
          "range" : [0, 132976], 
          "type" : 2, 
          "editRate" : 44100, 
          "trackRect" : [0, 0, 0, 0], 
          "sampleRate" : 44100, 
          "bitDepth" : 16, 
          "numChannels" : 1, 
          "integratedLUFS" : -14.9369505383725, 
          "peakLevel" : 0.53009033203125, 
          "metaData" : "C02-S01-01.wav;", 
          "parameters" : {
          }
        }
      ], 
      "metadata" : {
        "timeAdded" : "20250311T131919.478249"
      }
    }, 
    {
      "id" : 63, 
      "src" : "./media/1750852176.630414/C02-S01-02.wav", 
      "rect" : [0, 0, 0, 0], 
      "lastMod" : "20250312T170825", 
      "loudnessNormalization" : true, 
      "sourceTracks" : [
        {
          "range" : [0, 94698], 
          "type" : 2, 
          "editRate" : 44100, 
          "trackRect" : [0, 0, 0, 0], 
          "sampleRate" : 44100, 
          "bitDepth" : 16, 
          "numChannels" : 1, 
          "integratedLUFS" : -15.2497083052105, 
          "peakLevel" : 0.53900146484375, 
          "metaData" : "C02-S01-02.wav;", 
          "parameters" : {
          }
        }
      ], 
      "metadata" : {
        "timeAdded" : "20250311T131928.262021"
      }
    }, 
    {
      "id" : 64, 
      "src" : "./media/1750852176.630748/C02-S01-03.wav", 
      "rect" : [0, 0, 0, 0], 
      "lastMod" : "20250312T170825", 
      "loudnessNormalization" : true, 
      "sourceTracks" : [
        {
          "range" : [0, 58644], 
          "type" : 2, 
          "editRate" : 44100, 
          "trackRect" : [0, 0, 0, 0], 
          "sampleRate" : 44100, 
          "bitDepth" : 16, 
          "numChannels" : 1, 
          "integratedLUFS" : -13.8059798385243, 
          "peakLevel" : 0.483154296875, 
          "metaData" : "C02-S01-03.wav;", 
          "parameters" : {
          }
        }
      ], 
      "metadata" : {
        "timeAdded" : "20250311T131934.817004"
      }
    }, 
    {
      "id" : 65, 
      "src" : "./media/1750852176.631083/C02-S01-04.wav", 
      "rect" : [0, 0, 0, 0], 
      "lastMod" : "20250312T170825", 
      "loudnessNormalization" : true, 
      "sourceTracks" : [
        {
          "range" : [0, 121532], 
          "type" : 2, 
          "editRate" : 44100, 
          "trackRect" : [0, 0, 0, 0], 
          "sampleRate" : 44100, 
          "bitDepth" : 16, 
          "numChannels" : 1, 
          "integratedLUFS" : -15.3432395430103, 
          "peakLevel" : 0.639892578125, 
          "metaData" : "C02-S01-04.wav;", 
          "parameters" : {
          }
        }
      ], 
      "metadata" : {
        "timeAdded" : "20250311T131941.391304"
      }
    }, 
    {
      "id" : 66, 
      "src" : "./media/1750852176.631269/C03-S01-01.wav", 
      "rect" : [0, 0, 0, 0], 
      "lastMod" : "20250312T170825", 
      "loudnessNormalization" : true, 
      "sourceTracks" : [
        {
          "range" : [0, 138356], 
          "type" : 2, 
          "editRate" : 44100, 
          "trackRect" : [0, 0, 0, 0], 
          "sampleRate" : 44100, 
          "bitDepth" : 16, 
          "numChannels" : 1, 
          "integratedLUFS" : -15.647325239517, 
          "peakLevel" : 0.521484375, 
          "metaData" : "C03-S01-01.wav;", 
          "parameters" : {
          }
        }
      ], 
      "metadata" : {
        "timeAdded" : "20250311T132137.193356"
      }
    }, 
    {
      "id" : 67, 
      "src" : "./media/1750852176.631455/C03-S02-01.wav", 
      "rect" : [0, 0, 0, 0], 
      "lastMod" : "20250312T170825", 
      "loudnessNormalization" : true, 
      "sourceTracks" : [
        {
          "range" : [0, 109800], 
          "type" : 2, 
          "editRate" : 44100, 
          "trackRect" : [0, 0, 0, 0], 
          "sampleRate" : 44100, 
          "bitDepth" : 16, 
          "numChannels" : 1, 
          "integratedLUFS" : -15.906919351813, 
          "peakLevel" : 0.535308837890625, 
          "metaData" : "C03-S02-01.wav;", 
          "parameters" : {
          }
        }
      ], 
      "metadata" : {
        "timeAdded" : "20250311T132230.031235"
      }
    }, 
    {
      "id" : 68, 
      "src" : "./media/1750852176.631672/C03-S02-02.wav", 
      "rect" : [0, 0, 0, 0], 
      "lastMod" : "20250312T170825", 
      "loudnessNormalization" : true, 
      "sourceTracks" : [
        {
          "range" : [0, 80695], 
          "type" : 2, 
          "editRate" : 44100, 
          "trackRect" : [0, 0, 0, 0], 
          "sampleRate" : 44100, 
          "bitDepth" : 16, 
          "numChannels" : 1, 
          "integratedLUFS" : -15.8255266076145, 
          "peakLevel" : 0.45556640625, 
          "metaData" : "C03-S02-02.wav;", 
          "parameters" : {
          }
        }
      ], 
      "metadata" : {
        "timeAdded" : "20250311T132334.093715"
      }
    }, 
    {
      "id" : 69, 
      "src" : "./media/1750852176.631897/C03-S02-03.wav", 
      "rect" : [0, 0, 0, 0], 
      "lastMod" : "20250312T170825", 
      "loudnessNormalization" : true, 
      "sourceTracks" : [
        {
          "range" : [0, 162410], 
          "type" : 2, 
          "editRate" : 44100, 
          "trackRect" : [0, 0, 0, 0], 
          "sampleRate" : 44100, 
          "bitDepth" : 16, 
          "numChannels" : 1, 
          "integratedLUFS" : -15.2878014221826, 
          "peakLevel" : 0.591217041015625, 
          "metaData" : "C03-S02-03.wav;", 
          "parameters" : {
          }
        }
      ], 
      "metadata" : {
        "timeAdded" : "20250311T132437.729170"
      }
    }, 
    {
      "id" : 70, 
      "src" : "./media/1750852176.632089/C03-S03-01.wav", 
      "rect" : [0, 0, 0, 0], 
      "lastMod" : "20250312T170826", 
      "loudnessNormalization" : true, 
      "sourceTracks" : [
        {
          "range" : [0, 112688], 
          "type" : 2, 
          "editRate" : 44100, 
          "trackRect" : [0, 0, 0, 0], 
          "sampleRate" : 44100, 
          "bitDepth" : 16, 
          "numChannels" : 1, 
          "integratedLUFS" : -14.98172243433, 
          "peakLevel" : 0.4801025390625, 
          "metaData" : "C03-S03-01.wav;", 
          "parameters" : {
          }
        }
      ], 
      "metadata" : {
        "timeAdded" : "20250311T132801.958100"
      }
    }, 
    {
      "id" : 71, 
      "src" : "./media/1750852176.632288/C03-S03-02.wav", 
      "rect" : [0, 0, 0, 0], 
      "lastMod" : "20250312T170826", 
      "loudnessNormalization" : true, 
      "sourceTracks" : [
        {
          "range" : [0, 141471], 
          "type" : 2, 
          "editRate" : 44100, 
          "trackRect" : [0, 0, 0, 0], 
          "sampleRate" : 44100, 
          "bitDepth" : 16, 
          "numChannels" : 1, 
          "integratedLUFS" : -14.5013109904222, 
          "peakLevel" : 0.52789306640625, 
          "metaData" : "C03-S03-02.wav;", 
          "parameters" : {
          }
        }
      ], 
      "metadata" : {
        "timeAdded" : "20250311T132808.911390"
      }
    }, 
    {
      "id" : 72, 
      "src" : "./media/1750852176.632469/C03-S04-01.wav", 
      "rect" : [0, 0, 0, 0], 
      "lastMod" : "20250312T170826", 
      "loudnessNormalization" : true, 
      "sourceTracks" : [
        {
          "range" : [0, 80398], 
          "type" : 2, 
          "editRate" : 44100, 
          "trackRect" : [0, 0, 0, 0], 
          "sampleRate" : 44100, 
          "bitDepth" : 16, 
          "numChannels" : 1, 
          "integratedLUFS" : -15.7680621343398, 
          "peakLevel" : 0.5145263671875, 
          "metaData" : "C03-S04-01.wav;", 
          "parameters" : {
          }
        }
      ], 
      "metadata" : {
        "timeAdded" : "20250311T133606.892450"
      }
    }, 
    {
      "id" : 73, 
      "src" : "./media/1750852176.632684/C03-S04-02.wav", 
      "rect" : [0, 0, 0, 0], 
      "lastMod" : "20250312T170826", 
      "loudnessNormalization" : true, 
      "sourceTracks" : [
        {
          "range" : [0, 132438], 
          "type" : 2, 
          "editRate" : 44100, 
          "trackRect" : [0, 0, 0, 0], 
          "sampleRate" : 44100, 
          "bitDepth" : 16, 
          "numChannels" : 1, 
          "integratedLUFS" : -15.4251561297688, 
          "peakLevel" : 0.558013916015625, 
          "metaData" : "C03-S04-02.wav;", 
          "parameters" : {
          }
        }
      ], 
      "metadata" : {
        "timeAdded" : "20250311T133658.658568"
      }
    }, 
    {
      "id" : 74, 
      "src" : "./media/1750852176.632874/C04-S01-01.wav", 
      "rect" : [0, 0, 0, 0], 
      "lastMod" : "20250312T170826", 
      "loudnessNormalization" : true, 
      "sourceTracks" : [
        {
          "range" : [0, 136796], 
          "type" : 2, 
          "editRate" : 44100, 
          "trackRect" : [0, 0, 0, 0], 
          "sampleRate" : 44100, 
          "bitDepth" : 16, 
          "numChannels" : 1, 
          "integratedLUFS" : -15.7810116232603, 
          "peakLevel" : 0.49908447265625, 
          "metaData" : "C04-S01-01.wav;", 
          "parameters" : {
          }
        }
      ], 
      "metadata" : {
        "timeAdded" : "20250311T133821.019376"
      }
    }, 
    {
      "id" : 75, 
      "src" : "./media/1750852176.633062/C04-S02-01.wav", 
      "rect" : [0, 0, 0, 0], 
      "lastMod" : "20250312T170826", 
      "loudnessNormalization" : true, 
      "sourceTracks" : [
        {
          "range" : [0, 74668], 
          "type" : 2, 
          "editRate" : 44100, 
          "trackRect" : [0, 0, 0, 0], 
          "sampleRate" : 44100, 
          "bitDepth" : 16, 
          "numChannels" : 1, 
          "integratedLUFS" : -14.094511091493, 
          "peakLevel" : 0.508209228515625, 
          "metaData" : "C04-S02-01.wav;", 
          "parameters" : {
          }
        }
      ], 
      "metadata" : {
        "timeAdded" : "20250311T133933.419742"
      }
    }, 
    {
      "id" : 76, 
      "src" : "./media/1750852176.633470/C04-S02-02.wav", 
      "rect" : [0, 0, 0, 0], 
      "lastMod" : "20250312T170826", 
      "loudnessNormalization" : true, 
      "sourceTracks" : [
        {
          "range" : [0, 129850], 
          "type" : 2, 
          "editRate" : 44100, 
          "trackRect" : [0, 0, 0, 0], 
          "sampleRate" : 44100, 
          "bitDepth" : 16, 
          "numChannels" : 1, 
          "integratedLUFS" : -14.9413281180235, 
          "peakLevel" : 0.527069091796875, 
          "metaData" : "C04-S02-02.wav;", 
          "parameters" : {
          }
        }
      ], 
      "metadata" : {
        "timeAdded" : "20250311T134021.592159"
      }
    }, 
    {
      "id" : 77, 
      "src" : "./media/1750852176.633651/C04-S02-03.wav", 
      "rect" : [0, 0, 0, 0], 
      "lastMod" : "20250312T170826", 
      "loudnessNormalization" : true, 
      "sourceTracks" : [
        {
          "range" : [0, 284148], 
          "type" : 2, 
          "editRate" : 44100, 
          "trackRect" : [0, 0, 0, 0], 
          "sampleRate" : 44100, 
          "bitDepth" : 16, 
          "numChannels" : 1, 
          "integratedLUFS" : -15.5043774092498, 
          "peakLevel" : 0.89996337890625, 
          "metaData" : "C04-S02-03.wav;", 
          "parameters" : {
          }
        }
      ], 
      "metadata" : {
        "timeAdded" : "20250311T134142.136523"
      }
    }, 
    {
      "id" : 78, 
      "src" : "./media/1750852176.633840/C04-S03-01.wav", 
      "rect" : [0, 0, 0, 0], 
      "lastMod" : "20250312T170826", 
      "loudnessNormalization" : true, 
      "sourceTracks" : [
        {
          "range" : [0, 63642], 
          "type" : 2, 
          "editRate" : 44100, 
          "trackRect" : [0, 0, 0, 0], 
          "sampleRate" : 44100, 
          "bitDepth" : 16, 
          "numChannels" : 1, 
          "integratedLUFS" : -14.0125809527749, 
          "peakLevel" : 0.539886474609375, 
          "metaData" : "C04-S03-01.wav;", 
          "parameters" : {
          }
        }
      ], 
      "metadata" : {
        "timeAdded" : "20250311T134345.654863"
      }
    }, 
    {
      "id" : 79, 
      "src" : "./media/1750852176.634038/C04-S03-02.wav", 
      "rect" : [0, 0, 0, 0], 
      "lastMod" : "20250312T170826", 
      "loudnessNormalization" : true, 
      "sourceTracks" : [
        {
          "range" : [0, 211014], 
          "type" : 2, 
          "editRate" : 44100, 
          "trackRect" : [0, 0, 0, 0], 
          "sampleRate" : 44100, 
          "bitDepth" : 16, 
          "numChannels" : 1, 
          "integratedLUFS" : -15.1760937928928, 
          "peakLevel" : 0.559234619140625, 
          "metaData" : "C04-S03-02.wav;", 
          "parameters" : {
          }
        }
      ], 
      "metadata" : {
        "timeAdded" : "20250311T134354.000230"
      }
    }, 
    {
      "id" : 80, 
      "src" : "./media/1750852176.634357/C04-S04-01.wav", 
      "rect" : [0, 0, 0, 0], 
      "lastMod" : "20250312T170826", 
      "loudnessNormalization" : true, 
      "sourceTracks" : [
        {
          "range" : [0, 64017], 
          "type" : 2, 
          "editRate" : 44100, 
          "trackRect" : [0, 0, 0, 0], 
          "sampleRate" : 44100, 
          "bitDepth" : 16, 
          "numChannels" : 1, 
          "integratedLUFS" : -15.0859746840825, 
          "peakLevel" : 0.47674560546875, 
          "metaData" : "C04-S04-01.wav;", 
          "parameters" : {
          }
        }
      ], 
      "metadata" : {
        "timeAdded" : "20250311T134537.353332"
      }
    }, 
    {
      "id" : 81, 
      "src" : "./media/1750852176.634543/C04-S04-02.wav", 
      "rect" : [0, 0, 0, 0], 
      "lastMod" : "20250312T170826", 
      "loudnessNormalization" : true, 
      "sourceTracks" : [
        {
          "range" : [0, 247424], 
          "type" : 2, 
          "editRate" : 44100, 
          "trackRect" : [0, 0, 0, 0], 
          "sampleRate" : 44100, 
          "bitDepth" : 16, 
          "numChannels" : 1, 
          "integratedLUFS" : -16.285327753932, 
          "peakLevel" : 0.78436279296875, 
          "metaData" : "C04-S04-02.wav;", 
          "parameters" : {
          }
        }
      ], 
      "metadata" : {
        "timeAdded" : "20250311T134546.200463"
      }
    }, 
    {
      "id" : 82, 
      "src" : "./media/1750852176.634743/C04-S05-01.wav", 
      "rect" : [0, 0, 0, 0], 
      "lastMod" : "20250312T170826", 
      "loudnessNormalization" : true, 
      "sourceTracks" : [
        {
          "range" : [0, 66228], 
          "type" : 2, 
          "editRate" : 44100, 
          "trackRect" : [0, 0, 0, 0], 
          "sampleRate" : 44100, 
          "bitDepth" : 16, 
          "numChannels" : 1, 
          "integratedLUFS" : -15.6066676256813, 
          "peakLevel" : 0.54156494140625, 
          "metaData" : "C04-S05-01.wav;", 
          "parameters" : {
          }
        }
      ], 
      "metadata" : {
        "timeAdded" : "20250311T134738.149435"
      }
    }, 
    {
      "id" : 83, 
      "src" : "./media/1750852176.634921/C04-S05-02.wav", 
      "rect" : [0, 0, 0, 0], 
      "lastMod" : "20250312T170826", 
      "loudnessNormalization" : true, 
      "sourceTracks" : [
        {
          "range" : [0, 170522], 
          "type" : 2, 
          "editRate" : 44100, 
          "trackRect" : [0, 0, 0, 0], 
          "sampleRate" : 44100, 
          "bitDepth" : 16, 
          "numChannels" : 1, 
          "integratedLUFS" : -14.7398175648106, 
          "peakLevel" : 0.579193115234375, 
          "metaData" : "C04-S05-02.wav;", 
          "parameters" : {
          }
        }
      ], 
      "metadata" : {
        "timeAdded" : "20250311T134742.378044"
      }
    }, 
    {
      "id" : 84, 
      "src" : "./media/1750852176.635227/C04-S06-01.wav", 
      "rect" : [0, 0, 0, 0], 
      "lastMod" : "20250312T170826", 
      "loudnessNormalization" : true, 
      "sourceTracks" : [
        {
          "range" : [0, 65070], 
          "type" : 2, 
          "editRate" : 44100, 
          "trackRect" : [0, 0, 0, 0], 
          "sampleRate" : 44100, 
          "bitDepth" : 16, 
          "numChannels" : 1, 
          "integratedLUFS" : -14.6802456779051, 
          "peakLevel" : 0.512115478515625, 
          "metaData" : "C04-S06-01.wav;", 
          "parameters" : {
          }
        }
      ], 
      "metadata" : {
        "timeAdded" : "20250311T134911.562726"
      }
    }, 
    {
      "id" : 85, 
      "src" : "./media/1750852176.635497/C04-S06-02.wav", 
      "rect" : [0, 0, 0, 0], 
      "lastMod" : "20250312T170826", 
      "loudnessNormalization" : true, 
      "sourceTracks" : [
        {
          "range" : [0, 190511], 
          "type" : 2, 
          "editRate" : 44100, 
          "trackRect" : [0, 0, 0, 0], 
          "sampleRate" : 44100, 
          "bitDepth" : 16, 
          "numChannels" : 1, 
          "integratedLUFS" : -15.8046779886645, 
          "peakLevel" : 0.619354248046875, 
          "metaData" : "C04-S06-02.wav;", 
          "parameters" : {
          }
        }
      ], 
      "metadata" : {
        "timeAdded" : "20250311T134917.719225"
      }
    }, 
    {
      "id" : 86, 
      "src" : "./media/1750852176.635623/C04-S07-01.wav", 
      "rect" : [0, 0, 0, 0], 
      "lastMod" : "20250312T170826", 
      "loudnessNormalization" : true, 
      "sourceTracks" : [
        {
          "range" : [0, 109566], 
          "type" : 2, 
          "editRate" : 44100, 
          "trackRect" : [0, 0, 0, 0], 
          "sampleRate" : 44100, 
          "bitDepth" : 16, 
          "numChannels" : 1, 
          "integratedLUFS" : -15.4227624755786, 
          "peakLevel" : 0.524871826171875, 
          "metaData" : "C04-S07-01.wav;", 
          "parameters" : {
          }
        }
      ], 
      "metadata" : {
        "timeAdded" : "20250311T135116.326813"
      }
    }, 
    {
      "id" : 87, 
      "src" : "./media/1750852176.635750/C04-S07-02.wav", 
      "rect" : [0, 0, 0, 0], 
      "lastMod" : "20250312T170826", 
      "loudnessNormalization" : true, 
      "sourceTracks" : [
        {
          "range" : [0, 134210], 
          "type" : 2, 
          "editRate" : 44100, 
          "trackRect" : [0, 0, 0, 0], 
          "sampleRate" : 44100, 
          "bitDepth" : 16, 
          "numChannels" : 1, 
          "integratedLUFS" : -14.6979938745407, 
          "peakLevel" : 0.5035400390625, 
          "metaData" : "C04-S07-02.wav;", 
          "parameters" : {
          }
        }
      ], 
      "metadata" : {
        "timeAdded" : "20250311T135120.816476"
      }
    }, 
    {
      "id" : 88, 
      "src" : "./media/1750852176.636095/C05-S01-01.wav", 
      "rect" : [0, 0, 0, 0], 
      "lastMod" : "20250312T170826", 
      "loudnessNormalization" : true, 
      "sourceTracks" : [
        {
          "range" : [0, 112534], 
          "type" : 2, 
          "editRate" : 44100, 
          "trackRect" : [0, 0, 0, 0], 
          "sampleRate" : 44100, 
          "bitDepth" : 16, 
          "numChannels" : 1, 
          "integratedLUFS" : -15.5153448086783, 
          "peakLevel" : 0.510406494140625, 
          "metaData" : "C05-S01-01.wav;", 
          "parameters" : {
          }
        }
      ], 
      "metadata" : {
        "timeAdded" : "20250311T135246.464680"
      }
    }, 
    {
      "id" : 89, 
      "src" : "./media/1750852176.636357/C05-S01-02.wav", 
      "rect" : [0, 0, 0, 0], 
      "lastMod" : "20250312T170827", 
      "loudnessNormalization" : true, 
      "sourceTracks" : [
        {
          "range" : [0, 166774], 
          "type" : 2, 
          "editRate" : 44100, 
          "trackRect" : [0, 0, 0, 0], 
          "sampleRate" : 44100, 
          "bitDepth" : 16, 
          "numChannels" : 1, 
          "integratedLUFS" : -14.826090053222, 
          "peakLevel" : 0.643035888671875, 
          "metaData" : "C05-S01-02.wav;", 
          "parameters" : {
          }
        }
      ], 
      "metadata" : {
        "timeAdded" : "20250311T135356.837633"
      }
    }, 
    {
      "id" : 90, 
      "src" : "./media/1750852176.636489/C05-S02-01.wav", 
      "rect" : [0, 0, 0, 0], 
      "lastMod" : "20250312T170827", 
      "loudnessNormalization" : true, 
      "sourceTracks" : [
        {
          "range" : [0, 121314], 
          "type" : 2, 
          "editRate" : 44100, 
          "trackRect" : [0, 0, 0, 0], 
          "sampleRate" : 44100, 
          "bitDepth" : 16, 
          "numChannels" : 1, 
          "integratedLUFS" : -14.9511060655866, 
          "peakLevel" : 0.508941650390625, 
          "metaData" : "C05-S02-01.wav;", 
          "parameters" : {
          }
        }
      ], 
      "metadata" : {
        "timeAdded" : "20250311T135532.346393"
      }
    }, 
    {
      "id" : 91, 
      "src" : "./media/1750852176.636641/C05-S02-02.wav", 
      "rect" : [0, 0, 0, 0], 
      "lastMod" : "20250312T170827", 
      "loudnessNormalization" : true, 
      "sourceTracks" : [
        {
          "range" : [0, 140567], 
          "type" : 2, 
          "editRate" : 44100, 
          "trackRect" : [0, 0, 0, 0], 
          "sampleRate" : 44100, 
          "bitDepth" : 16, 
          "numChannels" : 1, 
          "integratedLUFS" : -15.2464240345229, 
          "peakLevel" : 0.50927734375, 
          "metaData" : "C05-S02-02.wav;", 
          "parameters" : {
          }
        }
      ], 
      "metadata" : {
        "timeAdded" : "20250311T145646.446546"
      }
    }, 
    {
      "id" : 92, 
      "src" : "./media/1750852176.636839/C05-S02-03.wav", 
      "rect" : [0, 0, 0, 0], 
      "lastMod" : "20250312T170827", 
      "loudnessNormalization" : true, 
      "sourceTracks" : [
        {
          "range" : [0, 75758], 
          "type" : 2, 
          "editRate" : 44100, 
          "trackRect" : [0, 0, 0, 0], 
          "sampleRate" : 44100, 
          "bitDepth" : 16, 
          "numChannels" : 1, 
          "integratedLUFS" : -14.352906835202, 
          "peakLevel" : 0.52874755859375, 
          "metaData" : "C05-S02-03.wav;", 
          "parameters" : {
          }
        }
      ], 
      "metadata" : {
        "timeAdded" : "20250311T145710.751288"
      }
    }, 
    {
      "id" : 93, 
      "src" : "./media/1750852176.637074/C06-S01-01.wav", 
      "rect" : [0, 0, 0, 0], 
      "lastMod" : "20250312T170827", 
      "loudnessNormalization" : true, 
      "sourceTracks" : [
        {
          "range" : [0, 62582], 
          "type" : 2, 
          "editRate" : 44100, 
          "trackRect" : [0, 0, 0, 0], 
          "sampleRate" : 44100, 
          "bitDepth" : 16, 
          "numChannels" : 1, 
          "integratedLUFS" : -16.6792802132254, 
          "peakLevel" : 0.464324951171875, 
          "metaData" : "C06-S01-01.wav;", 
          "parameters" : {
          }
        }
      ], 
      "metadata" : {
        "timeAdded" : "20250311T150029.257451"
      }
    }, 
    {
      "id" : 94, 
      "src" : "./media/1750852176.637312/C06-S01-02.wav", 
      "rect" : [0, 0, 0, 0], 
      "lastMod" : "20250312T170827", 
      "loudnessNormalization" : true, 
      "sourceTracks" : [
        {
          "range" : [0, 39032], 
          "type" : 2, 
          "editRate" : 44100, 
          "trackRect" : [0, 0, 0, 0], 
          "sampleRate" : 44100, 
          "bitDepth" : 16, 
          "numChannels" : 1, 
          "integratedLUFS" : -14.8514587783666, 
          "peakLevel" : 0.57855224609375, 
          "metaData" : "C06-S01-02.wav;", 
          "parameters" : {
          }
        }
      ], 
      "metadata" : {
        "timeAdded" : "20250311T150117.780853"
      }
    }, 
    {
      "id" : 95, 
      "src" : "./media/1750852176.637557/C06-S01-03.wav", 
      "rect" : [0, 0, 0, 0], 
      "lastMod" : "20250312T170827", 
      "loudnessNormalization" : true, 
      "sourceTracks" : [
        {
          "range" : [0, 140973], 
          "type" : 2, 
          "editRate" : 44100, 
          "trackRect" : [0, 0, 0, 0], 
          "sampleRate" : 44100, 
          "bitDepth" : 16, 
          "numChannels" : 1, 
          "integratedLUFS" : -15.0751489365145, 
          "peakLevel" : 0.523193359375, 
          "metaData" : "C06-S01-03.wav;", 
          "parameters" : {
          }
        }
      ], 
      "metadata" : {
        "timeAdded" : "20250311T150325.629866"
      }
    }, 
    {
      "id" : 96, 
      "src" : "./media/1750852176.637679/C06-S01-04.wav", 
      "rect" : [0, 0, 0, 0], 
      "lastMod" : "20250312T170827", 
      "loudnessNormalization" : true, 
      "sourceTracks" : [
        {
          "range" : [0, 119530], 
          "type" : 2, 
          "editRate" : 44100, 
          "trackRect" : [0, 0, 0, 0], 
          "sampleRate" : 44100, 
          "bitDepth" : 16, 
          "numChannels" : 1, 
          "integratedLUFS" : -15.1926209023296, 
          "peakLevel" : 0.50555419921875, 
          "metaData" : "C06-S01-04.wav;", 
          "parameters" : {
          }
        }
      ], 
      "metadata" : {
        "timeAdded" : "20250311T150332.783481"
      }
    }, 
    {
      "id" : 97, 
      "src" : "./media/1750852176.637803/C06-S02-01.wav", 
      "rect" : [0, 0, 0, 0], 
      "lastMod" : "20250312T170827", 
      "loudnessNormalization" : true, 
      "sourceTracks" : [
        {
          "range" : [0, 37211], 
          "type" : 2, 
          "editRate" : 44100, 
          "trackRect" : [0, 0, 0, 0], 
          "sampleRate" : 44100, 
          "bitDepth" : 16, 
          "numChannels" : 1, 
          "integratedLUFS" : -13.8200653729612, 
          "peakLevel" : 0.520263671875, 
          "metaData" : "C06-S02-01.wav;", 
          "parameters" : {
          }
        }
      ], 
      "metadata" : {
        "timeAdded" : "20250311T150445.669600"
      }
    }, 
    {
      "id" : 98, 
      "src" : "./media/1750852176.637958/C06-S02-02.wav", 
      "rect" : [0, 0, 0, 0], 
      "lastMod" : "20250312T170827", 
      "loudnessNormalization" : true, 
      "sourceTracks" : [
        {
          "range" : [0, 159732], 
          "type" : 2, 
          "editRate" : 44100, 
          "trackRect" : [0, 0, 0, 0], 
          "sampleRate" : 44100, 
          "bitDepth" : 16, 
          "numChannels" : 1, 
          "integratedLUFS" : -14.7635853987964, 
          "peakLevel" : 0.524322509765625, 
          "metaData" : "C06-S02-02.wav;", 
          "parameters" : {
          }
        }
      ], 
      "metadata" : {
        "timeAdded" : "20250311T150611.714836"
      }
    }, 
    {
      "id" : 99, 
      "src" : "./media/1750852176.638118/C06-S02-03.wav", 
      "rect" : [0, 0, 0, 0], 
      "lastMod" : "20250312T170827", 
      "loudnessNormalization" : true, 
      "sourceTracks" : [
        {
          "range" : [0, 111225], 
          "type" : 2, 
          "editRate" : 44100, 
          "trackRect" : [0, 0, 0, 0], 
          "sampleRate" : 44100, 
          "bitDepth" : 16, 
          "numChannels" : 1, 
          "integratedLUFS" : -15.4165075656506, 
          "peakLevel" : 0.524749755859375, 
          "metaData" : "C06-S02-03.wav;", 
          "parameters" : {
          }
        }
      ], 
      "metadata" : {
        "timeAdded" : "20250311T150618.692745"
      }
    }, 
    {
      "id" : 100, 
      "src" : "./media/1750852176.638248/C06-S03-01.wav", 
      "rect" : [0, 0, 0, 0], 
      "lastMod" : "20250312T170827", 
      "loudnessNormalization" : true, 
      "sourceTracks" : [
        {
          "range" : [0, 215971], 
          "type" : 2, 
          "editRate" : 44100, 
          "trackRect" : [0, 0, 0, 0], 
          "sampleRate" : 44100, 
          "bitDepth" : 16, 
          "numChannels" : 1, 
          "integratedLUFS" : -15.4953020603962, 
          "peakLevel" : 0.5330810546875, 
          "metaData" : "C06-S03-01.wav;", 
          "parameters" : {
          }
        }
      ], 
      "metadata" : {
        "timeAdded" : "20250311T150825.593787"
      }
    }, 
    {
      "id" : 101, 
      "src" : "./media/1750852176.638412/C06-S03-02.wav", 
      "rect" : [0, 0, 0, 0], 
      "lastMod" : "20250312T170827", 
      "loudnessNormalization" : true, 
      "sourceTracks" : [
        {
          "range" : [0, 98416], 
          "type" : 2, 
          "editRate" : 44100, 
          "trackRect" : [0, 0, 0, 0], 
          "sampleRate" : 44100, 
          "bitDepth" : 16, 
          "numChannels" : 1, 
          "integratedLUFS" : -15.2469963299824, 
          "peakLevel" : 0.51806640625, 
          "metaData" : "C06-S03-02.wav;", 
          "parameters" : {
          }
        }
      ], 
      "metadata" : {
        "timeAdded" : "20250311T150832.959404"
      }
    }, 
    {
      "id" : 102, 
      "src" : "./media/1750852176.638580/C07-S01-01.wav", 
      "rect" : [0, 0, 0, 0], 
      "lastMod" : "20250312T170827", 
      "loudnessNormalization" : true, 
      "sourceTracks" : [
        {
          "range" : [0, 186226], 
          "type" : 2, 
          "editRate" : 44100, 
          "trackRect" : [0, 0, 0, 0], 
          "sampleRate" : 44100, 
          "bitDepth" : 16, 
          "numChannels" : 1, 
          "integratedLUFS" : -15.1813984192669, 
          "peakLevel" : 0.511810302734375, 
          "metaData" : "C07-S01-01.wav;", 
          "parameters" : {
          }
        }
      ], 
      "metadata" : {
        "timeAdded" : "20250311T151028.475039"
      }
    }, 
    {
      "id" : 103, 
      "src" : "./media/1750852176.638709/C07-S01-02.wav", 
      "rect" : [0, 0, 0, 0], 
      "lastMod" : "20250312T170827", 
      "loudnessNormalization" : true, 
      "sourceTracks" : [
        {
          "range" : [0, 112414], 
          "type" : 2, 
          "editRate" : 44100, 
          "trackRect" : [0, 0, 0, 0], 
          "sampleRate" : 44100, 
          "bitDepth" : 16, 
          "numChannels" : 1, 
          "integratedLUFS" : -15.2492959650817, 
          "peakLevel" : 0.462615966796875, 
          "metaData" : "C07-S01-02.wav;", 
          "parameters" : {
          }
        }
      ], 
      "metadata" : {
        "timeAdded" : "20250311T151033.541741"
      }
    }, 
    {
      "id" : 104, 
      "src" : "./media/1750852176.638833/C07-S02-01.wav", 
      "rect" : [0, 0, 0, 0], 
      "lastMod" : "20250312T170827", 
      "loudnessNormalization" : true, 
      "sourceTracks" : [
        {
          "range" : [0, 111363], 
          "type" : 2, 
          "editRate" : 44100, 
          "trackRect" : [0, 0, 0, 0], 
          "sampleRate" : 44100, 
          "bitDepth" : 16, 
          "numChannels" : 1, 
          "integratedLUFS" : -14.2962704991571, 
          "peakLevel" : 0.520904541015625, 
          "metaData" : "C07-S02-01.wav;", 
          "parameters" : {
          }
        }
      ], 
      "metadata" : {
        "timeAdded" : "20250311T151322.340415"
      }
    }, 
    {
      "id" : 105, 
      "src" : "./media/1750852176.638968/C07-S02-02.wav", 
      "rect" : [0, 0, 0, 0], 
      "lastMod" : "20250312T170828", 
      "loudnessNormalization" : true, 
      "sourceTracks" : [
        {
          "range" : [0, 106085], 
          "type" : 2, 
          "editRate" : 44100, 
          "trackRect" : [0, 0, 0, 0], 
          "sampleRate" : 44100, 
          "bitDepth" : 16, 
          "numChannels" : 1, 
          "integratedLUFS" : -14.6713816924003, 
          "peakLevel" : 0.559417724609375, 
          "metaData" : "C07-S02-02.wav;", 
          "parameters" : {
          }
        }
      ], 
      "metadata" : {
        "timeAdded" : "20250311T151325.756377"
      }
    }, 
    {
      "id" : 106, 
      "src" : "./media/1750852176.639225/c03-s03.mp4", 
      "rect" : [0, 0, 1920, 1080], 
      "lastMod" : "20250316T183104", 
      "loudnessNormalization" : true, 
      "sourceTracks" : [
        {
          "range" : [0, 8467], 
          "type" : 0, 
          "editRate" : 1000, 
          "trackRect" : [0, 0, 1920, 1080], 
          "sampleRate" : 30, 
          "bitDepth" : 0, 
          "numChannels" : 0, 
          "integratedLUFS" : 100.0, 
          "peakLevel" : -1.0, 
          "metaData" : "c03-s03.mp4;", 
          "parameters" : {
          }
        }
      ], 
      "metadata" : {
        "timeAdded" : "20250316T183410.932362"
      }
    }, 
    {
      "id" : 107, 
      "src" : "./media/1750852176.639347/c06-s05.mp4", 
      "rect" : [0, 0, 1920, 1080], 
      "lastMod" : "20250317T111145", 
      "loudnessNormalization" : true, 
      "sourceTracks" : [
        {
          "range" : [0, 9000], 
          "type" : 0, 
          "editRate" : 1000, 
          "trackRect" : [0, 0, 1920, 1080], 
          "sampleRate" : 30, 
          "bitDepth" : 0, 
          "numChannels" : 0, 
          "integratedLUFS" : 100.0, 
          "peakLevel" : -1.0, 
          "metaData" : "c06-s05.mp4;", 
          "parameters" : {
          }
        }, 
        {
          "range" : [0, 8939], 
          "type" : 2, 
          "editRate" : 1000, 
          "trackRect" : [0, 0, 0, 0], 
          "sampleRate" : 44100, 
          "bitDepth" : 0, 
          "numChannels" : 2, 
          "integratedLUFS" : -1.79769313486232e+308, 
          "peakLevel" : 0.0, 
          "metaData" : "c06-s05.mp4;", 
          "parameters" : {
          }
        }
      ], 
      "metadata" : {
        "timeAdded" : "20250317T113558.512067"
      }
    }, 
    {
      "id" : 108, 
      "src" : "./media/1750852176.639643/C05-S04-01.wav", 
      "rect" : [0, 0, 0, 0], 
      "lastMod" : "20250312T170828", 
      "loudnessNormalization" : true, 
      "sourceTracks" : [
        {
          "range" : [0, 471520], 
          "type" : 2, 
          "editRate" : 44100, 
          "trackRect" : [0, 0, 0, 0], 
          "sampleRate" : 44100, 
          "bitDepth" : 16, 
          "numChannels" : 1, 
          "integratedLUFS" : -15.4398196282826, 
          "peakLevel" : 0.584716796875, 
          "metaData" : "C05-S04-01.wav;", 
          "parameters" : {
          }
        }
      ], 
      "metadata" : {
        "timeAdded" : "20250624T144047.285365"
      }
    }, 
    {
      "id" : 109, 
      "src" : "./media/1750852176.639844/C05-S03-01.wav", 
      "rect" : [0, 0, 0, 0], 
      "lastMod" : "20250624T140150", 
      "loudnessNormalization" : true, 
      "sourceTracks" : [
        {
          "range" : [0, 254503], 
          "type" : 2, 
          "editRate" : 44100, 
          "trackRect" : [0, 0, 0, 0], 
          "sampleRate" : 44100, 
          "bitDepth" : 16, 
          "numChannels" : 1, 
          "integratedLUFS" : -15.7773331990504, 
          "peakLevel" : 0.654998779296875, 
          "metaData" : "C05-S03-01.wav;", 
          "parameters" : {
          }
        }
      ], 
      "metadata" : {
        "timeAdded" : "20250624T144210.466850"
      }
    }, 
    {
      "id" : 110, 
      "src" : "./media/1750852176.640030/C05-S03-02.wav", 
      "rect" : [0, 0, 0, 0], 
      "lastMod" : "20250624T140528", 
      "loudnessNormalization" : true, 
      "sourceTracks" : [
        {
          "range" : [0, 476105], 
          "type" : 2, 
          "editRate" : 44100, 
          "trackRect" : [0, 0, 0, 0], 
          "sampleRate" : 44100, 
          "bitDepth" : 16, 
          "numChannels" : 1, 
          "integratedLUFS" : -15.861058021514, 
          "peakLevel" : 0.704681396484375, 
          "metaData" : "C05-S03-02.wav;", 
          "parameters" : {
          }
        }
      ], 
      "metadata" : {
        "timeAdded" : "20250624T144216.654203"
      }
    }, 
    {
      "id" : 111, 
      "src" : "./media/1750852176.640220/C05-S03-03.wav", 
      "rect" : [0, 0, 0, 0], 
      "lastMod" : "20250624T140617", 
      "loudnessNormalization" : true, 
      "sourceTracks" : [
        {
          "range" : [0, 287578], 
          "type" : 2, 
          "editRate" : 44100, 
          "trackRect" : [0, 0, 0, 0], 
          "sampleRate" : 44100, 
          "bitDepth" : 16, 
          "numChannels" : 1, 
          "integratedLUFS" : -14.6745616544225, 
          "peakLevel" : 0.573333740234375, 
          "metaData" : "C05-S03-03.wav;", 
          "parameters" : {
          }
        }
      ], 
      "metadata" : {
        "timeAdded" : "20250624T144238.032270"
      }
    }, 
    {
      "id" : 112, 
      "src" : "./media/1750852176.640481/C05-S04-01.wav", 
      "rect" : [0, 0, 0, 0], 
      "lastMod" : "20250312T170829", 
      "loudnessNormalization" : true, 
      "sourceTracks" : [
        {
          "range" : [0, 161441], 
          "type" : 2, 
          "editRate" : 44100, 
          "trackRect" : [0, 0, 0, 0], 
          "sampleRate" : 44100, 
          "bitDepth" : 16, 
          "numChannels" : 1, 
          "integratedLUFS" : -15.6389406303082, 
          "peakLevel" : 0.4801025390625, 
          "metaData" : "C05-S04-01.wav;", 
          "parameters" : {
          }
        }
      ], 
      "metadata" : {
        "timeAdded" : "20250624T144603.848980"
      }
    }, 
    {
      "id" : 113, 
      "src" : "./media/1750852176.640608/C05-S04-02.wav", 
      "rect" : [0, 0, 0, 0], 
      "lastMod" : "20250312T170829", 
      "loudnessNormalization" : true, 
      "sourceTracks" : [
        {
          "range" : [0, 203490], 
          "type" : 2, 
          "editRate" : 44100, 
          "trackRect" : [0, 0, 0, 0], 
          "sampleRate" : 44100, 
          "bitDepth" : 16, 
          "numChannels" : 1, 
          "integratedLUFS" : -15.3417982460141, 
          "peakLevel" : 0.55126953125, 
          "metaData" : "C05-S04-02.wav;", 
          "parameters" : {
          }
        }
      ], 
      "metadata" : {
        "timeAdded" : "20250624T144609.556628"
      }
    }, 
    {
      "id" : 114, 
      "src" : "./media/1750852176.640797/C05-S03-01.wav", 
      "rect" : [0, 0, 0, 0], 
      "lastMod" : "20250624T142732", 
      "loudnessNormalization" : true, 
      "sourceTracks" : [
        {
          "range" : [0, 220325], 
          "type" : 2, 
          "editRate" : 44100, 
          "trackRect" : [0, 0, 0, 0], 
          "sampleRate" : 44100, 
          "bitDepth" : 16, 
          "numChannels" : 1, 
          "integratedLUFS" : -14.4558773095596, 
          "peakLevel" : 0.5250244140625, 
          "metaData" : "C05-S03-01.wav;", 
          "parameters" : {
          }
        }
      ], 
      "metadata" : {
        "timeAdded" : "20250624T144653.004479"
      }
    }, 
    {
      "id" : 115, 
      "src" : "./media/1750852176.640990/C05-S03-02.wav", 
      "rect" : [0, 0, 0, 0], 
      "lastMod" : "20250624T142957", 
      "loudnessNormalization" : true, 
      "sourceTracks" : [
        {
          "range" : [0, 454055], 
          "type" : 2, 
          "editRate" : 44100, 
          "trackRect" : [0, 0, 0, 0], 
          "sampleRate" : 44100, 
          "bitDepth" : 16, 
          "numChannels" : 1, 
          "integratedLUFS" : -15.5923426317376, 
          "peakLevel" : 0.842376708984375, 
          "metaData" : "C05-S03-02.wav;", 
          "parameters" : {
          }
        }
      ], 
      "metadata" : {
        "timeAdded" : "20250624T144700.773008"
      }
    }, 
    {
      "id" : 116, 
      "src" : "./media/1750852176.641178/C05-S03-03.wav", 
      "rect" : [0, 0, 0, 0], 
      "lastMod" : "20250624T143043", 
      "loudnessNormalization" : true, 
      "sourceTracks" : [
        {
          "range" : [0, 284270], 
          "type" : 2, 
          "editRate" : 44100, 
          "trackRect" : [0, 0, 0, 0], 
          "sampleRate" : 44100, 
          "bitDepth" : 16, 
          "numChannels" : 1, 
          "integratedLUFS" : -15.5853678975298, 
          "peakLevel" : 0.518890380859375, 
          "metaData" : "C05-S03-03.wav;", 
          "parameters" : {
          }
        }
      ], 
      "metadata" : {
        "timeAdded" : "20250624T144707.851890"
      }
    }, 
    {
      "id" : 117, 
      "src" : "./media/1750852176.641371/c05-s04.mp4", 
      "rect" : [0, 0, 1920, 1080], 
      "lastMod" : "20250624T125112", 
      "loudnessNormalization" : true, 
      "sourceTracks" : [
        {
          "range" : [0, 10667], 
          "type" : 0, 
          "editRate" : 1000, 
          "trackRect" : [0, 0, 1920, 1080], 
          "sampleRate" : 30, 
          "bitDepth" : 0, 
          "numChannels" : 0, 
          "integratedLUFS" : 100.0, 
          "peakLevel" : -1.0, 
          "metaData" : "c05-s04.mp4;", 
          "parameters" : {
          }
        }
      ], 
      "metadata" : {
        "timeAdded" : "20250625T072958.942768"
      }
    }, 
    {
      "id" : 118, 
      "src" : "./media/1750852176.641564/c05-s03.mp4", 
      "rect" : [0, 0, 1920, 1080], 
      "lastMod" : "20250625T111902", 
      "loudnessNormalization" : true, 
      "sourceTracks" : [
        {
          "range" : [0, 24667], 
          "type" : 0, 
          "editRate" : 1000, 
          "trackRect" : [0, 0, 1920, 1080], 
          "sampleRate" : 30, 
          "bitDepth" : 0, 
          "numChannels" : 0, 
          "integratedLUFS" : 100.0, 
          "peakLevel" : -1.0, 
          "metaData" : "c05-s03.mp4;", 
          "parameters" : {
          }
        }
      ], 
      "metadata" : {
        "timeAdded" : "20250625T111946.012248"
      }
    }, 
    {
      "id" : 119, 
      "src" : "./media/1750861848.670795/c01-s03.mp4", 
      "rect" : [0, 0, 1920, 1080], 
      "lastMod" : "20250625T134618", 
      "loudnessNormalization" : true, 
      "sourceTracks" : [
        {
          "range" : [0, 5900], 
          "type" : 0, 
          "editRate" : 1000, 
          "trackRect" : [0, 0, 1920, 1080], 
          "sampleRate" : 30, 
          "bitDepth" : 0, 
          "numChannels" : 0, 
          "integratedLUFS" : 100.0, 
          "peakLevel" : -1.0, 
          "metaData" : "c01-s03.mp4;", 
          "parameters" : {
          }
        }
      ], 
      "metadata" : {
        "timeAdded" : "20250625T134728.104547"
      }
    }, 
    {
      "id" : 120, 
      "src" : "./media/1750861848.671035/c03-s01.mp4", 
      "rect" : [0, 0, 1920, 1080], 
      "lastMod" : "20250625T135939", 
      "loudnessNormalization" : true, 
      "sourceTracks" : [
        {
          "range" : [0, 7000], 
          "type" : 0, 
          "editRate" : 1000, 
          "trackRect" : [0, 0, 1920, 1080], 
          "sampleRate" : 30, 
          "bitDepth" : 0, 
          "numChannels" : 0, 
          "integratedLUFS" : 100.0, 
          "peakLevel" : -1.0, 
          "metaData" : "c03-s01.mp4;", 
          "parameters" : {
          }
        }
      ], 
      "metadata" : {
        "timeAdded" : "20250625T140050.876495"
      }
    }, 
    {
      "id" : 121, 
      "src" : "./media/1750861848.671217/c03-s02.mp4", 
      "rect" : [0, 0, 1920, 1080], 
      "lastMod" : "20250625T140631", 
      "loudnessNormalization" : true, 
      "sourceTracks" : [
        {
          "range" : [0, 10000], 
          "type" : 0, 
          "editRate" : 1000, 
          "trackRect" : [0, 0, 1920, 1080], 
          "sampleRate" : 30, 
          "bitDepth" : 0, 
          "numChannels" : 0, 
          "integratedLUFS" : 100.0, 
          "peakLevel" : -1.0, 
          "metaData" : "c03-s02.mp4;", 
          "parameters" : {
          }
        }
      ], 
      "metadata" : {
        "timeAdded" : "20250625T140711.829742"
      }
    }, 
    {
      "id" : 122, 
      "src" : "./media/1750861848.671408/c04-s02.mp4", 
      "rect" : [0, 0, 1920, 1080], 
      "lastMod" : "20250625T141725", 
      "loudnessNormalization" : true, 
      "sourceTracks" : [
        {
          "range" : [0, 14167], 
          "type" : 0, 
          "editRate" : 1000, 
          "trackRect" : [0, 0, 1920, 1080], 
          "sampleRate" : 30, 
          "bitDepth" : 0, 
          "numChannels" : 0, 
          "integratedLUFS" : 100.0, 
          "peakLevel" : -1.0, 
          "metaData" : "c04-s02.mp4;", 
          "parameters" : {
          }
        }
      ], 
      "metadata" : {
        "timeAdded" : "20250625T141801.860386"
      }
    }, 
    {
      "id" : 123, 
      "src" : "./media/1750861848.671576/c04-s03.mp4", 
      "rect" : [0, 0, 1920, 1080], 
      "lastMod" : "20250625T142723", 
      "loudnessNormalization" : true, 
      "sourceTracks" : [
        {
          "range" : [0, 8167], 
          "type" : 0, 
          "editRate" : 1000, 
          "trackRect" : [0, 0, 1920, 1080], 
          "sampleRate" : 30, 
          "bitDepth" : 0, 
          "numChannels" : 0, 
          "integratedLUFS" : 100.0, 
          "peakLevel" : -1.0, 
          "metaData" : "c04-s03.mp4;", 
          "parameters" : {
          }
        }
      ], 
      "metadata" : {
        "timeAdded" : "20250625T142811.588594"
      }
    }, 
    {
      "id" : 124, 
      "src" : "./media/1750864488.772936/c04-s04.mp4", 
      "rect" : [0, 0, 1920, 1080], 
      "lastMod" : "20250625T144600", 
      "loudnessNormalization" : true, 
      "sourceTracks" : [
        {
          "range" : [0, 10000], 
          "type" : 0, 
          "editRate" : 1000, 
          "trackRect" : [0, 0, 1920, 1080], 
          "sampleRate" : 30, 
          "bitDepth" : 0, 
          "numChannels" : 0, 
          "integratedLUFS" : 100.0, 
          "peakLevel" : -1.0, 
          "metaData" : "c04-s04.mp4;", 
          "parameters" : {
          }
        }
      ], 
      "metadata" : {
        "timeAdded" : "20250625T144633.126909"
      }
    }, 
    {
      "id" : 125, 
      "src" : "./media/1750864488.773182/c04-s05.mp4", 
      "rect" : [0, 0, 1920, 1080], 
      "lastMod" : "20250625T145948", 
      "loudnessNormalization" : true, 
      "sourceTracks" : [
        {
          "range" : [0, 8000], 
          "type" : 0, 
          "editRate" : 1000, 
          "trackRect" : [0, 0, 1920, 1080], 
          "sampleRate" : 30, 
          "bitDepth" : 0, 
          "numChannels" : 0, 
          "integratedLUFS" : 100.0, 
          "peakLevel" : -1.0, 
          "metaData" : "c04-s05.mp4;", 
          "parameters" : {
          }
        }
      ], 
      "metadata" : {
        "timeAdded" : "20250625T150031.461262"
      }
    }, 
    {
      "id" : 126, 
      "src" : "./media/1750864488.773372/c04-s06.mp4", 
      "rect" : [0, 0, 1920, 1080], 
      "lastMod" : "20250625T151219", 
      "loudnessNormalization" : true, 
      "sourceTracks" : [
        {
          "range" : [0, 7334], 
          "type" : 0, 
          "editRate" : 1000, 
          "trackRect" : [0, 0, 1920, 1080], 
          "sampleRate" : 30, 
          "bitDepth" : 0, 
          "numChannels" : 0, 
          "integratedLUFS" : 100.0, 
          "peakLevel" : -1.0, 
          "metaData" : "c04-s06.mp4;", 
          "parameters" : {
          }
        }
      ], 
      "metadata" : {
        "timeAdded" : "20250625T151251.170865"
      }
    }, 
    {
      "id" : 127, 
      "src" : "./media/1750869961.801257/c06-s01.mp4", 
      "rect" : [0, 0, 1920, 1080], 
      "lastMod" : "20250625T153157", 
      "loudnessNormalization" : true, 
      "sourceTracks" : [
        {
          "range" : [0, 7000], 
          "type" : 0, 
          "editRate" : 1000, 
          "trackRect" : [0, 0, 1920, 1080], 
          "sampleRate" : 30, 
          "bitDepth" : 0, 
          "numChannels" : 0, 
          "integratedLUFS" : 100.0, 
          "peakLevel" : -1.0, 
          "metaData" : "c06-s01.mp4;", 
          "parameters" : {
          }
        }
      ], 
      "metadata" : {
        "timeAdded" : "20250625T153233.746486"
      }
    }
  ], 
  "timeline" : {
    "id" : 128, 
    "sceneTrack" : {
      "scenes" : [
        {
          "csml" : {
            "tracks" : [
              {
                "trackIndex" : 0, 
                "medias" : [
                  {
                    "id" : 129, 
                    "_type" : "AMFile", 
                    "src" : 54, 
                    "trackNumber" : 0, 
                    "attributes" : {
                      "ident" : "C01-S01-01", 
                      "gain" : 1.0, 
                      "mixToMono" : false, 
                      "loudnessNormalization" : true, 
                      "sourceFileOffset" : 0
                    }, 
                    "channelNumber" : "0", 
                    "parameters" : {
                    }, 
                    "effects" : [
                    ], 
                    "start" : 0, 
                    "duration" : 1575840000, 
                    "mediaStart" : 0, 
                    "mediaDuration" : 1575840000, 
                    "scalar" : 1, 
                    "metadata" : {
                      "audiateLinkedSession" : "", 
                      "clipSpeedAttribute" : 
                        {
                          "type" : "bool", 
                          "value" : false
                        }, 
                      "colorAttribute" : 
                        {
                          "type" : "color", 
                          "value" : [ 0, 0, 0, 0]
                        }, 
                      "effectApplied" : "none"
                    }, 
                    "animationTracks" : {
                    }
                  }, 
                  {
                    "id" : 130, 
                    "_type" : "AMFile", 
                    "src" : 55, 
                    "trackNumber" : 0, 
                    "attributes" : {
                      "ident" : "C01-S02-02", 
                      "gain" : 1.0, 
                      "mixToMono" : false, 
                      "loudnessNormalization" : true, 
                      "sourceFileOffset" : 0
                    }, 
                    "channelNumber" : "0", 
                    "parameters" : {
                    }, 
                    "effects" : [
                    ], 
                    "start" : 2798880000, 
                    "duration" : 1646400000, 
                    "mediaStart" : 0, 
                    "mediaDuration" : 1646400000, 
                    "scalar" : 1, 
                    "metadata" : {
                      "audiateLinkedSession" : "", 
                      "clipSpeedAttribute" : 
                        {
                          "type" : "bool", 
                          "value" : false
                        }, 
                      "colorAttribute" : 
                        {
                          "type" : "color", 
                          "value" : [ 0, 0, 0, 0]
                        }, 
                      "effectApplied" : "none"
                    }, 
                    "animationTracks" : {
                    }
                  }, 
                  {
                    "id" : 131, 
                    "_type" : "AMFile", 
                    "src" : 56, 
                    "trackNumber" : 0, 
                    "attributes" : {
                      "ident" : "C01-S03-01", 
                      "gain" : 1.0, 
                      "mixToMono" : false, 
                      "loudnessNormalization" : true, 
                      "sourceFileOffset" : 0
                    }, 
                    "channelNumber" : "0", 
                    "parameters" : {
                    }, 
                    "effects" : [
                    ], 
                    "start" : 5644800000, 
                    "duration" : 2869440000, 
                    "mediaStart" : 0, 
                    "mediaDuration" : 2869440000, 
                    "scalar" : 1, 
                    "metadata" : {
                      "audiateLinkedSession" : "", 
                      "clipSpeedAttribute" : 
                        {
                          "type" : "bool", 
                          "value" : false
                        }, 
                      "colorAttribute" : 
                        {
                          "type" : "color", 
                          "value" : [ 0, 0, 0, 0]
                        }, 
                      "effectApplied" : "none"
                    }, 
                    "animationTracks" : {
                    }
                  }, 
                  {
                    "id" : 132, 
                    "_type" : "AMFile", 
                    "src" : 57, 
                    "trackNumber" : 0, 
                    "attributes" : {
                      "ident" : "C01-S03-02", 
                      "gain" : 1.0, 
                      "mixToMono" : false, 
                      "loudnessNormalization" : true, 
                      "sourceFileOffset" : 0
                    }, 
                    "channelNumber" : "0", 
                    "parameters" : {
                    }, 
                    "effects" : [
                    ], 
                    "start" : 8655360000, 
                    "duration" : 1034880000, 
                    "mediaStart" : 0, 
                    "mediaDuration" : 1034880000, 
                    "scalar" : 1, 
                    "metadata" : {
                      "audiateLinkedSession" : "", 
                      "clipSpeedAttribute" : 
                        {
                          "type" : "bool", 
                          "value" : false
                        }, 
                      "colorAttribute" : 
                        {
                          "type" : "color", 
                          "value" : [ 0, 0, 0, 0]
                        }, 
                      "effectApplied" : "none"
                    }, 
                    "animationTracks" : {
                    }
                  }, 
                  {
                    "id" : 133, 
                    "_type" : "AMFile", 
                    "src" : 58, 
                    "trackNumber" : 0, 
                    "attributes" : {
                      "ident" : "C01-S04-01", 
                      "gain" : 1.0, 
                      "mixToMono" : false, 
                      "loudnessNormalization" : true, 
                      "sourceFileOffset" : 0
                    }, 
                    "channelNumber" : "0", 
                    "parameters" : {
                    }, 
                    "effects" : [
                    ], 
                    "start" : 9901920000, 
                    "duration" : 2916480000, 
                    "mediaStart" : 0, 
                    "mediaDuration" : 2916480000, 
                    "scalar" : 1, 
                    "metadata" : {
                      "audiateLinkedSession" : "", 
                      "clipSpeedAttribute" : 
                        {
                          "type" : "bool", 
                          "value" : false
                        }, 
                      "colorAttribute" : 
                        {
                          "type" : "color", 
                          "value" : [ 0, 0, 0, 0]
                        }, 
                      "effectApplied" : "none"
                    }, 
                    "animationTracks" : {
                    }
                  }, 
                  {
                    "id" : 134, 
                    "_type" : "AMFile", 
                    "src" : 59, 
                    "trackNumber" : 0, 
                    "attributes" : {
                      "ident" : "C01-S04-02", 
                      "gain" : 1.0, 
                      "mixToMono" : false, 
                      "loudnessNormalization" : true, 
                      "sourceFileOffset" : 0
                    }, 
                    "channelNumber" : "0", 
                    "parameters" : {
                    }, 
                    "effects" : [
                    ], 
                    "start" : 15005760000, 
                    "duration" : 1152480000, 
                    "mediaStart" : 0, 
                    "mediaDuration" : 1152480000, 
                    "scalar" : 1, 
                    "metadata" : {
                      "audiateLinkedSession" : "", 
                      "clipSpeedAttribute" : 
                        {
                          "type" : "bool", 
                          "value" : false
                        }, 
                      "colorAttribute" : 
                        {
                          "type" : "color", 
                          "value" : [ 0, 0, 0, 0]
                        }, 
                      "effectApplied" : "none"
                    }, 
                    "animationTracks" : {
                    }
                  }, 
                  {
                    "id" : 135, 
                    "_type" : "AMFile", 
                    "src" : 60, 
                    "trackNumber" : 0, 
                    "attributes" : {
                      "ident" : "C01-S04-03", 
                      "gain" : 1.0, 
                      "mixToMono" : false, 
                      "loudnessNormalization" : true, 
                      "sourceFileOffset" : 0
                    }, 
                    "channelNumber" : "0", 
                    "parameters" : {
                    }, 
                    "effects" : [
                    ], 
                    "start" : 16675680000, 
                    "duration" : 1834560000, 
                    "mediaStart" : 0, 
                    "mediaDuration" : 1834560000, 
                    "scalar" : 1, 
                    "metadata" : {
                      "audiateLinkedSession" : "", 
                      "clipSpeedAttribute" : 
                        {
                          "type" : "bool", 
                          "value" : false
                        }, 
                      "colorAttribute" : 
                        {
                          "type" : "color", 
                          "value" : [ 0, 0, 0, 0]
                        }, 
                      "effectApplied" : "none"
                    }, 
                    "animationTracks" : {
                    }
                  }, 
                  {
                    "id" : 136, 
                    "_type" : "AMFile", 
                    "src" : 61, 
                    "trackNumber" : 0, 
                    "attributes" : {
                      "ident" : "C01-S04-04", 
                      "gain" : 1.0, 
                      "mixToMono" : false, 
                      "loudnessNormalization" : true, 
                      "sourceFileOffset" : 0
                    }, 
                    "channelNumber" : "0", 
                    "parameters" : {
                    }, 
                    "effects" : [
                    ], 
                    "start" : 19427520000, 
                    "duration" : 1881600000, 
                    "mediaStart" : 0, 
                    "mediaDuration" : 1881600000, 
                    "scalar" : 1, 
                    "metadata" : {
                      "audiateLinkedSession" : "", 
                      "clipSpeedAttribute" : 
                        {
                          "type" : "bool", 
                          "value" : false
                        }, 
                      "colorAttribute" : 
                        {
                          "type" : "color", 
                          "value" : [ 0, 0, 0, 0]
                        }, 
                      "effectApplied" : "none"
                    }, 
                    "animationTracks" : {
                    }
                  }, 
                  {
                    "id" : 137, 
                    "_type" : "AMFile", 
                    "src" : 62, 
                    "trackNumber" : 0, 
                    "attributes" : {
                      "ident" : "C02-S01-01", 
                      "gain" : 1.0, 
                      "mixToMono" : false, 
                      "loudnessNormalization" : true, 
                      "sourceFileOffset" : 0
                    }, 
                    "channelNumber" : "0", 
                    "parameters" : {
                    }, 
                    "effects" : [
                    ], 
                    "start" : 21732480000, 
                    "duration" : 2116800000, 
                    "mediaStart" : 0, 
                    "mediaDuration" : 2116800000, 
                    "scalar" : 1, 
                    "metadata" : {
                      "audiateLinkedSession" : "", 
                      "clipSpeedAttribute" : 
                        {
                          "type" : "bool", 
                          "value" : false
                        }, 
                      "colorAttribute" : 
                        {
                          "type" : "color", 
                          "value" : [ 0, 0, 0, 0]
                        }, 
                      "effectApplied" : "none"
                    }, 
                    "animationTracks" : {
                    }
                  }, 
                  {
                    "id" : 138, 
                    "_type" : "AMFile", 
                    "src" : 63, 
                    "trackNumber" : 0, 
                    "attributes" : {
                      "ident" : "C02-S01-02", 
                      "gain" : 1.0, 
                      "mixToMono" : false, 
                      "loudnessNormalization" : true, 
                      "sourceFileOffset" : 0
                    }, 
                    "channelNumber" : "0", 
                    "parameters" : {
                    }, 
                    "effects" : [
                    ], 
                    "start" : 24037440000, 
                    "duration" : 1505280000, 
                    "mediaStart" : 0, 
                    "mediaDuration" : 1505280000, 
                    "scalar" : 1, 
                    "metadata" : {
                      "audiateLinkedSession" : "", 
                      "clipSpeedAttribute" : 
                        {
                          "type" : "bool", 
                          "value" : false
                        }, 
                      "colorAttribute" : 
                        {
                          "type" : "color", 
                          "value" : [ 0, 0, 0, 0]
                        }, 
                      "effectApplied" : "none"
                    }, 
                    "animationTracks" : {
                    }
                  }, 
                  {
                    "id" : 139, 
                    "_type" : "AMFile", 
                    "src" : 64, 
                    "trackNumber" : 0, 
                    "attributes" : {
                      "ident" : "C02-S01-03", 
                      "gain" : 1.0, 
                      "mixToMono" : false, 
                      "loudnessNormalization" : true, 
                      "sourceFileOffset" : 0
                    }, 
                    "channelNumber" : "0", 
                    "parameters" : {
                    }, 
                    "effects" : [
                    ], 
                    "start" : 26906880000, 
                    "duration" : 917280000, 
                    "mediaStart" : 0, 
                    "mediaDuration" : 917280000, 
                    "scalar" : 1, 
                    "metadata" : {
                      "audiateLinkedSession" : "", 
                      "clipSpeedAttribute" : 
                        {
                          "type" : "bool", 
                          "value" : false
                        }, 
                      "colorAttribute" : 
                        {
                          "type" : "color", 
                          "value" : [ 0, 0, 0, 0]
                        }, 
                      "effectApplied" : "none"
                    }, 
                    "animationTracks" : {
                    }
                  }, 
                  {
                    "id" : 140, 
                    "_type" : "AMFile", 
                    "src" : 65, 
                    "trackNumber" : 0, 
                    "attributes" : {
                      "ident" : "C02-S01-04", 
                      "gain" : 1.0, 
                      "mixToMono" : false, 
                      "loudnessNormalization" : true, 
                      "sourceFileOffset" : 0
                    }, 
                    "channelNumber" : "0", 
                    "parameters" : {
                    }, 
                    "effects" : [
                    ], 
                    "start" : 29588160000, 
                    "duration" : 1928640000, 
                    "mediaStart" : 0, 
                    "mediaDuration" : 1928640000, 
                    "scalar" : 1, 
                    "metadata" : {
                      "audiateLinkedSession" : "", 
                      "clipSpeedAttribute" : 
                        {
                          "type" : "bool", 
                          "value" : false
                        }, 
                      "colorAttribute" : 
                        {
                          "type" : "color", 
                          "value" : [ 0, 0, 0, 0]
                        }, 
                      "effectApplied" : "none"
                    }, 
                    "animationTracks" : {
                    }
                  }, 
                  {
                    "id" : 141, 
                    "_type" : "AMFile", 
                    "src" : 66, 
                    "trackNumber" : 0, 
                    "attributes" : {
                      "ident" : "C03-S01-01", 
                      "gain" : 1.0, 
                      "mixToMono" : false, 
                      "loudnessNormalization" : true, 
                      "sourceFileOffset" : 0
                    }, 
                    "channelNumber" : "0", 
                    "parameters" : {
                    }, 
                    "effects" : [
                    ], 
                    "start" : 32222400000, 
                    "duration" : 2210880000, 
                    "mediaStart" : 0, 
                    "mediaDuration" : 2210880000, 
                    "scalar" : 1, 
                    "metadata" : {
                      "audiateLinkedSession" : "", 
                      "clipSpeedAttribute" : 
                        {
                          "type" : "bool", 
                          "value" : false
                        }, 
                      "colorAttribute" : 
                        {
                          "type" : "color", 
                          "value" : [ 0, 0, 0, 0]
                        }, 
                      "effectApplied" : "none"
                    }, 
                    "animationTracks" : {
                    }
                  }, 
                  {
                    "id" : 142, 
                    "_type" : "AMFile", 
                    "src" : 67, 
                    "trackNumber" : 0, 
                    "attributes" : {
                      "ident" : "C03-S02-01", 
                      "gain" : 1.0, 
                      "mixToMono" : false, 
                      "loudnessNormalization" : true, 
                      "sourceFileOffset" : 0
                    }, 
                    "channelNumber" : "0", 
                    "parameters" : {
                    }, 
                    "effects" : [
                    ], 
                    "start" : 34809600000, 
                    "duration" : 1740480000, 
                    "mediaStart" : 0, 
                    "mediaDuration" : 1740480000, 
                    "scalar" : 1, 
                    "metadata" : {
                      "audiateLinkedSession" : "", 
                      "clipSpeedAttribute" : 
                        {
                          "type" : "bool", 
                          "value" : false
                        }, 
                      "colorAttribute" : 
                        {
                          "type" : "color", 
                          "value" : [ 0, 0, 0, 0]
                        }, 
                      "effectApplied" : "none"
                    }, 
                    "animationTracks" : {
                    }
                  }, 
                  {
                    "id" : 143, 
                    "_type" : "AMFile", 
                    "src" : 68, 
                    "trackNumber" : 0, 
                    "attributes" : {
                      "ident" : "C03-S02-02", 
                      "gain" : 1.0, 
                      "mixToMono" : false, 
                      "loudnessNormalization" : true, 
                      "sourceFileOffset" : 0
                    }, 
                    "channelNumber" : "0", 
                    "parameters" : {
                    }, 
                    "effects" : [
                    ], 
                    "start" : 37161600000, 
                    "duration" : 1270080000, 
                    "mediaStart" : 0, 
                    "mediaDuration" : 1270080000, 
                    "scalar" : 1, 
                    "metadata" : {
                      "audiateLinkedSession" : "", 
                      "clipSpeedAttribute" : 
                        {
                          "type" : "bool", 
                          "value" : false
                        }, 
                      "colorAttribute" : 
                        {
                          "type" : "color", 
                          "value" : [ 0, 0, 0, 0]
                        }, 
                      "effectApplied" : "none"
                    }, 
                    "animationTracks" : {
                    }
                  }, 
                  {
                    "id" : 144, 
                    "_type" : "AMFile", 
                    "src" : 69, 
                    "trackNumber" : 0, 
                    "attributes" : {
                      "ident" : "C03-S02-03", 
                      "gain" : 1.0, 
                      "mixToMono" : false, 
                      "loudnessNormalization" : true, 
                      "sourceFileOffset" : 0
                    }, 
                    "channelNumber" : "0", 
                    "parameters" : {
                    }, 
                    "effects" : [
                    ], 
                    "start" : 39631200000, 
                    "duration" : 2587200000, 
                    "mediaStart" : 0, 
                    "mediaDuration" : 2587200000, 
                    "scalar" : 1, 
                    "metadata" : {
                      "audiateLinkedSession" : "", 
                      "clipSpeedAttribute" : 
                        {
                          "type" : "bool", 
                          "value" : false
                        }, 
                      "colorAttribute" : 
                        {
                          "type" : "color", 
                          "value" : [ 0, 0, 0, 0]
                        }, 
                      "effectApplied" : "none"
                    }, 
                    "animationTracks" : {
                    }
                  }, 
                  {
                    "id" : 145, 
                    "_type" : "AMFile", 
                    "src" : 70, 
                    "trackNumber" : 0, 
                    "attributes" : {
                      "ident" : "C03-S03-01", 
                      "gain" : 1.0, 
                      "mixToMono" : false, 
                      "loudnessNormalization" : true, 
                      "sourceFileOffset" : 0
                    }, 
                    "channelNumber" : "0", 
                    "parameters" : {
                    }, 
                    "effects" : [
                    ], 
                    "start" : 44429280000, 
                    "duration" : 1787520000, 
                    "mediaStart" : 0, 
                    "mediaDuration" : 1787520000, 
                    "scalar" : 1, 
                    "metadata" : {
                      "audiateLinkedSession" : "", 
                      "clipSpeedAttribute" : 
                        {
                          "type" : "bool", 
                          "value" : false
                        }, 
                      "colorAttribute" : 
                        {
                          "type" : "color", 
                          "value" : [ 0, 0, 0, 0]
                        }, 
                      "effectApplied" : "none"
                    }, 
                    "animationTracks" : {
                    }
                  }, 
                  {
                    "id" : 146, 
                    "_type" : "AMFile", 
                    "src" : 71, 
                    "trackNumber" : 0, 
                    "attributes" : {
                      "ident" : "C03-S03-02", 
                      "gain" : 1.0, 
                      "mixToMono" : false, 
                      "loudnessNormalization" : true, 
                      "sourceFileOffset" : 0
                    }, 
                    "channelNumber" : "0", 
                    "parameters" : {
                    }, 
                    "effects" : [
                    ], 
                    "start" : 46734240000, 
                    "duration" : 2257920000, 
                    "mediaStart" : 0, 
                    "mediaDuration" : 2257920000, 
                    "scalar" : 1, 
                    "metadata" : {
                      "audiateLinkedSession" : "", 
                      "clipSpeedAttribute" : 
                        {
                          "type" : "bool", 
                          "value" : false
                        }, 
                      "colorAttribute" : 
                        {
                          "type" : "color", 
                          "value" : [ 0, 0, 0, 0]
                        }, 
                      "effectApplied" : "none"
                    }, 
                    "animationTracks" : {
                    }
                  }, 
                  {
                    "id" : 147, 
                    "_type" : "AMFile", 
                    "src" : 72, 
                    "trackNumber" : 0, 
                    "attributes" : {
                      "ident" : "C03-S04-01", 
                      "gain" : 1.0, 
                      "mixToMono" : false, 
                      "loudnessNormalization" : true, 
                      "sourceFileOffset" : 0
                    }, 
                    "channelNumber" : "0", 
                    "parameters" : {
                    }, 
                    "effects" : [
                    ], 
                    "start" : 50285760000, 
                    "duration" : 1270080000, 
                    "mediaStart" : 0, 
                    "mediaDuration" : 1270080000, 
                    "scalar" : 1, 
                    "metadata" : {
                      "audiateLinkedSession" : "", 
                      "clipSpeedAttribute" : 
                        {
                          "type" : "bool", 
                          "value" : false
                        }, 
                      "colorAttribute" : 
                        {
                          "type" : "color", 
                          "value" : [ 0, 0, 0, 0]
                        }, 
                      "effectApplied" : "none"
                    }, 
                    "animationTracks" : {
                    }
                  }, 
                  {
                    "id" : 148, 
                    "_type" : "AMFile", 
                    "src" : 73, 
                    "trackNumber" : 0, 
                    "attributes" : {
                      "ident" : "C03-S04-02", 
                      "gain" : 1.0, 
                      "mixToMono" : false, 
                      "loudnessNormalization" : true, 
                      "sourceFileOffset" : 0
                    }, 
                    "channelNumber" : "0", 
                    "parameters" : {
                    }, 
                    "effects" : [
                    ], 
                    "start" : 52355520000, 
                    "duration" : 2116800000, 
                    "mediaStart" : 0, 
                    "mediaDuration" : 2116800000, 
                    "scalar" : 1, 
                    "metadata" : {
                      "audiateLinkedSession" : "", 
                      "clipSpeedAttribute" : 
                        {
                          "type" : "bool", 
                          "value" : false
                        }, 
                      "colorAttribute" : 
                        {
                          "type" : "color", 
                          "value" : [ 0, 0, 0, 0]
                        }, 
                      "effectApplied" : "none"
                    }, 
                    "animationTracks" : {
                    }
                  }, 
                  {
                    "id" : 149, 
                    "_type" : "AMFile", 
                    "src" : 74, 
                    "trackNumber" : 0, 
                    "attributes" : {
                      "ident" : "C04-S01-01", 
                      "gain" : 1.0, 
                      "mixToMono" : false, 
                      "loudnessNormalization" : true, 
                      "sourceFileOffset" : 0
                    }, 
                    "channelNumber" : "0", 
                    "parameters" : {
                    }, 
                    "effects" : [
                    ], 
                    "start" : 54919200000, 
                    "duration" : 2187360000, 
                    "mediaStart" : 0, 
                    "mediaDuration" : 2187360000, 
                    "scalar" : 1, 
                    "metadata" : {
                      "audiateLinkedSession" : "", 
                      "clipSpeedAttribute" : 
                        {
                          "type" : "bool", 
                          "value" : false
                        }, 
                      "colorAttribute" : 
                        {
                          "type" : "color", 
                          "value" : [ 0, 0, 0, 0]
                        }, 
                      "effectApplied" : "none"
                    }, 
                    "animationTracks" : {
                    }
                  }, 
                  {
                    "id" : 150, 
                    "_type" : "AMFile", 
                    "src" : 75, 
                    "trackNumber" : 0, 
                    "attributes" : {
                      "ident" : "C04-S02-01", 
                      "gain" : 1.0, 
                      "mixToMono" : false, 
                      "loudnessNormalization" : true, 
                      "sourceFileOffset" : 0
                    }, 
                    "channelNumber" : "0", 
                    "parameters" : {
                    }, 
                    "effects" : [
                    ], 
                    "start" : 57835680000, 
                    "duration" : 1176000000, 
                    "mediaStart" : 0, 
                    "mediaDuration" : 1176000000, 
                    "scalar" : 1, 
                    "metadata" : {
                      "audiateLinkedSession" : "", 
                      "clipSpeedAttribute" : 
                        {
                          "type" : "bool", 
                          "value" : false
                        }, 
                      "colorAttribute" : 
                        {
                          "type" : "color", 
                          "value" : [ 0, 0, 0, 0]
                        }, 
                      "effectApplied" : "none"
                    }, 
                    "animationTracks" : {
                    }
                  }, 
                  {
                    "id" : 151, 
                    "_type" : "AMFile", 
                    "src" : 76, 
                    "trackNumber" : 0, 
                    "attributes" : {
                      "ident" : "C04-S02-02", 
                      "gain" : 1.0, 
                      "mixToMono" : false, 
                      "loudnessNormalization" : true, 
                      "sourceFileOffset" : 0
                    }, 
                    "channelNumber" : "0", 
                    "parameters" : {
                    }, 
                    "effects" : [
                    ], 
                    "start" : 59011680000, 
                    "duration" : 2069760000, 
                    "mediaStart" : 0, 
                    "mediaDuration" : 2069760000, 
                    "scalar" : 1, 
                    "metadata" : {
                      "audiateLinkedSession" : "", 
                      "clipSpeedAttribute" : 
                        {
                          "type" : "bool", 
                          "value" : false
                        }, 
                      "colorAttribute" : 
                        {
                          "type" : "color", 
                          "value" : [ 0, 0, 0, 0]
                        }, 
                      "effectApplied" : "none"
                    }, 
                    "animationTracks" : {
                    }
                  }, 
                  {
                    "id" : 152, 
                    "_type" : "AMFile", 
                    "src" : 77, 
                    "trackNumber" : 0, 
                    "attributes" : {
                      "ident" : "C04-S02-03", 
                      "gain" : 1.0, 
                      "mixToMono" : false, 
                      "loudnessNormalization" : true, 
                      "sourceFileOffset" : 0
                    }, 
                    "channelNumber" : "0", 
                    "parameters" : {
                    }, 
                    "effects" : [
                    ], 
                    "start" : 61152000000, 
                    "duration" : 4539360000, 
                    "mediaStart" : 0, 
                    "mediaDuration" : 4539360000, 
                    "scalar" : 1, 
                    "metadata" : {
                      "audiateLinkedSession" : "", 
                      "clipSpeedAttribute" : 
                        {
                          "type" : "bool", 
                          "value" : false
                        }, 
                      "colorAttribute" : 
                        {
                          "type" : "color", 
                          "value" : [ 0, 0, 0, 0]
                        }, 
                      "effectApplied" : "none"
                    }, 
                    "animationTracks" : {
                    }
                  }, 
                  {
                    "id" : 153, 
                    "_type" : "AMFile", 
                    "src" : 78, 
                    "trackNumber" : 0, 
                    "attributes" : {
                      "ident" : "C04-S03-01", 
                      "gain" : 1.0, 
                      "mixToMono" : false, 
                      "loudnessNormalization" : true, 
                      "sourceFileOffset" : 0
                    }, 
                    "channelNumber" : "0", 
                    "parameters" : {
                    }, 
                    "effects" : [
                    ], 
                    "start" : 66632160000, 
                    "duration" : 1011360000, 
                    "mediaStart" : 0, 
                    "mediaDuration" : 1011360000, 
                    "scalar" : 1, 
                    "metadata" : {
                      "audiateLinkedSession" : "", 
                      "clipSpeedAttribute" : 
                        {
                          "type" : "bool", 
                          "value" : false
                        }, 
                      "colorAttribute" : 
                        {
                          "type" : "color", 
                          "value" : [ 0, 0, 0, 0]
                        }, 
                      "effectApplied" : "none"
                    }, 
                    "animationTracks" : {
                    }
                  }, 
                  {
                    "id" : 154, 
                    "_type" : "AMFile", 
                    "src" : 79, 
                    "trackNumber" : 0, 
                    "attributes" : {
                      "ident" : "C04-S03-02", 
                      "gain" : 1.0, 
                      "mixToMono" : false, 
                      "loudnessNormalization" : true, 
                      "sourceFileOffset" : 0
                    }, 
                    "channelNumber" : "0", 
                    "parameters" : {
                    }, 
                    "effects" : [
                    ], 
                    "start" : 67714080000, 
                    "duration" : 3363360000, 
                    "mediaStart" : 0, 
                    "mediaDuration" : 3363360000, 
                    "scalar" : 1, 
                    "metadata" : {
                      "audiateLinkedSession" : "", 
                      "clipSpeedAttribute" : 
                        {
                          "type" : "bool", 
                          "value" : false
                        }, 
                      "colorAttribute" : 
                        {
                          "type" : "color", 
                          "value" : [ 0, 0, 0, 0]
                        }, 
                      "effectApplied" : "none"
                    }, 
                    "animationTracks" : {
                    }
                  }, 
                  {
                    "id" : 155, 
                    "_type" : "AMFile", 
                    "src" : 80, 
                    "trackNumber" : 0, 
                    "attributes" : {
                      "ident" : "C04-S04-01", 
                      "gain" : 1.0, 
                      "mixToMono" : false, 
                      "loudnessNormalization" : true, 
                      "sourceFileOffset" : 0
                    }, 
                    "channelNumber" : "0", 
                    "parameters" : {
                    }, 
                    "effects" : [
                    ], 
                    "start" : 72465120000, 
                    "duration" : 1011360000, 
                    "mediaStart" : 0, 
                    "mediaDuration" : 1011360000, 
                    "scalar" : 1, 
                    "metadata" : {
                      "audiateLinkedSession" : "", 
                      "clipSpeedAttribute" : 
                        {
                          "type" : "bool", 
                          "value" : false
                        }, 
                      "colorAttribute" : 
                        {
                          "type" : "color", 
                          "value" : [ 0, 0, 0, 0]
                        }, 
                      "effectApplied" : "none"
                    }, 
                    "animationTracks" : {
                    }
                  }, 
                  {
                    "id" : 156, 
                    "_type" : "AMFile", 
                    "src" : 81, 
                    "trackNumber" : 0, 
                    "attributes" : {
                      "ident" : "C04-S04-02", 
                      "gain" : 1.0, 
                      "mixToMono" : false, 
                      "loudnessNormalization" : true, 
                      "sourceFileOffset" : 0
                    }, 
                    "channelNumber" : "0", 
                    "parameters" : {
                    }, 
                    "effects" : [
                    ], 
                    "start" : 73993920000, 
                    "duration" : 3951360000, 
                    "mediaStart" : 0, 
                    "mediaDuration" : 3951360000, 
                    "scalar" : 1, 
                    "metadata" : {
                      "audiateLinkedSession" : "", 
                      "clipSpeedAttribute" : 
                        {
                          "type" : "bool", 
                          "value" : false
                        }, 
                      "colorAttribute" : 
                        {
                          "type" : "color", 
                          "value" : [ 0, 0, 0, 0]
                        }, 
                      "effectApplied" : "none"
                    }, 
                    "animationTracks" : {
                    }
                  }, 
                  {
                    "id" : 157, 
                    "_type" : "AMFile", 
                    "src" : 82, 
                    "trackNumber" : 0, 
                    "attributes" : {
                      "ident" : "C04-S05-01", 
                      "gain" : 1.0, 
                      "mixToMono" : false, 
                      "loudnessNormalization" : true, 
                      "sourceFileOffset" : 0
                    }, 
                    "channelNumber" : "0", 
                    "parameters" : {
                    }, 
                    "effects" : [
                    ], 
                    "start" : 79474080000, 
                    "duration" : 1058400000, 
                    "mediaStart" : 0, 
                    "mediaDuration" : 1058400000, 
                    "scalar" : 1, 
                    "metadata" : {
                      "audiateLinkedSession" : "", 
                      "clipSpeedAttribute" : 
                        {
                          "type" : "bool", 
                          "value" : false
                        }, 
                      "colorAttribute" : 
                        {
                          "type" : "color", 
                          "value" : [ 0, 0, 0, 0]
                        }, 
                      "effectApplied" : "none"
                    }, 
                    "animationTracks" : {
                    }
                  }, 
                  {
                    "id" : 158, 
                    "_type" : "AMFile", 
                    "src" : 83, 
                    "trackNumber" : 0, 
                    "attributes" : {
                      "ident" : "C04-S05-02", 
                      "gain" : 1.0, 
                      "mixToMono" : false, 
                      "loudnessNormalization" : true, 
                      "sourceFileOffset" : 0
                    }, 
                    "channelNumber" : "0", 
                    "parameters" : {
                    }, 
                    "effects" : [
                    ], 
                    "start" : 81144000000, 
                    "duration" : 2728320000, 
                    "mediaStart" : 0, 
                    "mediaDuration" : 2728320000, 
                    "scalar" : 1, 
                    "metadata" : {
                      "audiateLinkedSession" : "", 
                      "clipSpeedAttribute" : 
                        {
                          "type" : "bool", 
                          "value" : false
                        }, 
                      "colorAttribute" : 
                        {
                          "type" : "color", 
                          "value" : [ 0, 0, 0, 0]
                        }, 
                      "effectApplied" : "none"
                    }, 
                    "animationTracks" : {
                    }
                  }, 
                  {
                    "id" : 159, 
                    "_type" : "AMFile", 
                    "src" : 84, 
                    "trackNumber" : 0, 
                    "attributes" : {
                      "ident" : "C04-S06-01", 
                      "gain" : 1.0, 
                      "mixToMono" : false, 
                      "loudnessNormalization" : true, 
                      "sourceFileOffset" : 0
                    }, 
                    "channelNumber" : "0", 
                    "parameters" : {
                    }, 
                    "effects" : [
                    ], 
                    "start" : 85095360000, 
                    "duration" : 1034880000, 
                    "mediaStart" : 0, 
                    "mediaDuration" : 1034880000, 
                    "scalar" : 1, 
                    "metadata" : {
                      "audiateLinkedSession" : "", 
                      "clipSpeedAttribute" : 
                        {
                          "type" : "bool", 
                          "value" : false
                        }, 
                      "colorAttribute" : 
                        {
                          "type" : "color", 
                          "value" : [ 0, 0, 0, 0]
                        }, 
                      "effectApplied" : "none"
                    }, 
                    "animationTracks" : {
                    }
                  }, 
                  {
                    "id" : 160, 
                    "_type" : "AMFile", 
                    "src" : 85, 
                    "trackNumber" : 0, 
                    "attributes" : {
                      "ident" : "C04-S06-02", 
                      "gain" : 1.0, 
                      "mixToMono" : false, 
                      "loudnessNormalization" : true, 
                      "sourceFileOffset" : 0
                    }, 
                    "channelNumber" : "0", 
                    "parameters" : {
                    }, 
                    "effects" : [
                    ], 
                    "start" : 86624160000, 
                    "duration" : 3034080000, 
                    "mediaStart" : 0, 
                    "mediaDuration" : 3034080000, 
                    "scalar" : 1, 
                    "metadata" : {
                      "audiateLinkedSession" : "", 
                      "clipSpeedAttribute" : 
                        {
                          "type" : "bool", 
                          "value" : false
                        }, 
                      "colorAttribute" : 
                        {
                          "type" : "color", 
                          "value" : [ 0, 0, 0, 0]
                        }, 
                      "effectApplied" : "none"
                    }, 
                    "animationTracks" : {
                    }
                  }, 
                  {
                    "id" : 161, 
                    "_type" : "AMFile", 
                    "src" : 86, 
                    "trackNumber" : 0, 
                    "attributes" : {
                      "ident" : "C04-S07-01", 
                      "gain" : 1.0, 
                      "mixToMono" : false, 
                      "loudnessNormalization" : true, 
                      "sourceFileOffset" : 0
                    }, 
                    "channelNumber" : "0", 
                    "parameters" : {
                    }, 
                    "effects" : [
                    ], 
                    "start" : 90105120000, 
                    "duration" : 1740480000, 
                    "mediaStart" : 0, 
                    "mediaDuration" : 1740480000, 
                    "scalar" : 1, 
                    "metadata" : {
                      "audiateLinkedSession" : "", 
                      "clipSpeedAttribute" : 
                        {
                          "type" : "bool", 
                          "value" : false
                        }, 
                      "colorAttribute" : 
                        {
                          "type" : "color", 
                          "value" : [ 0, 0, 0, 0]
                        }, 
                      "effectApplied" : "none"
                    }, 
                    "animationTracks" : {
                    }
                  }, 
                  {
                    "id" : 162, 
                    "_type" : "AMFile", 
                    "src" : 87, 
                    "trackNumber" : 0, 
                    "attributes" : {
                      "ident" : "C04-S07-02", 
                      "gain" : 1.0, 
                      "mixToMono" : false, 
                      "loudnessNormalization" : true, 
                      "sourceFileOffset" : 0
                    }, 
                    "channelNumber" : "0", 
                    "parameters" : {
                    }, 
                    "effects" : [
                    ], 
                    "start" : 92715840000, 
                    "duration" : 2140320000, 
                    "mediaStart" : 0, 
                    "mediaDuration" : 2140320000, 
                    "scalar" : 1, 
                    "metadata" : {
                      "audiateLinkedSession" : "", 
                      "clipSpeedAttribute" : 
                        {
                          "type" : "bool", 
                          "value" : false
                        }, 
                      "colorAttribute" : 
                        {
                          "type" : "color", 
                          "value" : [ 0, 0, 0, 0]
                        }, 
                      "effectApplied" : "none"
                    }, 
                    "animationTracks" : {
                    }
                  }, 
                  {
                    "id" : 163, 
                    "_type" : "AMFile", 
                    "src" : 88, 
                    "trackNumber" : 0, 
                    "attributes" : {
                      "ident" : "C05-S01-01", 
                      "gain" : 1.0, 
                      "mixToMono" : false, 
                      "loudnessNormalization" : true, 
                      "sourceFileOffset" : 0
                    }, 
                    "channelNumber" : "0", 
                    "parameters" : {
                    }, 
                    "effects" : [
                    ], 
                    "start" : 96808320000, 
                    "duration" : 1787520000, 
                    "mediaStart" : 0, 
                    "mediaDuration" : 1787520000, 
                    "scalar" : 1, 
                    "metadata" : {
                      "audiateLinkedSession" : "", 
                      "clipSpeedAttribute" : 
                        {
                          "type" : "bool", 
                          "value" : false
                        }, 
                      "colorAttribute" : 
                        {
                          "type" : "color", 
                          "value" : [ 0, 0, 0, 0]
                        }, 
                      "effectApplied" : "none"
                    }, 
                    "animationTracks" : {
                    }
                  }, 
                  {
                    "id" : 164, 
                    "_type" : "AMFile", 
                    "src" : 89, 
                    "trackNumber" : 0, 
                    "attributes" : {
                      "ident" : "C05-S01-02", 
                      "gain" : 1.0, 
                      "mixToMono" : false, 
                      "loudnessNormalization" : true, 
                      "sourceFileOffset" : 0
                    }, 
                    "channelNumber" : "0", 
                    "parameters" : {
                    }, 
                    "effects" : [
                    ], 
                    "start" : 99677760000, 
                    "duration" : 2657760000, 
                    "mediaStart" : 0, 
                    "mediaDuration" : 2657760000, 
                    "scalar" : 1, 
                    "metadata" : {
                      "audiateLinkedSession" : "", 
                      "clipSpeedAttribute" : 
                        {
                          "type" : "bool", 
                          "value" : false
                        }, 
                      "colorAttribute" : 
                        {
                          "type" : "color", 
                          "value" : [ 0, 0, 0, 0]
                        }, 
                      "effectApplied" : "none"
                    }, 
                    "animationTracks" : {
                    }
                  }, 
                  {
                    "id" : 165, 
                    "_type" : "AMFile", 
                    "src" : 90, 
                    "trackNumber" : 0, 
                    "attributes" : {
                      "ident" : "C05-S02-01", 
                      "gain" : 1.0, 
                      "mixToMono" : false, 
                      "loudnessNormalization" : true, 
                      "sourceFileOffset" : 0
                    }, 
                    "channelNumber" : "0", 
                    "parameters" : {
                    }, 
                    "effects" : [
                    ], 
                    "start" : 103229280000, 
                    "duration" : 1928640000, 
                    "mediaStart" : 0, 
                    "mediaDuration" : 1928640000, 
                    "scalar" : 1, 
                    "metadata" : {
                      "audiateLinkedSession" : "", 
                      "clipSpeedAttribute" : 
                        {
                          "type" : "bool", 
                          "value" : false
                        }, 
                      "colorAttribute" : 
                        {
                          "type" : "color", 
                          "value" : [ 0, 0, 0, 0]
                        }, 
                      "effectApplied" : "none"
                    }, 
                    "animationTracks" : {
                    }
                  }, 
                  {
                    "id" : 166, 
                    "_type" : "AMFile", 
                    "src" : 91, 
                    "trackNumber" : 0, 
                    "attributes" : {
                      "ident" : "C05-S02-02", 
                      "gain" : 1.0, 
                      "mixToMono" : false, 
                      "loudnessNormalization" : true, 
                      "sourceFileOffset" : 0
                    }, 
                    "channelNumber" : "0", 
                    "parameters" : {
                    }, 
                    "effects" : [
                    ], 
                    "start" : 106051680000, 
                    "duration" : 2234400000, 
                    "mediaStart" : 0, 
                    "mediaDuration" : 2234400000, 
                    "scalar" : 1, 
                    "metadata" : {
                      "audiateLinkedSession" : "", 
                      "clipSpeedAttribute" : 
                        {
                          "type" : "bool", 
                          "value" : false
                        }, 
                      "colorAttribute" : 
                        {
                          "type" : "color", 
                          "value" : [ 0, 0, 0, 0]
                        }, 
                      "effectApplied" : "none"
                    }, 
                    "animationTracks" : {
                    }
                  }, 
                  {
                    "id" : 167, 
                    "_type" : "AMFile", 
                    "src" : 92, 
                    "trackNumber" : 0, 
                    "attributes" : {
                      "ident" : "C05-S02-03", 
                      "gain" : 1.0, 
                      "mixToMono" : false, 
                      "loudnessNormalization" : true, 
                      "sourceFileOffset" : 0
                    }, 
                    "channelNumber" : "0", 
                    "parameters" : {
                    }, 
                    "effects" : [
                    ], 
                    "start" : 108544800000, 
                    "duration" : 1199520000, 
                    "mediaStart" : 0, 
                    "mediaDuration" : 1199520000, 
                    "scalar" : 1, 
                    "metadata" : {
                      "audiateLinkedSession" : "", 
                      "clipSpeedAttribute" : 
                        {
                          "type" : "bool", 
                          "value" : false
                        }, 
                      "colorAttribute" : 
                        {
                          "type" : "color", 
                          "value" : [ 0, 0, 0, 0]
                        }, 
                      "effectApplied" : "none"
                    }, 
                    "animationTracks" : {
                    }
                  }, 
                  {
                    "id" : 168, 
                    "_type" : "AMFile", 
                    "src" : 114, 
                    "trackNumber" : 0, 
                    "attributes" : {
                      "ident" : "C05-S03-01", 
                      "gain" : 1.0, 
                      "mixToMono" : false, 
                      "loudnessNormalization" : true, 
                      "sourceFileOffset" : 0
                    }, 
                    "channelNumber" : "0", 
                    "parameters" : {
                    }, 
                    "effects" : [
                    ], 
                    "start" : 110402880000, 
                    "duration" : 3504480000, 
                    "mediaStart" : 0, 
                    "mediaDuration" : 3504480000, 
                    "scalar" : 1, 
                    "metadata" : {
                      "audiateLinkedSession" : "", 
                      "clipSpeedAttribute" : 
                        {
                          "type" : "bool", 
                          "value" : false
                        }, 
                      "colorAttribute" : 
                        {
                          "type" : "color", 
                          "value" : [ 0, 0, 0, 0]
                        }, 
                      "effectApplied" : "none"
                    }, 
                    "animationTracks" : {
                    }
                  }, 
                  {
                    "id" : 169, 
                    "_type" : "AMFile", 
                    "src" : 115, 
                    "trackNumber" : 0, 
                    "attributes" : {
                      "ident" : "C05-S03-02", 
                      "gain" : 1.0, 
                      "mixToMono" : false, 
                      "loudnessNormalization" : true, 
                      "sourceFileOffset" : 0
                    }, 
                    "channelNumber" : "0", 
                    "parameters" : {
                    }, 
                    "effects" : [
                    ], 
                    "start" : 114448320000, 
                    "duration" : 7244160000, 
                    "mediaStart" : 0, 
                    "mediaDuration" : 7244160000, 
                    "scalar" : 1, 
                    "metadata" : {
                      "audiateLinkedSession" : "", 
                      "clipSpeedAttribute" : 
                        {
                          "type" : "bool", 
                          "value" : false
                        }, 
                      "colorAttribute" : 
                        {
                          "type" : "color", 
                          "value" : [ 0, 0, 0, 0]
                        }, 
                      "effectApplied" : "none"
                    }, 
                    "animationTracks" : {
                    }
                  }, 
                  {
                    "id" : 170, 
                    "_type" : "AMFile", 
                    "src" : 116, 
                    "trackNumber" : 0, 
                    "attributes" : {
                      "ident" : "C05-S03-03", 
                      "gain" : 1.0, 
                      "mixToMono" : false, 
                      "loudnessNormalization" : true, 
                      "sourceFileOffset" : 0
                    }, 
                    "channelNumber" : "0", 
                    "parameters" : {
                    }, 
                    "effects" : [
                    ], 
                    "start" : 122327520000, 
                    "duration" : 4539360000, 
                    "mediaStart" : 0, 
                    "mediaDuration" : 4539360000, 
                    "scalar" : 1, 
                    "metadata" : {
                      "audiateLinkedSession" : "", 
                      "clipSpeedAttribute" : 
                        {
                          "type" : "bool", 
                          "value" : false
                        }, 
                      "colorAttribute" : 
                        {
                          "type" : "color", 
                          "value" : [ 0, 0, 0, 0]
                        }, 
                      "effectApplied" : "none"
                    }, 
                    "animationTracks" : {
                    }
                  }, 
                  {
                    "id" : 171, 
                    "_type" : "AMFile", 
                    "src" : 112, 
                    "trackNumber" : 0, 
                    "attributes" : {
                      "ident" : "C05-S04-01", 
                      "gain" : 1.0, 
                      "mixToMono" : false, 
                      "loudnessNormalization" : true, 
                      "sourceFileOffset" : 0
                    }, 
                    "channelNumber" : "0", 
                    "parameters" : {
                    }, 
                    "effects" : [
                    ], 
                    "start" : 127431360000, 
                    "duration" : 2563680000, 
                    "mediaStart" : 0, 
                    "mediaDuration" : 2563680000, 
                    "scalar" : 1, 
                    "metadata" : {
                      "audiateLinkedSession" : "", 
                      "clipSpeedAttribute" : 
                        {
                          "type" : "bool", 
                          "value" : false
                        }, 
                      "colorAttribute" : 
                        {
                          "type" : "color", 
                          "value" : [ 0, 0, 0, 0]
                        }, 
                      "effectApplied" : "none"
                    }, 
                    "animationTracks" : {
                    }
                  }, 
                  {
                    "id" : 172, 
                    "_type" : "AMFile", 
                    "src" : 113, 
                    "trackNumber" : 0, 
                    "attributes" : {
                      "ident" : "C05-S04-02", 
                      "gain" : 1.0, 
                      "mixToMono" : false, 
                      "loudnessNormalization" : true, 
                      "sourceFileOffset" : 0
                    }, 
                    "channelNumber" : "0", 
                    "parameters" : {
                    }, 
                    "effects" : [
                    ], 
                    "start" : 131171040000, 
                    "duration" : 3245760000, 
                    "mediaStart" : 0, 
                    "mediaDuration" : 3245760000, 
                    "scalar" : 1, 
                    "metadata" : {
                      "audiateLinkedSession" : "", 
                      "clipSpeedAttribute" : 
                        {
                          "type" : "bool", 
                          "value" : false
                        }, 
                      "colorAttribute" : 
                        {
                          "type" : "color", 
                          "value" : [ 0, 0, 0, 0]
                        }, 
                      "effectApplied" : "none"
                    }, 
                    "animationTracks" : {
                    }
                  }, 
                  {
                    "id" : 173, 
                    "_type" : "AMFile", 
                    "src" : 93, 
                    "trackNumber" : 0, 
                    "attributes" : {
                      "ident" : "C06-S01-01", 
                      "gain" : 1.0, 
                      "mixToMono" : false, 
                      "loudnessNormalization" : true, 
                      "sourceFileOffset" : 0
                    }, 
                    "channelNumber" : "0", 
                    "parameters" : {
                    }, 
                    "effects" : [
                    ], 
                    "start" : 135216480000, 
                    "duration" : 987840000, 
                    "mediaStart" : 0, 
                    "mediaDuration" : 987840000, 
                    "scalar" : 1, 
                    "metadata" : {
                      "audiateLinkedSession" : "", 
                      "clipSpeedAttribute" : 
                        {
                          "type" : "bool", 
                          "value" : false
                        }, 
                      "colorAttribute" : 
                        {
                          "type" : "color", 
                          "value" : [ 0, 0, 0, 0]
                        }, 
                      "effectApplied" : "none"
                    }, 
                    "animationTracks" : {
                    }
                  }, 
                  {
                    "id" : 174, 
                    "_type" : "AMFile", 
                    "src" : 94, 
                    "trackNumber" : 0, 
                    "attributes" : {
                      "ident" : "C06-S01-02", 
                      "gain" : 1.0, 
                      "mixToMono" : false, 
                      "loudnessNormalization" : true, 
                      "sourceFileOffset" : 0
                    }, 
                    "channelNumber" : "0", 
                    "parameters" : {
                    }, 
                    "effects" : [
                    ], 
                    "start" : 137051040000, 
                    "duration" : 611520000, 
                    "mediaStart" : 0, 
                    "mediaDuration" : 611520000, 
                    "scalar" : 1, 
                    "metadata" : {
                      "audiateLinkedSession" : "", 
                      "clipSpeedAttribute" : 
                        {
                          "type" : "bool", 
                          "value" : false
                        }, 
                      "colorAttribute" : 
                        {
                          "type" : "color", 
                          "value" : [ 0, 0, 0, 0]
                        }, 
                      "effectApplied" : "none"
                    }, 
                    "animationTracks" : {
                    }
                  }, 
                  {
                    "id" : 175, 
                    "_type" : "AMFile", 
                    "src" : 95, 
                    "trackNumber" : 0, 
                    "attributes" : {
                      "ident" : "C06-S01-03", 
                      "gain" : 1.0, 
                      "mixToMono" : false, 
                      "loudnessNormalization" : true, 
                      "sourceFileOffset" : 0
                    }, 
                    "channelNumber" : "0", 
                    "parameters" : {
                    }, 
                    "effects" : [
                    ], 
                    "start" : 140155680000, 
                    "duration" : 2234400000, 
                    "mediaStart" : 0, 
                    "mediaDuration" : 2234400000, 
                    "scalar" : 1, 
                    "metadata" : {
                      "audiateLinkedSession" : "", 
                      "clipSpeedAttribute" : 
                        {
                          "type" : "bool", 
                          "value" : false
                        }, 
                      "colorAttribute" : 
                        {
                          "type" : "color", 
                          "value" : [ 0, 0, 0, 0]
                        }, 
                      "effectApplied" : "none"
                    }, 
                    "animationTracks" : {
                    }
                  }, 
                  {
                    "id" : 176, 
                    "_type" : "AMFile", 
                    "src" : 96, 
                    "trackNumber" : 0, 
                    "attributes" : {
                      "ident" : "C06-S01-04", 
                      "gain" : 1.0, 
                      "mixToMono" : false, 
                      "loudnessNormalization" : true, 
                      "sourceFileOffset" : 0
                    }, 
                    "channelNumber" : "0", 
                    "parameters" : {
                    }, 
                    "effects" : [
                    ], 
                    "start" : 143660160000, 
                    "duration" : 1905120000, 
                    "mediaStart" : 0, 
                    "mediaDuration" : 1905120000, 
                    "scalar" : 1, 
                    "metadata" : {
                      "audiateLinkedSession" : "", 
                      "clipSpeedAttribute" : 
                        {
                          "type" : "bool", 
                          "value" : false
                        }, 
                      "colorAttribute" : 
                        {
                          "type" : "color", 
                          "value" : [ 0, 0, 0, 0]
                        }, 
                      "effectApplied" : "none"
                    }, 
                    "animationTracks" : {
                    }
                  }, 
                  {
                    "id" : 177, 
                    "_type" : "AMFile", 
                    "src" : 97, 
                    "trackNumber" : 0, 
                    "attributes" : {
                      "ident" : "C06-S02-01", 
                      "gain" : 1.0, 
                      "mixToMono" : false, 
                      "loudnessNormalization" : true, 
                      "sourceFileOffset" : 0
                    }, 
                    "channelNumber" : "0", 
                    "parameters" : {
                    }, 
                    "effects" : [
                    ], 
                    "start" : 146200320000, 
                    "duration" : 588000000, 
                    "mediaStart" : 0, 
                    "mediaDuration" : 588000000, 
                    "scalar" : 1, 
                    "metadata" : {
                      "audiateLinkedSession" : "", 
                      "clipSpeedAttribute" : 
                        {
                          "type" : "bool", 
                          "value" : false
                        }, 
                      "colorAttribute" : 
                        {
                          "type" : "color", 
                          "value" : [ 0, 0, 0, 0]
                        }, 
                      "effectApplied" : "none"
                    }, 
                    "animationTracks" : {
                    }
                  }, 
                  {
                    "id" : 178, 
                    "_type" : "AMFile", 
                    "src" : 98, 
                    "trackNumber" : 0, 
                    "attributes" : {
                      "ident" : "C06-S02-02", 
                      "gain" : 1.0, 
                      "mixToMono" : false, 
                      "loudnessNormalization" : true, 
                      "sourceFileOffset" : 0
                    }, 
                    "channelNumber" : "0", 
                    "parameters" : {
                    }, 
                    "effects" : [
                    ], 
                    "start" : 148199520000, 
                    "duration" : 2540160000, 
                    "mediaStart" : 0, 
                    "mediaDuration" : 2540160000, 
                    "scalar" : 1, 
                    "metadata" : {
                      "audiateLinkedSession" : "", 
                      "clipSpeedAttribute" : 
                        {
                          "type" : "bool", 
                          "value" : false
                        }, 
                      "colorAttribute" : 
                        {
                          "type" : "color", 
                          "value" : [ 0, 0, 0, 0]
                        }, 
                      "effectApplied" : "none"
                    }, 
                    "animationTracks" : {
                    }
                  }, 
                  {
                    "id" : 179, 
                    "_type" : "AMFile", 
                    "src" : 99, 
                    "trackNumber" : 0, 
                    "attributes" : {
                      "ident" : "C06-S02-03", 
                      "gain" : 1.0, 
                      "mixToMono" : false, 
                      "loudnessNormalization" : true, 
                      "sourceFileOffset" : 0
                    }, 
                    "channelNumber" : "0", 
                    "parameters" : {
                    }, 
                    "effects" : [
                    ], 
                    "start" : 151327680000, 
                    "duration" : 1764000000, 
                    "mediaStart" : 0, 
                    "mediaDuration" : 1764000000, 
                    "scalar" : 1, 
                    "metadata" : {
                      "audiateLinkedSession" : "", 
                      "clipSpeedAttribute" : 
                        {
                          "type" : "bool", 
                          "value" : false
                        }, 
                      "colorAttribute" : 
                        {
                          "type" : "color", 
                          "value" : [ 0, 0, 0, 0]
                        }, 
                      "effectApplied" : "none"
                    }, 
                    "animationTracks" : {
                    }
                  }, 
                  {
                    "id" : 180, 
                    "_type" : "AMFile", 
                    "src" : 100, 
                    "trackNumber" : 0, 
                    "attributes" : {
                      "ident" : "C06-S03-01", 
                      "gain" : 1.0, 
                      "mixToMono" : false, 
                      "loudnessNormalization" : true, 
                      "sourceFileOffset" : 0
                    }, 
                    "channelNumber" : "0", 
                    "parameters" : {
                    }, 
                    "effects" : [
                    ], 
                    "start" : 154126560000, 
                    "duration" : 3433920000, 
                    "mediaStart" : 0, 
                    "mediaDuration" : 3433920000, 
                    "scalar" : 1, 
                    "metadata" : {
                      "audiateLinkedSession" : "", 
                      "clipSpeedAttribute" : 
                        {
                          "type" : "bool", 
                          "value" : false
                        }, 
                      "colorAttribute" : 
                        {
                          "type" : "color", 
                          "value" : [ 0, 0, 0, 0]
                        }, 
                      "effectApplied" : "none"
                    }, 
                    "animationTracks" : {
                    }
                  }, 
                  {
                    "id" : 181, 
                    "_type" : "AMFile", 
                    "src" : 101, 
                    "trackNumber" : 0, 
                    "attributes" : {
                      "ident" : "C06-S03-02", 
                      "gain" : 1.0, 
                      "mixToMono" : false, 
                      "loudnessNormalization" : true, 
                      "sourceFileOffset" : 0
                    }, 
                    "channelNumber" : "0", 
                    "parameters" : {
                    }, 
                    "effects" : [
                    ], 
                    "start" : 157654560000, 
                    "duration" : 1552320000, 
                    "mediaStart" : 0, 
                    "mediaDuration" : 1552320000, 
                    "scalar" : 1, 
                    "metadata" : {
                      "audiateLinkedSession" : "", 
                      "clipSpeedAttribute" : 
                        {
                          "type" : "bool", 
                          "value" : false
                        }, 
                      "colorAttribute" : 
                        {
                          "type" : "color", 
                          "value" : [ 0, 0, 0, 0]
                        }, 
                      "effectApplied" : "none"
                    }, 
                    "animationTracks" : {
                    }
                  }, 
                  {
                    "id" : 182, 
                    "_type" : "AMFile", 
                    "src" : 102, 
                    "trackNumber" : 0, 
                    "attributes" : {
                      "ident" : "C07-S01-01", 
                      "gain" : 1.0, 
                      "mixToMono" : false, 
                      "loudnessNormalization" : true, 
                      "sourceFileOffset" : 0
                    }, 
                    "channelNumber" : "0", 
                    "parameters" : {
                    }, 
                    "effects" : [
                    ], 
                    "start" : 160359360000, 
                    "duration" : 2963520000, 
                    "mediaStart" : 0, 
                    "mediaDuration" : 2963520000, 
                    "scalar" : 1, 
                    "metadata" : {
                      "audiateLinkedSession" : "", 
                      "clipSpeedAttribute" : 
                        {
                          "type" : "bool", 
                          "value" : false
                        }, 
                      "colorAttribute" : 
                        {
                          "type" : "color", 
                          "value" : [ 0, 0, 0, 0]
                        }, 
                      "effectApplied" : "none"
                    }, 
                    "animationTracks" : {
                    }
                  }, 
                  {
                    "id" : 183, 
                    "_type" : "AMFile", 
                    "src" : 103, 
                    "trackNumber" : 0, 
                    "attributes" : {
                      "ident" : "C07-S01-02", 
                      "gain" : 1.0, 
                      "mixToMono" : false, 
                      "loudnessNormalization" : true, 
                      "sourceFileOffset" : 0
                    }, 
                    "channelNumber" : "0", 
                    "parameters" : {
                    }, 
                    "effects" : [
                    ], 
                    "start" : 164099040000, 
                    "duration" : 1787520000, 
                    "mediaStart" : 0, 
                    "mediaDuration" : 1787520000, 
                    "scalar" : 1, 
                    "metadata" : {
                      "audiateLinkedSession" : "", 
                      "clipSpeedAttribute" : 
                        {
                          "type" : "bool", 
                          "value" : false
                        }, 
                      "colorAttribute" : 
                        {
                          "type" : "color", 
                          "value" : [ 0, 0, 0, 0]
                        }, 
                      "effectApplied" : "none"
                    }, 
                    "animationTracks" : {
                    }
                  }, 
                  {
                    "id" : 184, 
                    "_type" : "AMFile", 
                    "src" : 104, 
                    "trackNumber" : 0, 
                    "attributes" : {
                      "ident" : "C07-S02-01", 
                      "gain" : 1.0, 
                      "mixToMono" : false, 
                      "loudnessNormalization" : true, 
                      "sourceFileOffset" : 0
                    }, 
                    "channelNumber" : "0", 
                    "parameters" : {
                    }, 
                    "effects" : [
                    ], 
                    "start" : 167391840000, 
                    "duration" : 1764000000, 
                    "mediaStart" : 0, 
                    "mediaDuration" : 1764000000, 
                    "scalar" : 1, 
                    "metadata" : {
                      "audiateLinkedSession" : "", 
                      "clipSpeedAttribute" : 
                        {
                          "type" : "bool", 
                          "value" : false
                        }, 
                      "colorAttribute" : 
                        {
                          "type" : "color", 
                          "value" : [ 0, 0, 0, 0]
                        }, 
                      "effectApplied" : "none"
                    }, 
                    "animationTracks" : {
                    }
                  }, 
                  {
                    "id" : 185, 
                    "_type" : "AMFile", 
                    "src" : 105, 
                    "trackNumber" : 0, 
                    "attributes" : {
                      "ident" : "C07-S02-02", 
                      "gain" : 1.0, 
                      "mixToMono" : false, 
                      "loudnessNormalization" : true, 
                      "sourceFileOffset" : 0
                    }, 
                    "channelNumber" : "0", 
                    "parameters" : {
                    }, 
                    "effects" : [
                    ], 
                    "start" : 170637600000, 
                    "duration" : 1693440000, 
                    "mediaStart" : 0, 
                    "mediaDuration" : 1693440000, 
                    "scalar" : 1, 
                    "metadata" : {
                      "audiateLinkedSession" : "", 
                      "clipSpeedAttribute" : 
                        {
                          "type" : "bool", 
                          "value" : false
                        }, 
                      "colorAttribute" : 
                        {
                          "type" : "color", 
                          "value" : [ 0, 0, 0, 0]
                        }, 
                      "effectApplied" : "none"
                    }, 
                    "animationTracks" : {
                    }
                  }
                ], 
                "parameters" : {
                }
              }, 
              {
                "trackIndex" : 1, 
                "medias" : [
                  {
                    "id" : 186, 
                    "_type" : "AMFile", 
                    "src" : 1, 
                    "trackNumber" : 0, 
                    "attributes" : {
                      "ident" : "C01-S01-01", 
                      "gain" : 1.0, 
                      "mixToMono" : false, 
                      "loudnessNormalization" : true, 
                      "sourceFileOffset" : 0
                    }, 
                    "channelNumber" : "0", 
                    "parameters" : {
                    }, 
                    "effects" : [
                    ], 
                    "start" : 0, 
                    "duration" : 2281440000, 
                    "mediaStart" : 0, 
                    "mediaDuration" : 2281440000, 
                    "scalar" : 1, 
                    "metadata" : {
                      "audiateLinkedSession" : "", 
                      "clipSpeedAttribute" : 
                        {
                          "type" : "bool", 
                          "value" : false
                        }, 
                      "colorAttribute" : 
                        {
                          "type" : "color", 
                          "value" : [ 0, 0, 0, 0]
                        }, 
                      "effectApplied" : "none"
                    }, 
                    "animationTracks" : {
                    }
                  }, 
                  {
                    "id" : 187, 
                    "_type" : "AMFile", 
                    "src" : 43, 
                    "trackNumber" : 0, 
                    "attributes" : {
                      "ident" : "C01-S02-02", 
                      "gain" : 1.0, 
                      "mixToMono" : false, 
                      "loudnessNormalization" : true, 
                      "sourceFileOffset" : 0
                    }, 
                    "channelNumber" : "0", 
                    "parameters" : {
                    }, 
                    "effects" : [
                    ], 
                    "start" : 2798880000, 
                    "duration" : 2399040000, 
                    "mediaStart" : 0, 
                    "mediaDuration" : 2399040000, 
                    "scalar" : 1, 
                    "metadata" : {
                      "audiateLinkedSession" : "", 
                      "clipSpeedAttribute" : 
                        {
                          "type" : "bool", 
                          "value" : false
                        }, 
                      "colorAttribute" : 
                        {
                          "type" : "color", 
                          "value" : [ 0, 0, 0, 0]
                        }, 
                      "effectApplied" : "none"
                    }, 
                    "animationTracks" : {
                    }
                  }, 
                  {
                    "id" : 188, 
                    "_type" : "AMFile", 
                    "src" : 21, 
                    "trackNumber" : 0, 
                    "attributes" : {
                      "ident" : "C01-S03-01", 
                      "gain" : 1.0, 
                      "mixToMono" : false, 
                      "loudnessNormalization" : true, 
                      "sourceFileOffset" : 0
                    }, 
                    "channelNumber" : "0", 
                    "parameters" : {
                    }, 
                    "effects" : [
                    ], 
                    "start" : 5644800000, 
                    "duration" : 2751840000, 
                    "mediaStart" : 0, 
                    "mediaDuration" : 2751840000, 
                    "scalar" : 1, 
                    "metadata" : {
                      "audiateLinkedSession" : "", 
                      "clipSpeedAttribute" : 
                        {
                          "type" : "bool", 
                          "value" : false
                        }, 
                      "colorAttribute" : 
                        {
                          "type" : "color", 
                          "value" : [ 0, 0, 0, 0]
                        }, 
                      "effectApplied" : "none"
                    }, 
                    "animationTracks" : {
                    }
                  }, 
                  {
                    "id" : 189, 
                    "_type" : "AMFile", 
                    "src" : 22, 
                    "trackNumber" : 0, 
                    "attributes" : {
                      "ident" : "C01-S03-02", 
                      "gain" : 1.0, 
                      "mixToMono" : false, 
                      "loudnessNormalization" : true, 
                      "sourceFileOffset" : 0
                    }, 
                    "channelNumber" : "0", 
                    "parameters" : {
                    }, 
                    "effects" : [
                    ], 
                    "start" : 8514240000, 
                    "duration" : 1293600000, 
                    "mediaStart" : 0, 
                    "mediaDuration" : 1293600000, 
                    "scalar" : 1, 
                    "metadata" : {
                      "audiateLinkedSession" : "", 
                      "clipSpeedAttribute" : 
                        {
                          "type" : "bool", 
                          "value" : false
                        }, 
                      "colorAttribute" : 
                        {
                          "type" : "color", 
                          "value" : [ 0, 0, 0, 0]
                        }, 
                      "effectApplied" : "none"
                    }, 
                    "animationTracks" : {
                    }
                  }, 
                  {
                    "id" : 190, 
                    "_type" : "AMFile", 
                    "src" : 23, 
                    "trackNumber" : 0, 
                    "attributes" : {
                      "ident" : "C01-S04-01", 
                      "gain" : 1.0, 
                      "mixToMono" : false, 
                      "loudnessNormalization" : true, 
                      "sourceFileOffset" : 0
                    }, 
                    "channelNumber" : "0", 
                    "parameters" : {
                    }, 
                    "effects" : [
                    ], 
                    "start" : 9901920000, 
                    "duration" : 3716160000, 
                    "mediaStart" : 0, 
                    "mediaDuration" : 3716160000, 
                    "scalar" : 1, 
                    "metadata" : {
                      "audiateLinkedSession" : "", 
                      "clipSpeedAttribute" : 
                        {
                          "type" : "bool", 
                          "value" : false
                        }, 
                      "colorAttribute" : 
                        {
                          "type" : "color", 
                          "value" : [ 0, 0, 0, 0]
                        }, 
                      "effectApplied" : "none"
                    }, 
                    "animationTracks" : {
                    }
                  }, 
                  {
                    "id" : 191, 
                    "_type" : "AMFile", 
                    "src" : 23, 
                    "trackNumber" : 0, 
                    "attributes" : {
                      "ident" : "C01-S04-01", 
                      "gain" : 1.0, 
                      "mixToMono" : false, 
                      "loudnessNormalization" : true, 
                      "sourceFileOffset" : 0
                    }, 
                    "channelNumber" : "0", 
                    "parameters" : {
                    }, 
                    "effects" : [
                    ], 
                    "start" : 14700000000, 
                    "duration" : 1975680000, 
                    "mediaStart" : 3716160000, 
                    "mediaDuration" : 1975680000, 
                    "scalar" : 1, 
                    "metadata" : {
                      "audiateLinkedSession" : "", 
                      "clipSpeedAttribute" : 
                        {
                          "type" : "bool", 
                          "value" : false
                        }, 
                      "colorAttribute" : 
                        {
                          "type" : "color", 
                          "value" : [ 0, 0, 0, 0]
                        }, 
                      "effectApplied" : "none"
                    }, 
                    "animationTracks" : {
                    }
                  }, 
                  {
                    "id" : 192, 
                    "_type" : "AMFile", 
                    "src" : 24, 
                    "trackNumber" : 0, 
                    "attributes" : {
                      "ident" : "C01-S04-02", 
                      "gain" : 1.0, 
                      "mixToMono" : false, 
                      "loudnessNormalization" : true, 
                      "sourceFileOffset" : 0
                    }, 
                    "channelNumber" : "0", 
                    "parameters" : {
                    }, 
                    "effects" : [
                    ], 
                    "start" : 16675680000, 
                    "duration" : 2422560000, 
                    "mediaStart" : 0, 
                    "mediaDuration" : 2422560000, 
                    "scalar" : 1, 
                    "metadata" : {
                      "audiateLinkedSession" : "", 
                      "clipSpeedAttribute" : 
                        {
                          "type" : "bool", 
                          "value" : false
                        }, 
                      "colorAttribute" : 
                        {
                          "type" : "color", 
                          "value" : [ 0, 0, 0, 0]
                        }, 
                      "effectApplied" : "none"
                    }, 
                    "animationTracks" : {
                    }
                  }, 
                  {
                    "id" : 193, 
                    "_type" : "AMFile", 
                    "src" : 24, 
                    "trackNumber" : 0, 
                    "attributes" : {
                      "ident" : "C01-S04-02", 
                      "gain" : 1.0, 
                      "mixToMono" : false, 
                      "loudnessNormalization" : true, 
                      "sourceFileOffset" : 0
                    }, 
                    "channelNumber" : "0", 
                    "parameters" : {
                    }, 
                    "effects" : [
                    ], 
                    "start" : 19427520000, 
                    "duration" : 1999200000, 
                    "mediaStart" : 2422560000, 
                    "mediaDuration" : 1999200000, 
                    "scalar" : 1, 
                    "metadata" : {
                      "audiateLinkedSession" : "", 
                      "clipSpeedAttribute" : 
                        {
                          "type" : "bool", 
                          "value" : false
                        }, 
                      "colorAttribute" : 
                        {
                          "type" : "color", 
                          "value" : [ 0, 0, 0, 0]
                        }, 
                      "effectApplied" : "none"
                    }, 
                    "animationTracks" : {
                    }
                  }, 
                  {
                    "id" : 194, 
                    "_type" : "AMFile", 
                    "src" : 25, 
                    "trackNumber" : 0, 
                    "attributes" : {
                      "ident" : "C02-S01-01", 
                      "gain" : 1.0, 
                      "mixToMono" : false, 
                      "loudnessNormalization" : true, 
                      "sourceFileOffset" : 0
                    }, 
                    "channelNumber" : "0", 
                    "parameters" : {
                    }, 
                    "effects" : [
                    ], 
                    "start" : 21779520000, 
                    "duration" : 2022720000, 
                    "mediaStart" : 0, 
                    "mediaDuration" : 2022720000, 
                    "scalar" : 1, 
                    "metadata" : {
                      "audiateLinkedSession" : "", 
                      "clipSpeedAttribute" : 
                        {
                          "type" : "bool", 
                          "value" : false
                        }, 
                      "colorAttribute" : 
                        {
                          "type" : "color", 
                          "value" : [ 0, 0, 0, 0]
                        }, 
                      "effectApplied" : "none"
                    }, 
                    "animationTracks" : {
                    }
                  }, 
                  {
                    "id" : 195, 
                    "_type" : "AMFile", 
                    "src" : 2, 
                    "trackNumber" : 0, 
                    "attributes" : {
                      "ident" : "C02-S01-02", 
                      "gain" : 1.0, 
                      "mixToMono" : false, 
                      "loudnessNormalization" : true, 
                      "sourceFileOffset" : 0
                    }, 
                    "channelNumber" : "0", 
                    "parameters" : {
                    }, 
                    "effects" : [
                    ], 
                    "start" : 24037440000, 
                    "duration" : 1669920000, 
                    "mediaStart" : 0, 
                    "mediaDuration" : 1669920000, 
                    "scalar" : 1, 
                    "metadata" : {
                      "audiateLinkedSession" : "", 
                      "clipSpeedAttribute" : 
                        {
                          "type" : "bool", 
                          "value" : false
                        }, 
                      "colorAttribute" : 
                        {
                          "type" : "color", 
                          "value" : [ 0, 0, 0, 0]
                        }, 
                      "effectApplied" : "none"
                    }, 
                    "animationTracks" : {
                    }
                  }, 
                  {
                    "id" : 196, 
                    "_type" : "AMFile", 
                    "src" : 3, 
                    "trackNumber" : 0, 
                    "attributes" : {
                      "ident" : "C02-S01-03", 
                      "gain" : 1.0, 
                      "mixToMono" : false, 
                      "loudnessNormalization" : true, 
                      "sourceFileOffset" : 0
                    }, 
                    "channelNumber" : "0", 
                    "parameters" : {
                    }, 
                    "effects" : [
                    ], 
                    "start" : 26859840000, 
                    "duration" : 1999200000, 
                    "mediaStart" : 0, 
                    "mediaDuration" : 1999200000, 
                    "scalar" : 1, 
                    "metadata" : {
                      "audiateLinkedSession" : "", 
                      "clipSpeedAttribute" : 
                        {
                          "type" : "bool", 
                          "value" : false
                        }, 
                      "colorAttribute" : 
                        {
                          "type" : "color", 
                          "value" : [ 0, 0, 0, 0]
                        }, 
                      "effectApplied" : "none"
                    }, 
                    "animationTracks" : {
                    }
                  }, 
                  {
                    "id" : 197, 
                    "_type" : "AMFile", 
                    "src" : 4, 
                    "trackNumber" : 0, 
                    "attributes" : {
                      "ident" : "C02-S01-04", 
                      "gain" : 1.0, 
                      "mixToMono" : false, 
                      "loudnessNormalization" : true, 
                      "sourceFileOffset" : 0
                    }, 
                    "channelNumber" : "0", 
                    "parameters" : {
                    }, 
                    "effects" : [
                    ], 
                    "start" : 29611680000, 
                    "duration" : 2234400000, 
                    "mediaStart" : 0, 
                    "mediaDuration" : 2234400000, 
                    "scalar" : 1, 
                    "metadata" : {
                      "audiateLinkedSession" : "", 
                      "clipSpeedAttribute" : 
                        {
                          "type" : "bool", 
                          "value" : false
                        }, 
                      "colorAttribute" : 
                        {
                          "type" : "color", 
                          "value" : [ 0, 0, 0, 0]
                        }, 
                      "effectApplied" : "none"
                    }, 
                    "animationTracks" : {
                    }
                  }, 
                  {
                    "id" : 198, 
                    "_type" : "AMFile", 
                    "src" : 39, 
                    "trackNumber" : 0, 
                    "attributes" : {
                      "ident" : "C03-S01-01", 
                      "gain" : 1.0, 
                      "mixToMono" : false, 
                      "loudnessNormalization" : true, 
                      "sourceFileOffset" : 0
                    }, 
                    "channelNumber" : "0", 
                    "parameters" : {
                    }, 
                    "effects" : [
                    ], 
                    "start" : 32222400000, 
                    "duration" : 2210880000, 
                    "mediaStart" : 0, 
                    "mediaDuration" : 2210880000, 
                    "scalar" : 1, 
                    "metadata" : {
                      "audiateLinkedSession" : "", 
                      "clipSpeedAttribute" : 
                        {
                          "type" : "bool", 
                          "value" : false
                        }, 
                      "colorAttribute" : 
                        {
                          "type" : "color", 
                          "value" : [ 0, 0, 0, 0]
                        }, 
                      "effectApplied" : "none"
                    }, 
                    "animationTracks" : {
                    }
                  }, 
                  {
                    "id" : 199, 
                    "_type" : "AMFile", 
                    "src" : 44, 
                    "trackNumber" : 0, 
                    "attributes" : {
                      "ident" : "C03-S02-01", 
                      "gain" : 1.0, 
                      "mixToMono" : false, 
                      "loudnessNormalization" : true, 
                      "sourceFileOffset" : 0
                    }, 
                    "channelNumber" : "0", 
                    "parameters" : {
                    }, 
                    "effects" : [
                    ], 
                    "start" : 34809600000, 
                    "duration" : 1975680000, 
                    "mediaStart" : 0, 
                    "mediaDuration" : 1975680000, 
                    "scalar" : 1, 
                    "metadata" : {
                      "audiateLinkedSession" : "", 
                      "clipSpeedAttribute" : 
                        {
                          "type" : "bool", 
                          "value" : false
                        }, 
                      "colorAttribute" : 
                        {
                          "type" : "color", 
                          "value" : [ 0, 0, 0, 0]
                        }, 
                      "effectApplied" : "none"
                    }, 
                    "animationTracks" : {
                    }
                  }, 
                  {
                    "id" : 200, 
                    "_type" : "AMFile", 
                    "src" : 45, 
                    "trackNumber" : 0, 
                    "attributes" : {
                      "ident" : "C03-S02-02", 
                      "gain" : 1.0, 
                      "mixToMono" : false, 
                      "loudnessNormalization" : true, 
                      "sourceFileOffset" : 0
                    }, 
                    "channelNumber" : "0", 
                    "parameters" : {
                    }, 
                    "effects" : [
                    ], 
                    "start" : 37161600000, 
                    "duration" : 1740480000, 
                    "mediaStart" : 0, 
                    "mediaDuration" : 1740480000, 
                    "scalar" : 1, 
                    "metadata" : {
                      "audiateLinkedSession" : "", 
                      "clipSpeedAttribute" : 
                        {
                          "type" : "bool", 
                          "value" : false
                        }, 
                      "colorAttribute" : 
                        {
                          "type" : "color", 
                          "value" : [ 0, 0, 0, 0]
                        }, 
                      "effectApplied" : "none"
                    }, 
                    "animationTracks" : {
                    }
                  }, 
                  {
                    "id" : 201, 
                    "_type" : "AMFile", 
                    "src" : 46, 
                    "trackNumber" : 0, 
                    "attributes" : {
                      "ident" : "C03-S02-03", 
                      "gain" : 1.0, 
                      "mixToMono" : false, 
                      "loudnessNormalization" : true, 
                      "sourceFileOffset" : 0
                    }, 
                    "channelNumber" : "0", 
                    "parameters" : {
                    }, 
                    "effects" : [
                    ], 
                    "start" : 39631200000, 
                    "duration" : 3245760000, 
                    "mediaStart" : 0, 
                    "mediaDuration" : 3245760000, 
                    "scalar" : 1, 
                    "metadata" : {
                      "audiateLinkedSession" : "", 
                      "clipSpeedAttribute" : 
                        {
                          "type" : "bool", 
                          "value" : false
                        }, 
                      "colorAttribute" : 
                        {
                          "type" : "color", 
                          "value" : [ 0, 0, 0, 0]
                        }, 
                      "effectApplied" : "none"
                    }, 
                    "animationTracks" : {
                    }
                  }, 
                  {
                    "id" : 202, 
                    "_type" : "AMFile", 
                    "src" : 5, 
                    "trackNumber" : 0, 
                    "attributes" : {
                      "ident" : "C03-S03-01", 
                      "gain" : 1.0, 
                      "mixToMono" : false, 
                      "loudnessNormalization" : true, 
                      "sourceFileOffset" : 0
                    }, 
                    "channelNumber" : "0", 
                    "parameters" : {
                    }, 
                    "effects" : [
                    ], 
                    "start" : 44429280000, 
                    "duration" : 2116800000, 
                    "mediaStart" : 0, 
                    "mediaDuration" : 2116800000, 
                    "scalar" : 1, 
                    "metadata" : {
                      "audiateLinkedSession" : "", 
                      "clipSpeedAttribute" : 
                        {
                          "type" : "bool", 
                          "value" : false
                        }, 
                      "colorAttribute" : 
                        {
                          "type" : "color", 
                          "value" : [ 0, 0, 0, 0]
                        }, 
                      "effectApplied" : "none"
                    }, 
                    "animationTracks" : {
                    }
                  }, 
                  {
                    "id" : 203, 
                    "_type" : "AMFile", 
                    "src" : 5, 
                    "trackNumber" : 0, 
                    "attributes" : {
                      "ident" : "C03-S03-01", 
                      "gain" : 1.0, 
                      "mixToMono" : false, 
                      "loudnessNormalization" : true, 
                      "sourceFileOffset" : 0
                    }, 
                    "channelNumber" : "0", 
                    "parameters" : {
                    }, 
                    "effects" : [
                    ], 
                    "start" : 46734240000, 
                    "duration" : 3151680000, 
                    "mediaStart" : 2116800000, 
                    "mediaDuration" : 3151680000, 
                    "scalar" : 1, 
                    "metadata" : {
                      "audiateLinkedSession" : "", 
                      "clipSpeedAttribute" : 
                        {
                          "type" : "bool", 
                          "value" : false
                        }, 
                      "colorAttribute" : 
                        {
                          "type" : "color", 
                          "value" : [ 0, 0, 0, 0]
                        }, 
                      "effectApplied" : "none"
                    }, 
                    "animationTracks" : {
                    }
                  }, 
                  {
                    "id" : 204, 
                    "_type" : "AMFile", 
                    "src" : 47, 
                    "trackNumber" : 0, 
                    "attributes" : {
                      "ident" : "C03-S04-01", 
                      "gain" : 1.0, 
                      "mixToMono" : false, 
                      "loudnessNormalization" : true, 
                      "sourceFileOffset" : 0
                    }, 
                    "channelNumber" : "0", 
                    "parameters" : {
                    }, 
                    "effects" : [
                    ], 
                    "start" : 50285760000, 
                    "duration" : 1764000000, 
                    "mediaStart" : 0, 
                    "mediaDuration" : 1764000000, 
                    "scalar" : 1, 
                    "metadata" : {
                      "audiateLinkedSession" : "", 
                      "clipSpeedAttribute" : 
                        {
                          "type" : "bool", 
                          "value" : false
                        }, 
                      "colorAttribute" : 
                        {
                          "type" : "color", 
                          "value" : [ 0, 0, 0, 0]
                        }, 
                      "effectApplied" : "none"
                    }, 
                    "animationTracks" : {
                    }
                  }, 
                  {
                    "id" : 205, 
                    "_type" : "AMFile", 
                    "src" : 48, 
                    "trackNumber" : 0, 
                    "attributes" : {
                      "ident" : "C03-S04-02", 
                      "gain" : 1.0, 
                      "mixToMono" : false, 
                      "loudnessNormalization" : true, 
                      "sourceFileOffset" : 0
                    }, 
                    "channelNumber" : "0", 
                    "parameters" : {
                    }, 
                    "effects" : [
                    ], 
                    "start" : 52637760000, 
                    "duration" : 2281440000, 
                    "mediaStart" : 0, 
                    "mediaDuration" : 2281440000, 
                    "scalar" : 1, 
                    "metadata" : {
                      "audiateLinkedSession" : "", 
                      "clipSpeedAttribute" : 
                        {
                          "type" : "bool", 
                          "value" : false
                        }, 
                      "colorAttribute" : 
                        {
                          "type" : "color", 
                          "value" : [ 0, 0, 0, 0]
                        }, 
                      "effectApplied" : "none"
                    }, 
                    "animationTracks" : {
                    }
                  }, 
                  {
                    "id" : 206, 
                    "_type" : "AMFile", 
                    "src" : 6, 
                    "trackNumber" : 0, 
                    "attributes" : {
                      "ident" : "C04-S01-01", 
                      "gain" : 1.0, 
                      "mixToMono" : false, 
                      "loudnessNormalization" : true, 
                      "sourceFileOffset" : 0
                    }, 
                    "channelNumber" : "0", 
                    "parameters" : {
                    }, 
                    "effects" : [
                    ], 
                    "start" : 54919200000, 
                    "duration" : 2916480000, 
                    "mediaStart" : 0, 
                    "mediaDuration" : 2916480000, 
                    "scalar" : 1, 
                    "metadata" : {
                      "audiateLinkedSession" : "", 
                      "clipSpeedAttribute" : 
                        {
                          "type" : "bool", 
                          "value" : false
                        }, 
                      "colorAttribute" : 
                        {
                          "type" : "color", 
                          "value" : [ 0, 0, 0, 0]
                        }, 
                      "effectApplied" : "none"
                    }, 
                    "animationTracks" : {
                    }
                  }, 
                  {
                    "id" : 207, 
                    "_type" : "AMFile", 
                    "src" : 49, 
                    "trackNumber" : 0, 
                    "attributes" : {
                      "ident" : "C04-S02-01", 
                      "gain" : 1.0, 
                      "mixToMono" : false, 
                      "loudnessNormalization" : true, 
                      "sourceFileOffset" : 0
                    }, 
                    "channelNumber" : "0", 
                    "parameters" : {
                    }, 
                    "effects" : [
                    ], 
                    "start" : 57835680000, 
                    "duration" : 1034880000, 
                    "mediaStart" : 0, 
                    "mediaDuration" : 1034880000, 
                    "scalar" : 1, 
                    "metadata" : {
                      "audiateLinkedSession" : "", 
                      "clipSpeedAttribute" : 
                        {
                          "type" : "bool", 
                          "value" : false
                        }, 
                      "colorAttribute" : 
                        {
                          "type" : "color", 
                          "value" : [ 0, 0, 0, 0]
                        }, 
                      "effectApplied" : "none"
                    }, 
                    "animationTracks" : {
                    }
                  }, 
                  {
                    "id" : 208, 
                    "_type" : "AMFile", 
                    "src" : 50, 
                    "trackNumber" : 0, 
                    "attributes" : {
                      "ident" : "C04-S02-02", 
                      "gain" : 1.0, 
                      "mixToMono" : false, 
                      "loudnessNormalization" : true, 
                      "sourceFileOffset" : 0
                    }, 
                    "channelNumber" : "0", 
                    "parameters" : {
                    }, 
                    "effects" : [
                    ], 
                    "start" : 58870560000, 
                    "duration" : 2022720000, 
                    "mediaStart" : 0, 
                    "mediaDuration" : 2022720000, 
                    "scalar" : 1, 
                    "metadata" : {
                      "audiateLinkedSession" : "", 
                      "clipSpeedAttribute" : 
                        {
                          "type" : "bool", 
                          "value" : false
                        }, 
                      "colorAttribute" : 
                        {
                          "type" : "color", 
                          "value" : [ 0, 0, 0, 0]
                        }, 
                      "effectApplied" : "none"
                    }, 
                    "animationTracks" : {
                    }
                  }, 
                  {
                    "id" : 209, 
                    "_type" : "AMFile", 
                    "src" : 51, 
                    "trackNumber" : 0, 
                    "attributes" : {
                      "ident" : "C04-S02-03", 
                      "gain" : 1.0, 
                      "mixToMono" : false, 
                      "loudnessNormalization" : true, 
                      "sourceFileOffset" : 0
                    }, 
                    "channelNumber" : "0", 
                    "parameters" : {
                    }, 
                    "effects" : [
                    ], 
                    "start" : 60893280000, 
                    "duration" : 4845120000, 
                    "mediaStart" : 0, 
                    "mediaDuration" : 4845120000, 
                    "scalar" : 1, 
                    "metadata" : {
                      "audiateLinkedSession" : "", 
                      "clipSpeedAttribute" : 
                        {
                          "type" : "bool", 
                          "value" : false
                        }, 
                      "colorAttribute" : 
                        {
                          "type" : "color", 
                          "value" : [ 0, 0, 0, 0]
                        }, 
                      "effectApplied" : "none"
                    }, 
                    "animationTracks" : {
                    }
                  }, 
                  {
                    "id" : 210, 
                    "_type" : "AMFile", 
                    "src" : 7, 
                    "trackNumber" : 0, 
                    "attributes" : {
                      "ident" : "C04-S03-01", 
                      "gain" : 1.0, 
                      "mixToMono" : false, 
                      "loudnessNormalization" : true, 
                      "sourceFileOffset" : 0
                    }, 
                    "channelNumber" : "0", 
                    "parameters" : {
                    }, 
                    "effects" : [
                    ], 
                    "start" : 66679200000, 
                    "duration" : 846720000, 
                    "mediaStart" : 0, 
                    "mediaDuration" : 846720000, 
                    "scalar" : 1, 
                    "metadata" : {
                      "audiateLinkedSession" : "", 
                      "clipSpeedAttribute" : 
                        {
                          "type" : "bool", 
                          "value" : false
                        }, 
                      "colorAttribute" : 
                        {
                          "type" : "color", 
                          "value" : [ 0, 0, 0, 0]
                        }, 
                      "effectApplied" : "none"
                    }, 
                    "animationTracks" : {
                    }
                  }, 
                  {
                    "id" : 211, 
                    "_type" : "AMFile", 
                    "src" : 7, 
                    "trackNumber" : 0, 
                    "attributes" : {
                      "ident" : "C04-S03-01", 
                      "gain" : 1.0, 
                      "mixToMono" : false, 
                      "loudnessNormalization" : true, 
                      "sourceFileOffset" : 0
                    }, 
                    "channelNumber" : "0", 
                    "parameters" : {
                    }, 
                    "effects" : [
                    ], 
                    "start" : 67643520000, 
                    "duration" : 3480960000, 
                    "mediaStart" : 846720000, 
                    "mediaDuration" : 3480960000, 
                    "scalar" : 1, 
                    "metadata" : {
                      "audiateLinkedSession" : "", 
                      "clipSpeedAttribute" : 
                        {
                          "type" : "bool", 
                          "value" : false
                        }, 
                      "colorAttribute" : 
                        {
                          "type" : "color", 
                          "value" : [ 0, 0, 0, 0]
                        }, 
                      "effectApplied" : "none"
                    }, 
                    "animationTracks" : {
                    }
                  }, 
                  {
                    "id" : 212, 
                    "_type" : "AMFile", 
                    "src" : 8, 
                    "trackNumber" : 0, 
                    "attributes" : {
                      "ident" : "C04-S04-01", 
                      "gain" : 1.0, 
                      "mixToMono" : false, 
                      "loudnessNormalization" : true, 
                      "sourceFileOffset" : 0
                    }, 
                    "channelNumber" : "0", 
                    "parameters" : {
                    }, 
                    "effects" : [
                    ], 
                    "start" : 72512160000, 
                    "duration" : 729120000, 
                    "mediaStart" : 0, 
                    "mediaDuration" : 729120000, 
                    "scalar" : 1, 
                    "metadata" : {
                      "audiateLinkedSession" : "", 
                      "clipSpeedAttribute" : 
                        {
                          "type" : "bool", 
                          "value" : false
                        }, 
                      "colorAttribute" : 
                        {
                          "type" : "color", 
                          "value" : [ 0, 0, 0, 0]
                        }, 
                      "effectApplied" : "none"
                    }, 
                    "animationTracks" : {
                    }
                  }, 
                  {
                    "id" : 213, 
                    "_type" : "AMFile", 
                    "src" : 8, 
                    "trackNumber" : 0, 
                    "attributes" : {
                      "ident" : "C04-S04-01", 
                      "gain" : 1.0, 
                      "mixToMono" : false, 
                      "loudnessNormalization" : true, 
                      "sourceFileOffset" : 0
                    }, 
                    "channelNumber" : "0", 
                    "parameters" : {
                    }, 
                    "effects" : [
                    ], 
                    "start" : 73993920000, 
                    "duration" : 4445280000, 
                    "mediaStart" : 729120000, 
                    "mediaDuration" : 4445280000, 
                    "scalar" : 1, 
                    "metadata" : {
                      "audiateLinkedSession" : "", 
                      "clipSpeedAttribute" : 
                        {
                          "type" : "bool", 
                          "value" : false
                        }, 
                      "colorAttribute" : 
                        {
                          "type" : "color", 
                          "value" : [ 0, 0, 0, 0]
                        }, 
                      "effectApplied" : "none"
                    }, 
                    "animationTracks" : {
                    }
                  }, 
                  {
                    "id" : 214, 
                    "_type" : "AMFile", 
                    "src" : 9, 
                    "trackNumber" : 0, 
                    "attributes" : {
                      "ident" : "C04-S05-01", 
                      "gain" : 1.0, 
                      "mixToMono" : false, 
                      "loudnessNormalization" : true, 
                      "sourceFileOffset" : 0
                    }, 
                    "channelNumber" : "0", 
                    "parameters" : {
                    }, 
                    "effects" : [
                    ], 
                    "start" : 79474080000, 
                    "duration" : 1152480000, 
                    "mediaStart" : 0, 
                    "mediaDuration" : 1152480000, 
                    "scalar" : 1, 
                    "metadata" : {
                      "audiateLinkedSession" : "", 
                      "clipSpeedAttribute" : 
                        {
                          "type" : "bool", 
                          "value" : false
                        }, 
                      "colorAttribute" : 
                        {
                          "type" : "color", 
                          "value" : [ 0, 0, 0, 0]
                        }, 
                      "effectApplied" : "none"
                    }, 
                    "animationTracks" : {
                    }
                  }, 
                  {
                    "id" : 215, 
                    "_type" : "AMFile", 
                    "src" : 9, 
                    "trackNumber" : 0, 
                    "attributes" : {
                      "ident" : "C04-S05-01", 
                      "gain" : 1.0, 
                      "mixToMono" : false, 
                      "loudnessNormalization" : true, 
                      "sourceFileOffset" : 0
                    }, 
                    "channelNumber" : "0", 
                    "parameters" : {
                    }, 
                    "effects" : [
                    ], 
                    "start" : 81144000000, 
                    "duration" : 2728320000, 
                    "mediaStart" : 1152480000, 
                    "mediaDuration" : 2728320000, 
                    "scalar" : 1, 
                    "metadata" : {
                      "audiateLinkedSession" : "", 
                      "clipSpeedAttribute" : 
                        {
                          "type" : "bool", 
                          "value" : false
                        }, 
                      "colorAttribute" : 
                        {
                          "type" : "color", 
                          "value" : [ 0, 0, 0, 0]
                        }, 
                      "effectApplied" : "none"
                    }, 
                    "animationTracks" : {
                    }
                  }, 
                  {
                    "id" : 216, 
                    "_type" : "AMFile", 
                    "src" : 10, 
                    "trackNumber" : 0, 
                    "attributes" : {
                      "ident" : "C04-S06-01", 
                      "gain" : 1.0, 
                      "mixToMono" : false, 
                      "loudnessNormalization" : true, 
                      "sourceFileOffset" : 0
                    }, 
                    "channelNumber" : "0", 
                    "parameters" : {
                    }, 
                    "effects" : [
                    ], 
                    "start" : 85118880000, 
                    "duration" : 846720000, 
                    "mediaStart" : 0, 
                    "mediaDuration" : 846720000, 
                    "scalar" : 1, 
                    "metadata" : {
                      "audiateLinkedSession" : "", 
                      "clipSpeedAttribute" : 
                        {
                          "type" : "bool", 
                          "value" : false
                        }, 
                      "colorAttribute" : 
                        {
                          "type" : "color", 
                          "value" : [ 0, 0, 0, 0]
                        }, 
                      "effectApplied" : "none"
                    }, 
                    "animationTracks" : {
                    }
                  }, 
                  {
                    "id" : 217, 
                    "_type" : "AMFile", 
                    "src" : 10, 
                    "trackNumber" : 0, 
                    "attributes" : {
                      "ident" : "C04-S06-01", 
                      "gain" : 1.0, 
                      "mixToMono" : false, 
                      "loudnessNormalization" : true, 
                      "sourceFileOffset" : 0
                    }, 
                    "channelNumber" : "0", 
                    "parameters" : {
                    }, 
                    "effects" : [
                    ], 
                    "start" : 86624160000, 
                    "duration" : 3057600000, 
                    "mediaStart" : 846720000, 
                    "mediaDuration" : 3057600000, 
                    "scalar" : 1, 
                    "metadata" : {
                      "audiateLinkedSession" : "", 
                      "clipSpeedAttribute" : 
                        {
                          "type" : "bool", 
                          "value" : false
                        }, 
                      "colorAttribute" : 
                        {
                          "type" : "color", 
                          "value" : [ 0, 0, 0, 0]
                        }, 
                      "effectApplied" : "none"
                    }, 
                    "animationTracks" : {
                    }
                  }, 
                  {
                    "id" : 218, 
                    "_type" : "AMFile", 
                    "src" : 11, 
                    "trackNumber" : 0, 
                    "attributes" : {
                      "ident" : "C04-S07-01", 
                      "gain" : 1.0, 
                      "mixToMono" : false, 
                      "loudnessNormalization" : true, 
                      "sourceFileOffset" : 0
                    }, 
                    "channelNumber" : "0", 
                    "parameters" : {
                    }, 
                    "effects" : [
                    ], 
                    "start" : 90105120000, 
                    "duration" : 2375520000, 
                    "mediaStart" : 0, 
                    "mediaDuration" : 2375520000, 
                    "scalar" : 1, 
                    "metadata" : {
                      "audiateLinkedSession" : "", 
                      "clipSpeedAttribute" : 
                        {
                          "type" : "bool", 
                          "value" : false
                        }, 
                      "colorAttribute" : 
                        {
                          "type" : "color", 
                          "value" : [ 0, 0, 0, 0]
                        }, 
                      "effectApplied" : "none"
                    }, 
                    "animationTracks" : {
                    }
                  }, 
                  {
                    "id" : 219, 
                    "_type" : "AMFile", 
                    "src" : 11, 
                    "trackNumber" : 0, 
                    "attributes" : {
                      "ident" : "C04-S07-01", 
                      "gain" : 1.0, 
                      "mixToMono" : false, 
                      "loudnessNormalization" : true, 
                      "sourceFileOffset" : 0
                    }, 
                    "channelNumber" : "0", 
                    "parameters" : {
                    }, 
                    "effects" : [
                    ], 
                    "start" : 92645280000, 
                    "duration" : 2845920000, 
                    "mediaStart" : 2375520000, 
                    "mediaDuration" : 2845920000, 
                    "scalar" : 1, 
                    "metadata" : {
                      "audiateLinkedSession" : "", 
                      "clipSpeedAttribute" : 
                        {
                          "type" : "bool", 
                          "value" : false
                        }, 
                      "colorAttribute" : 
                        {
                          "type" : "color", 
                          "value" : [ 0, 0, 0, 0]
                        }, 
                      "effectApplied" : "none"
                    }, 
                    "animationTracks" : {
                    }
                  }, 
                  {
                    "id" : 220, 
                    "_type" : "AMFile", 
                    "src" : 12, 
                    "trackNumber" : 0, 
                    "attributes" : {
                      "ident" : "C05-S01-01", 
                      "gain" : 1.0, 
                      "mixToMono" : false, 
                      "loudnessNormalization" : true, 
                      "sourceFileOffset" : 0
                    }, 
                    "channelNumber" : "0", 
                    "parameters" : {
                    }, 
                    "effects" : [
                    ], 
                    "start" : 96808320000, 
                    "duration" : 2845920000, 
                    "mediaStart" : 0, 
                    "mediaDuration" : 2845920000, 
                    "scalar" : 1, 
                    "metadata" : {
                      "audiateLinkedSession" : "", 
                      "clipSpeedAttribute" : 
                        {
                          "type" : "bool", 
                          "value" : false
                        }, 
                      "colorAttribute" : 
                        {
                          "type" : "color", 
                          "value" : [ 0, 0, 0, 0]
                        }, 
                      "effectApplied" : "none"
                    }, 
                    "animationTracks" : {
                    }
                  }, 
                  {
                    "id" : 221, 
                    "_type" : "AMFile", 
                    "src" : 13, 
                    "trackNumber" : 0, 
                    "attributes" : {
                      "ident" : "C05-S01-02", 
                      "gain" : 1.0, 
                      "mixToMono" : false, 
                      "loudnessNormalization" : true, 
                      "sourceFileOffset" : 0
                    }, 
                    "channelNumber" : "0", 
                    "parameters" : {
                    }, 
                    "effects" : [
                    ], 
                    "start" : 99654240000, 
                    "duration" : 3575040000, 
                    "mediaStart" : 0, 
                    "mediaDuration" : 3575040000, 
                    "scalar" : 1, 
                    "metadata" : {
                      "audiateLinkedSession" : "", 
                      "clipSpeedAttribute" : 
                        {
                          "type" : "bool", 
                          "value" : false
                        }, 
                      "colorAttribute" : 
                        {
                          "type" : "color", 
                          "value" : [ 0, 0, 0, 0]
                        }, 
                      "effectApplied" : "none"
                    }, 
                    "animationTracks" : {
                    }
                  }, 
                  {
                    "id" : 222, 
                    "_type" : "AMFile", 
                    "src" : 14, 
                    "trackNumber" : 0, 
                    "attributes" : {
                      "ident" : "C05-S02-01", 
                      "gain" : 1.0, 
                      "mixToMono" : false, 
                      "loudnessNormalization" : true, 
                      "sourceFileOffset" : 0
                    }, 
                    "channelNumber" : "0", 
                    "parameters" : {
                    }, 
                    "effects" : [
                    ], 
                    "start" : 103229280000, 
                    "duration" : 2775360000, 
                    "mediaStart" : 0, 
                    "mediaDuration" : 2775360000, 
                    "scalar" : 1, 
                    "metadata" : {
                      "audiateLinkedSession" : "", 
                      "clipSpeedAttribute" : 
                        {
                          "type" : "bool", 
                          "value" : false
                        }, 
                      "colorAttribute" : 
                        {
                          "type" : "color", 
                          "value" : [ 0, 0, 0, 0]
                        }, 
                      "effectApplied" : "none"
                    }, 
                    "animationTracks" : {
                    }
                  }, 
                  {
                    "id" : 223, 
                    "_type" : "AMFile", 
                    "src" : 15, 
                    "trackNumber" : 0, 
                    "attributes" : {
                      "ident" : "C05-S02-02", 
                      "gain" : 1.0, 
                      "mixToMono" : false, 
                      "loudnessNormalization" : true, 
                      "sourceFileOffset" : 0
                    }, 
                    "channelNumber" : "0", 
                    "parameters" : {
                    }, 
                    "effects" : [
                    ], 
                    "start" : 106051680000, 
                    "duration" : 3974880000, 
                    "mediaStart" : 0, 
                    "mediaDuration" : 3974880000, 
                    "scalar" : 1, 
                    "metadata" : {
                      "audiateLinkedSession" : "", 
                      "clipSpeedAttribute" : 
                        {
                          "type" : "bool", 
                          "value" : false
                        }, 
                      "colorAttribute" : 
                        {
                          "type" : "color", 
                          "value" : [ 0, 0, 0, 0]
                        }, 
                      "effectApplied" : "none"
                    }, 
                    "animationTracks" : {
                    }
                  }, 
                  {
                    "id" : 224, 
                    "_type" : "AMFile", 
                    "src" : 109, 
                    "trackNumber" : 0, 
                    "attributes" : {
                      "ident" : "C05-S03-01", 
                      "gain" : 1.0, 
                      "mixToMono" : false, 
                      "loudnessNormalization" : true, 
                      "sourceFileOffset" : 0
                    }, 
                    "channelNumber" : "0", 
                    "parameters" : {
                    }, 
                    "effects" : [
                    ], 
                    "start" : 110402880000, 
                    "duration" : 4068960000, 
                    "mediaStart" : 0, 
                    "mediaDuration" : 4068960000, 
                    "scalar" : 1, 
                    "metadata" : {
                      "audiateLinkedSession" : "", 
                      "clipSpeedAttribute" : 
                        {
                          "type" : "bool", 
                          "value" : false
                        }, 
                      "colorAttribute" : 
                        {
                          "type" : "color", 
                          "value" : [ 0, 0, 0, 0]
                        }, 
                      "effectApplied" : "none"
                    }, 
                    "animationTracks" : {
                    }
                  }, 
                  {
                    "id" : 225, 
                    "_type" : "AMFile", 
                    "src" : 110, 
                    "trackNumber" : 0, 
                    "attributes" : {
                      "ident" : "C05-S03-02", 
                      "gain" : 1.0, 
                      "mixToMono" : false, 
                      "loudnessNormalization" : true, 
                      "sourceFileOffset" : 0
                    }, 
                    "channelNumber" : "0", 
                    "parameters" : {
                    }, 
                    "effects" : [
                    ], 
                    "start" : 114471840000, 
                    "duration" : 7596960000, 
                    "mediaStart" : 0, 
                    "mediaDuration" : 7596960000, 
                    "scalar" : 1, 
                    "metadata" : {
                      "audiateLinkedSession" : "", 
                      "clipSpeedAttribute" : 
                        {
                          "type" : "bool", 
                          "value" : false
                        }, 
                      "colorAttribute" : 
                        {
                          "type" : "color", 
                          "value" : [ 0, 0, 0, 0]
                        }, 
                      "effectApplied" : "none"
                    }, 
                    "animationTracks" : {
                    }
                  }, 
                  {
                    "id" : 226, 
                    "_type" : "AMFile", 
                    "src" : 111, 
                    "trackNumber" : 0, 
                    "attributes" : {
                      "ident" : "C05-S03-03", 
                      "gain" : 1.0, 
                      "mixToMono" : false, 
                      "loudnessNormalization" : true, 
                      "sourceFileOffset" : 0
                    }, 
                    "channelNumber" : "0", 
                    "parameters" : {
                    }, 
                    "effects" : [
                    ], 
                    "start" : 122351040000, 
                    "duration" : 4586400000, 
                    "mediaStart" : 0, 
                    "mediaDuration" : 4586400000, 
                    "scalar" : 1, 
                    "metadata" : {
                      "audiateLinkedSession" : "", 
                      "clipSpeedAttribute" : 
                        {
                          "type" : "bool", 
                          "value" : false
                        }, 
                      "colorAttribute" : 
                        {
                          "type" : "color", 
                          "value" : [ 0, 0, 0, 0]
                        }, 
                      "effectApplied" : "none"
                    }, 
                    "animationTracks" : {
                    }
                  }, 
                  {
                    "id" : 227, 
                    "_type" : "AMFile", 
                    "src" : 108, 
                    "trackNumber" : 0, 
                    "attributes" : {
                      "ident" : "C05-S04-01", 
                      "gain" : 1.0, 
                      "mixToMono" : false, 
                      "loudnessNormalization" : true, 
                      "sourceFileOffset" : 0
                    }, 
                    "channelNumber" : "0", 
                    "parameters" : {
                    }, 
                    "effects" : [
                    ], 
                    "start" : 127431360000, 
                    "duration" : 7526400000, 
                    "mediaStart" : 0, 
                    "mediaDuration" : 7526400000, 
                    "scalar" : 1, 
                    "metadata" : {
                      "audiateLinkedSession" : "", 
                      "clipSpeedAttribute" : 
                        {
                          "type" : "bool", 
                          "value" : false
                        }, 
                      "colorAttribute" : 
                        {
                          "type" : "color", 
                          "value" : [ 0, 0, 0, 0]
                        }, 
                      "effectApplied" : "none"
                    }, 
                    "animationTracks" : {
                    }
                  }, 
                  {
                    "id" : 228, 
                    "_type" : "AMFile", 
                    "src" : 16, 
                    "trackNumber" : 0, 
                    "attributes" : {
                      "ident" : "C06-S01-01", 
                      "gain" : 1.0, 
                      "mixToMono" : false, 
                      "loudnessNormalization" : true, 
                      "sourceFileOffset" : 0
                    }, 
                    "channelNumber" : "0", 
                    "parameters" : {
                    }, 
                    "effects" : [
                    ], 
                    "start" : 135216480000, 
                    "duration" : 1458240000, 
                    "mediaStart" : 0, 
                    "mediaDuration" : 1458240000, 
                    "scalar" : 1, 
                    "metadata" : {
                      "audiateLinkedSession" : "", 
                      "clipSpeedAttribute" : 
                        {
                          "type" : "bool", 
                          "value" : false
                        }, 
                      "colorAttribute" : 
                        {
                          "type" : "color", 
                          "value" : [ 0, 0, 0, 0]
                        }, 
                      "effectApplied" : "none"
                    }, 
                    "animationTracks" : {
                    }
                  }, 
                  {
                    "id" : 229, 
                    "_type" : "AMFile", 
                    "src" : 29, 
                    "trackNumber" : 0, 
                    "attributes" : {
                      "ident" : "C06-S01-02-Hosting", 
                      "gain" : 1.0, 
                      "mixToMono" : false, 
                      "loudnessNormalization" : true, 
                      "sourceFileOffset" : 0
                    }, 
                    "channelNumber" : "0", 
                    "parameters" : {
                    }, 
                    "effects" : [
                    ], 
                    "start" : 137121600000, 
                    "duration" : 493920000, 
                    "mediaStart" : 0, 
                    "mediaDuration" : 493920000, 
                    "scalar" : 1, 
                    "metadata" : {
                      "audiateLinkedSession" : "", 
                      "clipSpeedAttribute" : 
                        {
                          "type" : "bool", 
                          "value" : false
                        }, 
                      "colorAttribute" : 
                        {
                          "type" : "color", 
                          "value" : [ 0, 0, 0, 0]
                        }, 
                      "effectApplied" : "none"
                    }, 
                    "animationTracks" : {
                    }
                  }, 
                  {
                    "id" : 230, 
                    "_type" : "AMFile", 
                    "src" : 52, 
                    "trackNumber" : 0, 
                    "attributes" : {
                      "ident" : "C06-S01-03", 
                      "gain" : 1.0, 
                      "mixToMono" : false, 
                      "loudnessNormalization" : true, 
                      "sourceFileOffset" : 0
                    }, 
                    "channelNumber" : "0", 
                    "parameters" : {
                    }, 
                    "effects" : [
                    ], 
                    "start" : 140155680000, 
                    "duration" : 2916480000, 
                    "mediaStart" : 0, 
                    "mediaDuration" : 2916480000, 
                    "scalar" : 1, 
                    "metadata" : {
                      "audiateLinkedSession" : "", 
                      "clipSpeedAttribute" : 
                        {
                          "type" : "bool", 
                          "value" : false
                        }, 
                      "colorAttribute" : 
                        {
                          "type" : "color", 
                          "value" : [ 0, 0, 0, 0]
                        }, 
                      "effectApplied" : "none"
                    }, 
                    "animationTracks" : {
                    }
                  }, 
                  {
                    "id" : 231, 
                    "_type" : "AMFile", 
                    "src" : 52, 
                    "trackNumber" : 0, 
                    "attributes" : {
                      "ident" : "C06-S01-03", 
                      "gain" : 1.0, 
                      "mixToMono" : false, 
                      "loudnessNormalization" : true, 
                      "sourceFileOffset" : 0
                    }, 
                    "channelNumber" : "0", 
                    "parameters" : {
                    }, 
                    "effects" : [
                    ], 
                    "start" : 143613120000, 
                    "duration" : 2046240000, 
                    "mediaStart" : 2916480000, 
                    "mediaDuration" : 2046240000, 
                    "scalar" : 1, 
                    "metadata" : {
                      "audiateLinkedSession" : "", 
                      "clipSpeedAttribute" : 
                        {
                          "type" : "bool", 
                          "value" : false
                        }, 
                      "colorAttribute" : 
                        {
                          "type" : "color", 
                          "value" : [ 0, 0, 0, 0]
                        }, 
                      "effectApplied" : "none"
                    }, 
                    "animationTracks" : {
                    }
                  }, 
                  {
                    "id" : 232, 
                    "_type" : "AMFile", 
                    "src" : 30, 
                    "trackNumber" : 0, 
                    "attributes" : {
                      "ident" : "C06-S01-01-Domain", 
                      "gain" : 1.0, 
                      "mixToMono" : false, 
                      "loudnessNormalization" : true, 
                      "sourceFileOffset" : 0
                    }, 
                    "channelNumber" : "0", 
                    "parameters" : {
                    }, 
                    "effects" : [
                    ], 
                    "start" : 146200320000, 
                    "duration" : 470400000, 
                    "mediaStart" : 0, 
                    "mediaDuration" : 470400000, 
                    "scalar" : 1, 
                    "metadata" : {
                      "audiateLinkedSession" : "", 
                      "clipSpeedAttribute" : 
                        {
                          "type" : "bool", 
                          "value" : false
                        }, 
                      "colorAttribute" : 
                        {
                          "type" : "color", 
                          "value" : [ 0, 0, 0, 0]
                        }, 
                      "effectApplied" : "none"
                    }, 
                    "animationTracks" : {
                    }
                  }, 
                  {
                    "id" : 233, 
                    "_type" : "AMFile", 
                    "src" : 53, 
                    "trackNumber" : 0, 
                    "attributes" : {
                      "ident" : "C06-S02-02", 
                      "gain" : 1.0, 
                      "mixToMono" : false, 
                      "loudnessNormalization" : true, 
                      "sourceFileOffset" : 0
                    }, 
                    "channelNumber" : "0", 
                    "parameters" : {
                    }, 
                    "effects" : [
                    ], 
                    "start" : 148199520000, 
                    "duration" : 5668320000, 
                    "mediaStart" : 0, 
                    "mediaDuration" : 5668320000, 
                    "scalar" : 1, 
                    "metadata" : {
                      "audiateLinkedSession" : "", 
                      "clipSpeedAttribute" : 
                        {
                          "type" : "bool", 
                          "value" : false
                        }, 
                      "colorAttribute" : 
                        {
                          "type" : "color", 
                          "value" : [ 0, 0, 0, 0]
                        }, 
                      "effectApplied" : "none"
                    }, 
                    "animationTracks" : {
                    }
                  }, 
                  {
                    "id" : 234, 
                    "_type" : "AMFile", 
                    "src" : 17, 
                    "trackNumber" : 0, 
                    "attributes" : {
                      "ident" : "C06-S03-01", 
                      "gain" : 1.0, 
                      "mixToMono" : false, 
                      "loudnessNormalization" : true, 
                      "sourceFileOffset" : 0
                    }, 
                    "channelNumber" : "0", 
                    "parameters" : {
                    }, 
                    "effects" : [
                    ], 
                    "start" : 154150080000, 
                    "duration" : 3081120000, 
                    "mediaStart" : 0, 
                    "mediaDuration" : 3081120000, 
                    "scalar" : 1, 
                    "metadata" : {
                      "audiateLinkedSession" : "", 
                      "clipSpeedAttribute" : 
                        {
                          "type" : "bool", 
                          "value" : false
                        }, 
                      "colorAttribute" : 
                        {
                          "type" : "color", 
                          "value" : [ 0, 0, 0, 0]
                        }, 
                      "effectApplied" : "none"
                    }, 
                    "animationTracks" : {
                    }
                  }, 
                  {
                    "id" : 235, 
                    "_type" : "AMFile", 
                    "src" : 17, 
                    "trackNumber" : 0, 
                    "attributes" : {
                      "ident" : "C06-S03-01", 
                      "gain" : 1.0, 
                      "mixToMono" : false, 
                      "loudnessNormalization" : true, 
                      "sourceFileOffset" : 0
                    }, 
                    "channelNumber" : "0", 
                    "parameters" : {
                    }, 
                    "effects" : [
                    ], 
                    "start" : 157631040000, 
                    "duration" : 2069760000, 
                    "mediaStart" : 3081120000, 
                    "mediaDuration" : 2069760000, 
                    "scalar" : 1, 
                    "metadata" : {
                      "audiateLinkedSession" : "", 
                      "clipSpeedAttribute" : 
                        {
                          "type" : "bool", 
                          "value" : false
                        }, 
                      "colorAttribute" : 
                        {
                          "type" : "color", 
                          "value" : [ 0, 0, 0, 0]
                        }, 
                      "effectApplied" : "none"
                    }, 
                    "animationTracks" : {
                    }
                  }, 
                  {
                    "id" : 236, 
                    "_type" : "AMFile", 
                    "src" : 18, 
                    "trackNumber" : 0, 
                    "attributes" : {
                      "ident" : "C07-S01-01", 
                      "gain" : 1.0, 
                      "mixToMono" : false, 
                      "loudnessNormalization" : true, 
                      "sourceFileOffset" : 0
                    }, 
                    "channelNumber" : "0", 
                    "parameters" : {
                    }, 
                    "effects" : [
                    ], 
                    "start" : 160382880000, 
                    "duration" : 3598560000, 
                    "mediaStart" : 0, 
                    "mediaDuration" : 3598560000, 
                    "scalar" : 1, 
                    "metadata" : {
                      "audiateLinkedSession" : "", 
                      "clipSpeedAttribute" : 
                        {
                          "type" : "bool", 
                          "value" : false
                        }, 
                      "colorAttribute" : 
                        {
                          "type" : "color", 
                          "value" : [ 0, 0, 0, 0]
                        }, 
                      "effectApplied" : "none"
                    }, 
                    "animationTracks" : {
                    }
                  }, 
                  {
                    "id" : 237, 
                    "_type" : "AMFile", 
                    "src" : 18, 
                    "trackNumber" : 0, 
                    "attributes" : {
                      "ident" : "C07-S01-01", 
                      "gain" : 1.0, 
                      "mixToMono" : false, 
                      "loudnessNormalization" : true, 
                      "sourceFileOffset" : 0
                    }, 
                    "channelNumber" : "0", 
                    "parameters" : {
                    }, 
                    "effects" : [
                    ], 
                    "start" : 163981440000, 
                    "duration" : 3010560000, 
                    "mediaStart" : 3598560000, 
                    "mediaDuration" : 3010560000, 
                    "scalar" : 1, 
                    "metadata" : {
                      "audiateLinkedSession" : "", 
                      "clipSpeedAttribute" : 
                        {
                          "type" : "bool", 
                          "value" : false
                        }, 
                      "colorAttribute" : 
                        {
                          "type" : "color", 
                          "value" : [ 0, 0, 0, 0]
                        }, 
                      "effectApplied" : "none"
                    }, 
                    "animationTracks" : {
                    }
                  }, 
                  {
                    "id" : 238, 
                    "_type" : "AMFile", 
                    "src" : 19, 
                    "trackNumber" : 0, 
                    "attributes" : {
                      "ident" : "C07-S02-01", 
                      "gain" : 1.0, 
                      "mixToMono" : false, 
                      "loudnessNormalization" : true, 
                      "sourceFileOffset" : 0
                    }, 
                    "channelNumber" : "0", 
                    "parameters" : {
                    }, 
                    "effects" : [
                    ], 
                    "start" : 167391840000, 
                    "duration" : 2399040000, 
                    "mediaStart" : 0, 
                    "mediaDuration" : 2399040000, 
                    "scalar" : 1, 
                    "metadata" : {
                      "audiateLinkedSession" : "", 
                      "clipSpeedAttribute" : 
                        {
                          "type" : "bool", 
                          "value" : false
                        }, 
                      "colorAttribute" : 
                        {
                          "type" : "color", 
                          "value" : [ 0, 0, 0, 0]
                        }, 
                      "effectApplied" : "none"
                    }, 
                    "animationTracks" : {
                    }
                  }, 
                  {
                    "id" : 239, 
                    "_type" : "AMFile", 
                    "src" : 20, 
                    "trackNumber" : 0, 
                    "attributes" : {
                      "ident" : "C07-S02-02", 
                      "gain" : 1.0, 
                      "mixToMono" : false, 
                      "loudnessNormalization" : true, 
                      "sourceFileOffset" : 0
                    }, 
                    "channelNumber" : "0", 
                    "parameters" : {
                    }, 
                    "effects" : [
                    ], 
                    "start" : 170637600000, 
                    "duration" : 2328480000, 
                    "mediaStart" : 0, 
                    "mediaDuration" : 2328480000, 
                    "scalar" : 1, 
                    "metadata" : {
                      "audiateLinkedSession" : "", 
                      "clipSpeedAttribute" : 
                        {
                          "type" : "bool", 
                          "value" : false
                        }, 
                      "colorAttribute" : 
                        {
                          "type" : "color", 
                          "value" : [ 0, 0, 0, 0]
                        }, 
                      "effectApplied" : "none"
                    }, 
                    "animationTracks" : {
                    }
                  }
                ], 
                "parameters" : {
                }
              }, 
              {
                "trackIndex" : 2, 
                "medias" : [
                  {
                    "id" : 240, 
                    "_type" : "VMFile", 
                    "src" : 26, 
                    "trackNumber" : 0, 
                    "attributes" : {
                      "ident" : "c01-s01"
                    }, 
                    "parameters" : {
                      "geometryCrop0" : 0.0, 
                      "geometryCrop1" : 0.0, 
                      "geometryCrop2" : 0.0, 
                      "geometryCrop3" : 0.0
                    }, 
                    "effects" : [
                    ], 
                    "start" : 0, 
                    "duration" : 3528000000, 
                    "mediaStart" : 0, 
                    "mediaDuration" : 3528000000, 
                    "scalar" : 1, 
                    "metadata" : {
                      "audiateLinkedSession" : "", 
                      "clipSpeedAttribute" : 
                        {
                          "type" : "bool", 
                          "value" : false
                        }, 
                      "colorAttribute" : 
                        {
                          "type" : "color", 
                          "value" : [ 0, 0, 0, 0]
                        }, 
                      "default-anchor0" : 
                        {
                          "type" : "double", 
                          "value" : 0.0
                        }, 
                      "default-anchor1" : 
                        {
                          "type" : "double", 
                          "value" : 0.0
                        }, 
                      "default-anchor2" : 
                        {
                          "type" : "double", 
                          "value" : 0.0
                        }, 
                      "default-height" : 
                        {
                          "type" : "double", 
                          "value" : 1080.0
                        }, 
                      "default-rotation0" : 
                        {
                          "type" : "double", 
                          "value" : 0.0
                        }, 
                      "default-rotation1" : 
                        {
                          "type" : "double", 
                          "value" : 0.0
                        }, 
                      "default-rotation2" : 
                        {
                          "type" : "double", 
                          "value" : 0.0
                        }, 
                      "default-scale" : "1", 
                      "default-scale0" : 
                        {
                          "type" : "double", 
                          "value" : 1.0
                        }, 
                      "default-scale1" : 
                        {
                          "type" : "double", 
                          "value" : 1.0
                        }, 
                      "default-scale2" : 
                        {
                          "type" : "double", 
                          "value" : 1.0
                        }, 
                      "default-shear0" : 
                        {
                          "type" : "double", 
                          "value" : 0.0
                        }, 
                      "default-shear1" : 
                        {
                          "type" : "double", 
                          "value" : 0.0
                        }, 
                      "default-shear2" : 
                        {
                          "type" : "double", 
                          "value" : 0.0
                        }, 
                      "default-translation0" : 
                        {
                          "type" : "double", 
                          "value" : 0.0
                        }, 
                      "default-translation1" : 
                        {
                          "type" : "double", 
                          "value" : 0.0
                        }, 
                      "default-translation2" : 
                        {
                          "type" : "double", 
                          "value" : 0.0
                        }, 
                      "default-width" : 
                        {
                          "type" : "double", 
                          "value" : 1920.0
                        }, 
                      "effectApplied" : "none", 
                      "lockAspectRatio" : 
                        {
                          "type" : "bool", 
                          "value" : true
                        }
                    }, 
                    "animationTracks" : {
                    }
                  }, 
                  {
                    "id" : 241, 
                    "_type" : "VMFile", 
                    "src" : 36, 
                    "trackNumber" : 0, 
                    "attributes" : {
                      "ident" : "c01-s02"
                    }, 
                    "parameters" : {
                      "geometryCrop0" : 0.0, 
                      "geometryCrop1" : 0.0, 
                      "geometryCrop2" : 0.0, 
                      "geometryCrop3" : 0.0
                    }, 
                    "effects" : [
                    ], 
                    "start" : 3528000000, 
                    "duration" : 2116800000, 
                    "mediaStart" : 0, 
                    "mediaDuration" : 2116800000, 
                    "scalar" : 1, 
                    "metadata" : {
                      "audiateLinkedSession" : "", 
                      "clipSpeedAttribute" : 
                        {
                          "type" : "bool", 
                          "value" : false
                        }, 
                      "colorAttribute" : 
                        {
                          "type" : "color", 
                          "value" : [ 0, 0, 0, 0]
                        }, 
                      "default-scale" : "1", 
                      "effectApplied" : "none", 
                      "lockAspectRatio" : 
                        {
                          "type" : "bool", 
                          "value" : true
                        }
                    }, 
                    "animationTracks" : {
                    }
                  }, 
                  {
                    "id" : 242, 
                    "_type" : "VMFile", 
                    "src" : 119, 
                    "trackNumber" : 0, 
                    "attributes" : {
                      "ident" : "c01-s03"
                    }, 
                    "parameters" : {
                      "geometryCrop0" : 0.0, 
                      "geometryCrop1" : 0.0, 
                      "geometryCrop2" : 0.0, 
                      "geometryCrop3" : 0.0
                    }, 
                    "effects" : [
                    ], 
                    "start" : 5644800000, 
                    "duration" : 4163040000, 
                    "mediaStart" : 0, 
                    "mediaDuration" : 4163040000, 
                    "scalar" : 1, 
                    "metadata" : {
                      "audiateLinkedSession" : "", 
                      "clipSpeedAttribute" : 
                        {
                          "type" : "bool", 
                          "value" : false
                        }, 
                      "colorAttribute" : 
                        {
                          "type" : "color", 
                          "value" : [ 0, 0, 0, 0]
                        }, 
                      "default-scale" : "1", 
                      "effectApplied" : "none", 
                      "lockAspectRatio" : 
                        {
                          "type" : "bool", 
                          "value" : true
                        }
                    }, 
                    "animationTracks" : {
                    }
                  }, 
                  {
                    "id" : 243, 
                    "_type" : "VMFile", 
                    "src" : 32, 
                    "trackNumber" : 0, 
                    "attributes" : {
                      "ident" : "c01-s04"
                    }, 
                    "parameters" : {
                      "geometryCrop0" : 0.0, 
                      "geometryCrop1" : 0.0, 
                      "geometryCrop2" : 0.0, 
                      "geometryCrop3" : 0.0
                    }, 
                    "effects" : [
                    ], 
                    "start" : 9807840000, 
                    "duration" : 11289600000, 
                    "mediaStart" : 0, 
                    "mediaDuration" : 11289600000, 
                    "scalar" : 1, 
                    "metadata" : {
                      "audiateLinkedSession" : "", 
                      "clipSpeedAttribute" : 
                        {
                          "type" : "bool", 
                          "value" : false
                        }, 
                      "colorAttribute" : 
                        {
                          "type" : "color", 
                          "value" : [ 0, 0, 0, 0]
                        }, 
                      "default-scale" : "1", 
                      "effectApplied" : "none", 
                      "lockAspectRatio" : 
                        {
                          "type" : "bool", 
                          "value" : true
                        }
                    }, 
                    "animationTracks" : {
                    }
                  }, 
                  {
                    "id" : 244, 
                    "_type" : "VMFile", 
                    "src" : 38, 
                    "trackNumber" : 0, 
                    "attributes" : {
                      "ident" : "c02-s01"
                    }, 
                    "parameters" : {
                      "geometryCrop0" : 0.0, 
                      "geometryCrop1" : 0.0, 
                      "geometryCrop2" : 0.0, 
                      "geometryCrop3" : 0.0
                    }, 
                    "effects" : [
                    ], 
                    "start" : 21097440000, 
                    "duration" : 10584000000, 
                    "mediaStart" : 0, 
                    "mediaDuration" : 10584000000, 
                    "scalar" : 1, 
                    "metadata" : {
                      "audiateLinkedSession" : "", 
                      "clipSpeedAttribute" : 
                        {
                          "type" : "bool", 
                          "value" : false
                        }, 
                      "colorAttribute" : 
                        {
                          "type" : "color", 
                          "value" : [ 0, 0, 0, 0]
                        }, 
                      "default-scale" : "1", 
                      "effectApplied" : "none", 
                      "lockAspectRatio" : 
                        {
                          "type" : "bool", 
                          "value" : true
                        }
                    }, 
                    "animationTracks" : {
                    }
                  }, 
                  {
                    "id" : 245, 
                    "_type" : "VMFile", 
                    "src" : 120, 
                    "trackNumber" : 0, 
                    "attributes" : {
                      "ident" : "c03-s01"
                    }, 
                    "parameters" : {
                      "geometryCrop0" : 0.0, 
                      "geometryCrop1" : 0.0, 
                      "geometryCrop2" : 0.0, 
                      "geometryCrop3" : 0.0
                    }, 
                    "effects" : [
                    ], 
                    "start" : 31846080000, 
                    "duration" : 4939200000, 
                    "mediaStart" : 0, 
                    "mediaDuration" : 4939200000, 
                    "scalar" : 1, 
                    "metadata" : {
                      "audiateLinkedSession" : "", 
                      "clipSpeedAttribute" : 
                        {
                          "type" : "bool", 
                          "value" : false
                        }, 
                      "colorAttribute" : 
                        {
                          "type" : "color", 
                          "value" : [ 0, 0, 0, 0]
                        }, 
                      "default-scale" : "1", 
                      "effectApplied" : "none", 
                      "lockAspectRatio" : 
                        {
                          "type" : "bool", 
                          "value" : true
                        }
                    }, 
                    "animationTracks" : {
                    }
                  }, 
                  {
                    "id" : 246, 
                    "_type" : "VMFile", 
                    "src" : 121, 
                    "trackNumber" : 0, 
                    "attributes" : {
                      "ident" : "c03-s02"
                    }, 
                    "parameters" : {
                      "geometryCrop0" : 0.0, 
                      "geometryCrop1" : 0.0, 
                      "geometryCrop2" : 0.0, 
                      "geometryCrop3" : 0.0
                    }, 
                    "effects" : [
                    ], 
                    "start" : 37020480000, 
                    "duration" : 7056000000, 
                    "mediaStart" : 0, 
                    "mediaDuration" : 7056000000, 
                    "scalar" : 1, 
                    "metadata" : {
                      "audiateLinkedSession" : "", 
                      "clipSpeedAttribute" : 
                        {
                          "type" : "bool", 
                          "value" : false
                        }, 
                      "colorAttribute" : 
                        {
                          "type" : "color", 
                          "value" : [ 0, 0, 0, 0]
                        }, 
                      "default-scale" : "1", 
                      "effectApplied" : "none", 
                      "lockAspectRatio" : 
                        {
                          "type" : "bool", 
                          "value" : true
                        }
                    }, 
                    "animationTracks" : {
                    }
                  }, 
                  {
                    "id" : 247, 
                    "_type" : "VMFile", 
                    "src" : 106, 
                    "trackNumber" : 0, 
                    "attributes" : {
                      "ident" : "c03-s03"
                    }, 
                    "parameters" : {
                      "geometryCrop0" : 0.0, 
                      "geometryCrop1" : 0.0, 
                      "geometryCrop2" : 0.0, 
                      "geometryCrop3" : 0.0
                    }, 
                    "effects" : [
                    ], 
                    "start" : 44288160000, 
                    "duration" : 5974080000, 
                    "mediaStart" : 0, 
                    "mediaDuration" : 5974080000, 
                    "scalar" : 1, 
                    "metadata" : {
                      "audiateLinkedSession" : "", 
                      "clipSpeedAttribute" : 
                        {
                          "type" : "bool", 
                          "value" : false
                        }, 
                      "colorAttribute" : 
                        {
                          "type" : "color", 
                          "value" : [ 0, 0, 0, 0]
                        }, 
                      "default-scale" : "1", 
                      "effectApplied" : "none", 
                      "lockAspectRatio" : 
                        {
                          "type" : "bool", 
                          "value" : true
                        }
                    }, 
                    "animationTracks" : {
                    }
                  }, 
                  {
                    "id" : 248, 
                    "_type" : "VMFile", 
                    "src" : 37, 
                    "trackNumber" : 0, 
                    "attributes" : {
                      "ident" : "c03-s04"
                    }, 
                    "parameters" : {
                      "geometryCrop0" : 0.0, 
                      "geometryCrop1" : 0.0, 
                      "geometryCrop2" : 0.0, 
                      "geometryCrop3" : 0.0
                    }, 
                    "effects" : [
                    ], 
                    "start" : 50262240000, 
                    "duration" : 4656960000, 
                    "mediaStart" : 282240000, 
                    "mediaDuration" : 4656960000, 
                    "scalar" : 1, 
                    "metadata" : {
                      "audiateLinkedSession" : "", 
                      "clipSpeedAttribute" : 
                        {
                          "type" : "bool", 
                          "value" : false
                        }, 
                      "colorAttribute" : 
                        {
                          "type" : "color", 
                          "value" : [ 0, 0, 0, 0]
                        }, 
                      "default-scale" : "1", 
                      "effectApplied" : "none", 
                      "lockAspectRatio" : 
                        {
                          "type" : "bool", 
                          "value" : true
                        }
                    }, 
                    "animationTracks" : {
                    }
                  }, 
                  {
                    "id" : 249, 
                    "_type" : "VMFile", 
                    "src" : 27, 
                    "trackNumber" : 0, 
                    "attributes" : {
                      "ident" : "c04-s01"
                    }, 
                    "parameters" : {
                      "geometryCrop0" : 0.0, 
                      "geometryCrop1" : 0.0, 
                      "geometryCrop2" : 0.0, 
                      "geometryCrop3" : 0.0
                    }, 
                    "effects" : [
                    ], 
                    "start" : 54919200000, 
                    "duration" : 1411200000, 
                    "mediaStart" : 0, 
                    "mediaDuration" : 1411200000, 
                    "scalar" : 1, 
                    "metadata" : {
                      "audiateLinkedSession" : "", 
                      "clipSpeedAttribute" : 
                        {
                          "type" : "bool", 
                          "value" : false
                        }, 
                      "colorAttribute" : 
                        {
                          "type" : "color", 
                          "value" : [ 0, 0, 0, 0]
                        }, 
                      "default-scale" : "1", 
                      "effectApplied" : "none", 
                      "lockAspectRatio" : 
                        {
                          "type" : "bool", 
                          "value" : true
                        }
                    }, 
                    "animationTracks" : {
                    }
                  }, 
                  {
                    "id" : 250, 
                    "_type" : "VMFile", 
                    "src" : 122, 
                    "trackNumber" : 0, 
                    "attributes" : {
                      "ident" : "c04-s02"
                    }, 
                    "parameters" : {
                      "geometryCrop0" : 0.0, 
                      "geometryCrop1" : 0.0, 
                      "geometryCrop2" : 0.0, 
                      "geometryCrop3" : 0.0
                    }, 
                    "effects" : [
                    ], 
                    "start" : 56330400000, 
                    "duration" : 9996000000, 
                    "mediaStart" : 0, 
                    "mediaDuration" : 9996000000, 
                    "scalar" : 1, 
                    "metadata" : {
                      "audiateLinkedSession" : "", 
                      "clipSpeedAttribute" : 
                        {
                          "type" : "bool", 
                          "value" : false
                        }, 
                      "colorAttribute" : 
                        {
                          "type" : "color", 
                          "value" : [ 0, 0, 0, 0]
                        }, 
                      "default-scale" : "1", 
                      "effectApplied" : "none", 
                      "lockAspectRatio" : 
                        {
                          "type" : "bool", 
                          "value" : true
                        }
                    }, 
                    "animationTracks" : {
                    }
                  }, 
                  {
                    "id" : 251, 
                    "_type" : "VMFile", 
                    "src" : 123, 
                    "trackNumber" : 0, 
                    "attributes" : {
                      "ident" : "c04-s03"
                    }, 
                    "parameters" : {
                      "geometryCrop0" : 0.0, 
                      "geometryCrop1" : 0.0, 
                      "geometryCrop2" : 0.0, 
                      "geometryCrop3" : 0.0
                    }, 
                    "effects" : [
                    ], 
                    "start" : 66326400000, 
                    "duration" : 5762400000, 
                    "mediaStart" : 0, 
                    "mediaDuration" : 5762400000, 
                    "scalar" : 1, 
                    "metadata" : {
                      "audiateLinkedSession" : "", 
                      "clipSpeedAttribute" : 
                        {
                          "type" : "bool", 
                          "value" : false
                        }, 
                      "colorAttribute" : 
                        {
                          "type" : "color", 
                          "value" : [ 0, 0, 0, 0]
                        }, 
                      "default-scale" : "1", 
                      "effectApplied" : "none", 
                      "lockAspectRatio" : 
                        {
                          "type" : "bool", 
                          "value" : true
                        }
                    }, 
                    "animationTracks" : {
                    }
                  }, 
                  {
                    "id" : 252, 
                    "_type" : "VMFile", 
                    "src" : 124, 
                    "trackNumber" : 0, 
                    "attributes" : {
                      "ident" : "c04-s04"
                    }, 
                    "parameters" : {
                      "geometryCrop0" : 0.0, 
                      "geometryCrop1" : 0.0, 
                      "geometryCrop2" : 0.0, 
                      "geometryCrop3" : 0.0
                    }, 
                    "effects" : [
                    ], 
                    "start" : 72088800000, 
                    "duration" : 7056000000, 
                    "mediaStart" : 0, 
                    "mediaDuration" : 7056000000, 
                    "scalar" : 1, 
                    "metadata" : {
                      "audiateLinkedSession" : "", 
                      "clipSpeedAttribute" : 
                        {
                          "type" : "bool", 
                          "value" : false
                        }, 
                      "colorAttribute" : 
                        {
                          "type" : "color", 
                          "value" : [ 0, 0, 0, 0]
                        }, 
                      "default-scale" : "1", 
                      "effectApplied" : "none", 
                      "lockAspectRatio" : 
                        {
                          "type" : "bool", 
                          "value" : true
                        }
                    }, 
                    "animationTracks" : {
                    }
                  }, 
                  {
                    "id" : 253, 
                    "_type" : "VMFile", 
                    "src" : 125, 
                    "trackNumber" : 0, 
                    "attributes" : {
                      "ident" : "c04-s05"
                    }, 
                    "parameters" : {
                      "geometryCrop0" : 0.0, 
                      "geometryCrop1" : 0.0, 
                      "geometryCrop2" : 0.0, 
                      "geometryCrop3" : 0.0
                    }, 
                    "effects" : [
                    ], 
                    "start" : 79144800000, 
                    "duration" : 5644800000, 
                    "mediaStart" : 0, 
                    "mediaDuration" : 5644800000, 
                    "scalar" : 1, 
                    "metadata" : {
                      "audiateLinkedSession" : "", 
                      "clipSpeedAttribute" : 
                        {
                          "type" : "bool", 
                          "value" : false
                        }, 
                      "colorAttribute" : 
                        {
                          "type" : "color", 
                          "value" : [ 0, 0, 0, 0]
                        }, 
                      "default-scale" : "1", 
                      "effectApplied" : "none", 
                      "lockAspectRatio" : 
                        {
                          "type" : "bool", 
                          "value" : true
                        }
                    }, 
                    "animationTracks" : {
                    }
                  }, 
                  {
                    "id" : 254, 
                    "_type" : "VMFile", 
                    "src" : 126, 
                    "trackNumber" : 0, 
                    "attributes" : {
                      "ident" : "c04-s06"
                    }, 
                    "parameters" : {
                      "geometryCrop0" : 0.0, 
                      "geometryCrop1" : 0.0, 
                      "geometryCrop2" : 0.0, 
                      "geometryCrop3" : 0.0
                    }, 
                    "effects" : [
                    ], 
                    "start" : 84789600000, 
                    "duration" : 5174400000, 
                    "mediaStart" : 0, 
                    "mediaDuration" : 5174400000, 
                    "scalar" : 1, 
                    "metadata" : {
                      "audiateLinkedSession" : "", 
                      "clipSpeedAttribute" : 
                        {
                          "type" : "bool", 
                          "value" : false
                        }, 
                      "colorAttribute" : 
                        {
                          "type" : "color", 
                          "value" : [ 0, 0, 0, 0]
                        }, 
                      "default-scale" : "1", 
                      "effectApplied" : "none", 
                      "lockAspectRatio" : 
                        {
                          "type" : "bool", 
                          "value" : true
                        }
                    }, 
                    "animationTracks" : {
                    }
                  }, 
                  {
                    "id" : 255, 
                    "_type" : "VMFile", 
                    "src" : 33, 
                    "trackNumber" : 0, 
                    "attributes" : {
                      "ident" : "c04-s07"
                    }, 
                    "parameters" : {
                      "geometryCrop0" : 0.0, 
                      "geometryCrop1" : 0.0, 
                      "geometryCrop2" : 0.0, 
                      "geometryCrop3" : 0.0
                    }, 
                    "effects" : [
                    ], 
                    "start" : 89964000000, 
                    "duration" : 6750240000, 
                    "mediaStart" : 0, 
                    "mediaDuration" : 6750240000, 
                    "scalar" : 1, 
                    "metadata" : {
                      "audiateLinkedSession" : "", 
                      "clipSpeedAttribute" : 
                        {
                          "type" : "bool", 
                          "value" : false
                        }, 
                      "colorAttribute" : 
                        {
                          "type" : "color", 
                          "value" : [ 0, 0, 0, 0]
                        }, 
                      "default-scale" : "1", 
                      "effectApplied" : "none", 
                      "lockAspectRatio" : 
                        {
                          "type" : "bool", 
                          "value" : true
                        }
                    }, 
                    "animationTracks" : {
                    }
                  }, 
                  {
                    "id" : 256, 
                    "_type" : "VMFile", 
                    "src" : 40, 
                    "trackNumber" : 0, 
                    "attributes" : {
                      "ident" : "c05-s01"
                    }, 
                    "parameters" : {
                      "geometryCrop0" : 0.0, 
                      "geometryCrop1" : 0.0, 
                      "geometryCrop2" : 0.0, 
                      "geometryCrop3" : 0.0
                    }, 
                    "effects" : [
                    ], 
                    "start" : 96808320000, 
                    "duration" : 6420960000, 
                    "mediaStart" : 0, 
                    "mediaDuration" : 6420960000, 
                    "scalar" : 1, 
                    "metadata" : {
                      "audiateLinkedSession" : "", 
                      "clipSpeedAttribute" : 
                        {
                          "type" : "bool", 
                          "value" : false
                        }, 
                      "colorAttribute" : 
                        {
                          "type" : "color", 
                          "value" : [ 0, 0, 0, 0]
                        }, 
                      "default-scale" : "1", 
                      "effectApplied" : "none", 
                      "lockAspectRatio" : 
                        {
                          "type" : "bool", 
                          "value" : true
                        }
                    }, 
                    "animationTracks" : {
                    }
                  }, 
                  {
                    "id" : 257, 
                    "_type" : "VMFile", 
                    "src" : 41, 
                    "trackNumber" : 0, 
                    "attributes" : {
                      "ident" : "c05-s02"
                    }, 
                    "parameters" : {
                      "geometryCrop0" : 0.0, 
                      "geometryCrop1" : 0.0, 
                      "geometryCrop2" : 0.0, 
                      "geometryCrop3" : 0.0
                    }, 
                    "effects" : [
                    ], 
                    "start" : 103229280000, 
                    "duration" : 6797280000, 
                    "mediaStart" : 0, 
                    "mediaDuration" : 6797280000, 
                    "scalar" : 1, 
                    "metadata" : {
                      "audiateLinkedSession" : "", 
                      "clipSpeedAttribute" : 
                        {
                          "type" : "bool", 
                          "value" : false
                        }, 
                      "colorAttribute" : 
                        {
                          "type" : "color", 
                          "value" : [ 0, 0, 0, 0]
                        }, 
                      "default-scale" : "1", 
                      "effectApplied" : "none", 
                      "lockAspectRatio" : 
                        {
                          "type" : "bool", 
                          "value" : true
                        }
                    }, 
                    "animationTracks" : {
                    }
                  }, 
                  {
                    "id" : 258, 
                    "_type" : "VMFile", 
                    "src" : 118, 
                    "trackNumber" : 0, 
                    "attributes" : {
                      "ident" : "c05-s03"
                    }, 
                    "parameters" : {
                      "geometryCrop0" : 0.0, 
                      "geometryCrop1" : 0.0, 
                      "geometryCrop2" : 0.0, 
                      "geometryCrop3" : 0.0
                    }, 
                    "effects" : [
                    ], 
                    "start" : 110026560000, 
                    "duration" : 17404800000, 
                    "mediaStart" : 0, 
                    "mediaDuration" : 17404800000, 
                    "scalar" : 1, 
                    "metadata" : {
                      "audiateLinkedSession" : "", 
                      "clipSpeedAttribute" : 
                        {
                          "type" : "bool", 
                          "value" : false
                        }, 
                      "colorAttribute" : 
                        {
                          "type" : "color", 
                          "value" : [ 0, 0, 0, 0]
                        }, 
                      "default-scale" : "1", 
                      "effectApplied" : "none", 
                      "lockAspectRatio" : 
                        {
                          "type" : "bool", 
                          "value" : true
                        }
                    }, 
                    "animationTracks" : {
                    }
                  }, 
                  {
                    "id" : 259, 
                    "_type" : "VMFile", 
                    "src" : 117, 
                    "trackNumber" : 0, 
                    "attributes" : {
                      "ident" : "c05-s04"
                    }, 
                    "parameters" : {
                      "geometryCrop0" : 0.0, 
                      "geometryCrop1" : 0.0, 
                      "geometryCrop2" : 0.0, 
                      "geometryCrop3" : 0.0
                    }, 
                    "effects" : [
                    ], 
                    "start" : 127431360000, 
                    "duration" : 7526400000, 
                    "mediaStart" : 0, 
                    "mediaDuration" : 7526400000, 
                    "scalar" : 1, 
                    "metadata" : {
                      "audiateLinkedSession" : "", 
                      "clipSpeedAttribute" : 
                        {
                          "type" : "bool", 
                          "value" : false
                        }, 
                      "colorAttribute" : 
                        {
                          "type" : "color", 
                          "value" : [ 0, 0, 0, 0]
                        }, 
                      "default-scale" : "1", 
                      "effectApplied" : "none", 
                      "lockAspectRatio" : 
                        {
                          "type" : "bool", 
                          "value" : true
                        }
                    }, 
                    "animationTracks" : {
                    }
                  }, 
                  {
                    "id" : 260, 
                    "_type" : "VMFile", 
                    "src" : 127, 
                    "trackNumber" : 0, 
                    "attributes" : {
                      "ident" : "c06-s01"
                    }, 
                    "parameters" : {
                      "geometryCrop0" : 0.0, 
                      "geometryCrop1" : 0.0, 
                      "geometryCrop2" : 0.0, 
                      "geometryCrop3" : 0.0
                    }, 
                    "effects" : [
                    ], 
                    "start" : 135216480000, 
                    "duration" : 4939200000, 
                    "mediaStart" : 0, 
                    "mediaDuration" : 4939200000, 
                    "scalar" : 1, 
                    "metadata" : {
                      "audiateLinkedSession" : "", 
                      "clipSpeedAttribute" : 
                        {
                          "type" : "bool", 
                          "value" : false
                        }, 
                      "colorAttribute" : 
                        {
                          "type" : "color", 
                          "value" : [ 0, 0, 0, 0]
                        }, 
                      "default-scale" : "1", 
                      "effectApplied" : "none", 
                      "lockAspectRatio" : 
                        {
                          "type" : "bool", 
                          "value" : true
                        }
                    }, 
                    "animationTracks" : {
                    }
                  }, 
                  {
                    "id" : 261, 
                    "_type" : "VMFile", 
                    "src" : 35, 
                    "trackNumber" : 0, 
                    "attributes" : {
                      "ident" : "c06-s02"
                    }, 
                    "parameters" : {
                      "geometryCrop0" : 0.0, 
                      "geometryCrop1" : 0.0, 
                      "geometryCrop2" : 0.0, 
                      "geometryCrop3" : 0.0
                    }, 
                    "effects" : [
                    ], 
                    "start" : 140155680000, 
                    "duration" : 5668320000, 
                    "mediaStart" : 0, 
                    "mediaDuration" : 5668320000, 
                    "scalar" : 1, 
                    "metadata" : {
                      "audiateLinkedSession" : "", 
                      "clipSpeedAttribute" : 
                        {
                          "type" : "bool", 
                          "value" : false
                        }, 
                      "colorAttribute" : 
                        {
                          "type" : "color", 
                          "value" : [ 0, 0, 0, 0]
                        }, 
                      "effectApplied" : "none", 
                      "lockAspectRatio" : 
                        {
                          "type" : "bool", 
                          "value" : true
                        }
                    }, 
                    "animationTracks" : {
                    }
                  }, 
                  {
                    "id" : 262, 
                    "_type" : "VMFile", 
                    "src" : 34, 
                    "trackNumber" : 0, 
                    "attributes" : {
                      "ident" : "c06-s03"
                    }, 
                    "parameters" : {
                      "geometryCrop0" : 0.0, 
                      "geometryCrop1" : 0.0, 
                      "geometryCrop2" : 0.0, 
                      "geometryCrop3" : 0.0
                    }, 
                    "effects" : [
                    ], 
                    "start" : 145941600000, 
                    "duration" : 2257920000, 
                    "mediaStart" : 0, 
                    "mediaDuration" : 2257920000, 
                    "scalar" : 1, 
                    "metadata" : {
                      "audiateLinkedSession" : "", 
                      "clipSpeedAttribute" : 
                        {
                          "type" : "bool", 
                          "value" : false
                        }, 
                      "colorAttribute" : 
                        {
                          "type" : "color", 
                          "value" : [ 0, 0, 0, 0]
                        }, 
                      "default-scale" : "1", 
                      "effectApplied" : "none", 
                      "lockAspectRatio" : 
                        {
                          "type" : "bool", 
                          "value" : true
                        }
                    }, 
                    "animationTracks" : {
                    }
                  }, 
                  {
                    "id" : 263, 
                    "_type" : "VMFile", 
                    "src" : 31, 
                    "trackNumber" : 0, 
                    "attributes" : {
                      "ident" : "c06-s04"
                    }, 
                    "parameters" : {
                      "geometryCrop0" : 0.0, 
                      "geometryCrop1" : 0.0, 
                      "geometryCrop2" : 0.0, 
                      "geometryCrop3" : 0.0
                    }, 
                    "effects" : [
                    ], 
                    "start" : 148199520000, 
                    "duration" : 5668320000, 
                    "mediaStart" : 0, 
                    "mediaDuration" : 5668320000, 
                    "scalar" : 1, 
                    "metadata" : {
                      "audiateLinkedSession" : "", 
                      "clipSpeedAttribute" : 
                        {
                          "type" : "bool", 
                          "value" : false
                        }, 
                      "colorAttribute" : 
                        {
                          "type" : "color", 
                          "value" : [ 0, 0, 0, 0]
                        }, 
                      "default-scale" : "1", 
                      "effectApplied" : "none", 
                      "lockAspectRatio" : 
                        {
                          "type" : "bool", 
                          "value" : true
                        }
                    }, 
                    "animationTracks" : {
                    }
                  }, 
                  {
                    "id" : 264, 
                    "_type" : "UnifiedMedia", 
                    "video" : 
                      {
                        "id" : 265, 
                        "_type" : "VMFile", 
                        "src" : 107, 
                        "trackNumber" : 0, 
                        "attributes" : {
                          "ident" : "c06-s05"
                        }, 
                        "parameters" : {
                          "geometryCrop0" : 0.0, 
                          "geometryCrop1" : 0.0, 
                          "geometryCrop2" : 0.0, 
                          "geometryCrop3" : 0.0
                        }, 
                        "effects" : [
                        ], 
                        "start" : 153867840000, 
                        "duration" : 6303360000, 
                        "mediaStart" : 0, 
                        "mediaDuration" : 6303360000, 
                        "scalar" : 1, 
                        "animationTracks" : {
                        }
                      }, 
                    "audio" : 
                      {
                        "id" : 266, 
                        "_type" : "AMFile", 
                        "src" : 107, 
                        "trackNumber" : 1, 
                        "attributes" : {
                          "ident" : "", 
                          "gain" : 1.0, 
                          "mixToMono" : false, 
                          "loudnessNormalization" : true, 
                          "sourceFileOffset" : 0
                        }, 
                        "channelNumber" : "0,1", 
                        "parameters" : {
                        }, 
                        "effects" : [
                        ], 
                        "start" : 153867840000, 
                        "duration" : 6303360000, 
                        "mediaStart" : 0, 
                        "mediaDuration" : 6303360000, 
                        "scalar" : 1, 
                        "animationTracks" : {
                        }
                      }, 
                    "effects" : [
                    ], 
                    "start" : 153867840000, 
                    "duration" : 6303360000, 
                    "mediaStart" : 0, 
                    "mediaDuration" : 6303360000, 
                    "scalar" : 1, 
                    "metadata" : {
                      "audiateLinkedSession" : "", 
                      "clipSpeedAttribute" : 
                        {
                          "type" : "bool", 
                          "value" : false
                        }, 
                      "colorAttribute" : 
                        {
                          "type" : "color", 
                          "value" : [ 0, 0, 0, 0]
                        }, 
                      "default-scale" : "1", 
                      "effectApplied" : "none", 
                      "lockAspectRatio" : 
                        {
                          "type" : "bool", 
                          "value" : true
                        }
                    }
                  }, 
                  {
                    "id" : 267, 
                    "_type" : "VMFile", 
                    "src" : 42, 
                    "trackNumber" : 0, 
                    "attributes" : {
                      "ident" : "c07-s01"
                    }, 
                    "parameters" : {
                      "geometryCrop0" : 0.0, 
                      "geometryCrop1" : 0.0, 
                      "geometryCrop2" : 0.0, 
                      "geometryCrop3" : 0.0
                    }, 
                    "effects" : [
                    ], 
                    "start" : 160171200000, 
                    "duration" : 11219040000, 
                    "mediaStart" : 0, 
                    "mediaDuration" : 11219040000, 
                    "scalar" : 1, 
                    "metadata" : {
                      "audiateLinkedSession" : "", 
                      "clipSpeedAttribute" : 
                        {
                          "type" : "bool", 
                          "value" : false
                        }, 
                      "colorAttribute" : 
                        {
                          "type" : "color", 
                          "value" : [ 0, 0, 0, 0]
                        }, 
                      "effectApplied" : "none", 
                      "lockAspectRatio" : 
                        {
                          "type" : "bool", 
                          "value" : true
                        }
                    }, 
                    "animationTracks" : {
                    }
                  }, 
                  {
                    "id" : 268, 
                    "_type" : "IMFile", 
                    "src" : 28, 
                    "trackNumber" : 0, 
                    "trimStartSum" : 0, 
                    "attributes" : {
                      "ident" : "Scene-09-01-Learn-WordPress-org-v"
                    }, 
                    "parameters" : {
                      "geometryCrop0" : 0.0, 
                      "geometryCrop1" : 0.0, 
                      "geometryCrop2" : 0.0, 
                      "geometryCrop3" : 0.0
                    }, 
                    "effects" : [
                    ], 
                    "start" : 171390240000, 
                    "duration" : 1716960000, 
                    "mediaStart" : 0, 
                    "mediaDuration" : 1, 
                    "scalar" : 1, 
                    "metadata" : {
                      "audiateLinkedSession" : "", 
                      "clipSpeedAttribute" : 
                        {
                          "type" : "bool", 
                          "value" : false
                        }, 
                      "colorAttribute" : 
                        {
                          "type" : "color", 
                          "value" : [ 0, 0, 0, 0]
                        }, 
                      "default-scale" : "1", 
                      "effectApplied" : "none", 
                      "lockAspectRatio" : 
                        {
                          "type" : "bool", 
                          "value" : true
                        }
                    }, 
                    "animationTracks" : {
                    }
                  }
                ], 
                "transitions" : [
                  {
                    "name" : "Puzzle", 
                    "duration" : 352800000, 
                    "leftMedia" : 267, 
                    "rightMedia" : 268, 
                    "attributes" : {
                      "Aspect" : 0.66, 
                      "Number" : 6.0, 
                      "Random" : 0.0, 
                      "bypass" : false, 
                      "reverse" : false, 
                      "trivial" : false, 
                      "useAudioPreRoll" : true, 
                      "useVisualPreRoll" : true
                    }
                  }
                ], 
                "parameters" : {
                }
              }, 
              {
                "trackIndex" : 3, 
                "medias" : [
                  {
                    "id" : 269, 
                    "_type" : "Caption", 
                    "allowTrimOut" : false, 
                    "maxMediaDuration" : 172533312000.0, 
                    "parameters" : {
                      "captionData" : {
                        "type" : "caption", 
                        "keyframes" : [
                          {
                            "endTime" : 0, 
                            "time" : 0, 
                            "value" : { "text" : "", "textAttributes" : null }, 
                            "duration" : 0
                          }, 
                          {
                            "endTime" : 14112000, 
                            "time" : 14112000, 
                            "value" : { "text" : "{\\rtf1\\ansi\\ansicpg1252\\cocoartf2822\n\\cocoatextscaling0\\cocoaplatform0{\\fonttbl\\f0\\fswiss\\fcharset0 ArialMT;}\n{\\colortbl;\\red255\\green255\\blue255;\\red255\\green255\\blue255;}\n{\\*\\expandedcolortbl;;\\csgray\\c100000;}\n\\pard\\tx560\\tx1120\\tx1680\\tx2240\\tx2800\\tx3360\\tx3920\\tx4480\\tx5040\\tx5600\\tx6160\\tx6720\\pardirnatural\\partightenfactor0\n\n\\f0\\fs36 \\cf2  }", "textAttributes" : null }, 
                            "duration" : 0
                          }, 
                          {
                            "endTime" : 2794176000, 
                            "time" : 2794176000, 
                            "value" : { "text" : "Speaker 1: Sag Hallo zu deiner neuen WordPress-Webseite.", "textAttributes" : null }, 
                            "duration" : 0
                          }, 
                          {
                            "endTime" : 5644800000, 
                            "time" : 5644800000, 
                            "value" : { "text" : "Speaker 1: Sie hat leider noch kein Zuhause und fühlt sich einsam.", "textAttributes" : null }, 
                            "duration" : 0
                          }, 
                          {
                            "endTime" : 8509536000, 
                            "time" : 8509536000, 
                            "value" : { "text" : "Speaker 1: Das ändern wir jetzt.", "textAttributes" : null }, 
                            "duration" : 0
                          }, 
                          {
                            "endTime" : 9906624000, 
                            "time" : 9906624000, 
                            "value" : { "text" : "Speaker 1: In dieser Lektion erfährst du, wie du einen guten Hosting-Anbieter findest", "textAttributes" : null }, 
                            "duration" : 0
                          }, 
                          {
                            "endTime" : 14464800000, 
                            "time" : 14464800000, 
                            "value" : { "text" : "Speaker 1: und die passende Domain bekommst.", "textAttributes" : null }, 
                            "duration" : 0
                          }, 
                          {
                            "endTime" : 16694496000, 
                            "time" : 16694496000, 
                            "value" : { "text" : "Speaker 1: Falls du nicht weißt, was das bedeutet, kein Problem.", "textAttributes" : null }, 
                            "duration" : 0
                          }, 
                          {
                            "endTime" : 19389888000, 
                            "time" : 19389888000, 
                            "value" : { "text" : "Speaker 1: Wir werden dir das detailliert erklären.", "textAttributes" : null }, 
                            "duration" : 0
                          }, 
                          {
                            "endTime" : 21788928000, 
                            "time" : 21788928000, 
                            "value" : { "text" : "Speaker 1: Nach dieser Lektion wirst du wissen, was Hosting und Domains sind, warum du beides zusammen brauchst, wie du den richtigen Anbieter auswählst.", "textAttributes" : null }, 
                            "duration" : 0
                          }, 
                          {
                            "endTime" : 32231808000, 
                            "time" : 32231808000, 
                            "value" : { "text" : "Speaker 1: Lass uns zuerst das Hosting genauer anschauen.", "textAttributes" : null }, 
                            "duration" : 0
                          }, 
                          {
                            "endTime" : 34884864000, 
                            "time" : 34884864000, 
                            "value" : { "text" : "Speaker 1: Deine Webseite braucht eine Unterkunft.", "textAttributes" : null }, 
                            "duration" : 0
                          }, 
                          {
                            "endTime" : 37227456000, 
                            "time" : 37227456000, 
                            "value" : { "text" : "Speaker 1: Diese Unterkunft nennt sich Hosting.", "textAttributes" : null }, 
                            "duration" : 0
                          }, 
                          {
                            "endTime" : 39612384000, 
                            "time" : 39612384000, 
                            "value" : { "text" : "Speaker 1: Der Ort, an dem alle Inhalte gespeichert sind und sie arbeiten kann.", "textAttributes" : null }, 
                            "duration" : 0
                          }, 
                          {
                            "endTime" : 44410464000, 
                            "time" : 44410464000, 
                            "value" : { "text" : "Speaker 1: Es gibt viele verschiedene Arten von Hosting.", "textAttributes" : null }, 
                            "duration" : 0
                          }, 
                          {
                            "endTime" : 46851840000, 
                            "time" : 46851840000, 
                            "value" : { "text" : "Speaker 1: Und wenn es nötig ist, kann deine Webseite auch umziehen.", "textAttributes" : null }, 
                            "duration" : 0
                          }, 
                          {
                            "endTime" : 50295168000, 
                            "time" : 50295168000, 
                            "value" : { "text" : "Speaker 1: Hier gefällt es deiner Webseite.", "textAttributes" : null }, 
                            "duration" : 0
                          }, 
                          {
                            "endTime" : 52637759999, 
                            "time" : 52637759999, 
                            "value" : { "text" : "Speaker 1: Aber ist das wirklich der richtige Anbieter?", "textAttributes" : null }, 
                            "duration" : 0
                          }, 
                          {
                            "endTime" : 55008575999, 
                            "time" : 55008575999, 
                            "value" : { "text" : "Speaker 1: Lass uns die Webseite mal fragen, was für sie wichtig ist.", "textAttributes" : null }, 
                            "duration" : 0
                          }, 
                          {
                            "endTime" : 58099104000, 
                            "time" : 58099104000, 
                            "value" : { "text" : "Speaker 1: Zuverlässigkeit.", "textAttributes" : null }, 
                            "duration" : 0
                          }, 
                          {
                            "endTime" : 58861152000, 
                            "time" : 58861152000, 
                            "value" : { "text" : "Speaker 1: Deine Webseite muss immer online sein.", "textAttributes" : null }, 
                            "duration" : 0
                          }, 
                          {
                            "endTime" : 60787440000, 
                            "time" : 60787440000, 
                            "value" : { "text" : "Speaker 1: Ein guter Anbieter garantiert eine stabile Erreichbarkeit und bietet zuverlässigen Support.", "textAttributes" : null }, 
                            "duration" : 0
                          }, 
                          {
                            "endTime" : 66777984000, 
                            "time" : 66777984000, 
                            "value" : { "text" : "Speaker 1: Skalierbarkeit", "textAttributes" : null }, 
                            "duration" : 0
                          }, 
                          {
                            "endTime" : 67808159999, 
                            "time" : 67808159999, 
                            "value" : { "text" : "Speaker 1: Wächst deine Webseite, sollte dein Hosting-Anbieter mitwachsen können.", "textAttributes" : null }, 
                            "duration" : 0
                          }, 
                          {
                            "endTime" : 72493344000, 
                            "time" : 72493344000, 
                            "value" : { "text" : "Speaker 1: Sicherheit", "textAttributes" : null }, 
                            "duration" : 0
                          }, 
                          {
                            "endTime" : 74031552000, 
                            "time" : 74031552000, 
                            "value" : { "text" : "Speaker 1: Ein guter Anbieter schützt deine Webseite mit SSL-Zertifikaten und Firewalls.", "textAttributes" : null }, 
                            "duration" : 0
                          }, 
                          {
                            "endTime" : 80720640000, 
                            "time" : 80720640000, 
                            "value" : { "text" : "Speaker 1: Die Verwaltung sollte einfach und intuitiv sein.", "textAttributes" : null }, 
                            "duration" : 0
                          }, 
                          {
                            "endTime" : 85151808000, 
                            "time" : 85151808000, 
                            "value" : { "text" : "Speaker 1: Preisleistung", "textAttributes" : null }, 
                            "duration" : 0
                          }, 
                          {
                            "endTime" : 86647680000, 
                            "time" : 86647680000, 
                            "value" : { "text" : "Speaker 1: Dein Anbieter sollte ein gutes Preis-Leistungs-Verhältnis bieten.", "textAttributes" : null }, 
                            "duration" : 0
                          }, 
                          {
                            "endTime" : 90133344000, 
                            "time" : 90133344000, 
                            "value" : { "text" : "Speaker 1: Jetzt weiß deine Webseite, worauf es ankommt, und hat sich für den richtigen Hosting-Anbieter entschieden.", "textAttributes" : null }, 
                            "duration" : 0
                          }, 
                          {
                            "endTime" : 96780096000, 
                            "time" : 96780096000, 
                            "value" : { "text" : "Speaker 1: Aber wie können die Leute deine Webseite finden?", "textAttributes" : null }, 
                            "duration" : 0
                          }, 
                          {
                            "endTime" : 99687168000, 
                            "time" : 99687168000, 
                            "value" : { "text" : "Speaker 1: Dafür braucht sie eine Domain, also ihre Adresse im Internet.", "textAttributes" : null }, 
                            "duration" : 0
                          }, 
                          {
                            "endTime" : 103285728000, 
                            "time" : 103285728000, 
                            "value" : { "text" : "Speaker 1: Domains kannst du bei einem Domain-Registrar mieten.", "textAttributes" : null }, 
                            "duration" : 0
                          }, 
                          {
                            "endTime" : 106037568000, 
                            "time" : 106037568000, 
                            "value" : { "text" : "Speaker 1: Die meisten Hosting-Anbieter übernehmen das für dich.", "textAttributes" : null }, 
                            "duration" : 0
                          }, 
                          {
                            "endTime" : 108507168000, 
                            "time" : 108507168000, 
                            "value" : { "text" : "Speaker 1: So wird das ganz einfach.", "textAttributes" : null }, 
                            "duration" : 0
                          }, 
                          {
                            "endTime" : 110384064000, 
                            "time" : 110384064000, 
                            "value" : { "text" : "Speaker 1: Die Domain ist weltweit einzigartig.", "textAttributes" : null }, 
                            "duration" : 0
                          }, 
                          {
                            "endTime" : 112373856000, 
                            "time" : 112373856000, 
                            "value" : { "text" : "Speaker 1: Niemand sonst kann sie zur selben Zeit nutzen.", "textAttributes" : null }, 
                            "duration" : 0
                          }, 
                          {
                            "endTime" : 114448319999, 
                            "time" : 114448319999, 
                            "value" : { "text" : "Speaker 1: Sie besteht aus der von dir gewählten Second-Level-Domain, zum Beispiel Meine Webseite und einer Top-Level-Domain wie.com.de oder.net.", "textAttributes" : null }, 
                            "duration" : 0
                          }, 
                          {
                            "endTime" : 122351040000, 
                            "time" : 122351040000, 
                            "value" : { "text" : "Speaker 1: Für die Top-Level-Domain stehen dir hunderte Optionen offen, solange sie noch frei ist.", "textAttributes" : null }, 
                            "duration" : 0
                          }, 
                          {
                            "endTime" : 127445472000, 
                            "time" : 127445472000, 
                            "value" : { "text" : "Speaker 1: Falls du den Anbieter wechselst, kannst du deine Domain problemlos mitnehmen.", "textAttributes" : null }, 
                            "duration" : 0
                          }, 
                          {
                            "endTime" : 131199264000, 
                            "time" : 131199264000, 
                            "value" : { "text" : "Speaker 1: So bleibt deine Webseite immer unter derselben Adresse erreichbar.", "textAttributes" : null }, 
                            "duration" : 0
                          }, 
                          {
                            "endTime" : 135207072000, 
                            "time" : 135207072000, 
                            "value" : { "text" : "Speaker 1: Fassen wir zusammen.", "textAttributes" : null }, 
                            "duration" : 0
                          }, 
                          {
                            "endTime" : 137013408000, 
                            "time" : 137013408000, 
                            "value" : { "text" : "Speaker 1: Hosting", "textAttributes" : null }, 
                            "duration" : 0
                          }, 
                          {
                            "endTime" : 140019264000, 
                            "time" : 140019264000, 
                            "value" : { "text" : "Speaker 1: Das Hosting speichert deine WordPress-Webseite auf einem Server, sodass sie jederzeit verfügbar ist.", "textAttributes" : null }, 
                            "duration" : 0
                          }, 
                          {
                            "endTime" : 146172096000, 
                            "time" : 146172096000, 
                            "value" : { "text" : "Speaker 1: Domain", "textAttributes" : null }, 
                            "duration" : 0
                          }, 
                          {
                            "endTime" : 148161888000, 
                            "time" : 148161888000, 
                            "value" : { "text" : "Speaker 1: Die Domain ist die Adresse deiner Webseite im Internet.", "textAttributes" : null }, 
                            "duration" : 0
                          }, 
                          {
                            "endTime" : 151217136000, 
                            "time" : 151217136000, 
                            "value" : { "text" : "Speaker 1: Sie zeigt Besuchern den Weg zu deiner Webseite.", "textAttributes" : null }, 
                            "duration" : 0
                          }, 
                          {
                            "endTime" : 154117152000, 
                            "time" : 154117152000, 
                            "value" : { "text" : "Speaker 1: Beides zusammen stellt sicher, dass deine Webseite immer online ist und problemlos erreicht werden kann.", "textAttributes" : null }, 
                            "duration" : 0
                          }, 
                          {
                            "endTime" : 160411104000, 
                            "time" : 160411104000, 
                            "value" : { "text" : "Speaker 1: Sobald du eine Domain registriert und einen Hosting-Anbieter ausgewählt hast, kannst du mit der Gestaltung deiner Webseite loslegen.", "textAttributes" : null }, 
                            "duration" : 0
                          }, 
                          {
                            "endTime" : 167368320000, 
                            "time" : 167368320000, 
                            "value" : { "text" : "Speaker 1: Du fragst dich jetzt sicher, wie du das machen kannst?", "textAttributes" : null }, 
                            "duration" : 0
                          }, 
                          {
                            "endTime" : 170614080000, 
                            "time" : 170614080000, 
                            "value" : { "text" : "Speaker 1: Das zeigen wir dir auf learnwordpress.org.", "textAttributes" : null }, 
                            "duration" : 0
                          }
                        ]
                      }
                    }, 
                    "effects" : [
                    ], 
                    "start" : 0, 
                    "duration" : 172533312000, 
                    "mediaStart" : 0, 
                    "mediaDuration" : 172533312000, 
                    "scalar" : 1, 
                    "metadata" : {
                      "audiateLinkedSession" : "", 
                      "clipSpeedAttribute" : 
                        {
                          "type" : "bool", 
                          "value" : false
                        }, 
                      "colorAttribute" : 
                        {
                          "type" : "color", 
                          "value" : [ 0, 0, 0, 0]
                        }, 
                      "effectApplied" : "none"
                    }, 
                    "animationTracks" : {
                    }
                  }
                ], 
                "parameters" : {
                }
              }, 
              {
                "trackIndex" : 4, 
                "medias" : [
                  {
                    "id" : 270, 
                    "_type" : "Caption", 
                    "allowTrimOut" : false, 
                    "maxMediaDuration" : 172533312000.0, 
                    "parameters" : {
                      "captionData" : {
                        "type" : "caption", 
                        "keyframes" : [
                          {
                            "endTime" : 0, 
                            "time" : 0, 
                            "value" : { "text" : "", "textAttributes" : null }, 
                            "duration" : 0
                          }, 
                          {
                            "endTime" : 14112000, 
                            "time" : 14112000, 
                            "value" : { "text" : "Hallo und herzlich willkommen bei Learn WordPress.", "textAttributes" : null }, 
                            "duration" : 0
                          }, 
                          {
                            "endTime" : 2794176000, 
                            "time" : 2794176000, 
                            "value" : { "text" : "Sag Hallo zu deiner neuen WordPress-Webseite.", "textAttributes" : null }, 
                            "duration" : 0
                          }, 
                          {
                            "endTime" : 5644800000, 
                            "time" : 5644800000, 
                            "value" : { "text" : "Sie hat leider noch kein Zuhause und fühlt sich einsam.", "textAttributes" : null }, 
                            "duration" : 0
                          }, 
                          {
                            "endTime" : 8509536000, 
                            "time" : 8509536000, 
                            "value" : { "text" : "Das ändern wir jetzt.", "textAttributes" : null }, 
                            "duration" : 0
                          }, 
                          {
                            "endTime" : 9906624000, 
                            "time" : 9906624000, 
                            "value" : { "text" : "In dieser Lektion erfährst du, wie du einen guten Hosting-Anbieter findest", "textAttributes" : null }, 
                            "duration" : 0
                          }, 
                          {
                            "endTime" : 14464800000, 
                            "time" : 14464800000, 
                            "value" : { "text" : "und die passende Domain bekommst.", "textAttributes" : null }, 
                            "duration" : 0
                          }, 
                          {
                            "endTime" : 16694496000, 
                            "time" : 16694496000, 
                            "value" : { "text" : "Falls du nicht weißt, was das bedeutet, kein Problem.", "textAttributes" : null }, 
                            "duration" : 0
                          }, 
                          {
                            "endTime" : 19389888000, 
                            "time" : 19389888000, 
                            "value" : { "text" : "Wir werden dir das detailliert erklären.", "textAttributes" : null }, 
                            "duration" : 0
                          }, 
                          {
                            "endTime" : 21788928000, 
                            "time" : 21788928000, 
                            "value" : { "text" : "Nach dieser Lektion wirst du wissen, was Hosting und Domains sind, warum du beides zusammen brauchst, wie du den richtigen Anbieter auswählst.", "textAttributes" : null }, 
                            "duration" : 0
                          }, 
                          {
                            "endTime" : 32231808000, 
                            "time" : 32231808000, 
                            "value" : { "text" : "Lass uns zuerst das Hosting genauer anschauen.", "textAttributes" : null }, 
                            "duration" : 0
                          }, 
                          {
                            "endTime" : 34884864000, 
                            "time" : 34884864000, 
                            "value" : { "text" : "Deine Webseite braucht eine Unterkunft.", "textAttributes" : null }, 
                            "duration" : 0
                          }, 
                          {
                            "endTime" : 37227456000, 
                            "time" : 37227456000, 
                            "value" : { "text" : "Diese Unterkunft nennt sich Hosting.", "textAttributes" : null }, 
                            "duration" : 0
                          }, 
                          {
                            "endTime" : 39612384000, 
                            "time" : 39612384000, 
                            "value" : { "text" : "Der Ort, an dem alle Inhalte gespeichert sind und sie arbeiten kann.", "textAttributes" : null }, 
                            "duration" : 0
                          }, 
                          {
                            "endTime" : 44410464000, 
                            "time" : 44410464000, 
                            "value" : { "text" : "Es gibt viele verschiedene Arten von Hosting.", "textAttributes" : null }, 
                            "duration" : 0
                          }, 
                          {
                            "endTime" : 46851840000, 
                            "time" : 46851840000, 
                            "value" : { "text" : "Und wenn es nötig ist, kann deine Webseite auch umziehen.", "textAttributes" : null }, 
                            "duration" : 0
                          }, 
                          {
                            "endTime" : 50295168000, 
                            "time" : 50295168000, 
                            "value" : { "text" : "Hier gefällt es deiner Webseite.", "textAttributes" : null }, 
                            "duration" : 0
                          }, 
                          {
                            "endTime" : 52637759999, 
                            "time" : 52637759999, 
                            "value" : { "text" : "Aber ist das wirklich der richtige Anbieter?", "textAttributes" : null }, 
                            "duration" : 0
                          }, 
                          {
                            "endTime" : 55008575999, 
                            "time" : 55008575999, 
                            "value" : { "text" : "Lass uns die Webseite mal fragen, was für sie wichtig ist.", "textAttributes" : null }, 
                            "duration" : 0
                          }, 
                          {
                            "endTime" : 58099104000, 
                            "time" : 58099104000, 
                            "value" : { "text" : "Zuverlässigkeit.", "textAttributes" : null }, 
                            "duration" : 0
                          }, 
                          {
                            "endTime" : 58861152000, 
                            "time" : 58861152000, 
                            "value" : { "text" : "Deine Webseite muss immer online sein.", "textAttributes" : null }, 
                            "duration" : 0
                          }, 
                          {
                            "endTime" : 60787440000, 
                            "time" : 60787440000, 
                            "value" : { "text" : "Ein guter Anbieter garantiert eine stabile Erreichbarkeit und bietet zuverlässigen Support.", "textAttributes" : null }, 
                            "duration" : 0
                          }, 
                          {
                            "endTime" : 66777984000, 
                            "time" : 66777984000, 
                            "value" : { "text" : "Skalierbarkeit", "textAttributes" : null }, 
                            "duration" : 0
                          }, 
                          {
                            "endTime" : 67808159999, 
                            "time" : 67808159999, 
                            "value" : { "text" : "Wächst deine Webseite, sollte dein Hosting-Anbieter mitwachsen können.", "textAttributes" : null }, 
                            "duration" : 0
                          }, 
                          {
                            "endTime" : 72493344000, 
                            "time" : 72493344000, 
                            "value" : { "text" : "Sicherheit", "textAttributes" : null }, 
                            "duration" : 0
                          }, 
                          {
                            "endTime" : 74031552000, 
                            "time" : 74031552000, 
                            "value" : { "text" : "Ein guter Anbieter schützt deine Webseite mit SSL-Zertifikaten und Firewalls.", "textAttributes" : null }, 
                            "duration" : 0
                          }, 
                          {
                            "endTime" : 80720640000, 
                            "time" : 80720640000, 
                            "value" : { "text" : "Die Verwaltung sollte einfach und intuitiv sein.", "textAttributes" : null }, 
                            "duration" : 0
                          }, 
                          {
                            "endTime" : 85151808000, 
                            "time" : 85151808000, 
                            "value" : { "text" : "Preisleistung", "textAttributes" : null }, 
                            "duration" : 0
                          }, 
                          {
                            "endTime" : 86647680000, 
                            "time" : 86647680000, 
                            "value" : { "text" : "Dein Anbieter sollte ein gutes Preis-Leistungs-Verhältnis bieten.", "textAttributes" : null }, 
                            "duration" : 0
                          }, 
                          {
                            "endTime" : 90133344000, 
                            "time" : 90133344000, 
                            "value" : { "text" : "Jetzt weiß deine Webseite, worauf es ankommt, und hat sich für den richtigen Hosting-Anbieter entschieden.", "textAttributes" : null }, 
                            "duration" : 0
                          }, 
                          {
                            "endTime" : 96780096000, 
                            "time" : 96780096000, 
                            "value" : { "text" : "Aber wie können die Leute deine Webseite finden?", "textAttributes" : null }, 
                            "duration" : 0
                          }, 
                          {
                            "endTime" : 99687168000, 
                            "time" : 99687168000, 
                            "value" : { "text" : "Dafür braucht sie eine Domain, also ihre Adresse im Internet.", "textAttributes" : null }, 
                            "duration" : 0
                          }, 
                          {
                            "endTime" : 103285728000, 
                            "time" : 103285728000, 
                            "value" : { "text" : "Domains kannst du bei einem Domain-Registrar mieten.", "textAttributes" : null }, 
                            "duration" : 0
                          }, 
                          {
                            "endTime" : 106037568000, 
                            "time" : 106037568000, 
                            "value" : { "text" : "Die meisten Hosting-Anbieter übernehmen das für dich.", "textAttributes" : null }, 
                            "duration" : 0
                          }, 
                          {
                            "endTime" : 108507168000, 
                            "time" : 108507168000, 
                            "value" : { "text" : "So wird das ganz einfach.", "textAttributes" : null }, 
                            "duration" : 0
                          }, 
                          {
                            "endTime" : 110384064000, 
                            "time" : 110384064000, 
                            "value" : { "text" : "Die Domain ist weltweit einzigartig.", "textAttributes" : null }, 
                            "duration" : 0
                          }, 
                          {
                            "endTime" : 112373856000, 
                            "time" : 112373856000, 
                            "value" : { "text" : "Niemand sonst kann sie zur selben Zeit nutzen.", "textAttributes" : null }, 
                            "duration" : 0
                          }, 
                          {
                            "endTime" : 114448319999, 
                            "time" : 114448319999, 
                            "value" : { "text" : "Sie besteht aus der von dir gewählten Second-Level-Domain, zum Beispiel Meine Webseite und einer Top-Level-Domain wie.com.de oder.net.", "textAttributes" : null }, 
                            "duration" : 0
                          }, 
                          {
                            "endTime" : 122351040000, 
                            "time" : 122351040000, 
                            "value" : { "text" : "Für die Top-Level-Domain stehen dir hunderte Optionen offen, solange sie noch frei ist.", "textAttributes" : null }, 
                            "duration" : 0
                          }, 
                          {
                            "endTime" : 127445472000, 
                            "time" : 127445472000, 
                            "value" : { "text" : "Falls du den Anbieter wechselst, kannst du deine Domain problemlos mitnehmen.", "textAttributes" : null }, 
                            "duration" : 0
                          }, 
                          {
                            "endTime" : 131199264000, 
                            "time" : 131199264000, 
                            "value" : { "text" : "So bleibt deine Webseite immer unter derselben Adresse erreichbar.", "textAttributes" : null }, 
                            "duration" : 0
                          }, 
                          {
                            "endTime" : 135207072000, 
                            "time" : 135207072000, 
                            "value" : { "text" : "Fassen wir zusammen.", "textAttributes" : null }, 
                            "duration" : 0
                          }, 
                          {
                            "endTime" : 137013408000, 
                            "time" : 137013408000, 
                            "value" : { "text" : "Hosting", "textAttributes" : null }, 
                            "duration" : 0
                          }, 
                          {
                            "endTime" : 140019264000, 
                            "time" : 140019264000, 
                            "value" : { "text" : "Das Hosting speichert deine WordPress-Webseite auf einem Server, sodass sie jederzeit verfügbar ist.", "textAttributes" : null }, 
                            "duration" : 0
                          }, 
                          {
                            "endTime" : 146172096000, 
                            "time" : 146172096000, 
                            "value" : { "text" : "Domain", "textAttributes" : null }, 
                            "duration" : 0
                          }, 
                          {
                            "endTime" : 148161888000, 
                            "time" : 148161888000, 
                            "value" : { "text" : "Die Domain ist die Adresse deiner Webseite im Internet.", "textAttributes" : null }, 
                            "duration" : 0
                          }, 
                          {
                            "endTime" : 151217136000, 
                            "time" : 151217136000, 
                            "value" : { "text" : "Sie zeigt Besuchern den Weg zu deiner Webseite.", "textAttributes" : null }, 
                            "duration" : 0
                          }, 
                          {
                            "endTime" : 154117152000, 
                            "time" : 154117152000, 
                            "value" : { "text" : "Beides zusammen stellt sicher, dass deine Webseite immer online ist und problemlos erreicht werden kann.", "textAttributes" : null }, 
                            "duration" : 0
                          }, 
                          {
                            "endTime" : 160411104000, 
                            "time" : 160411104000, 
                            "value" : { "text" : "Sobald du eine Domain registriert und einen Hosting-Anbieter ausgewählt hast, kannst du mit der Gestaltung deiner Webseite loslegen.", "textAttributes" : null }, 
                            "duration" : 0
                          }, 
                          {
                            "endTime" : 167368320000, 
                            "time" : 167368320000, 
                            "value" : { "text" : "Du fragst dich jetzt sicher, wie du das machen kannst?", "textAttributes" : null }, 
                            "duration" : 0
                          }, 
                          {
                            "endTime" : 170614080000, 
                            "time" : 170614080000, 
                            "value" : { "text" : "Das zeigen wir dir auf learnwordpress.org.", "textAttributes" : null }, 
                            "duration" : 0
                          }
                        ]
                      }
                    }, 
                    "effects" : [
                    ], 
                    "start" : 0, 
                    "duration" : 172533312000, 
                    "mediaStart" : 0, 
                    "mediaDuration" : 172533312000, 
                    "scalar" : 1, 
                    "metadata" : {
                      "audiateLinkedSession" : "", 
                      "clipSpeedAttribute" : 
                        {
                          "type" : "bool", 
                          "value" : false
                        }, 
                      "colorAttribute" : 
                        {
                          "type" : "color", 
                          "value" : [ 0, 0, 0, 0]
                        }, 
                      "effectApplied" : "none"
                    }, 
                    "animationTracks" : {
                    }
                  }
                ], 
                "parameters" : {
                }
              }, 
              {
                "trackIndex" : 5, 
                "medias" : [
                  {
                    "id" : 271, 
                    "_type" : "Caption", 
                    "allowTrimOut" : false, 
                    "maxMediaDuration" : 172533312000.0, 
                    "parameters" : {
                      "captionData" : {
                        "type" : "caption", 
                        "keyframes" : [
                          {
                            "endTime" : 0, 
                            "time" : 0, 
                            "value" : { "text" : "", "textAttributes" : null }, 
                            "duration" : 0
                          }, 
                          {
                            "endTime" : 14112000, 
                            "time" : 14112000, 
                            "value" : { "text" : "Hallo und herzlich willkommen bei Learn WordPress.", "textAttributes" : null }, 
                            "duration" : 0
                          }, 
                          {
                            "endTime" : 2794176000, 
                            "time" : 2794176000, 
                            "value" : { "text" : "Sag Hallo zu deiner neuen WordPress-Webseite.", "textAttributes" : null }, 
                            "duration" : 0
                          }, 
                          {
                            "endTime" : 5644800000, 
                            "time" : 5644800000, 
                            "value" : { "text" : "Sie hat leider noch kein Zuhause und fühlt sich einsam.", "textAttributes" : null }, 
                            "duration" : 0
                          }, 
                          {
                            "endTime" : 8509536000, 
                            "time" : 8509536000, 
                            "value" : { "text" : "Das ändern wir jetzt.", "textAttributes" : null }, 
                            "duration" : 0
                          }, 
                          {
                            "endTime" : 9906624000, 
                            "time" : 9906624000, 
                            "value" : { "text" : "In dieser Lektion erfährst du, wie du einen guten Hosting-Anbieter findest", "textAttributes" : null }, 
                            "duration" : 0
                          }, 
                          {
                            "endTime" : 14464800000, 
                            "time" : 14464800000, 
                            "value" : { "text" : "und die passende Domain bekommst.", "textAttributes" : null }, 
                            "duration" : 0
                          }, 
                          {
                            "endTime" : 16694496000, 
                            "time" : 16694496000, 
                            "value" : { "text" : "Falls du nicht weißt, was das bedeutet, kein Problem.", "textAttributes" : null }, 
                            "duration" : 0
                          }, 
                          {
                            "endTime" : 19389888000, 
                            "time" : 19389888000, 
                            "value" : { "text" : "Wir werden dir das detailliert erklären.", "textAttributes" : null }, 
                            "duration" : 0
                          }, 
                          {
                            "endTime" : 21788928000, 
                            "time" : 21788928000, 
                            "value" : { "text" : "{\\rtf1\\ansi\\ansicpg1252\\cocoartf2822\n\\cocoatextscaling0\\cocoaplatform0{\\fonttbl\\f0\\fswiss\\fcharset0 ArialMT;}\n{\\colortbl;\\red255\\green255\\blue255;\\red255\\green255\\blue255;}\n{\\*\\expandedcolortbl;;\\csgray\\c100000;}\n\\pard\\tx560\\tx1120\\tx1680\\tx2240\\tx2800\\tx3360\\tx3920\\tx4480\\tx5040\\tx5600\\tx6160\\tx6720\\pardirnatural\\partightenfactor0\n\n\\f0\\fs36 \\cf2 Nach dieser Lektion wirst du wissen, was Hosting und Domains sind,}", "textAttributes" : null }, 
                            "duration" : 0
                          }, 
                          {
                            "endTime" : 26260428812, 
                            "time" : 26260428812, 
                            "value" : { "text" : "{\\rtf1\\ansi\\ansicpg1252\\cocoartf2822\n\\cocoatextscaling0\\cocoaplatform0{\\fonttbl\\f0\\fswiss\\fcharset0 ArialMT;}\n{\\colortbl;\\red255\\green255\\blue255;\\red255\\green255\\blue255;}\n{\\*\\expandedcolortbl;;\\csgray\\c100000;}\n\\pard\\tx560\\tx1120\\tx1680\\tx2240\\tx2800\\tx3360\\tx3920\\tx4480\\tx5040\\tx5600\\tx6160\\tx6720\\pardirnatural\\partightenfactor0\n\n\\f0\\fs36 \\cf2 warum du beides zusammen brauchst,}", "textAttributes" : null }, 
                            "duration" : 0
                          }, 
                          {
                            "endTime" : 29112416412, 
                            "time" : 29112416412, 
                            "value" : { "text" : "{\\rtf1\\ansi\\ansicpg1252\\cocoartf2822\n\\cocoatextscaling0\\cocoaplatform0{\\fonttbl\\f0\\fswiss\\fcharset0 ArialMT;}\n{\\colortbl;\\red255\\green255\\blue255;\\red255\\green255\\blue255;}\n{\\*\\expandedcolortbl;;\\csgray\\c100000;}\n\\pard\\tx560\\tx1120\\tx1680\\tx2240\\tx2800\\tx3360\\tx3920\\tx4480\\tx5040\\tx5600\\tx6160\\tx6720\\pardirnatural\\partightenfactor0\n\n\\f0\\fs36 \\cf2 wie du den richtigen Anbieter ausw\\'e4hlst.}", "textAttributes" : null }, 
                            "duration" : 0
                          }, 
                          {
                            "endTime" : 31964404012, 
                            "time" : 31964404012, 
                            "value" : { "text" : "Lass uns zuerst das Hosting genauer anschauen.", "textAttributes" : null }, 
                            "duration" : 0
                          }, 
                          {
                            "endTime" : 34884864000, 
                            "time" : 34884864000, 
                            "value" : { "text" : "Deine Webseite braucht eine Unterkunft.", "textAttributes" : null }, 
                            "duration" : 0
                          }, 
                          {
                            "endTime" : 36964044958, 
                            "time" : 36964044958, 
                            "value" : { "text" : "Diese Unterkunft nennt sich Hosting.", "textAttributes" : null }, 
                            "duration" : 0
                          }, 
                          {
                            "endTime" : 39612384000, 
                            "time" : 39612384000, 
                            "value" : { "text" : "Der Ort, an dem alle Inhalte gespeichert sind und sie arbeiten kann.", "textAttributes" : null }, 
                            "duration" : 0
                          }, 
                          {
                            "endTime" : 44410464000, 
                            "time" : 44410464000, 
                            "value" : { "text" : "Es gibt viele verschiedene Arten von Hosting.", "textAttributes" : null }, 
                            "duration" : 0
                          }, 
                          {
                            "endTime" : 46851840000, 
                            "time" : 46851840000, 
                            "value" : { "text" : "Und wenn es nötig ist, kann deine Webseite auch umziehen.", "textAttributes" : null }, 
                            "duration" : 0
                          }, 
                          {
                            "endTime" : 50295168000, 
                            "time" : 50295168000, 
                            "value" : { "text" : "Hier gefällt es deiner Webseite.", "textAttributes" : null }, 
                            "duration" : 0
                          }, 
                          {
                            "endTime" : 52637759999, 
                            "time" : 52637759999, 
                            "value" : { "text" : "Aber ist das wirklich der richtige Anbieter?", "textAttributes" : null }, 
                            "duration" : 0
                          }, 
                          {
                            "endTime" : 55008575999, 
                            "time" : 55008575999, 
                            "value" : { "text" : "Lass uns die Webseite mal fragen, was für sie wichtig ist.", "textAttributes" : null }, 
                            "duration" : 0
                          }, 
                          {
                            "endTime" : 58099104000, 
                            "time" : 58099104000, 
                            "value" : { "text" : "Zuverlässigkeit.", "textAttributes" : null }, 
                            "duration" : 0
                          }, 
                          {
                            "endTime" : 58861152000, 
                            "time" : 58861152000, 
                            "value" : { "text" : "Deine Webseite muss immer online sein.", "textAttributes" : null }, 
                            "duration" : 0
                          }, 
                          {
                            "endTime" : 60787440000, 
                            "time" : 60787440000, 
                            "value" : { "text" : "Ein guter Anbieter garantiert eine stabile Erreichbarkeit und bietet zuverlässigen Support.", "textAttributes" : null }, 
                            "duration" : 0
                          }, 
                          {
                            "endTime" : 66777984000, 
                            "time" : 66777984000, 
                            "value" : { "text" : "Skalierbarkeit", "textAttributes" : null }, 
                            "duration" : 0
                          }, 
                          {
                            "endTime" : 67808159999, 
                            "time" : 67808159999, 
                            "value" : { "text" : "Wächst deine Webseite, sollte dein Hosting-Anbieter mitwachsen können.", "textAttributes" : null }, 
                            "duration" : 0
                          }, 
                          {
                            "endTime" : 72493344000, 
                            "time" : 72493344000, 
                            "value" : { "text" : "Sicherheit", "textAttributes" : null }, 
                            "duration" : 0
                          }, 
                          {
                            "endTime" : 74031552000, 
                            "time" : 74031552000, 
                            "value" : { "text" : "Ein guter Anbieter schützt deine Webseite mit SSL-Zertifikaten und Firewalls.", "textAttributes" : null }, 
                            "duration" : 0
                          }, 
                          {
                            "endTime" : 79147000993, 
                            "time" : 79147000993, 
                            "value" : { "text" : "{\\rtf1\\ansi\\ansicpg1252\\cocoartf2822\n\\cocoatextscaling0\\cocoaplatform0{\\fonttbl\\f0\\fswiss\\fcharset0 ArialMT;}\n{\\colortbl;\\red255\\green255\\blue255;\\red255\\green255\\blue255;}\n{\\*\\expandedcolortbl;;\\csgray\\c100000;}\n\\pard\\tx560\\tx1120\\tx1680\\tx2240\\tx2800\\tx3360\\tx3920\\tx4480\\tx5040\\tx5600\\tx6160\\tx6720\\pardirnatural\\partightenfactor0\n\n\\f0\\fs36 \\cf2 Benutzerfreundlichkeit}", "textAttributes" : null }, 
                            "duration" : 0
                          }, 
                          {
                            "endTime" : 80720640000, 
                            "time" : 80720640000, 
                            "value" : { "text" : "Die Verwaltung sollte einfach und intuitiv sein.", "textAttributes" : null }, 
                            "duration" : 0
                          }, 
                          {
                            "endTime" : 85151808000, 
                            "time" : 85151808000, 
                            "value" : { "text" : "Preisleistung", "textAttributes" : null }, 
                            "duration" : 0
                          }, 
                          {
                            "endTime" : 86647680000, 
                            "time" : 86647680000, 
                            "value" : { "text" : "Dein Anbieter sollte ein gutes Preis-Leistungs-Verhältnis bieten.", "textAttributes" : null }, 
                            "duration" : 0
                          }, 
                          {
                            "endTime" : 90133344000, 
                            "time" : 90133344000, 
                            "value" : { "text" : "{\\rtf1\\ansi\\ansicpg1252\\cocoartf2822\n\\cocoatextscaling0\\cocoaplatform0{\\fonttbl\\f0\\fswiss\\fcharset0 ArialMT;}\n{\\colortbl;\\red255\\green255\\blue255;\\red255\\green255\\blue255;}\n{\\*\\expandedcolortbl;;\\csgray\\c100000;}\n\\pard\\tx560\\tx1120\\tx1680\\tx2240\\tx2800\\tx3360\\tx3920\\tx4480\\tx5040\\tx5600\\tx6160\\tx6720\\pardirnatural\\partightenfactor0\n\n\\f0\\fs36 \\cf2 Jetzt wei\\'df deine Webseite, worauf es ankommt,}", "textAttributes" : null }, 
                            "duration" : 0
                          }, 
                          {
                            "endTime" : 92569002837, 
                            "time" : 92569002837, 
                            "value" : { "text" : "{\\rtf1\\ansi\\ansicpg1252\\cocoartf2822\n\\cocoatextscaling0\\cocoaplatform0{\\fonttbl\\f0\\fswiss\\fcharset0 ArialMT;}\n{\\colortbl;\\red255\\green255\\blue255;\\red255\\green255\\blue255;}\n{\\*\\expandedcolortbl;;\\csgray\\c100000;}\n\\pard\\tx560\\tx1120\\tx1680\\tx2240\\tx2800\\tx3360\\tx3920\\tx4480\\tx5040\\tx5600\\tx6160\\tx6720\\pardirnatural\\partightenfactor0\n\n\\f0\\fs36 \\cf2 und hat sich f\\'fcr den richtigen Hosting-Anbieter entschieden.}", "textAttributes" : null }, 
                            "duration" : 0
                          }, 
                          {
                            "endTime" : 96780096000, 
                            "time" : 96780096000, 
                            "value" : { "text" : "Aber wie können die Leute deine Webseite finden?", "textAttributes" : null }, 
                            "duration" : 0
                          }, 
                          {
                            "endTime" : 99687168000, 
                            "time" : 99687168000, 
                            "value" : { "text" : "Dafür braucht sie eine Domain, also ihre Adresse im Internet.", "textAttributes" : null }, 
                            "duration" : 0
                          }, 
                          {
                            "endTime" : 103285728000, 
                            "time" : 103285728000, 
                            "value" : { "text" : "Domains kannst du bei einem Domain-Registrar mieten.", "textAttributes" : null }, 
                            "duration" : 0
                          }, 
                          {
                            "endTime" : 106037568000, 
                            "time" : 106037568000, 
                            "value" : { "text" : "Die meisten Hosting-Anbieter übernehmen das für dich.", "textAttributes" : null }, 
                            "duration" : 0
                          }, 
                          {
                            "endTime" : 108507168000, 
                            "time" : 108507168000, 
                            "value" : { "text" : "So wird das ganz einfach.", "textAttributes" : null }, 
                            "duration" : 0
                          }, 
                          {
                            "endTime" : 110384064000, 
                            "time" : 110384064000, 
                            "value" : { "text" : "Die Domain ist weltweit einzigartig.", "textAttributes" : null }, 
                            "duration" : 0
                          }, 
                          {
                            "endTime" : 112373856000, 
                            "time" : 112373856000, 
                            "value" : { "text" : "Niemand sonst kann sie zur selben Zeit nutzen.", "textAttributes" : null }, 
                            "duration" : 0
                          }, 
                          {
                            "endTime" : 114448319999, 
                            "time" : 114448319999, 
                            "value" : { "text" : "{\\rtf1\\ansi\\ansicpg1252\\cocoartf2822\n\\cocoatextscaling0\\cocoaplatform0{\\fonttbl\\f0\\fswiss\\fcharset0 ArialMT;}\n{\\colortbl;\\red255\\green255\\blue255;\\red255\\green255\\blue255;}\n{\\*\\expandedcolortbl;;\\csgray\\c100000;}\n\\pard\\tx560\\tx1120\\tx1680\\tx2240\\tx2800\\tx3360\\tx3920\\tx4480\\tx5040\\tx5600\\tx6160\\tx6720\\pardirnatural\\partightenfactor0\n\n\\f0\\fs36 \\cf2 Sie besteht aus der von dir gew\\'e4hlten Second-Level-Domain, zum Beispiel \\'84Meine-Webseite\\'93}", "textAttributes" : null }, 
                            "duration" : 0
                          }, 
                          {
                            "endTime" : 118399679999, 
                            "time" : 118399679999, 
                            "value" : { "text" : "{\\rtf1\\ansi\\ansicpg1252\\cocoartf2822\n\\cocoatextscaling0\\cocoaplatform0{\\fonttbl\\f0\\fswiss\\fcharset0 ArialMT;}\n{\\colortbl;\\red255\\green255\\blue255;\\red255\\green255\\blue255;}\n{\\*\\expandedcolortbl;;\\csgray\\c100000;}\n\\pard\\tx560\\tx1120\\tx1680\\tx2240\\tx2800\\tx3360\\tx3920\\tx4480\\tx5040\\tx5600\\tx6160\\tx6720\\pardirnatural\\partightenfactor0\n\n\\f0\\fs36 \\cf2 und einer Top-Level-Domain wie .com .de oder .net.}", "textAttributes" : null }, 
                            "duration" : 0
                          }, 
                          {
                            "endTime" : 122351040000, 
                            "time" : 122351040000, 
                            "value" : { "text" : "Für die Top-Level-Domain stehen dir hunderte Optionen offen, solange sie noch frei ist.", "textAttributes" : null }, 
                            "duration" : 0
                          }, 
                          {
                            "endTime" : 127445472000, 
                            "time" : 127445472000, 
                            "value" : { "text" : "Falls du den Anbieter wechselst, kannst du deine Domain problemlos mitnehmen.", "textAttributes" : null }, 
                            "duration" : 0
                          }, 
                          {
                            "endTime" : 131199264000, 
                            "time" : 131199264000, 
                            "value" : { "text" : "So bleibt deine Webseite immer unter derselben Adresse erreichbar.", "textAttributes" : null }, 
                            "duration" : 0
                          }, 
                          {
                            "endTime" : 135207072000, 
                            "time" : 135207072000, 
                            "value" : { "text" : "Fassen wir zusammen.", "textAttributes" : null }, 
                            "duration" : 0
                          }, 
                          {
                            "endTime" : 137013408000, 
                            "time" : 137013408000, 
                            "value" : { "text" : "Hosting", "textAttributes" : null }, 
                            "duration" : 0
                          }, 
                          {
                            "endTime" : 140019264000, 
                            "time" : 140019264000, 
                            "value" : { "text" : "{\\rtf1\\ansi\\ansicpg1252\\cocoartf2822\n\\cocoatextscaling0\\cocoaplatform0{\\fonttbl\\f0\\fswiss\\fcharset0 ArialMT;}\n{\\colortbl;\\red255\\green255\\blue255;\\red255\\green255\\blue255;}\n{\\*\\expandedcolortbl;;\\csgray\\c100000;}\n\\pard\\tx560\\tx1120\\tx1680\\tx2240\\tx2800\\tx3360\\tx3920\\tx4480\\tx5040\\tx5600\\tx6160\\tx6720\\pardirnatural\\partightenfactor0\n\n\\f0\\fs36 \\cf2 Das Hosting speichert deine WordPress-Webseite auf einem Server,}", "textAttributes" : null }, 
                            "duration" : 0
                          }, 
                          {
                            "endTime" : 143572548162, 
                            "time" : 143572548162, 
                            "value" : { "text" : "{\\rtf1\\ansi\\ansicpg1252\\cocoartf2822\n\\cocoatextscaling0\\cocoaplatform0{\\fonttbl\\f0\\fswiss\\fcharset0 ArialMT;}\n{\\colortbl;\\red255\\green255\\blue255;\\red255\\green255\\blue255;}\n{\\*\\expandedcolortbl;;\\csgray\\c100000;}\n\\pard\\tx560\\tx1120\\tx1680\\tx2240\\tx2800\\tx3360\\tx3920\\tx4480\\tx5040\\tx5600\\tx6160\\tx6720\\pardirnatural\\partightenfactor0\n\n\\f0\\fs36 \\cf2 sodass sie jederzeit verf\\'fcgbar ist.}", "textAttributes" : null }, 
                            "duration" : 0
                          }, 
                          {
                            "endTime" : 146172096000, 
                            "time" : 146172096000, 
                            "value" : { "text" : "Domain", "textAttributes" : null }, 
                            "duration" : 0
                          }, 
                          {
                            "endTime" : 148161888000, 
                            "time" : 148161888000, 
                            "value" : { "text" : "Die Domain ist die Adresse deiner Webseite im Internet.", "textAttributes" : null }, 
                            "duration" : 0
                          }, 
                          {
                            "endTime" : 151217136000, 
                            "time" : 151217136000, 
                            "value" : { "text" : "Sie zeigt Besuchern den Weg zu deiner Webseite.", "textAttributes" : null }, 
                            "duration" : 0
                          }, 
                          {
                            "endTime" : 154117152000, 
                            "time" : 154117152000, 
                            "value" : { "text" : "{\\rtf1\\ansi\\ansicpg1252\\cocoartf2822\n\\cocoatextscaling0\\cocoaplatform0{\\fonttbl\\f0\\fswiss\\fcharset0 ArialMT;}\n{\\colortbl;\\red255\\green255\\blue255;\\red255\\green255\\blue255;}\n{\\*\\expandedcolortbl;;\\csgray\\c100000;}\n\\pard\\tx560\\tx1120\\tx1680\\tx2240\\tx2800\\tx3360\\tx3920\\tx4480\\tx5040\\tx5600\\tx6160\\tx6720\\pardirnatural\\partightenfactor0\n\n\\f0\\fs36 \\cf2 Beides zusammen stellt sicher, dass deine Webseite immer online}", "textAttributes" : null }, 
                            "duration" : 0
                          }, 
                          {
                            "endTime" : 157527724031, 
                            "time" : 157527724031, 
                            "value" : { "text" : "{\\rtf1\\ansi\\ansicpg1252\\cocoartf2822\n\\cocoatextscaling0\\cocoaplatform0{\\fonttbl\\f0\\fswiss\\fcharset0 ArialMT;}\n{\\colortbl;\\red255\\green255\\blue255;\\red255\\green255\\blue255;}\n{\\*\\expandedcolortbl;;\\csgray\\c100000;}\n\\pard\\tx560\\tx1120\\tx1680\\tx2240\\tx2800\\tx3360\\tx3920\\tx4480\\tx5040\\tx5600\\tx6160\\tx6720\\pardirnatural\\partightenfactor0\n\n\\f0\\fs36 \\cf2  und problemlos erreicht werden kann.}", "textAttributes" : null }, 
                            "duration" : 0
                          }, 
                          {
                            "endTime" : 160411104000, 
                            "time" : 160411104000, 
                            "value" : { "text" : "{\\rtf1\\ansi\\ansicpg1252\\cocoartf2822\n\\cocoatextscaling0\\cocoaplatform0{\\fonttbl\\f0\\fswiss\\fcharset0 ArialMT;}\n{\\colortbl;\\red255\\green255\\blue255;\\red255\\green255\\blue255;}\n{\\*\\expandedcolortbl;;\\csgray\\c100000;}\n\\pard\\tx560\\tx1120\\tx1680\\tx2240\\tx2800\\tx3360\\tx3920\\tx4480\\tx5040\\tx5600\\tx6160\\tx6720\\pardirnatural\\partightenfactor0\n\n\\f0\\fs36 \\cf2 Sobald du eine Domain registriert und einen Hosting-Anbieter ausgew\\'e4hlt hast,}", "textAttributes" : null }, 
                            "duration" : 0
                          }, 
                          {
                            "endTime" : 164001369551, 
                            "time" : 164001369551, 
                            "value" : { "text" : "{\\rtf1\\ansi\\ansicpg1252\\cocoartf2822\n\\cocoatextscaling0\\cocoaplatform0{\\fonttbl\\f0\\fswiss\\fcharset0 ArialMT;}\n{\\colortbl;\\red255\\green255\\blue255;\\red255\\green255\\blue255;}\n{\\*\\expandedcolortbl;;\\csgray\\c100000;}\n\\pard\\tx560\\tx1120\\tx1680\\tx2240\\tx2800\\tx3360\\tx3920\\tx4480\\tx5040\\tx5600\\tx6160\\tx6720\\pardirnatural\\partightenfactor0\n\n\\f0\\fs36 \\cf2 kannst du mit der Gestaltung deiner Webseite loslegen.}", "textAttributes" : null }, 
                            "duration" : 0
                          }, 
                          {
                            "endTime" : 167368320000, 
                            "time" : 167368320000, 
                            "value" : { "text" : "Du fragst dich jetzt sicher, wie du das machen kannst?", "textAttributes" : null }, 
                            "duration" : 0
                          }, 
                          {
                            "endTime" : 170614080000, 
                            "time" : 170614080000, 
                            "value" : { "text" : "{\\rtf1\\ansi\\ansicpg1252\\cocoartf2822\n\\cocoatextscaling0\\cocoaplatform0{\\fonttbl}\n{\\colortbl;\\red255\\green255\\blue255;}\n{\\*\\expandedcolortbl;;}\n}", "textAttributes" : null }, 
                            "duration" : 0
                          }
                        ]
                      }
                    }, 
                    "effects" : [
                    ], 
                    "start" : 0, 
                    "duration" : 172533312000, 
                    "mediaStart" : 0, 
                    "mediaDuration" : 172533312000, 
                    "scalar" : 1, 
                    "metadata" : {
                      "audiateLinkedSession" : "", 
                      "clipSpeedAttribute" : 
                        {
                          "type" : "bool", 
                          "value" : false
                        }, 
                      "colorAttribute" : 
                        {
                          "type" : "color", 
                          "value" : [ 0, 0, 0, 0]
                        }, 
                      "effectApplied" : "none"
                    }, 
                    "animationTracks" : {
                    }
                  }
                ], 
                "parameters" : {
                }
              }, 
              {
                "trackIndex" : 6, 
                "medias" : [
                  {
                    "id" : 272, 
                    "_type" : "Caption", 
                    "allowTrimOut" : false, 
                    "maxMediaDuration" : 172152288000.0, 
                    "parameters" : {
                      "captionData" : {
                        "type" : "caption", 
                        "keyframes" : [
                          {
                            "endTime" : 0, 
                            "time" : 0, 
                            "value" : { "text" : "", "textAttributes" : null }, 
                            "duration" : 0
                          }, 
                          {
                            "endTime" : 14112000, 
                            "time" : 14112000, 
                            "value" : { "text" : "Hello and welcome to learn WordPress.", "textAttributes" : null }, 
                            "duration" : 0
                          }, 
                          {
                            "endTime" : 2822400000, 
                            "time" : 2822400000, 
                            "value" : { "text" : "Say hello to your new WordPress website.", "textAttributes" : null }, 
                            "duration" : 0
                          }, 
                          {
                            "endTime" : 5644800000, 
                            "time" : 5644800000, 
                            "value" : { "text" : "At the moment, it doesn't have a home and feels a bit lonely.", "textAttributes" : null }, 
                            "duration" : 0
                          }, 
                          {
                            "endTime" : 8522677973, 
                            "time" : 8522677973, 
                            "value" : { "text" : "{\\rtf1\\ansi\\ansicpg1252\\cocoartf2822\n\\cocoatextscaling0\\cocoaplatform0{\\fonttbl\\f0\\fswiss\\fcharset0 ArialMT;}\n{\\colortbl;\\red255\\green255\\blue255;\\red255\\green255\\blue255;}\n{\\*\\expandedcolortbl;;\\csgray\\c100000;}\n\\pard\\tx560\\tx1120\\tx1680\\tx2240\\tx2800\\tx3360\\tx3920\\tx4480\\tx5040\\tx5600\\tx6160\\tx6720\\pardirnatural\\partightenfactor0\n\n\\f0\\fs36 \\cf2 Let's change that now.}", "textAttributes" : null }, 
                            "duration" : 0
                          }, 
                          {
                            "endTime" : 9824156562, 
                            "time" : 9824156562, 
                            "value" : { "text" : "{\\rtf1\\ansi\\ansicpg1252\\cocoartf2822\n\\cocoatextscaling0\\cocoaplatform0{\\fonttbl\\f0\\fswiss\\fcharset0 ArialMT;}\n{\\colortbl;\\red255\\green255\\blue255;\\red255\\green255\\blue255;}\n{\\*\\expandedcolortbl;;\\csgray\\c100000;}\n\\pard\\tx560\\tx1120\\tx1680\\tx2240\\tx2800\\tx3360\\tx3920\\tx4480\\tx5040\\tx5600\\tx6160\\tx6720\\pardirnatural\\partightenfactor0\n\n\\f0\\fs36 \\cf2 In this lesson, you'll learn how to find a good hosting provider.}", "textAttributes" : null }, 
                            "duration" : 0
                          }, 
                          {
                            "endTime" : 15015168000, 
                            "time" : 15015168000, 
                            "value" : { "text" : "And get the right domain. If you're not sure what that means, don't worry.", "textAttributes" : null }, 
                            "duration" : 0
                          }, 
                          {
                            "endTime" : 19432224000, 
                            "time" : 19432224000, 
                            "value" : { "text" : "We'll explain everything in detail.", "textAttributes" : null }, 
                            "duration" : 0
                          }, 
                          {
                            "endTime" : 21788928000, 
                            "time" : 21788928000, 
                            "value" : { "text" : "{\\rtf1\\ansi\\ansicpg1252\\cocoartf2822\n\\cocoatextscaling0\\cocoaplatform0{\\fonttbl\\f0\\fswiss\\fcharset0 ArialMT;}\n{\\colortbl;\\red255\\green255\\blue255;\\red255\\green255\\blue255;}\n{\\*\\expandedcolortbl;;\\csgray\\c100000;}\n\\pard\\tx560\\tx1120\\tx1680\\tx2240\\tx2800\\tx3360\\tx3920\\tx4480\\tx5040\\tx5600\\tx6160\\tx6720\\pardirnatural\\partightenfactor0\n\n\\f0\\fs36 \\cf2 By the end of this lesson, you'll understand}", "textAttributes" : null }, 
                            "duration" : 0
                          }, 
                          {
                            "endTime" : 23853788231, 
                            "time" : 23853788231, 
                            "value" : { "text" : "{\\rtf1\\ansi\\ansicpg1252\\cocoartf2822\n\\cocoatextscaling0\\cocoaplatform0{\\fonttbl\\f0\\fswiss\\fcharset0 ArialMT;}\n{\\colortbl;\\red255\\green255\\blue255;\\red255\\green255\\blue255;}\n{\\*\\expandedcolortbl;;\\csgray\\c100000;}\n\\pard\\tx560\\tx1120\\tx1680\\tx2240\\tx2800\\tx3360\\tx3920\\tx4480\\tx5040\\tx5600\\tx6160\\tx6720\\pardirnatural\\partightenfactor0\n\n\\f0\\fs36 \\cf2 what hosting and domains are,}", "textAttributes" : null }, 
                            "duration" : 0
                          }, 
                          {
                            "endTime" : 26731967532, 
                            "time" : 26731967532, 
                            "value" : { "text" : "{\\rtf1\\ansi\\ansicpg1252\\cocoartf2822\n\\cocoatextscaling0\\cocoaplatform0{\\fonttbl\\f0\\fswiss\\fcharset0 ArialMT;}\n{\\colortbl;\\red255\\green255\\blue255;\\red255\\green255\\blue255;}\n{\\*\\expandedcolortbl;;\\csgray\\c100000;}\n\\pard\\tx560\\tx1120\\tx1680\\tx2240\\tx2800\\tx3360\\tx3920\\tx4480\\tx5040\\tx5600\\tx6160\\tx6720\\pardirnatural\\partightenfactor0\n\n\\f0\\fs36 \\cf2 why you need both, and how to choose the right provider.}", "textAttributes" : null }, 
                            "duration" : 0
                          }, 
                          {
                            "endTime" : 32316479999, 
                            "time" : 32316479999, 
                            "value" : { "text" : "Let's start by taking a closer look at hosting.", "textAttributes" : null }, 
                            "duration" : 0
                          }, 
                          {
                            "endTime" : 34884864000, 
                            "time" : 34884864000, 
                            "value" : { "text" : "Your website needs a place to stay.", "textAttributes" : null }, 
                            "duration" : 0
                          }, 
                          {
                            "endTime" : 37298016000, 
                            "time" : 37298016000, 
                            "value" : { "text" : "This place is called hosting.", "textAttributes" : null }, 
                            "duration" : 0
                          }, 
                          {
                            "endTime" : 39697056000, 
                            "time" : 39697056000, 
                            "value" : { "text" : "It's where all your content is stored and where it functions.", "textAttributes" : null }, 
                            "duration" : 0
                          }, 
                          {
                            "endTime" : 44354016000, 
                            "time" : 44354016000, 
                            "value" : { "text" : "{\\rtf1\\ansi\\ansicpg1252\\cocoartf2822\n\\cocoatextscaling0\\cocoaplatform0{\\fonttbl\\f0\\fswiss\\fcharset0 ArialMT;}\n{\\colortbl;\\red255\\green255\\blue255;\\red255\\green255\\blue255;}\n{\\*\\expandedcolortbl;;\\csgray\\c100000;}\n\\pard\\tx560\\tx1120\\tx1680\\tx2240\\tx2800\\tx3360\\tx3920\\tx4480\\tx5040\\tx5600\\tx6160\\tx6720\\pardirnatural\\partightenfactor0\n\n\\f0\\fs36 \\cf2 There are many different types of hosting}", "textAttributes" : null }, 
                            "duration" : 0
                          }, 
                          {
                            "endTime" : 46690483788, 
                            "time" : 46690483788, 
                            "value" : { "text" : "{\\rtf1\\ansi\\ansicpg1252\\cocoartf2822\n\\cocoatextscaling0\\cocoaplatform0{\\fonttbl\\f0\\fswiss\\fcharset0 ArialMT;}\n{\\colortbl;\\red255\\green255\\blue255;\\red255\\green255\\blue255;}\n{\\*\\expandedcolortbl;;\\csgray\\c100000;}\n\\pard\\tx560\\tx1120\\tx1680\\tx2240\\tx2800\\tx3360\\tx3920\\tx4480\\tx5040\\tx5600\\tx6160\\tx6720\\pardirnatural\\partightenfactor0\n\n\\f0\\fs36 \\cf2 and, if needed, your website can even be moved.}", "textAttributes" : null }, 
                            "duration" : 0
                          }, 
                          {
                            "endTime" : 50210496000, 
                            "time" : 50210496000, 
                            "value" : { "text" : "Your website likes it here.", "textAttributes" : null }, 
                            "duration" : 0
                          }, 
                          {
                            "endTime" : 52411968000, 
                            "time" : 52411968000, 
                            "value" : { "text" : "But is this really the right provider?", "textAttributes" : null }, 
                            "duration" : 0
                          }, 
                          {
                            "endTime" : 55008575999, 
                            "time" : 55008575999, 
                            "value" : { "text" : "Let's ask your website what's important for it.", "textAttributes" : null }, 
                            "duration" : 0
                          }, 
                          {
                            "endTime" : 58028544000, 
                            "time" : 58028544000, 
                            "value" : { "text" : "{\\rtf1\\ansi\\ansicpg1252\\cocoartf2822\n\\cocoatextscaling0\\cocoaplatform0{\\fonttbl\\f0\\fswiss\\fcharset0 ArialMT;}\n{\\colortbl;\\red255\\green255\\blue255;\\red255\\green255\\blue255;}\n{\\*\\expandedcolortbl;;\\csgray\\c100000;}\n\\pard\\tx560\\tx1120\\tx1680\\tx2240\\tx2800\\tx3360\\tx3920\\tx4480\\tx5040\\tx5600\\tx6160\\tx6720\\pardirnatural\\partightenfactor0\n\n\\f0\\fs36 \\cf2 Reliability.}", "textAttributes" : null }, 
                            "duration" : 0
                          }, 
                          {
                            "endTime" : 58991463233, 
                            "time" : 58991463233, 
                            "value" : { "text" : "{\\rtf1\\ansi\\ansicpg1252\\cocoartf2822\n\\cocoatextscaling0\\cocoaplatform0{\\fonttbl\\f0\\fswiss\\fcharset0 ArialMT;}\n{\\colortbl;\\red255\\green255\\blue255;\\red255\\green255\\blue255;}\n{\\*\\expandedcolortbl;;\\csgray\\c100000;}\n\\pard\\tx560\\tx1120\\tx1680\\tx2240\\tx2800\\tx3360\\tx3920\\tx4480\\tx5040\\tx5600\\tx6160\\tx6720\\pardirnatural\\partightenfactor0\n\n\\f0\\fs36 \\cf2 Your website needs to be online at all times.}", "textAttributes" : null }, 
                            "duration" : 0
                          }, 
                          {
                            "endTime" : 61178877739, 
                            "time" : 61178877739, 
                            "value" : { "text" : "{\\rtf1\\ansi\\ansicpg1252\\cocoartf2822\n\\cocoatextscaling0\\cocoaplatform0{\\fonttbl\\f0\\fswiss\\fcharset0 ArialMT;}\n{\\colortbl;\\red255\\green255\\blue255;\\red255\\green255\\blue255;}\n{\\*\\expandedcolortbl;;\\csgray\\c100000;}\n\\pard\\tx560\\tx1120\\tx1680\\tx2240\\tx2800\\tx3360\\tx3920\\tx4480\\tx5040\\tx5600\\tx6160\\tx6720\\pardirnatural\\partightenfactor0\n\n\\f0\\fs36 \\cf2 A good provider guarantees stable availability and offers reliable support.}", "textAttributes" : null }, 
                            "duration" : 0
                          }, 
                          {
                            "endTime" : 66679200000, 
                            "time" : 66679200000, 
                            "value" : { "text" : "{\\rtf1\\ansi\\ansicpg1252\\cocoartf2822\n\\cocoatextscaling0\\cocoaplatform0{\\fonttbl\\f0\\fswiss\\fcharset0 ArialMT;}\n{\\colortbl;\\red255\\green255\\blue255;\\red255\\green255\\blue255;}\n{\\*\\expandedcolortbl;;\\csgray\\c100000;}\n\\pard\\tx560\\tx1120\\tx1680\\tx2240\\tx2800\\tx3360\\tx3920\\tx4480\\tx5040\\tx5600\\tx6160\\tx6720\\pardirnatural\\partightenfactor0\n\n\\f0\\fs36 \\cf2 Scalability.}", "textAttributes" : null }, 
                            "duration" : 0
                          }, 
                          {
                            "endTime" : 67662480071, 
                            "time" : 67662480071, 
                            "value" : { "text" : "{\\rtf1\\ansi\\ansicpg1252\\cocoartf2822\n\\cocoatextscaling0\\cocoaplatform0{\\fonttbl\\f0\\fswiss\\fcharset0 ArialMT;}\n{\\colortbl;\\red255\\green255\\blue255;\\red255\\green255\\blue255;}\n{\\*\\expandedcolortbl;;\\csgray\\c100000;}\n\\pard\\tx560\\tx1120\\tx1680\\tx2240\\tx2800\\tx3360\\tx3920\\tx4480\\tx5040\\tx5600\\tx6160\\tx6720\\pardirnatural\\partightenfactor0\n\n\\f0\\fs36 \\cf2 If your website grows, your hosting provider should be able to grow with it.}", "textAttributes" : null }, 
                            "duration" : 0
                          }, 
                          {
                            "endTime" : 72309888000, 
                            "time" : 72309888000, 
                            "value" : { "text" : "{\\rtf1\\ansi\\ansicpg1252\\cocoartf2822\n\\cocoatextscaling0\\cocoaplatform0{\\fonttbl\\f0\\fswiss\\fcharset0 ArialMT;}\n{\\colortbl;\\red255\\green255\\blue255;\\red255\\green255\\blue255;}\n{\\*\\expandedcolortbl;;\\csgray\\c100000;}\n\\pard\\tx560\\tx1120\\tx1680\\tx2240\\tx2800\\tx3360\\tx3920\\tx4480\\tx5040\\tx5600\\tx6160\\tx6720\\pardirnatural\\partightenfactor0\n\n\\f0\\fs36 \\cf2 Security.}", "textAttributes" : null }, 
                            "duration" : 0
                          }, 
                          {
                            "endTime" : 73937738331, 
                            "time" : 73937738331, 
                            "value" : { "text" : "{\\rtf1\\ansi\\ansicpg1252\\cocoartf2822\n\\cocoatextscaling0\\cocoaplatform0{\\fonttbl\\f0\\fswiss\\fcharset0 ArialMT;}\n{\\colortbl;\\red255\\green255\\blue255;\\red255\\green255\\blue255;}\n{\\*\\expandedcolortbl;;\\csgray\\c100000;}\n\\pard\\tx560\\tx1120\\tx1680\\tx2240\\tx2800\\tx3360\\tx3920\\tx4480\\tx5040\\tx5600\\tx6160\\tx6720\\pardirnatural\\partightenfactor0\n\n\\f0\\fs36 \\cf2 A good provider protects your website with SSL certificates and firewalls.}", "textAttributes" : null }, 
                            "duration" : 0
                          }, 
                          {
                            "endTime" : 79436448000, 
                            "time" : 79436448000, 
                            "value" : { "text" : "{\\rtf1\\ansi\\ansicpg1252\\cocoartf2822\n\\cocoatextscaling0\\cocoaplatform0{\\fonttbl\\f0\\fswiss\\fcharset0 ArialMT;}\n{\\colortbl;\\red255\\green255\\blue255;\\red255\\green255\\blue255;}\n{\\*\\expandedcolortbl;;\\csgray\\c100000;}\n\\pard\\tx560\\tx1120\\tx1680\\tx2240\\tx2800\\tx3360\\tx3920\\tx4480\\tx5040\\tx5600\\tx6160\\tx6720\\pardirnatural\\partightenfactor0\n\n\\f0\\fs36 \\cf2 User-friendliness.}", "textAttributes" : null }, 
                            "duration" : 0
                          }, 
                          {
                            "endTime" : 81228672000, 
                            "time" : 81228672000, 
                            "value" : { "text" : "Managing your hosting should be simple and intuitive.", "textAttributes" : null }, 
                            "duration" : 0
                          }, 
                          {
                            "endTime" : 85194144000, 
                            "time" : 85194144000, 
                            "value" : { "text" : "Value for money.", "textAttributes" : null }, 
                            "duration" : 0
                          }, 
                          {
                            "endTime" : 86577120000, 
                            "time" : 86577120000, 
                            "value" : { "text" : "Your provider should offer a good balance of cost and quality.", "textAttributes" : null }, 
                            "duration" : 0
                          }, 
                          {
                            "endTime" : 90161568000, 
                            "time" : 90161568000, 
                            "value" : { "text" : "Now your website knows what matters.", "textAttributes" : null }, 
                            "duration" : 0
                          }, 
                          {
                            "endTime" : 92645280000, 
                            "time" : 92645280000, 
                            "value" : { "text" : "And it has chosen the right hosting provider.", "textAttributes" : null }, 
                            "duration" : 0
                          }, 
                          {
                            "endTime" : 96300288000, 
                            "time" : 96300288000, 
                            "value" : { "text" : "But how can people find your website?", "textAttributes" : null }, 
                            "duration" : 0
                          }, 
                          {
                            "endTime" : 99701280000, 
                            "time" : 99701280000, 
                            "value" : { "text" : "For that, it needs a domain, its address on the internet.", "textAttributes" : null }, 
                            "duration" : 0
                          }, 
                          {
                            "endTime" : 103186944000, 
                            "time" : 103186944000, 
                            "value" : { "text" : "You can rent one from a domain registrar.", "textAttributes" : null }, 
                            "duration" : 0
                          }, 
                          {
                            "endTime" : 106136351999, 
                            "time" : 106136351999, 
                            "value" : { "text" : "Most hosting providers will handle this for you.", "textAttributes" : null }, 
                            "duration" : 0
                          }, 
                          {
                            "endTime" : 108634176000, 
                            "time" : 108634176000, 
                            "value" : { "text" : "So it's really easy.", "textAttributes" : null }, 
                            "duration" : 0
                          }, 
                          {
                            "endTime" : 110200608000, 
                            "time" : 110200608000, 
                            "value" : { "text" : "{\\rtf1\\ansi\\ansicpg1252\\cocoartf2822\n\\cocoatextscaling0\\cocoaplatform0{\\fonttbl\\f0\\fswiss\\fcharset0 ArialMT;}\n{\\colortbl;\\red255\\green255\\blue255;\\red255\\green255\\blue255;}\n{\\*\\expandedcolortbl;;\\csgray\\c100000;}\n\\pard\\tx560\\tx1120\\tx1680\\tx2240\\tx2800\\tx3360\\tx3920\\tx4480\\tx5040\\tx5600\\tx6160\\tx6720\\pardirnatural\\partightenfactor0\n\n\\f0\\fs36 \\cf2 A domain is unique worldwide, no one else can use it at the same time.}", "textAttributes" : null }, 
                            "duration" : 0
                          }, 
                          {
                            "endTime" : 114504768000, 
                            "time" : 114504768000, 
                            "value" : { "text" : "{\\rtf1\\ansi\\ansicpg1252\\cocoartf2822\n\\cocoatextscaling0\\cocoaplatform0{\\fonttbl\\f0\\fswiss\\fcharset0 ArialMT;}\n{\\colortbl;\\red255\\green255\\blue255;\\red255\\green255\\blue255;}\n{\\*\\expandedcolortbl;;\\csgray\\c100000;}\n\\pard\\tx560\\tx1120\\tx1680\\tx2240\\tx2800\\tx3360\\tx3920\\tx4480\\tx5040\\tx5600\\tx6160\\tx6720\\pardirnatural\\partightenfactor0\n\n\\f0\\fs36 \\cf2 It's made up of the second level domain name you choose, for example,  \\'93My-Website\\'94,}", "textAttributes" : null }, 
                            "duration" : 0
                          }, 
                          {
                            "endTime" : 117867453889, 
                            "time" : 117867453889, 
                            "value" : { "text" : "{\\rtf1\\ansi\\ansicpg1252\\cocoartf2822\n\\cocoatextscaling0\\cocoaplatform0{\\fonttbl\\f0\\fswiss\\fcharset0 ArialMT;}\n{\\colortbl;\\red255\\green255\\blue255;\\red255\\green255\\blue255;}\n{\\*\\expandedcolortbl;;\\csgray\\c100000;}\n\\pard\\tx560\\tx1120\\tx1680\\tx2240\\tx2800\\tx3360\\tx3920\\tx4480\\tx5040\\tx5600\\tx6160\\tx6720\\pardirnatural\\partightenfactor0\n\n\\f0\\fs36 \\cf2 and a top-level domain extension like .com .de or .net.}", "textAttributes" : null }, 
                            "duration" : 0
                          }, 
                          {
                            "endTime" : 122421600000, 
                            "time" : 122421600000, 
                            "value" : { "text" : "{\\rtf1\\ansi\\ansicpg1252\\cocoartf2822\n\\cocoatextscaling0\\cocoaplatform0{\\fonttbl\\f0\\fswiss\\fcharset0 ArialMT;}\n{\\colortbl;\\red255\\green255\\blue255;\\red255\\green255\\blue255;}\n{\\*\\expandedcolortbl;;\\csgray\\c100000;}\n\\pard\\tx560\\tx1120\\tx1680\\tx2240\\tx2800\\tx3360\\tx3920\\tx4480\\tx5040\\tx5600\\tx6160\\tx6720\\pardirnatural\\partightenfactor0\n\n\\f0\\fs36 \\cf2 You've got hundreds of top-level domain options,}", "textAttributes" : null }, 
                            "duration" : 0
                          }, 
                          {
                            "endTime" : 124682979301, 
                            "time" : 124682979301, 
                            "value" : { "text" : "{\\rtf1\\ansi\\ansicpg1252\\cocoartf2822\n\\cocoatextscaling0\\cocoaplatform0{\\fonttbl\\f0\\fswiss\\fcharset0 ArialMT;}\n{\\colortbl;\\red255\\green255\\blue255;\\red255\\green255\\blue255;}\n{\\*\\expandedcolortbl;;\\csgray\\c100000;}\n\\pard\\tx560\\tx1120\\tx1680\\tx2240\\tx2800\\tx3360\\tx3920\\tx4480\\tx5040\\tx5600\\tx6160\\tx6720\\pardirnatural\\partightenfactor0\n\n\\f0\\fs36 \\cf2 as long as the one you want is still available.}", "textAttributes" : null }, 
                            "duration" : 0
                          }, 
                          {
                            "endTime" : 127419560409, 
                            "time" : 127419560409, 
                            "value" : { "text" : "{\\rtf1\\ansi\\ansicpg1252\\cocoartf2822\n\\cocoatextscaling0\\cocoaplatform0{\\fonttbl\\f0\\fswiss\\fcharset0 ArialMT;}\n{\\colortbl;\\red255\\green255\\blue255;\\red255\\green255\\blue255;}\n{\\*\\expandedcolortbl;;\\csgray\\c100000;}\n\\pard\\tx560\\tx1120\\tx1680\\tx2240\\tx2800\\tx3360\\tx3920\\tx4480\\tx5040\\tx5600\\tx6160\\tx6720\\pardirnatural\\partightenfactor0\n\n\\f0\\fs36 \\cf2 If you switch providers, you can take your domain with you.}", "textAttributes" : null }, 
                            "duration" : 0
                          }, 
                          {
                            "endTime" : 131255712000, 
                            "time" : 131255712000, 
                            "value" : { "text" : "This way, your website will always be available at the same address.", "textAttributes" : null }, 
                            "duration" : 0
                          }, 
                          {
                            "endTime" : 135305856000, 
                            "time" : 135305856000, 
                            "value" : { "text" : "{\\rtf1\\ansi\\ansicpg1252\\cocoartf2822\n\\cocoatextscaling0\\cocoaplatform0{\\fonttbl\\f0\\fswiss\\fcharset0 ArialMT;}\n{\\colortbl;\\red255\\green255\\blue255;\\red255\\green255\\blue255;}\n{\\*\\expandedcolortbl;;\\csgray\\c100000;}\n\\pard\\tx560\\tx1120\\tx1680\\tx2240\\tx2800\\tx3360\\tx3920\\tx4480\\tx5040\\tx5600\\tx6160\\tx6720\\pardirnatural\\partightenfactor0\n\n\\f0\\fs36 \\cf2 Let's summarize:}", "textAttributes" : null }, 
                            "duration" : 0
                          }, 
                          {
                            "endTime" : 136978715999, 
                            "time" : 136978715999, 
                            "value" : { "text" : "{\\rtf1\\ansi\\ansicpg1252\\cocoartf2822\n\\cocoatextscaling0\\cocoaplatform0{\\fonttbl\\f0\\fswiss\\fcharset0 ArialMT;}\n{\\colortbl;\\red255\\green255\\blue255;\\red255\\green255\\blue255;}\n{\\*\\expandedcolortbl;;\\csgray\\c100000;}\n\\pard\\tx560\\tx1120\\tx1680\\tx2240\\tx2800\\tx3360\\tx3920\\tx4480\\tx5040\\tx5600\\tx6160\\tx6720\\pardirnatural\\partightenfactor0\n\n\\f0\\fs36 \\cf2 Hosting}", "textAttributes" : null }, 
                            "duration" : 0
                          }, 
                          {
                            "endTime" : 140132160000, 
                            "time" : 140132160000, 
                            "value" : { "text" : "Hosting stores your WordPress website on a server so that it's accessible at all times.", "textAttributes" : null }, 
                            "duration" : 0
                          }, 
                          {
                            "endTime" : 146030270400, 
                            "time" : 146030270400, 
                            "value" : { "text" : "Domain", "textAttributes" : null }, 
                            "duration" : 0
                          }, 
                          {
                            "endTime" : 148193654054, 
                            "time" : 148193654054, 
                            "value" : { "text" : "{\\rtf1\\ansi\\ansicpg1252\\cocoartf2822\n\\cocoatextscaling0\\cocoaplatform0{\\fonttbl\\f0\\fswiss\\fcharset0 ArialMT;}\n{\\colortbl;\\red255\\green255\\blue255;\\red255\\green255\\blue255;}\n{\\*\\expandedcolortbl;;\\csgray\\c100000;}\n\\pard\\tx560\\tx1120\\tx1680\\tx2240\\tx2800\\tx3360\\tx3920\\tx4480\\tx5040\\tx5600\\tx6160\\tx6720\\pardirnatural\\partightenfactor0\n\n\\f0\\fs36 \\cf2 Your domain is your website's address on the internet.}", "textAttributes" : null }, 
                            "duration" : 0
                          }, 
                          {
                            "endTime" : 151293306320, 
                            "time" : 151293306320, 
                            "value" : { "text" : "{\\rtf1\\ansi\\ansicpg1252\\cocoartf2822\n\\cocoatextscaling0\\cocoaplatform0{\\fonttbl\\f0\\fswiss\\fcharset0 ArialMT;}\n{\\colortbl;\\red255\\green255\\blue255;\\red255\\green255\\blue255;}\n{\\*\\expandedcolortbl;;\\csgray\\c100000;}\n\\pard\\tx560\\tx1120\\tx1680\\tx2240\\tx2800\\tx3360\\tx3920\\tx4480\\tx5040\\tx5600\\tx6160\\tx6720\\pardirnatural\\partightenfactor0\n\n\\f0\\fs36 \\cf2 It helps visitors find your website.}", "textAttributes" : null }, 
                            "duration" : 0
                          }, 
                          {
                            "endTime" : 154145376000, 
                            "time" : 154145376000, 
                            "value" : { "text" : "{\\rtf1\\ansi\\ansicpg1252\\cocoartf2822\n\\cocoatextscaling0\\cocoaplatform0{\\fonttbl\\f0\\fswiss\\fcharset0 ArialMT;}\n{\\colortbl;\\red255\\green255\\blue255;\\red255\\green255\\blue255;}\n{\\*\\expandedcolortbl;;\\csgray\\c100000;}\n\\pard\\tx560\\tx1120\\tx1680\\tx2240\\tx2800\\tx3360\\tx3920\\tx4480\\tx5040\\tx5600\\tx6160\\tx6720\\pardirnatural\\partightenfactor0\n\n\\f0\\fs36 \\cf2 Together, hosting and a domain ensure that your website stays online}", "textAttributes" : null }, 
                            "duration" : 0
                          }, 
                          {
                            "endTime" : 157604338609, 
                            "time" : 157604338609, 
                            "value" : { "text" : "{\\rtf1\\ansi\\ansicpg1252\\cocoartf2822\n\\cocoatextscaling0\\cocoaplatform0{\\fonttbl\\f0\\fswiss\\fcharset0 ArialMT;}\n{\\colortbl;\\red255\\green255\\blue255;\\red255\\green255\\blue255;}\n{\\*\\expandedcolortbl;;\\csgray\\c100000;}\n\\pard\\tx560\\tx1120\\tx1680\\tx2240\\tx2800\\tx3360\\tx3920\\tx4480\\tx5040\\tx5600\\tx6160\\tx6720\\pardirnatural\\partightenfactor0\n\n\\f0\\fs36 \\cf2 and is always accessible.}", "textAttributes" : null }, 
                            "duration" : 0
                          }, 
                          {
                            "endTime" : 160303868044, 
                            "time" : 160303868044, 
                            "value" : { "text" : "{\\rtf1\\ansi\\ansicpg1252\\cocoartf2822\n\\cocoatextscaling0\\cocoaplatform0{\\fonttbl\\f0\\fswiss\\fcharset0 ArialMT;}\n{\\colortbl;\\red255\\green255\\blue255;\\red255\\green255\\blue255;}\n{\\*\\expandedcolortbl;;\\csgray\\c100000;}\n\\pard\\tx560\\tx1120\\tx1680\\tx2240\\tx2800\\tx3360\\tx3920\\tx4480\\tx5040\\tx5600\\tx6160\\tx6720\\pardirnatural\\partightenfactor0\n\n\\f0\\fs36 \\cf2 Once you've registered a domain and chosen a hosting provider,}", "textAttributes" : null }, 
                            "duration" : 0
                          }, 
                          {
                            "endTime" : 164104153802, 
                            "time" : 164104153802, 
                            "value" : { "text" : "{\\rtf1\\ansi\\ansicpg1252\\cocoartf2822\n\\cocoatextscaling0\\cocoaplatform0{\\fonttbl\\f0\\fswiss\\fcharset0 ArialMT;}\n{\\colortbl;\\red255\\green255\\blue255;\\red255\\green255\\blue255;}\n{\\*\\expandedcolortbl;;\\csgray\\c100000;}\n\\pard\\tx560\\tx1120\\tx1680\\tx2240\\tx2800\\tx3360\\tx3920\\tx4480\\tx5040\\tx5600\\tx6160\\tx6720\\pardirnatural\\partightenfactor0\n\n\\f0\\fs36 \\cf2 you can start designing your website.}", "textAttributes" : null }, 
                            "duration" : 0
                          }, 
                          {
                            "endTime" : 167029632000, 
                            "time" : 167029632000, 
                            "value" : { "text" : "Are you wondering how to do that?", "textAttributes" : null }, 
                            "duration" : 0
                          }, 
                          {
                            "endTime" : 170536464000, 
                            "time" : 170536464000, 
                            "value" : { "text" : "{\\rtf1\\ansi\\ansicpg1252\\cocoartf2822\n\\cocoatextscaling0\\cocoaplatform0{\\fonttbl\\f0\\fswiss\\fcharset0 ArialMT;}\n{\\colortbl;\\red255\\green255\\blue255;\\red255\\green255\\blue255;}\n{\\*\\expandedcolortbl;;\\csgray\\c100000;}\n\\pard\\tx560\\tx1120\\tx1680\\tx2240\\tx2800\\tx3360\\tx3920\\tx4480\\tx5040\\tx5600\\tx6160\\tx6720\\pardirnatural\\partightenfactor0\n\n\\f0\\fs36 \\cf2 We'll show you on Learn.WordPress.org.}", "textAttributes" : null }, 
                            "duration" : 0
                          }
                        ]
                      }
                    }, 
                    "effects" : [
                    ], 
                    "start" : 0, 
                    "duration" : 172152288000, 
                    "mediaStart" : 0, 
                    "mediaDuration" : 172152288000, 
                    "scalar" : 1, 
                    "metadata" : {
                      "audiateLinkedSession" : "", 
                      "clipSpeedAttribute" : 
                        {
                          "type" : "bool", 
                          "value" : false
                        }, 
                      "colorAttribute" : 
                        {
                          "type" : "color", 
                          "value" : [ 0, 0, 0, 0]
                        }, 
                      "effectApplied" : "none"
                    }, 
                    "animationTracks" : {
                    }
                  }
                ], 
                "parameters" : {
                }
              }
            ]
          }
        }
      ]
    }, 
    "trackAttributes" : [
      {
        "ident" : "Voice Syn EN", 
        "audioMuted" : false, 
        "videoHidden" : false, 
        "magnetic" : false, 
        "matte" : 0, 
        "solo" : false, 
        "metadata" : {
          "IsLocked" : "False", 
          "trackHeight" : "39"
        }
      }, 
      {
        "ident" : "Voice Syn DE", 
        "audioMuted" : true, 
        "videoHidden" : true, 
        "magnetic" : false, 
        "matte" : 0, 
        "solo" : false, 
        "metadata" : {
          "IsLocked" : "False", 
          "trackHeight" : "39"
        }
      }, 
      {
        "ident" : "Animation", 
        "audioMuted" : false, 
        "videoHidden" : false, 
        "magnetic" : false, 
        "matte" : 0, 
        "solo" : false, 
        "metadata" : {
          "IsLocked" : "False", 
          "trackHeight" : "39"
        }
      }, 
      {
        "ident" : "", 
        "audioMuted" : false, 
        "videoHidden" : false, 
        "magnetic" : false, 
        "matte" : 0, 
        "solo" : false, 
        "metadata" : {
          "IsLocked" : "False", 
          "trackHeight" : "39"
        }
      }, 
      {
        "ident" : "", 
        "audioMuted" : false, 
        "videoHidden" : false, 
        "magnetic" : false, 
        "matte" : 0, 
        "solo" : false, 
        "metadata" : {
          "IsLocked" : "False", 
          "trackHeight" : "39"
        }
      }, 
      {
        "ident" : "", 
        "audioMuted" : false, 
        "videoHidden" : false, 
        "magnetic" : false, 
        "matte" : 0, 
        "solo" : false, 
        "metadata" : {
          "IsLocked" : "False", 
          "trackHeight" : "39"
        }
      }, 
      {
        "ident" : "", 
        "audioMuted" : false, 
        "videoHidden" : false, 
        "magnetic" : false, 
        "matte" : 0, 
        "solo" : false, 
        "metadata" : {
          "IsLocked" : "False", 
          "trackHeight" : "39"
        }
      }
    ], 
    "parameters" : {
      "toc" : {
        "type" : "string", 
        "keyframes" : [
          {
            "endTime" : 0, 
            "time" : 0, 
            "value" : "Einführung", 
            "duration" : 0
          }, 
          {
            "endTime" : 21097440000, 
            "time" : 21097440000, 
            "value" : "Was du in dieser Lektion lernst", 
            "duration" : 0
          }, 
          {
            "endTime" : 31822560000, 
            "time" : 31822560000, 
            "value" : "Was ist Hosting?", 
            "duration" : 0
          }, 
          {
            "endTime" : 54919200000, 
            "time" : 54919200000, 
            "value" : "Kriterien für das richtige Hosting", 
            "duration" : 0
          }, 
          {
            "endTime" : 96808320000, 
            "time" : 96808320000, 
            "value" : "Die Rolle der Domain", 
            "duration" : 0
          }, 
          {
            "endTime" : 135216480000, 
            "time" : 135216480000, 
            "value" : "Zusammenfassung", 
            "duration" : 0
          }, 
          {
            "endTime" : 160171200000, 
            "time" : 160171200000, 
            "value" : "Fazit", 
            "duration" : 0
          }
        ]
      }
    }, 
    "captionAttributes" : {
      "enabled" : false, 
      "fontName" : "Arial", 
      "fontSize" : 48, 
      "backgroundColor" : [ 0, 0, 0, 204], 
      "foregroundColor" : [ 255, 255, 255, 255], 
      "lang" : "de", 
      "alignment" : 0, 
      "defaultFontSize" : true, 
      "opacity" : 0.5, 
      "backgroundEnabled" : true, 
      "backgroundOnlyAroundText" : true
    }, 
    "gain" : 1.0, 
    "legacyAttenuateAudioMix" : false, 
    "backgroundColor" : [ 0, 0, 0, 255], 
    "metadata" : {
      "ShowsCompliance" : "YES"
    }
  }, 
  "metadata" : {
    "CanvasSizeWarning" : 
      {
        "type" : "int", 
        "value" : 1
      }, 
    "ProjectThumbnail" : "iVBORw0KGgoAAAANSUhEUgAAAoAAAAFoCAYAAADHMkpRAAAAAXNSR0IArs4c6QAAAERlWElmTU0AKgAAAAgAAYdpAAQAAAABAAAAGgAAAAAAA6ABAAMAAAABAAEAAKACAAQAAAABAAACgKADAAQAAAABAAABaAAAAACeojBPAABAAElEQVR4Aey9B4BsR3XnfTpPTw4vZ0lPGUkgISGDBEJkMBjsBXZZG6/NGoMjeD8bJ9Y4gMH27vrbb3dtr71esw7gxGIDJkgCoQQSCiBQDu/pPb38Js/0dE+n7/evurf79kxPnie9J92a6b637606depfVadOnUqJ899dqlvsYgRiBGIEYgRiBGIEYgRiBJ43CCSfNymNExojECMQIxAjECMQIxAjECPgEIgVwLggxAjECMQIxAjECMQIxAg8zxCIFcDnWYbHyY0RiBGIEYgRiBGIEYgRiBXAuAzECMQIxAjECMQIxAjECDzPEIgVwOdZhsfJjRGIEYgRiBGIEYgRiBGIFcC4DMQIxAjECMQIxAjECMQIPM8QiBXA51mGx8mNEYgRiBGIEYgRiBGIEUjHEMQIxAjECJypCFQS87cxTdUTllhLgtrQXJAcca3JtYvrVNAUk6eC7qmguRCgy42rHaZrpanwy6W7XD4X4mmheE4F3bXSDNOwEM/he12XG9d60orG345ulKfwffRZNPxK79ebnuIPaep+HfiMLYACMnYxAjECMQIxAjECMQJrQECdsfkdsjUQnBP0VNOfE92qf4adwii/4bNVE40EDDFeO83YAhiBNb6NEYgROP0RCMWfOI3eh5y3e6Z3axeXYQzxNUYgRKBudQpcoqVwtfwIPa7wOpfu+tAUE+JXzvO8HnQ9PbMatOvQTYUPguta4vDMiq7oJxzTod1qLXQ9a6DsblrzL2B71Zcoz6Hc8c9WTbIRUOVCtDTKsXaasQLYADa+iRGIETgTEKgxDBKKvmp0SCTC/NymQb81NLyoa9AKqS/q279sR3LZ8YhEm7ja0XReF3rhWWkOD7WhKS/tgp8KXtdAUw1xqKAEqWpeluJ/kfxzQdvRXjZNsRHiGl49pAn0kRaeEzX8tiG8bFxEv25J6TncNmJrQ3LJYcAWTDwlR1ekxU87Xpfik7AN16Av5Uwf0a3wuo2SthT/DVqNFENHWFJ3U17xCZUfF5EDpx1RF8R/NWjqZ0g3vEJXeRd4d3jofiGSy8QloTj5JPmIX09XwCxEOGBgsYtLhzitBVjIcxLaXNZAN1YAhWPsYgRiBGIEloFADYkrK8QaRPkyYlmblxqNQhIGvbWE9kGNECTXl2dRE9X1cSGlWhV8YX69eA3p+oYSXgPCa6fvKQvrOl+uTDiia6fsEa1bBSySlDWfe0l3vza067LRmVV9zqWcJrge/AqLhKlu6JOSRkw8sM/92ugLXylUs+Uq5cLjnLS5FsbVoCKePcYqEypxCcf32viV4uf+ajXSX26UiwQ8OyhWo6w55Y9sq0vBrlhVdaSepoMgXtfGb6wArqbsxGFiBGIEnlcItChTNHKh2FUDvRbnhbinUFNrt0bnFBI1mrTBqbQ3b1SrfmguJC+W18J1NkMTDO3ZMo1cZe08K8niJ5dLWS6btJli1crQXg8nuuKwrzeNtSdho+Nlq9I4e+VnrTEkrKcnY/l80iYmKlYsVdaEa8iNlKh8R9oG+tI2OV2zyalZc2VDehVupfkHOaeICGWV1y1bsg6TYyfKDeXVU179t+pHf1/OuruSNjJatekZrIDEq7TIeQVr+fQVzCu+devIpW3L5hz41uzY8Vlv9eLt2roJAqVm27blrKMjCd2yFaarKFXpgD68rlRZCxQ1FYLenrRt35a14ZGKHTpStBx1xltcPR4NJJaKQwplgEW1OguvCduzq9Mq5QQ8161UQpufW5mXotmIvGmnjTyKb2MEYgRiBGIEogio0XVWteChxPgcUR71vqx7bzWiUV43Sww8hUzBcDqF3QFjiXhXG+EakjUyLhpplL/uTm+BCGk24l1Wyls9Od54lEX5G+hLOUVN9PR8tU7JlKJXrlQdvX4UwHxHCt5FP9mwVq2WvgsHg309Kds8lHS0VSCE9VqdFBthsXVz0jYNpS0Dz6IbYr3SgtfEogLdlG0cStmGwZR1dWZgdR0YFhUYHOjLwnMahU0WuqTnmTvFr8+KnWMtgdKTst070rZpQ6ZZvldFMMoBxOF565a07dmZtt7uFBY2qZxYXFdJ25VZFLbZcsU2b0zZWbvTNjiQIf9Q/viTMrwq2tB0xj7Y76Lenb07Y+ftVXlOUMbhWGUjmrQV3McWwBWAFXuNEYgReP4isFohuxBifn5Q+HYdqavhhJwaB11X1eiEbM29Qrs0i+WvVrbZ2SrkfYOpKNUQrcoRrlqp2fR0xWoYNFqHPldF0QcSQ/wr/aPjVWexrGANDWBZA2EFFWGzk1h4pgspm5jC+kd8a8Uako50sViz/U/XnIVH+ZhmspqujXlq8rcSJyiSKDkMHx46ovwzKxSwALoc5OUanIZOy5WKHTthVixmrFBEYQGfygosUfOjd0g4PMcny/b4kynKm/IuVIbWwrOGeylzlLX9B6atE6Xq+EmGmHkojMX7apxohgXuKBbFWi1hR08UPU3eqWwoVTLker/yv7RTh6DG8G82C7YzNbv/gRIKYdrGJmZ5o0j17fFamlqrj8T57y6tLmQrnfhXjECMQIzAKUNAQmqhBR9riXSlPWA1nO2cBHrYS2/3/lQ/U+MixSZ04iUcXpaiuRDfmgS/HBel7yyh0J9LM2zUdOV/2U58i76cwoWLFNyDVXyJVgQKR1M8RdMwl+zy8q9JVXcOb25C2mGiHT4ugpWgoABSx5pYhJhE6TqyEcVKcS/mXB6FQ5OBRwWRyuDnlHkC+r1k+Y3E21xw5HGQgqK5ep6OV0fC4d8Gf3Vf2MLy03g+58ajEJZnKb1S+nzY8B3cEpfH3gVfgLc5pIOfYT5qaoRXKr1G5lQzMsAjJM8t9SMaR0i4BduAO57V1JMhGs26FG3NARTqTcc99FroN19G7gLLIU9S0BU9zZMV0ho50FVO3346SjQO96r51Yb/lcq/JrH4LkYgRiBGIEbgtERAyokaCjUwDUVinTgNm88oueUpUNEQ7e9FW/wupdi0D+2fKuzcZlA0owryYuEXfheh6hj1Phv46lnoIl7DR0tfCQSNBr0wQEC3gckKaHsFw1smw/SLnMdIhSOIZAU0Q7aiVylkcs6qLeKiG9J2b5b/JXVJTt++LPghVE/Pv1trJ8FT18IaFElYd9ZyRRpR/vRzZc5x7CyL2grH6az1OQtW2ihhi8fh0yswqy4sUxjSHqFmOQn9LE6p3dtYAWyHSvwsRiBGIEagDQKNRnjOu9WL4DmEVvsTBhbkYbF3y40vQkPxuI++Ahe5DR8t++rCRglE75dNZQmP0FyM7GLv2lIO6YVKTpRA9L5t4EUehnTlpR3tRYIu+ipKN/Do2Ax4DS6LkljoZYOO47dJMFTk5oVbZmSeLt9z6M6jt+IHIQOBpVJGurB0hK9WTDMMIEtqwDN8O3JRmtH7MMgSV89bMyBTWx3dhWTREuRaXscKYAsc8Y8YgRiBGIGFEVhymGzhoKf0jZqHhRqExd4tl6l2NNYLC/Et+qfSteN/LfE16K0z4w26Ym4dabfQDRK+UHlZKS6N/JvD71rpL0R3pfwt5X+9yrHiaeA8B4uleFjsfQOHxTyt8p23264ycBwsRiBGIEYgRiBGIEYgRiBG4MxDILYAnnl5FnMcI/C8Q0Ad6iVP8njeoRInOEbgWUJgxXPZnkE+n0nensm4TgGEsQJ4CkCNScYIxAisPwLrOKqy/szFFGMEYgRiBM4wBOIh4DMsw2J2YwRiBGIEYgRiBGIEYgTWikCsAK4VwTh8jECMQIxAjECMQIxAjMAZhkCsAJ5hGRazGyMQIxAjECMQIxAjECOwVgRiBXCtCMbhYwRiBGIEYgRiBGIEYgTOMARiBfAMy7CY3RiBGIEYgRiBGIEYgRiBtSIQK4BrRTAOHyMQIxAjECMQIxAjECNwhiEQbwNzhmVYzG6MQIzAKUag5YD3JeJa4z5g1TZ72yTDI6SWiHrB1wvxv0ZerR3dU0FzoYQtN652fK6VpsIvl+5y+VyIp4XiORV0TwXNhdK13LgWSn87usulqbDt6EbDh++jz9rFudSzuXTm/l4q/DP4PlYAn0Gw46hiBGIEYgSiCLhjTqMP4vsYgRiBGIFnCIF4CPgZAjqOJkYgRiBGIEYgRmB5CES7BtH75YVu72u96LSnfmY+lQoUNcOvJ0aie3qrWLEF8MwstTHXMQIxAuuNQDhUYytoBKJtR8jPEkNIGvYNY6i0Ca93cx/rdyoMFMYz97oU/3OJKvwSvLYOm7Vh4FTQnJuu8PdScS2V/pBO9LpsmgrUJv1RWuF9O5ou+EIvgoAt/CuuOfG1C77i/KtbPSCbSEBwnWiGSRfp+SSDJ/NftJa/lvSHFJe4Lpum6MzB03Fac3gIisb7Bh96FnErwRq/dT4OY0eiPTIR6su+JQedX6gvO8xCHmMFcCFk4ucxAjECMQKnGoFom7R2ee649Q18vdH4uCj48o3c+iWoRkTJdSIqHtcp+S0JFN36OvLZQvwU/RC/UryFR5P/1Jpik9JQr9dcGUgmvVVK+ecxXwvyjkPHW6hPiv2mWwvthkrm7WiQaqXdjGW1d45n4PB0o4yvjW9H1/Fbs1pNiqDqY5R+wPEKlErxKAqppOetVhPNNilfimYkSKwARsCIb2MEYgRiBBZCoI34PiVKy0LxL+e5GgnXsNMwSDlTA1GlocDOYcmgYWjbaCyHeOCnYdUgMt9w+hdrogvfCdewwWttfZVVp6hCW3+6Vz6G7WZ4XUHy53sVkaBwRGnP97j0E5d/eHMDkwGgVQcI+dfgemk6UR+iqaxH/eOrZpVa2bGbTKRQJpqK5VryT7jWqh4EKSiNMhJlZBX3riwTTrxXqzXLpD2/TkleBT0fxPOpWiH61QrYJmt8RFulRM5/u9sVfiVYxVWenXWFOAkWFGfyTrm3BprQqPInV4ZfkRLGohta8VeTf74r4MjGXzECMQIxAjEC7RBQkyHxO/fTzu+KnqlN0GedJDG6niMo5U8NcWjtUSOhd/pIIViLU6OWwoqkOERqjeRcI6zGK5WC3xR0ob9eLrT+SXFIpz3PAsApLGsFAqYzmZR15jOO7/XgOVRshG9nZ9ay0JfT8/DdSuNR/ii9SncikbTe3g7r78k5BWVteedD61vKSHdX1gb6cpbOrN2uJJpVx7NZmjIx2J+1vu4c+mvdKlWvCK0Uh6j/RAK1DItob2/atm/N0fmQiulU5Ki3Fd+HVr6OjoTt3N5B2aAsJyrUEQ01rxZtdVrUhStT5yq2eVPONm+EZyyKNdKwBr1yvcTOinGKA8QIxAjECDzvEUjRuEkxUcO8Hs4pUlLQpOykvSK1fuqU51CKWoo2XsoltzRKTpdYPfsBg5lM0oYGspbLrg8WYkhKqpS/jYMZFIi0dCD3WT2zzZBiux8FYtNQyrryKUd3rbqrN9LWLd+Rti0bUjbQn3FWOsUl5R0j2Ir499DWyack+k7NOnIp2709a2fvyVl3Z8YRowhS/prpWumdugFJ6G/bkrULz8tYPkdcJGQ9rIB1Et3bk7E9u5O2a2cKRRscAEG0V6tOKX3iT+V3906wOCtjG4e6HL7CYbV0w3BVLKFbt3Taheenbcf2PASJC8KrxUOKsKyI0vXylLMLzk3b+XvTKJeUZ56tpcytXVVfaWmJ/ccIxAjECJwuCLSblxPpUoe2Bgn3dnv2tQue5OHc9lThQ/tC2FAIgoRadZz2/gtbnrlh9V6v28WP2qHXgWvGq4ZBI0XSFpz1J0I0eMxLNUzR8CGd6HX+ezVwvtGRZWLueyJaAU2F1tCYGkeNdM6WNGcqGn/0fqm45r73YaVETE5jhXHalefYsQirUf49RIvx732EGSWLzmy5bunZhFUc2A5uIp3LRxBuEVwUQvTkU3zqd5nCN12oOouoMPFUPcd4xS2df/LtaHKVwlOp1GxqiuFONHc/h4yhVU/M+RPNleSf40J5R4ET3RzKn+h6a5di1mcR14JJkEL4CaqFZwcaMzNmBT5OkSIdQsNT9mGaMSyHf+9b2ExOggVD4cIldPPpBmlo4TX03bwq1wSl1LVisWbDw0kbn6g4a7nw0J+clExPUTdz+W/S010YRuFlGS9RP0bHxLMfUpaV35WbgEUP2AI0XflvpZ84/92lBXy3eox/xQjECMQIPOcQWEIAV4IES0i2U8DSbaSnn0nUipQLv1Rj2BpkWb+wAUT8Re+bj6UAzn9Di0GDIOvP4m5+SDUyasREdD7lRku0CNlWmvrlGkW+pLhGaS5Obe7bVrohA3qqhtlPnmfOlxSU4GXKJST0qetcmtF34b0P7xt1ngXEREq3TkkJvbrr0jRF0Snq8i9mKZehYixlWwpRQykKaa4g/7ySB5FAkRAJT8/zpm/xvdz0K7x34juwyEG+WqkynIpy4pQ0MG/B18cVhpx/hUDgdOeHrUOOQsx5AZnQmtZKX4GXikN+RCvEu24ZlOFZFECfftGeO19vOTQ9XeFcrVbgouYs++LHWSud8uXpKF+9C6/Bz7YXz6f4dUO+ZJpGDPjJULie+QosSkvmXxsFMLYAtgU9fhgjECMQIxAj0B4BmqNmW93eywqeSpHyyoi36kRJz2/gV0A48OoUNVpIxaFGUgpVaPVaOTWFUHMri5GacjX4VTfvraHAycsanEs/mKjBh9sAa2/1WgNZHxQybt4YvxztNRL0CPh5erVa1SrMrfOLKdZIOAiuvJOTniPU9aupQOnNap2o4cBYyp9T0vwTF09wu+KLqGrKQQ1lS4t3VNactQ4rY9s600YpW8gqqPCyAmoxjFwaJTtYd+N+r+YrVgBXg1ocJkYgRiBG4AxBILRszGM3aAPnPX8GH8xVxHxz32QgfC9WF0xH0/u8uzC8NAdNo5dCocZ+LYqlrDGhOuLuUmrwvfIaMhCmYzUQe+uWt+z4ePz3PJ5XQFxhxVPT6hco8QENvXNYoZBIaWkx3IWJanNVOM0vrKCUaOg6lWJeYURFC5ViKW3LpakwDfxgRnjoT+qfT0WTkTB/9Xa55UMYNGJw6W2lGnZGFMs8zJtRt70TDz68n9erdGh0GTXepaNtoCUeiqboOL4dMD7TosqfHq8m/2IFcAnw49cxAjECMQJnBgK+YfB2knYch+/bvVvoWTSMa33meIy+n/NqwZ/RMO1otguoMNFwC/nR84Vp6k0rldZf7ajOfeaVkTAWNezeh1dUdL9ymm4rj5BtNy0hVEqitKL3c7la6HczTPMu4FEP2lmgFiLVeB6l5BGVdarhpFRJi1yxi4ZpEnTKNcPMbRW8kH8XNBp+icgj4ZoxBWHCd/oZZu4S5PzrheP3KC2LyBxP82m20IryOifkcn7GCuByUIr9xAjECDxvEJjXIAQpny+K20PSLnyL0G4f7Hn5NFSmlkr8crGfS2e59OeGW87vdaVNAteV3gIJmBdHOwVnFWC30G1HcwF+2j320TeZ0J32iHR/LZqmXsz13Y5i6zPHa5N860v9Wmf+Hcn5sazwSRPhFtbb8driYfFoYgVwcXzitzECMQLPZQTa9KDZuH+eDUkydcmj2AKc/AydVtBWEr415BK/2gr7tg+XILSc1+tPt61VZzmsLOqnyeeqDFGL0m6+VNvbbJabz1dzJ46bbXmT/9XQWjiMH95d+P1q3nhe1xPnpiV1Pj/rUV58voW01x/rxfgPY21cnbW38WvBG18+1p/XcKLBghHHL2IEYgRiBGIEYgRiBGIEYgSeWwjEFsDnVn6eHqlZZq/GMdvGAnN6JCLmIkYgRiBGIEYgRuC5i0BsAXzu5m2cshiBGIEYgRiBGIEYgRiBtgjECmBbWOKHMQIxAjECMQIxAjECMQLPXQTiIeDnbt4+8ylrDP22Wwe5ADvt5rXGw8ILgBU/fiYQWO5ij2eClyXjOBPrSkNOKHUrkBVtt1dpF76dUFFUCzxfEuTYQ4zAcxOB2AL43MzX0ypVbtWVZG8gq9uJ7NOK4ZiZGIEYgWcegUA/W4t88GHXQuGZT3YcY4zAs4XAc9YCGNE3lo2txEbYR2wnQsJ3cwmGfhd6P9f/8+G339KAzUwBR4fHCyMdYVjVYZ+gXMeD8IpithSO4XvhFw2n31EX9afni/mNhovvTx8EwjyM5l34bLVcRmmtlkYcbvUIhNvjKB/CvJCc0AkS2uy3UtaRXDruSh/vK/Q3N1ZttcFJW+70A1kxFCY8QUKSRceoya3XNi2OWPwVI/AcQ+C0VQBrQQVW5ZbpXtV5JRb8sLEIBYgTJzz0Amd+Loq2DntXtGFY5ysgoOeOBg/Fk/PDV9Xx6flzh8C3BMajaAb+9SpIVvNmJYki/GnnGgnynIXJr0np0+7tCPJs1u8/VS97QT3DsUEcGsQxOzraxwMc7r2m8FEcXX7xzCmSrjBAA086rjsao8L5BoZzRd2L8L3wVzwK13zmw8bfzzoCc8qP44d8Ul2US5OxyltlncpIi9ML9yx8oQe44OJ/+G/5aAzthnGutDyE4aKEV0ojGlb3zxRNxfUs8qoskUxXPoR13p0B7M7NqlsqjZzIJGx21h3YhjInn0lkBBfndLQWSeC5wun8XbksBSSNp1lkS61WsQphshzNJoHhikcjPJ6j9y40X88iJiEL867tyoQ8nSm8ngo+54EUPDgVcZ0Kmqdp/p22CqDwUsOtc4/Dxr4iLUDPJQnaOAkHOYVLoXioR1h1AsaLHPccL85fQCIQE5IXhJIPRwAi7oHrZaYDyVHhrc70q9ESiQUJJ6ky3ulA81C0BY90ERlHVIoN9PGusGJLAvG0zoBIMha6rfBCeplTikmU0Kgjf9O5tGU4I7LMQYjjE1Ur16u2qy9lRQQ8aqH3DzCJJL9rHGrtWneFr1mlDrUgL4WxaOq1ZH5ScXBfdpZEvdNb7x0yOGjjIcGh5A57vXN+gkyQl9idtggoN0PlT7VRdT1DWaiQ9zrrUvXPOTyqbKj8+QPj1eHw9dIVEN6Jlg6Rl2vfpoqWfMXumUBAHTN17shIVz+TmSSjAhnOSq1buVi10ULVuvvSlk7MWqVCp5FzZevIDRkDFXa2grxEXmTSSFLCVStJm5iZtTKNxI6hlM0UKCeJlCsnGcqNk0mKL3YxAjECbRE4bfQPieLQ6qd7KWYJNfIIfeo7QiDFE6mCvjn3qcGntAGnYUn4615X+fHKo9OwRNA3B84iJcuUDlLW45ozC0hYYJMibB1hVEHo6F2acQUpbWnoqpFJ81RDDeKkLgI8rzAOkUQoVXleluIiESc+nPP+pe0lFZ7WqErrhhxzCo18eQti4D24yFIVUmh9c3r8kjLmFWfPj/rsDntwyGUzNjpBusol8CzaUH7arru8bNe9dJNdfGGXfeBjkzZ6DP8dKMxgIWVQeOWSIC26CH/foAvLZl6rAdfB3PqkUe7KyiD8p5T34FWjfNQSFSvXxlEmUSqrHZSZDqcAuLLkWFWgVqc8j90zjECLNubzRN9q5FW2ynxcTdIDtH5ZAbNUvDwWIpUIdQSpUnTysPYE5UdlRmFlVZ7lXkqBygEagSur6hDKdBwttypAKRfTnPRHy0QbXlt8Q3aei4af95IHq6EpOsum6zGdF/UzxWuEz1C+hRxJSc9n05ZEYE5PouiVZ7D+Fe3cHWN29WUD9vY3b7BPf71kf/I3Nds4gJ+ZKu9VLuhqdyBbkRnFyRnLlBI2NHDCrrv4hL3+2vPsvMv67Od+v2CP7MtaJkeHUzKX9IbGAiVdJWGee6YwUcQRXObxoQeNctGGT/e+Tahl01TYNnTPmPSL0TOZf9h/prBeqkyoKATutFEAhY0a4wqVIMQJFQ6LT9WKJVSvJD29OspBLWOZlBp3lLREmQpOU1HnPeafGopbIkkYan5Hjp5glSGBMu9QzCBjGd5l1IjQEEh/U/tSnhUSCBfizrjGRIxAhzBVAVmdtQRDCiniUcNTQnBVUkkrVouWz6EkJjJWQxjVeV9kjLNiMzQ0snBlIJR2Sk69WqahQijhJ0evlwRAC9r+3zVw4uJMcaqGrm2Gf18lUaC5yYD19ORR29E/aeef02FXXtJpV186ZJfs7gKNko2i+SbAKIFi5o70kTIHlvVZGmxZBhHa3hIoaMgw6AO8Lw/CC2uiPkkaAz+8TKOfqrgwFSGcxnqQ62PIedaSNDIVLAQlTEdJ8sMpl47rMwXl5x+fKkvqKGX4qCOmjl+mI4elJ2XlGcrIlMb5VGFLlsxUDAMRZYT6iMZYqVDPE/itIdJ4nszSeWNYMeMkHHWZcqAOB/0EHGWr4RSrClrsTgUCkhPOAbH0G1nmZsaKlqsN24sumLQLz83b5S/ot2svP8c6kQ3ZTMEGuuiEM5wrmawRFmVzCrlboGe5cahk555bsRdflLTXXjdk52/bhTxI22S1wDBwwSrJHjqThKL8KFfDnNX1TMnpU81nSD+8uvxZhy/Rkwsx97/W9h3yKHkfKvNro3jqQ0dxCPlf71ijcayF9mmjACpBdSSEG+oLUpSiEnfkirZj9wwN+4RT9tLJQZuclNCnQCSLlLYSjUXeUnQT83ksQNUpBEfWpsa6rZyp2uZt4wj9CspfzmZnslYo1phnIgWPhoai2pPXMAMCJosCgmIxPlm1kdFeS6Oo9Q0MW1cHykY5aTMzKCu0SJ3dDD0kSwiaup04WbSp4UHbsCFLY3OC+Siz0ETBw/JQr6Hk1LsY0iCeTBHaRRqhHnvqUN4OTeMF+hqiRh89YwRTWNC8MPXfEvAghxKbsqGOYXv/+3N27cWDtrM3RQOu1jbDsK8A7rCp6YoVZ0rkWyf48IivymzRurMV27N11nr7aNjTKMqVrJVK2GZoLCgCOHrzqbL1d9etv7Num7sy1o/FMEN5mUlk7cTMpJ0sVOzERLc9fSRnx05oqLliuXyH5fFbQsvXMFOWMC6zRTJ2pxUCstZIQyhh2mX2AFacpM0WEzYxOWodmTE7a1va9u5M2lnbO2wbn1xH2nI5FD/KxhRDh1PTNRsdLdjhY5N25FjeDp/M2DEUjckpOmi1nHV3dmNBDDoEdPBcraPj6JsrV8hOKzyeK8ykUeL0N0PnHEFos9PH7R2vr9gPv2HQtg7025auHuq4OnV1G5uqoQDmbHJkhlylY0dYdQjUgetArv/Sv++wq6/qtD2DyOE0vW+choU1FWBsom6T5HdKcpXevmy7svbKkiwnGS95K+OAitrp7MSreJeF24+GrC+3Xq7Kii7s1gcNkVEHXjXJWdvXqUq5PIN4SoYC4aKvdXKiJHohHqGCuVZEPIt0QODb0afMrRfb4jnkbz3y77RRAJWnEstK3AksddVsyvrGUnbp2Un7849ssq76JpQoGgUUB4GqHp4lGeILevOq1kmUwEq53/oQAnfcc8wO7p+0d/7QXnqGWPEyWZuu0KtUpkBDw8sSER2ML/HESgigchUlEUR++OefsMvPz9pHf2q3TaMsdmVlKZzFgoBVIlcgbA/KTd6+dv9x+4M/3Gcf+41L7YKhAeYp8S4xYKkaw5GyUmClTFCJs4k8Sg3Tk9Od9uufPmh//g9p68xvtJkSiilKkkuPAAhztnmjp6eha1ZCWVJTsqhiYUl0pu3CcwZt9wBpmimjnE0zJNyNYowyhyQuFcooZmUMtlh0sIp2pDOWPlm1S684ab/3G2fZEFbcMnlfJn9lKQgLu796kZ4CVwaRwESWIH16+Gzgo3AoAZMJe+zYuN12z6zd8o2CPfhUzrLd3ViEqliJyAPMRmpwYvcsIEAd8y7MWXUefGNHVXH1oIsFQ9iIbWR42nYP1uz116ft+qu77QKsyIMdnZQ1dSoUKlDiXCmRjShs6gdsFqv9RLFiB48k7OnDdXvowap944H99tBoNx21DTZL2cpQBtTZFEvhilGIeCdr8zPkNIdxrlMK18JBiEyUruiJ7jPtNAQM3F7mciMrbP9Q2i7b0WXlkoaAGckhL5LI+3yuA/YSNjY+jrzo5k4yQGWFxj85ZeftzdtFmzbYFNW+Ui5TFiR7GJ2hgS3TyazwSSCLNG8w5U29LrmioDovq7IzAa8W3Jby60iv+5fmvPsagTyVIivBqQQ0yrfuV+8cFjJQSCMhP3x87pb2ag10IedoikRbbWdlxB2f0BFNzf11Iht+payt2kXyT/RDfivg7GB29R767n918Tg8XTy0N+Sl+E24shgaMxz5VSZBHSXPt5Q/lYm15l9qw2Uf/sgquVn3YMJfsNMGWCdSLI9CVxyfsju/d8TyVOzzhjLMH8FCUCurM4lFxzD3a64e84RoFDTsOnJsxj712ZP22X8p2T0PlWzfyWnrGqzaloEuyzPEkGbotouAHcz9y/LRcKJKl6xDTx6v2kf/5z574AmsdCcqKIxlu+zcbvxCG6uBVpxVKhm79btT9snPTdlff37SThQG7MFHJ60wPWV7t3VhMfRDzhmsgVZnYDKZtomRqn3+azP2sc+M2u13yso1QJ1miIrchH33iZZrzUcUDqercw0nzCm/VCCTWP9y3FRn8vbZLxy1xw4+bZdfuREl1y8EqTGcLn8jkxX7h5uKNpHocso3Yt3q+aodHSnb44/yfGLMBvvNNnXTu9esf+FAJLIUZrlq5V+lmrbb7h+1T372hH3mq1N24z3j9sj+GZsuFmzrhk6Gj2q2a6jTrnlBl73+lWnbNFi0/Y+ewPLYQyPTQf7R4KjlIG5NOTidcT5d83/VfDUEsCiAPDIMfYDyQz5QQDo6s3ZyvGo7MsfsZ34wYb/yUwP21qsztnlDt/Vlme1HB/AQVp77Hz1u331k2u769qg98NiUPXl42p4eHmf6CHNJ6a1pqliGOrt9qMvO35O3l11esle9sdfuPThq+55IWbajy2rU7TqC2SlF8wpB5EHktn2623lo9ywSOvLatfeRV7pduP5HAs4J434Gr9U0zHV6JbrzXbtnEV9tXqsTLXkVWkwivoPbZiDJCjlZ8WooHnksdw9+u26fvfmAbd6Ztgu2d1EMkIPkf4EWM8deUZ+7a9we3NdhnQz/V+hhSkanaz329Zum7JGDR+2qK3uR4XTm3AISL0dHp2ftb26YoUvYR3maRQHMOMugizuIPwXt+Tw3eZVf79o9480Cj+e/WMjjQs+b0apdd8OdUmTVMvBbstPH0S58u2cBvTAYV1HzCo/H2itSCuvD+/wMwy2PZuhbZVhytYo2opE40ZrvmnHNfxc8mRPOlWOXfi8fZBGV4qPn4Wd+forWHEIB+XmPkTvym2aqiNoWT0tlu31NWZBulD40a+gnkHDz4b2ipk6QDE/eqCE+mhw270IyLdfGa6VYirsM6X6+fMXx7Lt1K8q/SATPugKoZMm5DA2AySMougQWDf8s1p7vHh20r90+Yfffdci27thou7ZmbKbKEKMb0hMYaINY3TIUkI9/4gn7H1/K2f7MLjsyO2i3PJS1v/vGuH3v6Wm7ePeAbepPk9mqBFmnMqIG0ghl7VghZb/8O/vsG/dtsnLXBhtJDNmNtxWsMztp11zSa0Wy7P6jCfvgH5y0//3P3XbLY512orLBKpleO3S0w264bdqe3F+z617OHDQKVEVxpHJ244N1+4XfG7UvfDVrB4/105PtZQhZVVsWLfzwaeSxh6LNE/9irr/A+zN2aeRVwIjUKBU/30+nEiF48919ds8DzL9Ml+0Vl3SjA9MbR+FSKo+NluzvbpyxGTBgFQ0BU8ZoPlk3YPuf7LRb7y7YDbdMWNdQh11yVp4KI4udn2epSf0ZLIb/eMeY/ezHD9m9h3bY3Qf77Z5D3Xbrgxn78p2z9o3vTFrnULeds4Vh36kp682n7PLz+u36l3fbgcP77MBBKmW+l7JTdg0O2eC4b37rLnanBgHAduVGC6z0J/UfS7EkV9J3lGpj4/bql9TtD3+x115zZY/1YLUvY73Xqs8799XtTz47Y3/4V0fsH29K2Je/0WU33k29u6/D/uXurH3uzrL9329O2a2PVm2GeYDn7ugkhoIVK8wdLuetP5O3QnXavnh72fKd1EFXBlQDQ76aqW6pkUtWunYe2j1r0nftTvCznQLYEn8zmKtDkZ/zbkO6ohnWVY+599qObrtnLYTbJEXKmp9XKxnd4tv9kEIXupAn91v6jJTAjowdGs/avQ/N2Nuv7aGj6O25SArXqf/cXSh6+3PWlSf/JT+IT9awbNeQ3Xaf2dYtBbtiL5ZerRRmxEbS5ch4xT59g6aXdBMVc0WZFyjW3DAZDWZXF1OEsDKW3DYzIXcqkk1eo0+b95G7OV7VqPf1Zq23208lmA32MQwKeiRgeDuHQPjYXTX9ScghR0lrL53gnds64D/BtAgafuenHbeL0SSQe+2VPw3RSonavjXHApqMTTNtQviESpSqoneNm/BB6zXy2vPl+d62OW9n7YJugRE1cFY5aTrdR3833zTuIq9duYK4Ujw4kLNz9mSthzycmGQBIGUiqSFhUYyEaaITedggLs/+h8KBNr/rdtbunO3anmWUkA4Io1bqiHrC3m+Tpn4vQNd5BWPoSclO09HYtS1v5+/VyETaRui0CmO/tZHz7EmRt630g3fRS4Nn1WoUbHSLiy7osA2DWSzlMogo/9QS66rLMmhG6D/rQ8Ba9BE68a9kYiMzpv84C42Q2tzBdgE92+xbJ3bYI797wP7wt/vsRXv7rEhF6URDUPWQUaeKwjBaHLJN2zbadKqEQmLWPZC3RHWnfeGWsn3z/ift/3xog129l8niKGip1KyVGHbMMj+wUira9FjeBjFBTVRKVmMRSamHglGadFydYI7Zz/2/D9gjD+20rZt6bQNxSUGR+di6Z61nqNe++0DVju2bYmIzQgj+v8dkv/f/4bBNl7bbzs0IJJSYWRoeN5gZJHve8BOxhSvnuG04ZfGzuWJV+RLypXxqcYGUrzGnakZzcroH7cknxyWGnRVXc3JSSOoSw+jTDPkgm8kxVwWtC0U+werdDFvEZFJb7AjzIz/+F0wQvzhr5w4xrOvCMk+T/KIu2R33jdpUZq9tGspbF73+BBXCDeYzfH/fvrLd97FZ+92fnrV//YoeK7FwIJOu2c7+jP3+B8+xD37icbv5vox19HdT4SVEVCl9RmiuUuxOAQKN+i2c/aeGpNJjLbTKM7czwZzPWvGE/eqP5uzffr8sQkygmNXQnjoAOfuLTx23P/1C1Q7NbMB6t5ueNVYGRgs7nbCW0BXpQeaXVezub9Xsrm+dsC9/ddR+7/07befGDvLai7mzeomPqQCakqrpJC5Ym2z3+1OGWMjXYm7uewg20tw+nORVGErFep4jQa2PfTMhvhZyeiPVWk40Q5/O8sAvRy8o686T+9KK+tBn82nrXbv38EMeqrFToxMOpflw1Clozg2l+DHKoq2lGMJlWg0dxWmUwKcOFK3/BUyRUWfPNWT4mcXai7zA3uPkuub4qcyM1EtWYt7gtx+cMnu9l/l4kQZoU8wZrlc63KjODHVZGEu5V7zi1S2+gyndq8CE9V60Wx0PFsRkTqr4KeU0x5BVgTniTTfHX5ibC9JVSM+v4haL+tDvQTlOofSU4VfLYYR7MxZ8LcJr6M+nVXnklGHJPIwr6IFO/mk7hWDbxCDA8miG1MWOK53gkIK26Hr+WxjFl8APQy10nYMb/kMlsjXdPOeB9z0nzKKYhH6FJdPBsAB0dlJmGHByePBb5SH05bnUr4DxRfPP+9J0qAqLT2v1nMO1Mx/UFRXUoHyLotuKjhv5X9wFZZW4ZWHN55PW389cZrfWVLQZ/SQDNbvBOcdq+GMO5TZtnPSKZ9WJgfAj3nWvAqVeXVB9nXl5ZmrG+vumGJZN2Z/8n6Ou3qeRdKF/OpaAycTw3gLbkLAQBIugtOEKiwFKDPdsGUAzL2yz//iJp5kczgpCgcbkcG0/Mst8kl0oipdfnrATzD9J5RAfxboNwtCLEU7i6H//7Ql7/LFu27GljwnnU26bEya+MRxNY0UlGp9hKCI7jEDV0CUOun/+10dsZrzDBlnVNjo5BR8ojTR64stvadJMe4jBQtegCHraz8J3mDceb1/Y5z1TAadilpjnVyggpMmlFr5dpfVPZHvRXVixKwz/TLO9Q74rYaMM+9//wDHe5sl7JmDiwk2cZfZWU1colOgp0IMtoSQy36tMPqty9NAj//0/PmR3PTKOtY84WFSi00dSWJN+7X1n2Y7NUyj7WqCiISnHAfRauFR0sTuFCEgd0yIsNZ4VtvnoZkXoH/7yRpS/QToIWmmfZiU3UwYmavaBDx+z//TpHptIb7G+fvLNTcNgEdZsiWH9ohWLJTppfCraTqRqPSwU6u3ps/vu3Wo/80tTtv8QJY3nchuH+t1CLnXavGLkHsdfK0BASoSseH5VtbcgaY5WqFAtRcrLdJQ16l5pdsamZujx4Vw7GFTDOlNKqtqFwUl5NchSiiR51NnXIr0iuyho3hZvgrZOHWkpwFJ+Q5niyOFBbcDYeNkmpiR/F2gcHRfL/xIVpXuCleknRysogJpfvvzw8336Ns9NbUcbKbIv4hGmJI1h2Qw3vRYSq3Wy/GlbMykRo7R/Tx+puE6wdAItkFtu/i0cf91OjlTssSdZ6FdSfqmDsLDvpd4IyvAzCcYHnq6xwAs5j/VPL9xWX0QgPSH8LEUzfC//MsJo/9kn9pXskcdLduzkpGubhcUa2HZRZGhbjjAV7aFHy3boiOaph+V09ZSFpfq7BeTlAw+W7eHHZ91CRxU6bUXnOmPEJMxW4lSrnlWHmkZWtH5UkVQwpSupJ1cj5UlahMOy+PRvtrse7rcbvjHC6kA0YSw5Cq/jxuTOv4CGPTFGY4AQQRmr6Pwx5iVMTbF0AG3/4Mmt9qefGXZ+tX2EVDCJGrmXssKsI32Sis3UbBqY8zZO2fdd2mePjhTtc7dnbKhnL9Y8rFUZCrj2DxR/CJ4MyoVWJW/bUbFNW6Uwmn3z4ZN2070p29C9CSUQW1gOKxb+ZSaen0viQx/vpOzI2uc+PFL6QgUo8LI+F8eL+Ak+i1AVd418CnlTJkWc215HhZ38mikWKZTq9eAnlAREI6eLPspbvXIb+BImxTYuEoDlcs6Gh+VD/hQrDuzkZLkTVm4eBK/q6nVS4bT6bwbBo0n1o6Vt9qd/N8K9hgsqbqpAvVSwPRsy9u/eJkvROMP0ikuCSvGo4Wh+fMw8nutCnKLX0E/4TL/D+8hV+R6NI7wPgy/rGtKLeA7p+Cv1QHCH/pZxlf+5n0b4SDxrvQVpapksM8pPLHjkd70+zXy9Q/axD3XZqy9n2J66lWNZvATo8PisffB3nrBbHh+02pZOG0dpo/rT8JM+GrIafshYp9Cprifo/JUpjyUN5UwnrXvjkD050Wcf/dPHrKCKRx53dzFXlUnDGgrznfEwp1WOIx+V60bZDp8vF4GQZqt/PVX63Yc6EWLe6muJXyLSnnybgN7j4goPZZKQcz/totAzp/xx1XZYUn6iil/4XvW3iaXuW53EgbNyaZoMfrX9kxyqpLsqgerMi28t2lCc+viJA5Qe8r3I4hFZDEXKRafw3PhjJpvPPEGwVjwoDmVkhxSHKCY+HQqrvBEWxOsDBt/6FX78I8eb+ONPG92X6ISGConnVXSCvHZXpW+OayljisHjKV9Kl+ZLFgpq5DWc7Z+KizAPgocBz4qv+WnlH58OdDxAR+GL1LNiqQzPgU94kQzWT33mhlfsejY3TZI5USdFdRZlW0pmeypR34vfhywrfzT9Z4KVPxqiVYzeiuvDzy2Hi1P1b10eiRAdDQalnJKdYkqYx1RYNMvdcug1/SijaI8Y4pKd4sTJEjsUqGOgLq8aK943Ps1Qi9+hrPpKA2l0CJTWoyeKKNvsfuIUCqdUBPkn6y5RtGbLouSDZnVRP8/KSw+lMlvRK0O07Qvbu1CVjlV77ebbsQDh/HutCHMe7WXXDthAH0OtKAMyHzuNXqvCmP8xUp60VFeX3XRbh+0nc7JsI6GeaAblQXFceWkPQ0ZT6BosUqgU7KoLJ5h8nrbPfJ4VxWNkIkJLPV+3wXAVRY8oNa6fpvGpsCPNFZf1WB/bjsh95pYpO1wedAy6wkWLo4xxeaNw+NHHVypdJeR8JW6bf3MqG16XdoECsFhjo7j8ByyC+6UJN32IZ5XpUEHzb7RaSSXR50mQaodX8OVkmn/rU+sKLV9SERLMySyWOh0p9dYa4T1xMEdcBmA6GvqN5MqgEEjhS/V02YMHqvbEiVm2lci7Bj+vFUMMSl91Wdq2bx5mBSJlAuVRZOTCtAc/YbNx5z04P/LfxKnho43fRqDgRn7DPI9e3esgn+aGWfy3Ry9KK7xv8LU4AfdWDU/rXyTQMtIV8b3krZZpkUtYz1VcsOIWj9hHf7LTrrukxwpsB5Rj2kWd4Vo17b/23/bbzU/02+yAtg8qkLcFrLakDJ5cp5CMC8uBLwv+nTohSVaBHCsUrD7QaV+/P21fuvkovLFSFIC6qP8KFzYwSzKNB18vPd5z/XvsouWnvT/Fr3zxH93rbyVOdFWGFxfZYeye+tIxhGUmel0oVPS57v1vxeg/qr2uPvGi+bR5j0fveKn4JB40l9A7hY44EfIRuIv8OwxpB5LaOcF5boZx8TofNJgNueMeuLwWKSkLuqpBDTeV19Cy/4gnSZ8gX6I0XKiAGcI7gkEBUllyFhgey8diHwVdyMkmpWFN8RUOhTulErnWUADw00yxpxTNt/A+wqnzJKhcXeGqdyEO7qXLCY+J4lcz2pIP3pMLF9L3V+HkY9K36Euh1Gdu/AGJNV1C/oWFwyNgUniEn+VGIGuyVok7nFGi3J69bksoX79CenOxXh59dA56HFIC0xgZGmYTlE1fd8V4+FkuRZXpILyjm8WAkYWK6ItnlR79KR/9Z3mUl5Imy6XyjPgjgSgGfo5Z3u68j20eni4CBCOBbPugFV7aBuD8rT128QV9jJGrgafBQSWmWMOhFpRQWPI1OzqatK+xwMM9k0kZIDU/bQNWuutftsmmJirWh3L41lexVUtx2r5wc8kyXd1o9WwwjLKnBSdUVfdRo6ZVsB2sEr6cTY+VGYeHC3bbt/HXlccigQXKaf/tq4VOOXAfx4U4IVOkPGkoWddVOF8lJMpCGSqlSvT0CfgIrkq9/1B5KTz6tOdUxFTEcArreGR1Hj9VNMPiraEcWdWiYqBBz0lp5aMvrKHoF0kfq6cvxFjy4R+7bz33VPQdFnlZqoJkOF96h6HI2A/Yjowk7OHHlMekiQqppfgVNhQ/b1POzj83warhEgqFekx657w1vjQyLMW8RmJqrDCXlbeKJ4eT7kUTfvRpush9iFPzpeNZWM39wG0rrpEwC942yodWvzO1IaQLCypLrbguSGWBF5F0yEcU4AVCLPexcC3RNe7uYG7tdNHe9QOb7Y3Xbmcol7m8rNCeYkg/k6nZX//zUfvCfXTMtm21YbYOymbY7qna7RqZ5cQlhTCBPCjQ8atld9s/f6XsrAj9vTk2luad8s11yHSdTzFsUoSEm6sD3pqnGi2jPhQDkq48hGXCl5E5CAYRqNSoPtOlaZSP9j59/Zr7TjIBc4XjIyDZoBP8dimjWSAogxSBU2lQGW8vSxplB1/h/YrKj3iIfqCjTtu8EYyAG11UpNLkkfT5Rg+MMGG8EhNhtoTJ0FX5Iqmg/FUuKl3eebVN35onmQwsvsHLRS+u/sB/mjA68lMYSIa1utYHijnkr9Vf9JfCRD/6SSh9Gi56r4f6HT4L78Mrr1rCKz9V/5v5pnnM+oQ48mpBF1J1HIKZ/5MCDMot8XgSohnSD7HS7gyhm5PS8PEKryFXKwjW4HUVYYU14VXevNQUjcC10A0fLu/qFXZIhzR0XasTiYCe1k/SbLU63q9U+RMBlZ9n17UBJzrZWWJXCXNVHqGdZtwAOW77JjL2x3dO2Ed3DLmFFRgPXEMtvfj1r6iy3cpJwm1muGiGQp3jHZPNazQ8IJfOdtkNt4/aW9/M5rCaaUuVSaZ4h88fvLrPPvV307Z377hddt5W++TnT9ix8bz1sOpGmxi7uWPkQJ3d5mXm1XYTsyiJF28+ai/ecy60avbVh9N2cHiDbWCLuhlM7RmdLLIAylIuXAKj751nvmgxlW4JBT2K4tLwHsVPtJzzoepquAgv2a/hWK24FJ2qGj+u7peLy+MbBHVKoLuPfImOkFIhVKMnAewLehAndBwrTvrI7O18KAAfH4mPXR69FUc01fvWZq9Sp0PuOcDD5YWiY8DOfSuE1EyJNzVuOgJO+7mpx6oGR5UY0e8qhs4XTqY22IkToqDoFL/mD2nNN6sIN2xG8cNSqDkxeq/tQKLCzLFLOjVcxL1TngmtRQuKRfnl0+IVQYe2sHeeFZNvnuRX5Td0BIu44IfLHEfVv4OOcHZvHT3otjhhFvqPEhRfeASIuSEUXK9c/nF1adZDHAcszHci4IgE9F1eCvNofPODNZ4Ii8D59IMDQbVIK4cldmJy0r5vzwn7jz94Lgp7zTrolFUZuu1gB+hHWQX0Z59lxWbPbqsW2LJJ9VNaPU7p9h2MgDgXbQTddP5eSdJWUpoX2sGw7x0P9donbijbtS9hWGb4KPVoFx1Dl41BOps0XArh3z1ROvRAmAZ5qwC+/Pu65caSXSD5kV+Pb5MnkaBhxY+GvxOyNKgjRln1kQeBfERBMD3DeWbCG/LNMUM8qgvcu/fyGDofztdunuGPqu6sMk7/m6vZkCYnf8LgukIiiD361EXVdtPgtjw0S706TiGjrs7wU9VIHU1h0qwTypAgSlfOPD4aTZR/vUoSoNt16LGyuCdwKiIsJNKcQQm6eoJNpGXdcaRkUQtoBr91UcetmUa4kh9XZvWUH/w7q7J8OeD0iHoZKf8KEsVDIX0pFUv4biaMN46kiPLRv+i6lo0GWJyKmpyohE6yLXwePAvqle+kC029V5jAn94vVP+hFdZ/hfAxyXyh4CpZdLqlVfAvue7fe6xE37HiognjlFeFVgbxrIXXgB/RXpXz4eelvx2tFUXVxjOYBYOHUPelxkXTxmu76Bd75uiuAx3F0ZbWOtB+9hXAxRCMvHNppXBnQaKO5tXZk7cvff2I/czrh2yoq9M11lmGchmJtZde2mvnbT9qj5/EotCBsGARiBSSpBZ8METY3ZVjr78pu+Nusze9ZJsVmBvSyVYBM6xOO+/sTrv84kft5VdvhFLO/pbVhKnUuRxFRGVBYVDFdpYn6EkOaz/C6YkZu+K6XtvUx6kXVIhb7mSSMotV0oGZOaxMkeS4W9UZyQRtMN2suEqpFwoaHXETnVUdFyISENVr2MEbfxJafLT/nqSS2yyVkzjYBhEc9M6LqgoJ0JmZnjQCR/PpwNcpZAvE53BEILjzWKUgBf7EteuVuDS1itiARcedu5fnNs7R4LkaWCgHPiQoKaZhRBJGjbDRez1UGBo1/JZZTDA15dPp/UuV9A2TrLit9juPgQSOw4+EiEYWLaKiE1zYRoScRrCDHZg5Qeni8hYJTUdzPx1nxObYCPkX5rzHqcPQSAe0FJfyQ+dcy0LZSGKkoXEBI19KseZ+aBW7V4qV6/oo5XxcmWlG414s8lWlQxVyqvDhvdt6Q0kJHzjqixBa9JW4llVIeOmIvoP27rcPsR0IG7szBywrSyznRmes0z574yhKWod1bOQ0GOqtFn341AURBFguGl3wUo1/SRsG93ban/3VhH36n1AUKjuwZIA3eSwEw2QpmdIlhEBZecMnwYMEOKvTp+Mg3dC18wNHZKqG/rT5uGvsIZDUXETey7IVFawNZQJF1i08Up6rzODXR+m+fbUnfncGuliRHCCvpXyqbolH+fQrI/Wr6fTL84/i6/jHnx4w7p1FtmnOpfLaOR+pu3VlUpTdv8qjVzxUjpp574Mt/e24wJvw4SK+4cHvf+Ye8JzfGiJjOo3onNvo9AAAQABJREFUe2zkN8DC3/LtnZIgqJRbrc7/VoxyoqUOmusM8lvlTfHPC+Z8+y/llceWOkDdVEnTM/5dPYp41ZPWn/N+OQYcr9oA2NVuPVIc+PVzuOEOYH3+iR5vInVdPMvvYs7xhgeKnpNRHj9+4JR3nj7pWYSQfLvXzj9+mVemzq62W1J4t7+cJ+hZxLNknuLyXKuckCbVCyjNzxsFfp64SP6diSmOyqnTkn/1WnwzLvYoakiDck3zhVixeyxtt9w1Zu985RD7fWmeH15oUPawz9RrX9phj3x6xrJsMjVTn+CFTg2RkV/0UFDYjPnvbzpkb3jJJmcJUqXQsJHcL//02ew1xTzD+4btoUN9lu/tYI4Sm9OoRXE1y1dUKQw5KkdfssyZt10u7MMHS3bvw1Ms3x9gHpsEvWKUcyIpuPUKhgRFnSFGmStkjUL0OgEmU7tCuUnLCG1VbL13tdFTaHyH9dxVavypx11kFWUViZbNsOcZe+fVipy84YbXfEOiPQrVICRRmLNOy2R+FIqxzlKWZFF8c52e6LmEg/50XrKOxgN1XsAbH9odSTpGqkgHCo13TVoSFL5n3HwWeGq5eD9hygK/kSAqDy6/oqF4Ly+yfuhPjfMMqwzlQkrh3JpKmQm0jacK5zHWIgI1WJpOkOHEkAk2rq6ATwdHDNbZ41BKvQRkLsshglyVtQmZKFAy3B4X0rAd3WbaRVunH7CRA+UTzDV/CYac6OSqElkjjzVJXftH+fLV5FlpavIvJZIyhYaRIO9UtmpSTISGlGbSrNNOEmytoz0xmyG5FTqBsBK9WRphbYCagSfhLWEuPzXyN03aqijQGjr35U7hQy50vzKncqM0aui3woKoV7yw0669kpMg2G4pyx4M2h4pwxzdA+OT9oVbZyzZs4V36rRRnl20QsE73bmhw+B3dBup4FHjQnCXT+q0dNR6GXbWohF4ASe/6KBJV4GEg6wajfrDXpbdDC3UmDpQY05xhi1k/BwnHR+p/E9QxwhDdmtLKG1ZpNXNLg8ppCFimpvqtjriuMk0m6CrwdXxhMoP+fH1jRIJRlJCNFlFHRSVkhSbHeuEI/nx85x95wYUFJJP0+k8cik0s/WMq6dpjqzsZXPtEgvy1VnVQRtiT3JHxVazWdgBy2HEl3upubROKZSSRvnyMTgumxHNuWu+xb/ryGiFpWQfZUxFWsoe9EPLmGhWGDkpMipT0x6uOLfwyBECA10DJ4xVz6LP9CripfHLxTEXk4hHJVFOWIqeFhdUGFbPaFsh6os6ysIpSdqrKM7yJ5mhtARBPQGfa8F9eNGIgbf4J0ibZKPKnXPkiWpXGuLa4688K2p6H1oqvT+HgQ/Bu2Yaw7jFjxQxnZOsvTPT1BnZ7iRXVf+loGl/S9MeufDdjF+xN2WmSz+/VQ5nsUhrP10tjtKK7CoyrJsRMpUjKerawitJJyytxVOOJwAKMmOW6U0p2po0GaSSKxek2N23/wrKlGg5z2FI7ztMa/uw8dP1RuC0VwBbE0yJodQgOihoDNslttqXGcp98yvRoWgI5XT4uwrR66/psr//3NM2Vjyb+XnM/6JAO+FMVSyxOWyOTUXvfWDcHnp80i5mU9EZGuAOp9DU7KyNHB9GnfnSrRM2VtsgOU37Tty+HkGdQks9yCDYCmxBctaWGXsRR6DJ3XxPkeHfDk6gSNs0q5bCrQqcAKACi7cSFcsdVE+jO1nKYKkqkRYqtSwDRKaDzzXckM9l2aeISs6q5LLmEtIQhFXMNQ/48ZUSEaB7VVh85Nj7Lsd8xgQN1+SRp1Fmx+2cCzfZ/Q9rzhKHpXPepoRFiSG2Iqt1JfyqjNH19WnzXCozglsiL6zWEsKymKiXmNVRalhGdf5qkd8lgKiw87mqsXhIA5zOQ845qw7M8DzqxJ96x7LBefoek6gfdy8J2NbJQgMN3mtES7gqBvlWEPfhic4WzbORrHfeh7b/0BSBCfBGdQcDuAFANbxKYy/+pdDNsqfX2ORBO/8iZm/SYD/1FCu/OcEgxYISzTOd0jYUbj4ogp70OsXGlUulDiWBfMygFZAdLo15lAihMsnGqwX2mxSv2pJBlhFZnnu74VN8uFZZqChfhajUEaVRhCT8oSuTM3NQxyfZqxK1UtYeWaFkna6ioOo4rd4uQqFASUkpY+1NcVWc4k6k6uDQQ+OBrmgT8KRGSQ2/5sw6BRg/fVjJk7TeOrKPbMUJXF7Mdf7l3Kctv52VhY6OFJRM6aS95RpW2+ODY7lBBVZRkDPs93fzt0dYuNNt3UPwwUpFr5S2ibOF+uI/lMdaqKUSnUyyepR8SzBJVAq8SxPYhCUoQYbJf5563aFV+3ScSsePsnFuwXbt7rb7H9F0kiFXD6toUTPU7zKdCdFRY95LR9E1auSJtpJSGcxIIQLbUoEUU3ZKtWk3fNnJHqOqu+jZzomLDsqS9ifUMLHqkhp31csKW1JpNWiF8pElj1KUUzXKPmOa+CSk2eHSxN9DJ5jk2tTTx+yiC2dtYKCPrZXYmJ35E1LstOixSGd5ctwrQq4DAm1ZgbroXHdw4pJWuKrD4hWgsFPjomj5Unn1RRTlhDBSsjsoO9pclwW7FEW24qKMlZFjqBOu3A/0kweVLvz7xXyydAqPqFPK3OICbpxcir50903ZIfzEocI4dctlhMKLqPcXFlV1RiTjMkzSr7OYb3qySL3k+DnSL2VI7UA31umqLGMoU74z28QZgoETXS9zlTcd6gwQSYFNbHUyhlu4EPIOP1LK8kxz6NZpUSDhOtzCDtdIOjdA5fJWBwYIFNkdFJNo6ljNFEeLFtgmZpoVpjM1tkQigGsbwDCby1k/0x5qOrpUgEp7FjnCe2z4QfrllEe9fOpsZ3byWMHOuWgEw0WOU5kYmCYeLCKcyc3xqIyQjY2xZy4ypVqj/kAzx7Gm3fku5DydZO3MAHaSD1Rl10HzsbpoGl8q08oWLcx0HCHTJLck61RyxaGMH23lTINKfLOeCJxhCiDFRiWIMqLl5l25frv7e8fs20+csJees9FtxZLGMqItWS7anreXvjhtn78NZY+Nf6vMxXPDSVQKCbQa/mZnttpXbzzMjt09VAKqGGioAus4m0p5xr73JEcLcb6tGo20KqNz+CN+Zx2hER0dNbvs5RmOnWKBCtLu63ePUkG2eaHpGhnNUlLlUKOOsKXwd9K4FDFOVVmIsKfnhJ11ft7OZui5q4cGBeW2xBnHDx3gZJEni3bsWDd7FQ5Yd08nAptFKPCnHqaEv5S0sOJI+IVHxMwUELwjE5ylOmL/5s0Z+8l37rUDLHx554cfR9kY4mg60lc/Yi94wbRddXEaK0GHHT+ctltvG8UywbYbCJgJx7VvLGR1kmDMoF2PcsIG223b1s1V280w3d4t3SgxKM9YkrTx8vHhk/atRxAcNQb7nPAh0Uo/zjfEyj4wBk7V9dCaI3Tlc0EXwo8H709iHrGG0Iu8cgJG8WXIw74eb11QfHLaLqTCUOPx4RlLZ7SoRwIVCx8Nb53TI2YmsfKxbmT3jgn7sXfU7IffstX+kU7EH32nbts3DNqJo+O2YWjaLrw6YXvOA/FMxW77zpQ9+j0EcHYXwhilkng0r0cW2ARCMU9jXBhl49uuI3bJ7nHbu2uHbduWsEkU6NHpuu0/PmX3PTbJ9kIZG+zeSQGRgk3DTzgnsik0ruePcpLFmjs+NWrJ/AkWOpmds2sAvlCe6DDUmd86MpqwBx8+bo8fonHtGIQGjQDCVWVDGGj1nxrSLBbMEfYC29hbtdddvN+2b+y3nVtZHUujNF3M2hPsXP+Nhw66OZQ9uY2Uyby6W4JwVU56tqxNGpJ/0bakveJKVmajikvZoDkIM9Tu/g4KV6rfurAua1sOl5mLFoq57ISeoyXCK796U8cypqn+EiHAoCeu/siHmmS3nQz32tS3ODJuu4fG7DVvydn73rnLHt5ftHfeN2EbBnptbIQuTOawXXH5jF22F4Vb9edg2r568zB1fwOdInXqULCIp8TmxZ3Iia0bCrZ527BdedGQPX0wYTfeQZmgAS3RqGNLpByjUI7TyFOeK7T4FW1FxXy2fBdWPPYw3TFUthe/sM9q7GX3mX95GiXgLN/AI1dUTlTStdOByv4sEVdOUP/h//q3pe2DP77Hbrl32t5z94xt6e+x4ZEZS6B5bugv28suQ7mlDusIRlm79h+dtjvvr9iR4S7mT1Ku4MtZkpQfc5x/4sHUtzqgOSy62orn5NiM9fRP2t6zSraFhVdbhyinWJfydKKKE5zRvO+oHZw8bt2d2xxVrcp0egG/XP4EcUlyeOkRPJh7cUx4DPTKYQkefoGYL7OuI4U/yUpZ0PJY/NywNFuLDKQP2+49dbvwAsrdAPIe3B98OGffpM7DEjKP00hIl/QbT0E3oqQixMgKdUYam8rAyDijRNTXq8550vbuMNuzYzNyRp1kqjUdzm8/MmXfeYIpDqO9jMhwYlSqkzrgkCPNupJ2SHehSFIgecaV/NW7Mm1WJ8pYgYZjqnLMNm0o2yW0GeciMtDVrQbmJ07U7cGHnkam0Gb0bKQ8l20K3p2FDlrqeKsZU+cGsWDMbrHZsUkbGtpn7/iRbfbjbz/L/vZzE/Zf7mHfXI7oOzx6wsrTR23L5pS9/IWDtpOjNnvZa1WjPvsOTNg99+/HgHC2U2inNTIENA5j0iHkfYqUKp+nmjYkK7aUYCePSJPaamWhOx1LPPJj0fx21OKv9ULgtFcAVTjCaqxEy8yv1cAapqhT8kfHhuyGrxZRANXTV/FDAFJEOUXYvp95fF+6hR5mjTlclEa9dpYAlIMqvR6t0v3MPWl7y7DOj826iqaJvbKc1Gmcsrku68YCkqUSVxCO0mc0P05VXzvoa+gtmZ60q1/Aag+efWffrN2/rxtFjiEYCraUpirDHCrQGl7UzLgUvb9jx4/ZNbvK9o7ru+3l12x0Z5aqshO1c6rws4mNrICctq/fW7KvfGXMbr2fs077tlkPtVa96QqaU5V0SeBh0yQsAnSiapPVCbtqy+P2mtf22Zu+f6/twBKpYbwnThSoZJushPJzwfZD9oGf2GVXXYT1inTJ8qEVsV95yaR96GMnbDq5G34nESwUD3rASHWGBxCcE8ftX11ZsTe8OmcXnJuzPTQmYe6IcQnwZGLATk5z7Bub+MqqJucsBHoPZtqbz1X+IK1qXCSMhJ+cBID76b7cI/8V+HfYKx4w0tmv6h37AFzA0IdFOUTR6+/3ezI6PZw3Omf0sWOzduRpGlVt/05v1jhBZJJV29mOEbsIS+4PXTtob3xtv/VjBRHpmQkaC5bcj8zut+uvr9l7fmS3nbuJnjalrEJP+kNvYHPxv3rS/tdnOcJuYCu9ZayqtQINXQ9CngVAiWP246/pZWFSn72QRsbqHIMXpFH0Jzm94PHDffaZfzxqN94+bcOdG2yUXrVEZAbrnWLS8GKWOZwzhcP2lu+bsHf94Da7YBvHOaWxOOHPp1qzXzvYSDlnd9w1Yb//J0/ZU7UdWDo0+Iw1i9JHgvmg+BYft595c4e943U77OzN51E+wAIn7Fya61kbrTAf70vD9t//luFIpktUsfL6AooveQrcUguTVATU4dJWSdMzY3bJ1ZPW173VbRaeRWFRp0DbMA3TyXj0QAeLPqgtKEWqbI2yQFyKMuwshHHr6mVD9InuPYOQbjh3q7FanLOuOlnhX6tUJumwVCbqnCB00r5v6z57zRWD9obvP8u29TPEhRWsVJpmpgYjBRMFu2jvtP3Ke7baVXuxFpFD6khoY/l/flHKfvX3j9hFOwbs6ktmbCNK9SYUxn6yfc9uOhqZfuvD6vQpjqa84WY6lShYSfhIUUCzqQl71atm7aI9HTbUXbYBNjRPJDtpnFM09liXktutHwBuebJi//RFTieig6DpHvpzFnqsv7MT7DtmJ+zyjeP2spek7If+1U7bu5ktraj/oyOkMi/FnxGOTeP2Y69D9lw+YDu39FDOmpZyLZM6zgkdf/zJo/bXN2H96ifvGUqW3A332RNqwjP8yP5fZeFVJ/WkPDJs52+ctje9tceuvLLbdm8dRMmSgq0TlQb4sA0QeFeQLYePbLfBvn5+Sf4gt51lKijPkbwjkHM+tc1funP1HU6k8CHGnAxSfqp76Dn0CqybJkE+deToSGM935rh2MHvM3vjq7rtovPpfOdkidwiIWLVt9Y5ZrBoH/7j/cjTvVipoEgZlhxBFYM2Q58MXReRjRO86+XUqcTwhL3h0kn7V2/bYleefwHbh4Xxi0s58utNPXZ0pt8efniEjXyHaSsO2r7jndDsdJZd+UlhoVUejUwg21M9Nk35kJUsh9J0+OSIXb3niL37rRm77sottpljLdUcqY75GMoo9xW797uz9v/95Xft8Yltlu2mvoOFk41UCI1FFMaYF4t837O5Zq+9JmFvf/v5tp0BLNWO6dFpsBjE4jdhL9wzY2993Ua75rJuO3uwC+scaWrkS9WePJ62//y/9tmt39poXf3ILW3GTj3QHO5QpkvhJHYr6KYTOUa7MD5KTIwIJBlN0t68Se6LVXpMdHArWF3Fo9xcBMlk9zz+Wj8ETnsFUEmNZruEAC2SE2qz1ZLl+3pYdDFlB36wiBJHZVKBY1hNhf7qF+Y46++4PXawyzq7WeThNRSnLGmORxL94InxDfb1O2bs3W+mSadXrIn/mpieY77SNVd02z2Pci5xnoaVnqG3JcAQdDJoHoVi2c7eXrYXXoiEp/Le9K2STc52WX8PfU7meaQYikV1hCesZ4hARLFVRo7au99m9t4f2m47OLh+HFP+3395xJ7aR0+xMowlMGnXvHinbUPJGOTA839zzaC9/eqKffIrx+z3P/UkwnoHFkIpLpqHJmR08DlzlOgVXnXprL3yFd321isvs0F4VhWamdHxMRXrTHRa38lD9ppXT9v/877zbUvnFEM8qtC9NNBQ4euqiztt985Ou2s//nuZO4lFsysN/wwTy5r4yx/cYK+/opeePAGI+ulDM/b4fobVGFLfsZNzIM/qo13CspGbtQu3gqeTTs3FDRJCskJJ0JBNPl/lp42L5nnrawkxL95R4R0NLy74obznh6bIDPbOYslD2cJJuS1Xpuht5+2bWHHGJrrd0XPawLWz44C95mUd9obrBu0alNpup2UkbZph4q7uquU4NaRjZtQ+8L6c/eBrd1gOhb5eYU4pc7PqFaoP/69mHunf/AurD4lfSmE+x9FWbDa9Y8NR+8jP77Zrz+1wCt1Xvz1uX/3aU/SaOYGmc9Te8JpNds1Fg3YJytyLPngejf+Efegvn7LqIA0RQ39S7JIaWsIilpw+ZD//I2l735vPp4lO2AGsdH/0t/tt/36G7PLT9vKr+uwtr92E/ynSM2jf+V7R/vsNKG8Mp1axaKUpK3XKjJUft9/5xSF7+4vJKxqzhw7M2mf+aZ8dOkBnp3/KXvsacLhqwDZQcn/qzViO7jtodz9QwBrEPFjN+XEat4N1WV/KK9UNtZ5psDtnt8qlq8XujSxeUmBG2HrpBMNMHeSR5h6pVVPIsBxE76MRh++jz8J7TyH8xRWlyZe8yDPqp7dHnLBrr6ra9a/I25suv4wOgDoPNJbTdCY5ySed6rLk5H5755sn7Ofevds2ds2gp6LA0nhr+FJzkF+OZbOf80qvvy5v7/uBIZTcYfpOyAIN6dJBK1MXDavMocPKWTqh4oZ0yirVMzBqv/DvzrJdLFqrYynz285omgJzl+G7wlC9cUrO4WPYnAp9lh5gPiX1LsloQLJGI5o6Ya+8pmDXXtFhr77sHNvar3002UAX/jUloDjJ0CDL4t/7b5E979hqfZ2qd+JAnekpyqQszN3UrYxt7Kzab/zcVivnhu3TNw1zBi9DjgzturxXMN+6B/kjlFHwOfqqOnbMfuR1Bfv5H96Nkq+mZdbGq0W7+7ucljFWsqH+hO3Z1WWb+2SBM9uzTdNmhIWQFh3dibyLxN0rx3ze+5yOfjsPwRcwOue3gAkkjFa3grviKtIBSWP5K4+N2nVYPX/tx4bsPM6LVlRa5V+j01ZhhCVDZ6jKmdGvezHW2Z/eZv/h9w6ipGxDEWT42vckvfxy4bBmIdvzhUn7xff02jvesAtjIJYwlKBb7huzL3+pQFsyaxdcXLIfeP0e25BP2zaseNtftN1e9SLlDtNJGHli7aFLs/js4/SiO54o2o/++iHytBtFmbmzGBJmR56w93x/wj7wr8+1bczrPDk+Y5/850P20GMzTvk+Z28e+bSVqUc99rqXp+zSyzbZe9lI/aGDnI40OGRT1F0NU3enCnb9tWW77gqzl2HV20J5Vf3TSVt5TjBNFlHKJg/be9/TZW///m02QKehrtEMcmiW6Q5q87o6up1SehabrX/iQ0P2ix9/0r5+X5W58v3uqE8NpSvf5DQNQgYNdTFmhkds16aCveHNW2iPS/bEwVn7Ggs5C+WtbLNGeVZxhBeX/brlE7tTi8DpqQBGNf1A2LQWB4QFBUVWwGy2wOkeVbv5jgJKXCdzcmgw6X0VSx2sMkzZG19epTc0wZwX5vKx95jmc8gKqNMqZDGUZeXrt43bu96kOSHqqyCjZYXAvfKlefv7L5RsBpo5Jt1WsYyINW1dkdBkQ4YQrjgnzVBLzg7RIH/9Hnr1KF5l5uu4lY2JaRo9/BNnB4KiY/qE/fp7M/ZmGv4SjcYXv3vYfvO/FtnZux8lbgAzfwc9vVHb9oWD9sH3brLrL+O8Y+Z59DL5/D1v3MKQX8F+6T8dRMHZCF0aUqwylSwNQjlrW3rr9ls/s93OGkjZNMJMJ6RogroUImkpo0+z7c3lJfvtX7iUeUU0GqrSzLty0jGBBQxGjwwztwwL4ebMRhtDKiXpnc2MjdhLzhm1P/jQLtvOHMEp0n4Qnj75D4fsxhtYIVshLRiHOjpH7PIrTtiPvGOTXbIjR29wAotAniZGDalQlcDzd43JyfxuV8m9b4WIuqbP8L2S1nzKD17IklDhMPJtW6sc20fjxrMUDWgtMWWkku1/wCa5g+EdrD1YNS+/PGe/974tDKOyxTiK9QyKez7bQ2dUVYOOxMRD9os/utXe9YYdCHMN9WqIFqWZiKWAaujtwNPYnKUMkMDOLPMEp0t28a7j9se/usd29GdtH0Lzt//XYfvK7QzN2lb4RBym++z/3HHEfukdZfupH9rAkOGE/Zu39dk+FNX/9nfDlhnkWLRCigPQsTeMTNq731S1n3vzVoTlmB0p5Oxnf2u/3Xlgp5WYX9hJHtx4zzRDP0fsfe/aDEdVe+HlrIz/Cscb2aDL4jR8FYrH7CM/3mPvePEAJ2tw3N7+kv38R07aJFMh6liT65TBf/jOqH3ovSX7sVcp38xeeEnFvnlvAas2i5zcIpdQfXevfYYGt20v4K8GRtYjKeLnnOXnyvrd8SkTQadsdKLMsDjbLFF3SzS2CfyqNjaqf1vi4cOgFLRewpdcwxIjD9DlJyxh5ebkAuKpU3929M/Yb/7sTjplDN9WZygHbCFDXmu1qsKUxqbsR5jq8ZH3n02Z1/Flnei0Um+xGLGgo4OTivYfpj6Wk/Z/v4K1nUkUb301m9JDnz6UO2+07ob7kjY+XrBpSg4z8lwnSaefTJzotQ/81iG74uIuO3d32q6+vNd6sQZJ2dc80RqdSfExhrVaE/0TCYaDSYeG3TScu3nDpP3m+3fbVhpsdbwKPEtzBF5Kw4kKWdhvH/upfns7FiptrH3/k3U7jMzKk81n7UjZrp4e8kLyQgopHUfmQvzcv++zB59+yh54HMssdGe0wAhy0Q6YZqLm63nK4KT9h5/M2Q+jhJToQGuW9g10rP/6swV7YB9KAAp0qs4UiO377O2vG7C3vXo39JCrjLR4Dh2b7ivMLf3QiAwQNpSCpq/gLggchnFKv+qX9kyUnGeRghZ0zaAsV2oH7Jfe12s/8eqdTKWYtT9HgXpqH7KLYenXvKLDXnwxyp+s7SyCmGHR3GteNGCveMkRu/HWSevsG0TJ13GDKERUdFLEwqKyDdLx/sQv9tursHZOFmasC5n5l1+dtN/5I44UrbPdlErIA0fsS9/db/+JzuBWhvOrRWQ31SiFdV7WwzqdyQTyXHMuueMUJDoX5AHZz3s6D6NP2G/8RN7e/UY6/1D80v0n7Xf+x0k7dHzAupJ7VCyseO+wff6uh+Flr+1huH2I4f2Pfuhse/9/PMzxpihXnZ02WqjZ3nMn7Hd/dqv1JpANtE+zs5gmyJtsh0YB4DUxbB//8EZ79cuGmO5TsgeenLQJ5oqnmFO6Z1sv00ZyNoNQ7SRTZspTbirNB9+33R7+tcft8ASLR7BUSpGVwidFTp1+qollp9J27YU5+81f6Ldd/TI64Amr8ddelrNf/y8jdqxMpxc81JnyNR+MCT+3bEA2duuIQGrDZR/+yDrSW39SbUqAOgoShyogKkSpWrdbzPDa65mUSpHRIc9a2KAh2y0bcvbFWw9xPBgWD4Shqq6EWDgxPENRzcwctje+EishPTSZ+qVEaAXuxoGM3f+9SXvoKRS7nhzCnaJJWM3j03FVidmC/eirEywi6bLPf/O4ffpmqHUysZlVoa6ziEKhlVYpeCxPHLXf+tlOe8uroMNonSrX+z56yPZPnm35DR2MUk9zSgnqRAdziKYH7Ys3HLRLL03aC7ZpRRa9L1a07uV++x6zm74xiQLo52xRNZ2QTGOpeoD5H5s2J+0chn2URq/s+nkXyY6KvfzlG2iYKvatB1mockJWPnp7WDytxtF5yW77n58atdu+h3DC+pFKz1iZ83wv3jlhf/Zb52FRTCEAvTL8wY8/ZV/5+m6rsJCmjKW03kHPrz5gDz6ets/ePGYvOjdvF29lqIUuXQ7hptVx0qmfHi7Z39zEKs9sH8JR3V6wgVEp81ISlKlamTw5M2vXXGx2Decw++E1LJzBMNvnbh+2Bw73sDIXwYiM15wSFQNN6leeaTVbYmzM3v6qlL0Ka6V6CbMoFLl0j/3TbSP2l/+CVY3j+TSpvgdhdeyI2ZHDh+0FKPK9XSh+ThgzR4ryo/3EhrZl7JqX7rB9I2W7i42lJ1DuNvRnsBRgLcCaMwbuH/ujMc6X7sVqzGkVLAzY2n/Q/vQ3zradXSiG0Pj4n47Y33yJeVYDm2BUm5azsTiCPc0w/713HbSrr8ywkIgOAPLv4nPy7GF5kEUo/cxTBVsw39k1ah/+6e1YVrHEMex709cn7VM3kP49G+0ksJE4LE9d9u078bujjCWxyw5gUfvKncwXwu6cR1iXUSYv3HPMfvMnmZ+K4tvNxst/+fmSfe7bQ5bb1m3jWOcyWBYSDPfe/q0j9hKmB+zayNGJw7N227dQhtmMWQqT2wpJgAfOdYiUdZGPckTZqSF6LdbRkGuC9OYSJXvXGzvBh0YCGlI2tKpc9e3Ro5P2z1/Tisw+6qAUHG85Vn1bzElpcUok9NTw6IMRmmcLfeCFyOnH0NZokQy6OPwlweThRw/Zxi05O2cjw28afmeYzw1PwkQ+j3X9ZRtsDCX4durPyWHmd3bz0QSseoG05O0//8Vxu+PRHptJD2LZOI6ledSu/76N1AENQ8In1mGdV/yFO0bte/tRqphaUdaseVkmscQfZwHMgw/X7fY7xu3pw8ftFS/d6BakpMibGgqMlI+v3HHI7n6EuWNY5TQ3TcdDZZkyoLmBDzx4mPrPfGT4V71wdQpZKPwvuXjALrioz/7rFw/Zhz85an91o9nnbpq2z99UtJtu5cgxlNgLL5CSj0WUFrteHWeBALKO+ciampDq7HXTALRQSB0vNdOq15ojZxPD9ts/n7V3XtdnJ6anWRyQs8/ccMA+8d9HUQr2WJltusqdKE50esbHNtqttw7bxMQIlmbszCRB1mlls2Qy5O2fbi3Y40eyWNKxIUpMCCL9oUhowdaW/iJylDmKPNdWVynSeGi0bv/4NbYSQpmr0tlOMKwI4khH5C1q09bMU/YnH9hg73hpnz11qGDv+chT9re39yDb+7GiYQS444C9+MUdKGjqFFNGKMOIEhthI/Kb70SR7upHQdOiPqxb5FkWa2K1dNR+5ccz9gNMG5mcmOQc6k47sH/KfuE/D9tk5y6jz+U6GPn+QXv0iYSbH/16ypCmdmgxB9w7JewQm9b/0w3H7Ev3khffKdqnvsxUnkIP8wqrLEI6Zh94V85+AsVdHff7Hy9zROKIHSqeY7U+9rdlelKBaQXVnm47eihnx48cs7ddN0T4MabodNBBSNjXMI5Yr6xy/DH/8rEHnrQLWdQ0yPC+Vj4rTUnkUonW4UVXbLI89f7P/v6o/de/qtlf3FC3v/raNLKzal+8+TgjbrN2yZ4eykvRdUxKnMO9sadiI/8/e+cBJ3lV5ftT1ZW6uqpznByYGeKQc3QIkkVB2FVRcVVc17xmcQ1rWHYVd037VkVcw6qriAkJCgiSJQ4wMEzqCZ1jdXV1V+ru9/3dW//unmEExH2+ZT97Z6rrX/9w/zece865J+ai9vuHi9iqp6FV7HiYSI2iTBzCeBxFZnbZle9psDUd2DECqxFgeTKftTULwT3spx54DMYb55UiNMNHHoDFdriDUWKehWcEdy+Kol0r7X3Gx53479WDF82Y7jlsDDE7CwgIO+4o6t0HnjC7+/dI+lhXJcTuQoCT7IIXA8ynHIunV14EW1IaIVstbzFGZACZHLbVazAGxitNeSm94wK18x9fOzv1+JhzdZcVC2SDfxwhpSiS/LulJWnrjpT6d8Ye3lBCxSzjWpCOjM1hSKaxo0ohxh+Z6LO/uGTaXnYKkhdMYSLstv4FKc+uvpXWBJOZG4NRIPVZqYD0A1f8KpwL4rHFduWXtoJA2UsT6DSeqLHx/ISdfUiD/e3FINPJTnZfIDrBGoS5hDXS+ifb7KOfH7HtA0KKUUcgJNXMQ+2WYuuzqatol76n0975aaQZn8zayz7UZZ/6wbDd/nTc/uH7Y3bNDdhiYTPSHwfRYVO0JDpmn3/HEmvEo3ES79UakOtX/nPE7n280VI4MpQwcJe0ZhKJidxX6lvThE2ps698YZP1kctXXnZCco4QMW6OYdfAciwpjAe+YKVwmiIN7F6BUo+54u+Xcbq8HYXkJVGUJ5sYeDlRtKYzduGZde5ueWnGYSq3Y+f55W8PIElphajgEARpkAlBCAL34+vr7OP/1kUP2ACIqMrpAUDSTnfpkgV29Y277OL37rC3/uOUveojGbv07wbsazeW7LanivaBq7bYtp1JkD9qXVSsselO+9jldbasERhAKvTw+gm76dYyqv0G2kh4IBBjEo/iKHOWxAljBPXSrQ9IlojDAPmKWyCULz+JMChZZhQP8BwE6OD9Y0iZYRaK2ldXQWyi8HxIKZCa1aDeTZSQarJBiKQb7Hu/6mVEzBa0QKJj9A/sKUPzEGr80w+sxeYTW6TKWOZQIzVEkYqTZLcGc4BpVOIKnF6MNKEWRs1NWQxTLA9dEQ8RYsG6I8gc+986p0KlHhjdBTEITrbjnoEPh7mNI03zEjXdoguzk0o7gRdVo7nU9/MoUi3F2cBUY1erUB4iyvpoc1Bd+QgmgmP/HcVZAmYUY/aIwnVQh+xJZ0LN9sDD7faJz/dZD3afYVSBoAPnKSkD/AVt9fbI5nF747u22Xs/U7CLPt5vL//IgF11bcbu2jRjn/pmr/3oTiTtjaSZjAxZYsky+/XtI/bQ40OeaRDzLO6GcWEU6KM2GOqufrMtQwoflsc/qvZoc4fdfOe03flQrwto7VJLsZ5VRFRnx46BEhshTYAR+Pzh9Uvtk//Sy2ZXHtfa6roHBNU4Bk3Yq973hP3L1WF7bPsSTE+qrdjSbkPpDustLrXPfS2HtqOP6Ae0AelfLNrEwwk7fm3S2lqLDn+q+fJoVh+81ytwMdBrbzo/a684rsYGyF3byEbk9u1Z+9g1OCAl9rVwTYl1lic1p2xm0VawRBsWrbarb4rZl3/eDZOFdBUNi4rms3Lgv5/HX4GcihtZjlWFsLv+yk4vCrCXw1vt4x9eaCcewuYcNufRLUXb0ZUGf7dYpg4P/yUlG8kn7YbfdLvnXOYgmCLVurgW2zdwBKSEKqEBMKRR1vXkeMlW7Zewc08nWxSAUs3GX7PzzZ/mbHS8EbMNcteittc6GIM5bERdeueDcbvvyXFnJ6dA9FMMBtni7Qc/77ePfmHafvCLdvvStUnrHKkjVi1W7KMzdszBU/amSzpg6LQBqIIx60fD02EtjTCRqKrlcW1R6Ed42Oob6q1zS9Q62Wg3Ykuszf6p0L4Vixj7AkwraztSRTvuWWGf+NKQjdLekrgr5LVTfMehWQ9tyNkb3rXTvvXDlD21K0U2nRqLVrfhnNVO8oXF9tF/ydgv78NbmA3hFOLnuKIjIA0/EQloLZskKQmYUjcP2iDIbKCI93s7Ar7WDm0aEDpI7QxNi+GIpzE+YCWREWaIt8tYOZMpzv5v+fOMgKD8RVO0BvWZK/qFjROi46lwrd34W4n9RaAqyFKwTTkbO7rGOEwKRGdW/ShMQe/DLINTyR+shaqdslgKFce7UNdJR6Xx6MqxawGBU+00QD+DamgSadOx++FJ1xSxHX3jeEShMsJ+Qx6zUl9pQcWQ1kzDKJ6035S9+5WojkB0dajSdrADuu1hFhYSv0myi8grLYKKOQpXFGdnlIPZimIEvrVnqX33V+Qv5p9S0qWwvVAogFed2WhH7EPIabbHQR7jSRigVEvKOjMtdvejo64PcrcXGZA6uic7bVd8ud82DiyzfH2HTdUvti1DC+2a62L21o8W7Zofo9pMwxwxBnGM80PZcXvbhY22ZjFOEjAItai273xyzH58A3tqbEpGODcFAz0NwZAkRat+hHAKyWTaOocX2vd/2g/5QIIFwpxlAN3ceAmCyLyfy8okVSa28uXav/sfR+ocilBsqpjyvaG6m8b2qATDLU/VETzkBos77X1vXWqLW6ttHGNvmXKNEv/tk1dtJ6PLIlQZzAlzL7uqGRB6EYyVhDm+8ykQXi/jDpKV2kK7/BTjdsNDGfunqwnfMbMEKQhMUs1ie2B7q11xddRe8xEcLh5tsxASDrU7T4y7c09K2bpDm2D0pSZUaJM+ko0XiVlZtJFM2AbZAAwgnevPmPWPsOvNbsOezBPAUFjPwLy1ahOhnTMIGrFgc4O2HRSkHVI6r13LJgS1TDvqm1oYuCoYWUbE8ohEHqRtf/e1YbvxAaQHRTcDehJpybgta9cYapPiGc7DV1Mr8S3rYaKSSJniOANMw/jHkJbe9rDZ1T/aZHduKFtO8WJYO+qj2BUXQoVHZ9cS57WcaDLjxryK6PLxx3pIzL/s6HiWj4rPrqJ2+N9xSUTxxHb1VM76K7r7mUX1KbD7EGM+lMlgKjFm45lRmOKMjQ1mbBgv2AEGu3coS2rGcevjeGwga4WBjE1nxyw7CGPChkvSP/Gi6mOqud42DdfbfY9lXD8VlkczEwW2Nw6U7D1fRWU4sBhJxQKbSS2wh4fb7V+/b3b5h7L2vZtSSLma3AY0jFhxko3pVNUyGxn0sSgVQqnSc8aRFc14aUT1bn8e0wWkWznMBcR4VsWaMA1h8agFsiH07DFzJxN5x1rzrGqStoHUhkiHkk01eHA32aMwqmwXeJQxAg/Jkeh7P9uFdHKRLW1ut8XEI4wx13lUggpnNAn+jLUut2/9BMZoCDtPmcKIOyXc0AIyIC3o0EZOxJxG0w8xSLzUiqg8j189bm+9eInbVCQJiopFml1zbYE4AW02ju6b/Sv1IQGSownMSgG7wF5U/Va/jDGrZi0Ad2zQqFFVuqJeBUW4w+MPxkrj5e7UVY0aD/jB87/dsfA4G3XaqXBXE9kRey3JAk7ZJ4VqNQMzjAc6DFMyOm5x1mABxmiQaAxlYH5gRJt8anUcDAcUOSpJGu2c16SeZFzU/UJh3C4+pRpjEOaGc4r714VzxX2bgakUWhtMSRI8KyepGJuJPEz6WKHWbsMExbWbZzAVdGWIcEOx1kaDZ7OaJtS/EXA7U9+QGLe/vWwhWAS7YlS4mzN5u/OxIULWlG20B3jKIvljYxsZAVfghJIb6Gd90W/oiUqIqAQdCBiq6zPEsY3DlGLXWBq0WHuNPd6fsKc6cfSTpE79cvAVtW9/bwDVcrtVtyNkSOSdtkshggrlEfqFhWh8uX3nh+PG/pRnJL2XvX0EBi8GngIHSmTLtAgXaG40nsL0IXB0FfBUJIavg2n9lRMeIyuKEGKTEIZYuM28eyJ41n9zY6Wu3b91/n/LCx8BDykv/Pn/908KEVEESPIuCkpwVioJtHkYqccwfC/YVqRcKxYmkHphfcaizLF1O3L/ajtlxbD9CNVJHUBcQEQtpqswOYFadcqOP77NtnSNsYPusovO2g/kzY4O6VoJYG7GmPm4Y8ftEXZmTryNT39JCLkqY2ccrF1fyu55CBXgUC1hD6owC4R4a1FI3QNjVCbu2VvOwBOQRTGBXUkSNfTju0rWPYz6CLWqUtNJHOakAhxKyoiIEaNdbH2QKl1/PxKn88s4bWiqUAWxkKoxDnkleYrvRvWYAGsoHt80hDXDLptABKhZ/OiIMCjmYDVj9PDGkj0+sMCWIIIfIlwBpB5JFMQkji0TakI1QwbLbdi+TaNO2b9jyM49dZkbbiFoyRrueSCLdAGVOQ4WLiiyQ5ROlgGSBg1Qn9QUfTV19vjOEZa2iD5jwFzoeSfyANmIKRUT4clYBVP4JntxP3dXfrr3uz+ilBRqhFkBZZRH0UoiNXEEEmlbOG9tS0bsYuzpXoo35hT2KSnU9k92h+1j/9SNh2kr7UaKCrAofqPsPyVJKQspUUeMXLPjWfrZLmLEvwqo3b+etoQ6QKow6xjUG8g5Riy+NlTf0xBjhY0ooz5L0fdkmBh36yQ5QRKF/kjs94mouaql8k1mkCgyImq7GCGISjVM/8qGRttvv0bmCYQ4I/u4orUSNsOliuJcNSo2Z47I3EvaxfDawWvqsRHN2xe/2mmh9mUEaY0CW+N4hyMZrKm1q29hs8J9qVQzY4/HH6z4FBaQsjVSUTgZScIvwl7r3s3b7ce/3GzNbWuwS2NmJOog6HUm2W4f+NGYU3WnUoStgAiIQAcZYGCTqckPkuAcXow+eVW/2BV/CRUr45zD3rAKW9tp6hCTozIttSlQKDs6lVQyTvgXGAfa7fhcf5u7tucfMX9R1lgJz9yTMOh/xTmoywvE6BMhFbFlA5XDMLXA/Cgf8BTvTTOILWkcKmCoWV5W4PdXUXP1DrP5g+FRPMVJ5nIclf4okhdX6K/UrIppueEpco+PrkBij0QHNWeSNVErT8Z6OdPgKcu/MJPTVAT2ppI4F6EZhREEG7iqBOWe9xUcS/2v8fKxEb09JCew84spFhWHmRL3yJaNH8J7TiDFrzC4hzC/XENVFgApTF6ZunJsBCbxAh8nvJD0F5L+SsoJ5gSXAf+M8QA4YlJMIc1KY55Sg3SrDJ4boz+ZfMq295SdM53U6ixdapFjAqpw8FqIlH1SF2pxxCQFy2FXjD1fDVLWLJuvdKLa1vdMgIeLeDujygfeq9CWaCMgoq/QK6g3HG6MAvuThC3auRNv6QO8tgKAoDBmbAQ8AInZ4ln+u40Hx9Qwr8z9cmRCZgN6kuflGCf83dA8ZJeuWwoTxfBiV7uht2i/uGnEcpjQVOEIkyoiPUZFmYd1daZD3FfZbrn35NggiZkRBlMrEsxFgc1hYzpPuBdJsDgL7Ijr6cN2rw+GVmYs02wofGDnuTZHUfn39XvJuts8VWhbXylpXazTsGIRjictTlzQsdFBO+WwrB2O5kBxFCPRgrXF8vaeVy0kOoSECzD+bF6j4D0NW4QsCLWoYhctaHERDIrAop5LEjNySWOL3b+F+ZQEE5gaQ/oYkWMYZg8qU4xXBOZepk3TmnQ2zRmCdCKScH0Qhq8O0Vfwn9bmwHCtdeGMtO8i5opNkmJFNmA+Uk/0iwKmRTHoGo7jDuBFDxLEVOzZGbInH5q0U06sswmkmUngJyyiAzT/7j69QbgP/MGanRbymle079CdPq3gvAscOrPa3U/9//s1y5/4cX1GQ+bAde5SBQbmTvx5j/77M4C7jUcwgsEAi5AibYCoTON52t2ft1/dNmlve00LSJhlDMYVMWeJ2+kvbbZforKLVtVC6NghsyMNwQiecVIS0Kuyfyfo842kijptHV6sjuEBNB3GnrHTTlhi196YQw0K00LMuzzEZnULhv4Hy8i3CADDmIWbPFMhAAZbJFGbjo9O2NH7Ru34Y9sdQxF1BtmyBRmH2SJYaxqVLwtNkgzBjvgp2a+IdQB3odqqts7tO+3pTdXWcXCzs0GBD6HM2BGHN1lL8wBhBWRPgToWwj3DQpTdhOrxd+lOP1ZDQwQvhvgVYOBclHgxpyxeKkX6CNvJyhaiU0DtMaQpx51Dqi4kW1LPiPmBzSGQ9CC7+WUgaLF2ul/j71Czf58QNB2pgrkYRZVdRr3hmIFKG7zURqyub6D+6hPMpqvkD/yZgcBp7xjCUzELgbvgvLx94nUL8OojK4yYj3ANwYuXMo6MHXduGQ/b9b/Jo14pYKfX4CSqRSbGp6AK3qj2C3mC1VBTBGeZVOYeuKJ13SOKDQazIWNyxMJi4MRQOAmXIxUYg4s5RIpwxL4JO2hfjPMZl2qkLKBRO3b/Bj5iAkRChKp93zmYLaJxGrcwxFII8enODNJVCDwNicI4dXeDeBlJ1ShbSpk2vP4CwkDU9dsV39mEZKMFlVC9TUwj5Ubl3YBtmkwZZIOp3bWIbwmJaWevsLIPxht2AWRRXb6FsDZ4K1/zoy6Qe7PFkTzL2F0p0Nprm1hHwBb1qD2OjtNObZ5Ur2ZeBvGOsQOeFUtTTlhh2qGr+LUDUBiZ41RDZxgjzkx6Uiqpg06qDhV4E0tj8zSIUFAOWjRzb0Pl4E3Mq9tcsX5fsnrGLj4MxxtwQITgtM5jUZyqq1eLJRhvQY9mGNMAvkZ4/49vwAa0F5iFy5FUWByPk2bPPqPzGvUq6+0bZV1jGiDGARMN9UdrNIw0RlIeMQ1OcqTKqUv/ZIYSFMkSPYTpXPAJrupbbeMKz0pTMcn6FNToXj05V9Q3X/yR/uqdtJUHZHPpVcT+3VpzgvFpmFvNTYiNMpNKrcydrvGgayZ9z4MfJmAu5ODi3uielXQLXMGal02xNiqSbMnOqwN702OOltMR9WuYKNs2F20sAzOPM5o2vL4VulI5UlOpV0yDbOoKrBsM1Fwf/R3uzXrAFfXO93P383uOoQiZ+iKwmSFUVolOxWFsFJVgPUwm+1E0RIRauj2DlmCRlTF1keev29XwBprkNit6qerRyATFj6HGi7YwTsKjtTjE1WFjp6LxVSlioiNTGZaqM2lwYKhm89HwCGtmxyfYyqG54aLq1XsUID4CQ+TsNgFZFCsw9EU0U+08hcTSwSAevGwqLzsfO2JJd12RAGLPojfppWISY9Q9ZZneMcLSNNAmnWU0oWuSqno40fN0gHeIuZdAQh8Fw1bQ+6AucX7asITZOI3iQDMOfhWcaN1o7CEhHhdIswLkCnZdyDT6GYHGxCL19rnv9lp8YdSOWuFtu0switf8rMtuuj1v6bp9bAi6qrWvcQ7wAtX8b/l/OAKauxd1cUgVle+44tZhf3Lj/YP2lxeXLY2UQ/HyBMgoLeyoQ2PEThvFmD/FYgNRoGppT4/bBevabYBdyl2PhK0zv8xuQUR/4ToMuUGW1TCCyh2837JqO2LVqN3yyIRFO9I21bvDjjvSbCHE8uGto/ZIJ8ikOkmoBEKNwMxJTavdXwnbuMN5rxxTXFT9CkHoRdXogtJyzyyimbfWhMS1CMRkTc/U2WNPZO1kGEA5lKiUYQBaGyK2fHmVbX8Y1TPtcIS3golke+GLavDYqYhkQghJ0jg5unjnC3CBE0VAbNiJaCcrRB6vhpk5yu9ufdJySZiIBp+B8KPWLs3AIEA13VvUTj56tSSOQmoS6guJOKIq3OLvdC0JWlZp4F6/9naP2DrQCBIoAntHa2zjxrzd8cCwHbgc71Z2z2r3I5u7bUvntD3VFbO7Hi1bF97VoRr6UQPzyG5ZNp9CVJVhcu/W+AesWdDO4P0iJhliq4XCBArn2IWwYYygg243qrFVFP4Z5nySjDD77gfjR+UijrE4Eo5ivX33p704OCCdgohKvVrNOBcEG3o79zpELGYcyQ6yJuBuyh5+Em9Ycl1PYv+nLDYPbZy27YNFvPsUooLAwkgFoUF2FikQVx1UbV//3oj95jbiEFZ3INXAAxt7v7KYWv3nXS51FKkJ79zQZ38F7KQjSN8gDpIQMUl2+cXtdviRk/aF7wwTvgIzBUwEwjB5OcwTpKucqWykJG2vQoKQH0KKFsoyllmY4igMZxwvyRyZZKastaVEyKBpJCQwpYT8eGhj1r593YTVNbbiUY6UekRqHzyOnXSL+mijSFYtm6FobNTy4zilcKzYlPPnye2QGDvBlx4qsC5j1Wn74k9C9tNH+21FO04MC4fs8IMSwESjY5enYDCUucZBIHEhQ6j5FJ/y6p89bb+9P2nDwzhoIJ3Is/41TpJ6uX96R6UEbZggTAaA5PkFNYG5V9v9CTfUDj50vz4aWjHMfD1r8df1Ph3RBvdX9elIL9iz+CdkrgK/TTv8S8R86p+eUG3PLAqOrjsqDB/P+rs1/rxL/YcJyAO7vszVAnjSV+Ei3obkUaFnJrBbXnPMDFJVFgMOKnGcilT6BlFLIr2UE4ZaIpQ3VxOn9F7epb21cIRwpSu6iXMqbvgrx/6M/ythyW51zb/IsXrn7ghnGX/GJ4wnfXmZffDzbKhYN/k80vj6FsAPxzBtQAixo1ig08y/hiAJLLiD2flXiBZtfRk1Lok5F9OkIO8Kui+pv0oAIzL7EX6NgWg1iq7vri6Ph+XIpnnS9kk2zGK4ZGc8RgBwZfIoY4erZ3KTeWuqK2D7K7mlr0f2mA88MWU/vmUbli9AKdJ+ZY2ZIVi4zzOMPSZrSo5LPoMP9oGouju3T9uGbuiTk8Rqs0IPNYd0WG1QEcyrE4IN4TiNs86KXui8G3PwnlT/Lt4iYyIBiyuVzutLw6Hrvj7VIDwpxprvxJRtyzTYuz5etkPW9hHdIG9dOK088RQaldQyJPVqg6CZb9olvKxSqd4d+xorh7Nf/r7Zn892QNueUeafCqryA/CMW/+4ExpbDaCKXhJU7k68sD9qv6uKOREsulr+tHpf1Ayguu52HiCkHGE4EiR9f6o7ar+7O2cXyBMK+pVm1ySk1sHO96UnROzK7wF8CzGyHxmzo4/K2SpsXH782wF7Yle1ZYmJcD3J6M+FAZzWSqTMAOgpmKTTT4zbnY+MAMyoc4mldOYxcv7AI/e+MdsxjH1FB4zVpAK6giyhDEUWcxo1wRHkPRVSkZTO2c7wawo1ZBUMlNRpIjwCci1MFcGeC/Aqcb2wEgu/BwmQihxLfPFqvbQ8u0CibpEAGJUquEVQ4n8H56ZZtC7zAjf7q+4W/0eLnpMiaGIkG7DlaG2V8od3oqrhCkwNkq9iLSAtNYKXToiAaJj0juA9ri20SQbLsydVEUXvcEiamyVBUm/2bIvmc6/nuRPLGuYDdSqD3NvVbld8ahRPTLyTkW7MoAopIQWaIMSCVBe1tWlLNnINYuSkweqHI/Daye7x1qDxrpV7/mEWuK62Bx/dro83tJeqR8sIeWeLJwh+nmM4y2TsM9fgHNSwwDlztKGqHaMSsc5iSzz/BdKlXdqkSMqJvJWsIaheRHUZZ4Uy6iWI7//5yVb7hzfvR3iekNVXZyBAONwQK3Af4n595p1RO/nYIRe8d1tv0v71gUwAAEAASURBVOqb6lHhwGgxGSJYStVUhcr63g1R+4/r++3tFywg24XyVaeBOxHhsh2x3OwrVzThGTphX/xht/VP0g6YSWV1UP9kvxNHHZaOj9qJeNsvR/DT1hazNkJOdLQRlLqBUBIwWwmQdxX9KBEjUQ5IURxRvnvtOKE2UBPCtK7fWLAzj9LgaZaBIwYSkKNPMVu4kGwJ2DQ56SDjpA3FMwCEp1RolvtUJRvsiR15sqnIChKV3k9p33477cOERFmA7aTUR1o3pSmII8z0p7+x0X5yez1OMs1WxNlJa1Aw6wiPr3r2r4cSLlKUGsvdV1lvOuuuCyj2Up6LhvDWPZ7SGX9Oq963Z+9160Fd0cc9Ma8qjer84utUbdTPA/NunX9bpcK5NviL/m7VOStVnG1SyZYvQZvAHDrmSI2m5AgxI8mQxkpPz96ui5US9FM3+ZR8c/1x9897SNWqHrVh3ulKTXv54qbwFNIuNmUyPwihGq0Kk5GDGlLpEKY1xPFEsqXM8HJ+EAGpw9142OsXXIXyRq6gf7c2xciraAyEb2X3lsUMYDCXZj2QMlGdpbS3NcK4zRDUnC2w8D2wQTPAP779ssdsJaCy+l+AK+JRssIUrHuXQg6JAQQ3KFIFZkaNBACvrfP4RPWLAnzuB5vs148ssTLRG8Kkm0sD11MSX7uR4RsGUJmRxHSFtLHHzCISI+0in2k2zi7JgRoKlnF0xx3Pjat6IV0DXaSFjLjWBucCmHIw7c4BTbowr7j7uFHUpTIc+uHq0ncO4UUI+jrBRvf6+2j/dJq+xixW38amVzJRX6eeVR/+XCU0q24WU6Ve/FcUwbUbvkplgmI/l39K7VrDjiwA117bQJsr6+6F1vviZwABT3nBKpI/whiIQi3x6SbtvFP8QtVewsf1m7YzT6y1a27aiWFy2JoS03b+Sxe5cbvxtlHOtVoIycWTW4l9tAlX91WoPSFYcfSLUimecGTa1iwq2G09JTthRdqOXdsEUM/gqYfdEYSyiNosgi2JY2CYfNmJpBPYbTTL84w2sFid9II3yopHil63uvyf3eZP+EbG3i4/K5KaftS3Kpp8FV9PyeqIyeRUL38AboVo5paSAFw1V7CZq8n/EbAKsUm9IWa5kUCtJDCgKG+tABd1IrH18thYhcTYAXROYuiu+vpcm7nTvUL1uQPVoTK/gWqVRyr+mfnX3M17/wNS0J0y2pcqN0LU0nK4FSWrkJbex6KA2U+khHgn2NUXUclgPk24FjESwb+99V8vVHN3azLnfMucjEV36LY9CueUw1lfDEoHadlcEWfHuI2gnq9N1VsHG5MhpG5JHGnC7KSjvEgfF+bA1eslAoqVJylLXvZDICOFx5AtTxLHoZ/flIPADNibXtZoYzCBClgtBkv9FAycfdQCO+Kgafvs1TvshtthuGrbqYdWSZUM4BSAz1q8Hr/7Q9JUNQ3YWSe24nCQhzjEvYpPnp+881KylhxwRLV94KubbdP6OKFxVtsIjF8jRHIGNeiFlxTt/a9ug1gRAwy1jjo/jYE7zYCwKi8xfUedJUkIPJ9t7RzCVg+7LyYpRuqzRzf2khOiDm/ogHDRRkwR4rRx//0a7JcPSdWoDCcsPm14GA83wG6c3Oi6IzfSjM8UYyXbyBRxyqrxwpZX6S23jFprbSdxMZchwcGujrqjpN16ZNskWQvS1t6xEDjH2F4wBTwFM6t18AdLcNMfvGHugqpxt3Owtyp1TR9dm703eMadC56a/9LgCW4ICqfE4GrIg6v61kfF1+2JuD/zzL+6VzjC26vtfj2oUzjNy2SET9iw6A2oKBcTcsq9g59iKPTGMZwuFHB9z7X0zJp1RsyCnvNtcNVW+uJOUp82CPo8e33+bv2VZFZMiOIiCBnrubLoA44uaBihDxi4AZcxBi6OWUSWQPyjA0PWhr3wyccspgY2JYCcnPkc7mQtq4/6qI/Kmy2Tj0y2bNu2j9hygrY7kwRgtZ2IE4tbU9azDQYThzFJ2MU0CjeIpylgnrGU7DAqPmRVhKw9vdiUJnzaPcwJItAb4ekWvP5rkNppHcm2WorjcLnOljQ3WZEgyjPYqiaAdSzsqM3DsKSe/m16A8czCl0DHWONOO0MZ8UEaqevvuzJO/iZ0LNzxa0+LgjG3LxXLs2bNXdGv710WN9+vHRB4yaGVBxRHvxWRD2fIhaibKCFE0Zh/mLME2xr5W4PC3rEFb1blTuOnPFnXrxpxewdlRtfyJeYXQk4RBv1Cs24Pn9q3Wyq6VwV4Zk0MzNsnjUvz4pfnqP5GgJJbJ0pBgtC2kBtlGWW8acUB+N/SgV/rmc1JZKJ+Y8WuuNDEOVrsSN5Q71XgnlJ4oF1846YPdiZw/iehcb2TfZQCm2wCs+mlxwMUe0eg9jksddK2083jds92wjjkay2ahZ3H1HJb7xngvohQQ7y2Eni0ddBdo+Tj0LGkBuy01B9yDh//WOjtgOJS4QQAMrFqGmWIa0AqArim0zSBtQNewJUDUiIQCBIgJzyxSEKLS4eEbi4ngkhC+nOIFWZQGLovIsdBGnxcAvFh87Af4vVuftE+ht8XarPt0DoWmmnhASCj94YFD0lpjMWK6LG4Dychfeoxp6EnakCy2o3LI+uIL6bhkgfAbhi1frHOOHq9e3QNRWHnrTIuKms/gUdcVf9H/FOeto/Me+CO2SEeVmYXVsOjiNXhDEmFE0Ie7aIFjIxqUqTYHmQ4wxBtZX7OQIDFGHheBX33Nj5t6hFjh7wTv65+daL1KFKm2mvEIMnev6cZlTxx0RktDcXU6e5l/G5oFJdVIlhJyQWehRGsFDCuSBHsBzCR0wQSDuDLdwY38oJnEXVm+Ue4pS7ALTaAWuuZEMjCJG8t6Z2qV3z3Qn7529vZe4UmkWqZphbGCnZCcosAIc/+8LbltvbLqL52V7HZIEvHVwJaVaBbAuxDrviizn7xvWEJ4FpmkEyoGTvkaoG1guhiFhDh9Yl7GcfWG0Xn0BmapJdJ1DzlnEeqMHj+OiDZBoAZIrjw8ZvhvEPs/ZiSBjj2PSI8JWQxnahMv3txkm743dl5/leoO8JPCM2bsMxZzs9ov3QJVccUWLMj1yLkjUyAE/N+It4O3iSFanYDr8+/BrxzwmOhP8kCS0gNckQP3IUO718M4HM8fzWbClep9skcbyjm9AchTRZHSack9gM79iNCArwXPHzrMPgiNFzcOAhRmf9R13QRzDh1F2cVhud/RO16y5fBBT+Gbc/cP0Bd0m1xkfP6Hm3LmafmG1Q5YxqUB2sYda8oE2xFr3E1EM0XfIHeoLj2bXHY3py9xq1BtUGje4fLmq5JK4aLTFjZTHUePw2KRCfCgAvT1iVOOkzqY4iSzBJugOcrW+/1oI2+db55/RIpTbHrLhNGyd0Ljivvv0hcqcx1TW1VQ45IcLqgI05h/cpEuzqFJsD4k9OV2OHhxnLIHbE4+NsFOoH7c1nT9i1n64m+wc9xNZRS9+Hu8Fxb8IvZvVbfZKttFKXzcy023V3oyph9rWZ1zojZrudfhS4Mz+GxBvmDXtAxX4MQ1eYYktXZxEkSPaPGQeb1UEyw3zvDjZDRE6AslMvDB19nGFDFYuMUytQx1g7LQ/9qK6rsWHwxyRM6wQe3ERxQnAhT2twCJ8c9Y2DVybAKbLllNWC7IDL1KvZ0LLCEghTDfKO4zHupfDql+ucDrjPF41lMNaCD9EisD5jwx1S1br5ZmwqOFP3JtGytRMaLULfhC/1VrdG3TNyoCGwPbRDzCtmwgAVWbaEl6jLeVJzu5w63HOuJYJLmGlU88sWycvYa8W86lor19fvAM69o/KbK7Nlt/Ncd/XqWTFnpFwk/FtHu+LeqsUOs9MAvuc/FxzPVjrvILimb2rw4wMsAAxLyXoEv+7q1WgIRvSZJTOqZv7zwfG86ueuSzgArNHOhe1JPPMTHOscsKWFETzr2jG/gmc/1pp88ZQKknGdnddq13867ngvIDGHo9VPb+61o968j5MuMFIMunznquyi0zvsV79cb2esW+MA/Bc3dqMOa8IIlR0JUoEqYhT95re77DXnLCdHr9S3IC4IrL5PIjPIgl/caycdKh2W2e/w0B2bxMEAgPfeeX6huItMuIgG5Jlvj0T8eSOQsJgwib0ptFuLRyDpmAyd0oc/jgcBAZSRMjkUzTmBmRgSxYzvJfxMmPA3Aqi5JcwNlaJzuj8o84+Dc/O//XVH6qhPoCFEqlowqGYIYgmMdJHyuOChDDZr17eR63Pvr7x1ry+r3EWfdSSyXrl7fjP+wHHwhAgWx7y8WvoVamCv78aAoXJtcmPF+0UYtdOcgxfV8ccWISee2a0/lXpUPyoNx/SpNyA39cqn8UKNThq2dJoYfezc42RzUSop7XXd3M42Y7eKK2fpgTutb5g2YKU4TWaVZLt989pJe+TxLfaeNzbaMasJHk3uZ6ULi7MhUZy1SZjKt12ylHAzO+zbN8C8ERtsooSdEE3Ogn0KMHOp1FL7+6v77PbH+uzvX99KeJgIahgFpwZaJXWAYEmq8bG3H0C4mm676VHGGslqODFCnLpWJHhIeggrMTlctL5xss8OT9vgAGEwesOkOZsijESB4K5IQJFslKLLkCwnYNAIvA2DODIatZ/dMmyHvwFG0oWBkASSOWTHfMyqBjvl0DH7zUN4CeJRKBu+GVnEg+T2XvzEOOKsyVcBQeZkE6p53wO6hvBuhyTDZEKAgGOxZ5qR3ct8GNG1YO3q/Pxruz81/5er8Vlu1dxqs7E3lZNvjV9PbunNr5hjf32Pk/N+6vreXi0Y3vOa65GrcG4dOlifrW/uCTEAruiLIYmimaiu7HT0tCfa+EOT+SZEqA/IPU9Ubg6ena33mQe6s/IGxmXvfXjGU8EDe15QjnTZKCNtCiSTNdjsKaVndtOwtYRG7Yg103b2iWQAObbV2hRzj81jjiDvNUltcNSAYBS1XrVqxR7IlActCZK6asw0bv5dxn77kridQoBtpZWcYbPx6rPq7ce3b7HHdk0hDWyCEYMphjHK9IzYOUeTNpSUbWPZPmxe2+wr39tqT3YRGH0h+dNxDhGzp3fLVnmmjDaJf2qGNv8KRdSxgIQED8Eosk6nojC37v6gnXsOgj+vTYW0MRpTAYbmpJa1XIvNpjLQ7F4qv4PT+nbPBSeCu/3Mul8VgFHLm5pS1sImuEA4HBIbubZrE6eV6KcKSNH9bm36tmgd7Fl78Bb1XW+Kk5e9TaabMIKDI36M3HNB+/5gDUFNe/+WDeaCjiiaNKSTxMUcHtFmVkz4fHq292f3dtbBLW3SfLU0Vds+y6uscydpLocJ0xXYEeztwec4p3o11ZJkJ9i0L1/Ktga0OEFGqOERUT9Wn8bxDw3ks9RPNf8zivc4gpCw44lja/C7+6O288KcdTARcmYKQSAV5uEwsna8+3W1dtIR9cRVKtj6RzHMj6ec04cyEKTg3Lf1IUXEtu+NZ0sNjAqJoJcC0xWLEvbRv15sK5bWEvS0ZHc+ip0TAZqlhpKdhgfNYM0AulN4DLICtQDE4AUT1NoiJoo0PIT90MLQtfnLQFIlqb6c6kCTj/epi5/GsbuPHW2BCe8nNllgayLeWHXNW5r8Emj4EnwHd81dqdwwe58kM6j7HLOtNtAa3lVDkNqGZgI/j6A2JJyBAi+DnmbVT3pc71Afndoj6GylXn0JSPV+9Vdj9WxFd84v3lZIZMZLPL23ZIUJ1c2819W+54Pu7Pya5h+rxcEDqtkfB2f8nbrH98v/Dv7qLsk3xPjpSdQ0xPhTkURMZR9sAhfWddm2LkKNpDAmx041QIfz3+Hf4N+hIYL/cjhS9YYJ04G+G5WlVCgwYs2SbqfszZ/otJe/LGPveNlSkDk7f1S8Ke5zu1fg/PUXtpMebpv1TXhJqPbvsgHNIy3Nz5Dwva3JfvNw3jo39NgbXpuwi04lCwrSQAUz94w138Dh5Ren7a6nR2witBhGe4199ptISEq7LJspE+g2gkQN5o5+yeRB0kjBi9ZahODMYTTEkmbMIHELQRwnENMk6urJPDFqrz1r0tYoMCx9daoSgAIabWedUGe3P4CzFakbFcImBBH3JVhdlZ/zvjSW2gQ6+NJGDx1eMJfzbiM8khgTGct7GKzMLLdUZgPiVDma95jOBDOk08+8Y97N7lB3B3cF3/4eX5eT6gQPuTXxzPq15hTH0xX/WPDE7CkdzH/S36A+BGf1YKWOylHwK7jDP+P/zl+yuq565u6bW7GKwzmDKCmHKU3lSXe3jtvamFACDpOEmsYx97zQ4T6uzdWlOyu/5590DfAt1Gl9HBryR3+gAtU010v3nJtH3soPraEIjhFlVLa54T47/7AZ+8tza+2o1dXgdaTyOLN87Wc99p3rCSd0WrW9++IUUpoc666iqpV41zE5tIu6NLragBeQFEZJGfeerwza1z5EGjnSXxYB5hpsdj/+7pX2oSs3YaeM9Ipgx5OjWd43Zh++fAkbJzyIibf6YxzYrr6B3OPEVM1gN+nUj3oFHFMErc84DnfyrueHg2thmrXLQnZdcRjtEnFcWccyP9FoBeY4Yvb0W2OgotlTTE7HgDFVopGqfxQp4tREjjrAF/OKntXDc8/7+ubd4m7Q9eCe4BotJRrBqPXjBJRDXKwNZ8CUBPCoZxQ5QgySL9BG2SrS6vntrlzked7D2I+zqd3cidDDndBVVU4dHjiC2//ob0lWewgLNIpzmt4huiV4mQ/1f0ylAl/f5mloc4G+xYhFWnQ8iQuf5CrTVkI3+prnr7lne5cPqk2EDmLtbt/FBgFGW7CrjFXqxwstwQp+oc//f39OA+gGUd9AnYArgbF9b6bWbvo9dnkQ6BIMmpQBUibVAHBveMX+thQCdRuR+gdGGi3EzkJEV5KtEs+Xog3263vYEfKMVLAqmth6Um5deMIqF9Pv9xsmbWMfO012J1IxKbabpkFApAmJsLvKZEja3a+l4ST8EDoP+MthINN4TM6g95GxrnBMoBbSvXSFuli4HKg/dfWIqMUy0QgBgozZt3VOuqTyirlU4B7Zk7kYbXq4UjyZ88Chv/7tOvLnZu+jXmdoTD0x+jgwqMVMqwAu1aE2aBxXrcYpgMwpUtlpZx3YlQRqJEkw9XHL2SHL4A3+27+fBvJ6LQK1Qs0VgnLFIW7ftmeubd+xKS4ovZFGVbkyA+mvaw+3CBbmfyo17/Hl36GTvlZ/2aOhuXO6S0yukJlfKMFztF7957zMDyRtkkp4e6fUotwrCS0q0kai5L+SGJD54lYYdUXOlzR5D/RSqVtyYunXpeRIAlN6k0LOFKXeGS26fsq5YpIUTFW1ZARNLLZvf7/Z/vrDO+3JXZwD2Si3qpgfOcMsa4jZgfsgCSvmrJZwQnki8k5ni1aN5K5qKoFTCrEgsXvqCy8gK0CZpPc91gtDJ8eWPMx9CqN0qdbXrkzYwlYki6io46yrJ7dGbNOuVmKRkRs5spC2NBK8ttYa2tIEUmYzBd2PwOyWYNxkZyfnI8GOVpFio4nL6xmpsW9cO4htbQKi6XrKab+OTj2q3g5Y00/2hB7MLCB72Lo44qiB9aMy79udZB4YU40jH82L1HdKCaj7tW6D4iSKnHBrNAASBwE8SHHwK12de487tdsfv5LnnXomkLqLerNzPuG6h3md1jt8Y1JsoLRmdEoE2RG2eQ11tA2kEpFHmZ5UW/dok57XP73Htd794S6+PfTowd2fEo6Rqtk9x18OXdGRzilt1+xJPV65wXeTvgDj0zAdCgeSJyTWlq0e3n2aRt08Y/usBBYI6ZbDFENSZI1p2fXRV60R0MdVHTSgck5t0FW1RpIY4SQXEYH7NAaa36D4e3W7f0a/havcs0CWKQ0nlxToeHxikLSeO+0qcvZ++QNtduy+GOAAh7+6dcBe886d9tkf4uA32GFPExuP3lHnLEbCzII+aAAYPLfh5ZVuPvRa1CK9Yw323iu32EObiQHI+hogFeTRSGi+/JEl9va/mLLzj+8mUPaY/eOHltOGBJu1qF1PcPmPXwVjikR/is2acLprO30UrlW4qd7+KtsF86AiIi+19jnHtdqqRYMwb+POvEmgKhrhix83jZ+2n2IK2UERb09LjlGpwL2YwNGRLAzKMGvTQ/RsFa6ieb/UR4pwbDAiuirYk/x8tnBdvyaY8y7shKcwI3EQpQkQnNMmYT29W58ENrv4fKEV4Tf9Vcgp/1bPrAYtUJu1lqcwUeknoPoQkjQ3qZz3a2K2BS/gwL9zcDhPVhgsLJESea1X8PYXUGXlkTACGsyrbfOWCaJISIsGXnWLqNJLjVfl83ze4kaQ52cUA5RYrtu2T9p2nIe0HlWv6tI9L6R4uvZCnvxv+YwHtBkWVSSWwhgeIoSNUlUVdhC01wfCJDsE0Jwh/tSNt8mdXwFLJWkQgkGNhqSlujZlj2yMknMTSQRM4RT5WAPkMwMwqtyE+H8cqHcoZ97oUw2TIkIcthzZN9aTCFxFoQZEnBT2YBG5f1esrMOTTDH4mETN4GzxxsdaN0IL0E9E9oHBvBaEv/HBByGSWYi5CCdE1C2I2cXm7xGIBzXrWI9qhPw5P1asUM5ylS8xrtoVDxCM7amnlU0ExEN7fQors1OOaYVpAEnRiBDIXTUISas+V4sbQ0CKF+n8XAmOWfAcSponZlxKjuCK7vXtc62ZhWi9wxeNhpCbU4w4hOQM4GevB09Xbn+eX2486IDqCpCc743exhGw5BDR7HtUsa4IMTr2kHEDjmCYtpAHVJJRzXMYVeQUdnmXnLXU1h6SYq6wvUFtVCT8kAL46n0RFq+iZYADYd7kpc14I00bJ0CukMjkFOqqNkKbHDsMQ7URu0zF9iIDC/fm2WWnGmuxqWuzd17RR6BrYA4DGik5QwoIx5ZncVMHXyneWbR9FmbstCP6rAXpXwvXa5EsFrEJHKK+SHuH3XFXs73vY1stM46MDJMJ9XEaZrGGDVBHm34S+oV75ZUcJ+PNDO8qca6Imlbq3QL2dyUchcpIhRCOMJa01c2zzCM0jowXz+exJaxtSNnNv52263+3C0Ig+z3GkYFQQG1McuyNr19Ifp4+ZycbZqdb4qO8zEERRARQIYbGqyf9nMiuSVIPeYqLpXNLK7hZbZLZAOPvbFhdLbqojY4+OhYc+SLI9lDAbzqgNwQf3TFbrX5Q/JxqXn1t7m8Fw6oufz/1oFXQhk6BcJ1kW2uFjzZxaosYwgQuomlRSYrOBk8L4mTHy4C5j6r3pMy3TdhpjjiqteqP7pApSdB6/dKbuKr3VmoXky7J+lzxY6H71LdZKTynZVqx4cl+f6trhMLplDAniNmaNcRhxeZVsKLcvVKNivlUK9QX9VWhQZRiz3XZ1zL3l3a6N3NRjlCqXsWPgZgEYV1Xk79Q+at15z14BQNsqch8kcNme9+1Q/aFTy63Y/ZHc0L+WUVp+M87xuxd/8fs6cJyq6lrtHaCLLeyNoSXYBt3q1eig6A9wj56B5QYc4tJq0Nl3NO51K78p0dIRdppX7x6g3V2Z2wtOW7/5pJ2+xTSwLe/arUtxn5tFEnfVf++1T75j4Qskwqd0ETKNuPGQC+gWuF3zcc4kvsNZHRRUf/lSJDCuery1y4mrh6B0zHlUCDoKaJNaL7FDMh2OMJAK/i/7MsjOG5lUMXO4DHs8DTXBT+aRwkR9B4VQYCK/+sOd/ujEVGomQBS9Nzcmgvq0LTyHtaXq1+dYT5EdZyDkWgi+E1ZbTJEex/FHGOMgOvKvZ7QAFQWqkBU75sr+gXMQzh8XF7/29+1+51zzzyfIz3LeKGtiYLjPJRV6tP86vNHFz3jn9MYKOC+8LibQVen+v9C6lVD9JwgQepfr82Zs+HU9RdWVOOLrzCIMhrVLif4eABliGCoisRbI32pPb212h7cgJwB4InBuAn4SxiLh2By7nogb5u31xI7UAwUwwqGE5FRFHrdP1Wqs1vuYMdBKYjKUEToE+Rq7erLkzcUJE7svwKSHi0ujzipm1sFTMoJHA2niC8IAdOzrgrV75PunHwEYTNQkQiR+sUkqZYWrpehOSaCxRIGqbY471IIJMxYDInhIBFob3yIFGY1jRBbyAx99ihRiFbMrmdStVB9y4E7FpaIzhxxcF2ave5/6S/1sSDueRQxoH7RXiHhfClnJ+yTtlevJePF2Jg1Y5A8DsEWEpfhLo85lZU8OtMYQJPRlNAhrgr+KDSE3k/dMC/YKCP5QX3NBrdaEh4Rba6LORTjECHdnjx9ValfmIwfvdI9Sh8UJm2QQsIoRZJXtvp+ahT0DpF+9xF8VI49oFcayjkV1a13R5kHhw51mTp8QX3FOFaBpAuSioEohGCFzDQ3ulXG+5JUSLClzAibdk7bo4j+Z2RbAwGSVBKWzz5xaaOtinTD2JE6kJh5kuSxraB7Yq69VCbEeaXSW0bmgstepXoLGHHH7CQ8e69/zyK76NC0hQjQHQ+RLQCbP0mcM/l+izQrEftS+9I3N9MmRok+iwHyvUNVjxRvJDNi55+UsGvet9iWLR5wAXrhEp1qLAEByWPOkESCt3FLm139rV4HE25ToQmhyH5RcfmwoEe6KIm65kGvYARBdMp8U4XUoop5l0pHeF7e2k4qq/HkXTQLGKSzEM4icxhKLrSrvlNAmjiCtA5Pe9ZnDMlYAQbxrNUR+8dLFlqht9fqkDpOwVEq1RmvdU4P+GThaKKP1guzpG9+awMTZ47SrMk6QgBJ9qiZEgOvUoNqOlTBA1OsLW216JmzKZX6zJc5wujhrwIP1OHXj+6iPv7rETEMvHq2uGqY3xj3x3lHgXR9KrpPG0Mh8cULyRyDJWU0ROxQOKE87Z5g3UzAGBYZzyI4qCFZsFXLQWL0wktwVAv1sC4iefrL+lEe7igd10ZCklvNhd7vJHl8623CByozwHie+fIOAR5+hTPFnJMo2q2juOqpjJUfscpfxd6kw87Rg0DYRorBJJEPtnQmrbsHpgl8oc0AHD79itrl58G8zuxgbYO/wG801W1sCmJO6Kti3+WA3zE25gVwiCtuPN1sES5oko07GyBCCRXIn83I0C9gjPb50RQuUNs0eyr6q02V1imwxFiIQZZ0JEa2oI+/ZqmtJi6nNh+JBIkAAJ6vfn/QhomNOZnKsXkZtXqchlrIde6LHzMdu+wlmiNeNyFvTiFzSXh4dwQvw5HBCVu9ZMI++LeH2QWn70umlUb7/DfK9rObh+2me5+2O9ZvwiZwq336mzvsteSO/spPEzZZ02ZjwC1iBWi4cJ/WkSCD99FmrSfk7eTl1SYcOAfHa02Vill76TG1dtG5Ezba1WX1rLk0uEYOe1A2noeeMK55HLHKYhC55y3njdmRh+UQNkwieZPpjqCedTGlGa3AtnuLhxf9FQ52UlDFFeRetUtQrsgU+ufgy4GGcBgDwu1i9MQYTyJEEQyrRVykX+A6kEUNnv3h8YK1JDbZ5S8fs7+7vGiXrCOncH4rWZhI0CBcwvOOiXT4mHHgnHda9HhaksKA3rvvSrv1nt0K40Fj/We3C8EPtc1/ZCc+LeThfleu61kV2rPbx599Hn993YoLqXFz/xyuZI65NP/zPCpzLfPwITgBbwGHwr/Cr0FdeuMLKer5i7b4YQ6mMugGqAEkI8SXB8h/Rtof7eg8GDNoECCV6+8ckQ8jYAtZEWF3/5gwEIjyr6bSETJ8ZG0TYvg4Ho6CMUWu1wK55xHCxozLdZ9wB5UFE+ychUBFnBWoNoHn2e0PzthdD5OyjYWqrBoxjOylZj7vJRE7YGG3hQi2G4eDkoGnkMH0DFkNWPxipORA0pLI2eH7aaFq9yrXKbOf3zZkv3sCCy0ZL/OcRkBjoZBG06TdspBnXF2j9QBFbVIvy46QStXBMf88u6le0G4xz3LLT9a5ZPQbO0dpL0QJO65oNCkNpX34LU124JJdNrJzyFoJ6yEhRZVLMp4DweAJBpKZwvI5EYY5ISCrmBwxTGICk0g1mlG914LNakDI1XjkFYnPV4bZ0fvFSM3QvjTSs0YSNvh+edBGJuJ6uaQVVSMdhRc2ZewqUbeQjSMFEA24L4eoxKztHT7EuOmjNsGw8FGGekf33Dnl4xWrIZKNtAuiNgPDUuKjOH0ilnOo0o+pkKqkCj2o/H90azftYdMgqTK5UIuk5jpgZcy++vfNtnRhrw12bSJ3OwwysJlinuMwVDGoS75vwA5b0W9Xf6LZziLIuOAhHq0l4K5nnl9/JimeYiMQVvLN0ryQbPWijahdkE+gVtreFbPOQXIZY+80rRsY0UFsXEN4isH3kPdW/TI77ww81sV8kDJNGwoxoMofOordU5k53rxZEjfZtDIutF9vHx0lKDpqaSH+CGOvS35O1VPGX4MnuOcrkGyKKXESTo0v48gT3Mn8gAil8pqESA9MLrK//dQWYnACZxDfSQh0XPal5WrC3bTaX/0F6rv+IeqUh7GYYqAEtZXUZAqzoA2Zcr5qrUjCXs06UhiY9kTGTjq6hrYzL8y15kbMwjEnVOHxR1gaCHqIlH6C5xIwz0wxt6x7fivMB6dcUYt9mi8ghblXuCmleOS/g6EyUsvdVGEaC/6JeGpFCQC7R9R3BSqXB59qLNvZL2mwJa09NoEqromoBQiGUdMj0WUeG1g/YWypLjuraAcshpAzlWqOzDyEBcYhjvCNMDbMEanMJqmTLRG9QzIMIVUojgqKAwcGkMoBOCFPG2QmIromTJZ3DDTNpW88xsYK6bUmkKKWBsURYTo9BR4wwqlIyo0Ay3aN1tsvfin8Cnxh25ZgfhRG6oT9ovbeSwnE378TSTNzh1lJVZyAv5FBPNPBrQo9BN8XY6xTKTna8T46qeUnTFZXI+kJTDR9lBTRxxRFk0Pb6QJzobHQSGo90hmKNhyyYS3jXkoIdua3BKNXxHM0zlgzwNqQY8ut0eyDaZumndXAyjAZi2JI8RKMRT3OACpiwirVOphXjEql/kuQBapWnvOMteAlP5RDqj5qn/9kjR2KecyVX92E7XnIfrO5wd7+JbO3/3OtvfoTSXvXVWn7+vXNtmmgw1JNzQSI9wZJbvOgPuu1+tBG4eASWgelxrkDO/Zt/VoTgm9wMPH8xAy+57JWu/wycDWe/rI7ngBIkBm6jeUMwo9yP3aGua323sum7IpL66wpLRyszYTwlXsN7Re+n5tjXWM0WaHcxzRL1a9QP0A8dWsrTB3gaafh4LebLJ5RVFP3k5rFkMywedduTLCqMsMcR2H0SRxt+6/osWv+ocM+9to2e/MZSfv82xbaZ97fDJUbAZ9pzHkLYx+0ShhczKj7MEhO0MLv+f/Ubv9xr3uOP8G9wbdGg7cI+Fw9z/H4H3lZzKz/UDuv3NvnOauswOLss7TTbfRc3fPqVPu1sPX5I4p6/j+qqP/TLH5J7apQnd7xIFKGHcQsgwErKs4SdkUP75i0Bx7HK4zcvYrHpJkRDXMFpDAJlpkmcnnnUAhGaEhki12s1LVxhzhvJUzMFNkhFG/OGbUCspLAzRUtGXZ4MEYz8Xr7xg+HCODLgnOAJpDL2AJUX++7hBRIhVEIPWwICLoEAssTQiOD1ElekIWxETtk+Riha5pg/rDLqk3Ypr6ifec/pzEkbndI13m6QuW0O9J+rbWqGqmAb4l27CJyKiVsWciCzg4Yws9vpQudBImRC53fftFpYWlnIVXUyPgK+8Z1Yyx7dnQgBC1CXUuTG/kzH1ltpxzZYzMDXS5vcIjQGjZZb4Vx7NWGx+2QA3L2wXfu61goH9yYmH2MRzNMdRLGKIL3aGksbL14ME3CsIlQixmVN3VC4viJPlva4o3/Z+eFd2uE16xIotJEIgQzOQwDSRYlCJ+uBbtO9VYlmFD/a8+/jmkEwRVQ+4Sw1RMSUIYU8mQAC9pl+TGZwfatBYrawj3gMlevpC16Y8QxmZBfctiWII6SyP781rw93ZcDWSPNAhlKpT4OZ7EPdkHXfKbd3vZXVbaopdPqooNISEasme8jVnbZZy6vsq9f0W6La7FN+tUQcEEKNd6T5ZvgMXbgvhHCEEHwkTA2sbEoTw/BmGfcjp9XgGDZ5KBOUbtKZAcYgbnbSNy7JMRtCqIQgenSmJx3XL0dtqoLT/ksoQokgSqhbiUMLqF/ZoiNaTF8fCFCUkPSPdtMX7bvgLgyLzIHEByIUO9ZnhOR8IzoDTwC9XsmUJrmbdk19jefHLN7OwswmWQ4AU7FpEid+NevabP3v5twIzNbLQRRi5TZdJG7OortVSRKAF6kHDFU73GYBG2wtE67ukYx8k/Z8cuSVg2xlOpoGilooThohyyts3PPIERMhjmLFwhKq2R1yGgBrCJrXip4Bc2V2tIVjYGmmjLNXIZhRGOSSNJZeVQrm3FRffG38FcrSCPB/EhGBHO2YwBY558nibAOjGEzHN+H/mYlsee6LDqUtcQgbe/DgWCUAN8jw/amcwv2/r9YSLuRzFW4OTGygv8li8E7uX48sDFcH8CUhbWZ56KkDYI54SgxSSo6J9WgK8y/ctHKrlRSOPlvwCY5KVShVA1DxziiNlfcRBX124WX0Q9waSqO0wQw4LJZEN+siNd4rD5p37p1xtZvxamIDUKxOMD4gXvBla87b7l94K2sq6ltNoHzTT6nQcZrfYyQLNlxW1R+0v7xMjIsHdgCAwNzRj/zwlFA2LJ6GPm+HRbluYleArnngGE2acRoIMQI88OxzFA07l5iST8Z1wQMRCverdXlJOOtAPBVhCCKWwOSOmXJ8HmnCXRPGJQastgksINtTLRZYQhJWnyE2K/e8aMKuNImQ6WNSC9TE8NWT1iV9Dhs1kiGumA9CTXxsuMm7eoPLrKltQrVNGU9XSNI8dmos8kNLWqw6dYFFluw2OIcVy8Ar8HrKld8CMBXPLcikmptXpwklrlwUMcwiSZN4+U7MNRmP/iF1MCse+ZZYxNhQzdVztvbXona+WOtdvSRQ9aczBICigxX0KPWxm67/JScff9TdXbZK9vZXJXtlnv7yBCkcGIwWNOsG+4tQ280Tyqy1dQ7hCKqkLomYdB9nDkog0Le8E9j5zRrcP7aIJXYBIiSOQcEHhdsRiA2Lew2E+BPbSjEuomwKrdvwTrtHa9rtdVNaZtAEqg1Ms74n3F4HZvSWlLk4XgD/JWBWdEc1a751XdwzOGfp/yRTNSfp1HP8pY/ob1VzQd/9OPPUvWL5pIWj8bBfQNwWr9VqJZy2QQu2Tk7av+U5UmxIzXTt27IIMVLov5NQGiQEojguSdVh3Y7ACHfZdQdGfL5XnA6HpICZwjE4zsy9q//idFodRuICwkLEpfdKaJYC5aM8B1tiiRSptRvI9kuW3dkK4wkRhksnJnppK1aQooesorcf/d2q08sYjGBvGUzAEKfRuqyOPqkffxt7dbeTGwlFv5OEND7r+yzzv5WK8L8lCVpYNWG6GwjCzMFUi4PjtrLz6+31YtJG0Yj5HTg7PESM2RI6bQMmRYSNfUIythpsnOUelf/VJxhOgRN6Y+SqWoYiDCJyfMYTScx6p5CwsLK534lhz/thBZrX0geXlKCxWFkkkj8jty/ZC87x+yDb2wnFAC7upkk6ZWkatC4RjlmFGFyE8mMHYY33ooVZduyC0YHj7soGTvCOUYsO2xnnjBjryNbRQICqrRGap3GXuRqGfGPunr67cGn+pB+NlgDahA5Cyg3r5fWyAZPGImnfLfUNVfUDhWRRIaFDsPu4cVdGJ2CIeu3Sy9sQvXGPAsekCTEYagy2Azddw+x6awJ0wGQOARWTLXGTBIJULkjNo7Q4pufmUwy34P20uNRLwkJAkdJ+qFUb2k8+k7cv9FOXxez004O2dknR+2VF9TaJWcn7fDlJHNPJOzRx4cJDwHjHW9xBug11UWy2iRReUfskP1rbP0jm61ne51VExxa7WhGCjvOnB93RMYuOQ3V0njGaolpeeP9efvuDTlLYpGfHSNNXduknXY09i4w/QeuStqtd23ELrHB6olhCTlEKssc9/fbK8+asWMObLRBnoki0v3OzX12671IQFJpkL6XEgfjqLFU0VDqs+d5XQuKpkNjDni5tSExlSThM0i9Jgp1dttvxzCKH7cDVqe4BBzzL4t0/KjVaVt3dArVcNkeH86izh5mDbFGUeOF4MSqoIxh7BarSDDfXtNjb39T1F5zXgtSUklpeCeES3HbxFzccNe0XXt7yTJ4Lmvdcln0CTBA+gNjF1ceVySub3hZDQF7JTWCgYSGyUwjCszfctdWUtXBCMbqMGXShgNpIc8LMlWXRkHSZSnZ1H55RY/geXrqcY0uPzNiJxidJLA6bcvaknbc4WkYp6wtqhu3w/Y1Annn7LUXTdsbzm23hx/qZUMVxvMeyTs4KlbZ1S2AeWll/Ry+OmdnH1Nlj4+UGZMqa08h3YKxjZeH7HUXNlgHm1s32CyFCGPw2NMF+/XdmJOQRcKZnajjfJQHvAYnoSk2b8lyn72WQOMLmmHcWANOm8GEbdgyYHc/MELKria3ERCR1lyHEONNIq3t3D4BPgBH8soCOCzBOmGC7MA1dXY0obPqUMNWFUeR/vWDlwp2wuE5+9u/7rATSGP45PYhW9xM5iUqrBLeZvyaGmHe8oO2clWVHXU0G2nGa3SE2KngrJHuQTv24Ck77wRczEm16bIbidFgzH9zM1JVsjIplIvUkFPM2xRmEucfn7B6tCWaJUlik8BcC/HqHkc9G4GZaqzZZa97XTUZasjtDowLbjzjPU3MtRQboB7LDA/ZmqWT9peXVtlmmNLJ0W67+ooOa0rSVjZYMfDQqoPq8Iwes+6uYZvAS75AeKQ8O9RcNmNZmN480RXKDBJUg/zTMOuEpVEMNyfBZp5EOUR7NG/ShNShYdr09IQtWBqyA5YiIcfOVuGe4iym0sy47Uv8upcdX2vnEc7mnGPDdsnpMXvTBfV21vEpsoiAO5n3K782ag9sAd+D16oZj3rw18jYJHhuF3C+wBoxPQkjodPmNs79Dz7eaw89jolNbQPzT1v4OM0H4xtDQzA1PGoLgb9LLuxgTKEfSHQVvD4KvDz6yIBteIKNcBoGXCDAZMoprYjwY3lr3t7w8mak3divITSU9FH6F0nnM1MZ++XdOBcmWqBJvE+Lilfzf7civP3nKXu++Vne+kfc+iy17HFpj0r3+LnHzfx8zhue+UjlzP8YBlD9EbxqKLRjYWWx2KUcidnoYNbOORm7FJBkH4TiC9/MQgQQp7OQtMt1ouv5g8izSmUVQ/SvZPFHLC7aShYhKMr+48YRu+2BGkukZUTPrhoApha9HsSqtSsZgFoAeWBB5YgPVUsA3McfK5EybgApTiOG6DXunhIZFo5dmyJlVcl2bR0gJ2QGoog9Cum2TliZs8+8Y4UdvG8d9YZsc/+kvfOz22zrtlbEcDGYT1CFjO/oNLgNQ98+drPbYWKSdvYprU6NoL4Jz08i0VjQHOVdsCvs0gf7M5aD6UkStNUZnmu4XAf4o67wPoXECRMe58EHh0mblbOD9qllTLRbxfif+uBp7JAVNXbm8XpfNUxyAkTUYCesrrUNu0r2hasfsXNOWeKkm1PY9ERggBDSkKu1Bm+2tJ2KTVtqYch+dduAZVGFtcWHbN2Bo/b6V0Tsry5ehPMBxADEoT5IzSdphjadcdQwJx/eZIsaUXkQCHnHaA/G1SOWIq2ZpBYaKxGDvRV1bX4JQwzCo10g1yH7m9c3IIkDwaGqCGG/JyIuW7X9VvOuhahTYeA3Dg2AKJlfiDg3MNeyl/FqZKGzAnMSxS5059MRGxoZIrMAQV6hbCI6sLmApFKk4ZULIWuqiVsrxLweFXuUrBpidB/fGrZ3XjVp3YVWCLPydqJuotMXCXbx9q6GCTjmiFbr7B2xrf05YlDCMBdG7IBVQ/aBd6wEuSIlhphvBWY/9Pl+bKkgaIwXul0XKubCU3F4Ygw7iG959IE1tmPbFhvtHyOaBDZ5EyMQ1ZK989KF/FYGk5j9en3WPv91wv5gsyRbT8GFRjdYZ8FY6pw7H5zYy/f8WQnmQZJAhTqR6sfYEN19V55sHV22kvzObfUwpUhzplCXt5Be68RjQo6BPWTRhC1JDtoqvOhXEpx9v9asHb3fECYVeXsnqqVTDsarHwlNDCIvW6rto5P23V+N2Of/bRS7rBkbKZCZB/fxGqRIjRB7OUbEpyesZrLHFqd32VteGbczTiDvNkwH7IJbP2WYzfaWmB1CrufyBN7SxHQr4vDiU2yJbPtxUbe1ngSCUnNHUH1ODCN1J57ASYcQK45MOo5jZJFJfd1M7NETDq21U46P20uOTrI+G22fBdX2s4fG7AOf3WxnnrTA2lrZ9khEiYxJMs50TZUdyn2H719vR+yXsrs3Dlnnk2TvwS527eJhe+8bwlyLw2wID3mbYwW0X8Jmsz6esaEdW62EM0IdqQTjwHlS4vPJbbb/8n57x6vb0TZgdgBekj0fuxb6UbaVrP1iTcae7NtOdIASZh8wB+ojsFmN1L5nV8w2sjF+yTENbHKktkayxbslYOqA4TxlbdLOX1djLz05aeecVmvrDm20hUQ2+Mzn1oMLc6yxdjZOcjKiLQDHwsYEc9BqpxymjEs1hCHqt0cfGsezvRs8k7O/evkSpODMDlIxWQWWwC9pfq9YkeJ4B7lvdxFkudZSdTA7fRlgpUxeXSRPaA4U0F7BnFcsqYZprbNTD4vZm1/eZicc0Gw/va3POXLtS6anHN73Yi7jwMrxxzbZccfF7LUXtJFmMWL/cTPwghPhZWfAwKOqjVRpsxFmM5VwKULPPSlp5x6VsHUHA7erS7Z2SY6MIRMkEwhZY6xsNVpLYggRLkyXYATZaMW12QUe8Z1hCKRYFf3CzpB1cc+D3Xbg2pAtawV2MSOSbl92oWKwpG6tTZZJQTdpjWgPYK+QhkrdHbd/+tZO+w9CzUSaSI0Hk9qUR91d2mKHHJQhFNpiO2p5vYv/GUbdO12Sapsgw+S9H48M2eYu1MvE8YxDAxRDo0QKzkhhu51+0KC969JlaGIQcAhMZK7kcGHIVq7ERhjt1mM7R2xYdsWiL9iBThOUP12jMDuYDLFJFnYOYcrAEnNrdAtSyl/djY0g6nXntAkzqXvcfXyraAXo95+n6G3Ps/wRtz7PGrltj0r3+PnMep7zhmc+UjkTWvNavCJexAUYckWdEFJSKYugMIhlbGLSSMam2dVf8cZJu/TMhfatm3fY567GQL+GVFgwcKxbPQHwB2wbyw8AnMY2K4wEsUy49fMP3Wlf+PByGwaBvOOTI/Y4npdSlymEhRg+LVgVIX41QfaAaleRE0I21SDRFDZOIzArRx/QDbOx3A5d0UguRyF1ifjTNkRMn00Q9ikQbys74uUgSO1Zh1BB3npb1v7tPwdtx0QTasYGG2cxTsF4KhZUNfWWxvrsbZfV2JsJQppUmxwSEQHTznj3okU3BNH70tf77bpfshib2bWCqV2cQfWErjhHB3WJx2tBKFWZLfbmC6ftslcsA1lVuz6yRQXR6355XGJfJrVpKGX33j9mH/rnQVuEBPKaTy/iXpARKnlZNO7AK3oDntWbtw3Yxu1mG7bGbRAj8re8qdFefXaT1YLYGPpK0Qi60QxOzH6raboi4/lNjPE///t2+/XN2BZWoxZHpSkJXjAnwUN6ZlbK667Kvm/Mvvz+GVu3bwuIysdUYu8fPOK+hRSlSh8DUO4ZLdgVn95q/d1L3LhPISWMSGJLUWsVoFparCSqssIQGWNOhpC/qd1W1GrM9E930TLarYFmQy4ZEurEKrvtniG76upx68wvQPKGqhUiWoVUboKIqi8/Pm8fezO79aT0QHIrMbtvZ9Z6BsesDbultUtaUQEhieD8+idz9skvbbPNQyuxEY0ztxN4DCYshrHQZa+YsjdejPSQuRLzNYGq6fEtg9aPO/vilho7EPWipG+FGWxnsZH9h693YSKwH5gXFY5oM4MO6FQwsQ7miuYjOKPjPYvOBef9KFSeYMykLtJeRsRhdGwYNR4ey4dX2flntbMBisAMi2jICSOoQW/S5g0Og/OOgXSjIjsn8i1z+tFNpIS7o9t+S8iN3gFJbxtRhyuWYh7zB4imnL1oSF7pgiY67V1vTNql69oJkQPr78TDepdaqu/gvZzh1CANvvLLSEbvQHLVUE1GGl7IenRqc+52myqNBv/TqB6jk7320TfH7OWnNbFmUWRi5kE4Xrd+nDMO79Na3dRTtmt/0Gs/ugd1a2TMrv5sh+23FOIMExBiDHqQgq7flLVHHh2y/p4U4SCqrJu4a/WNY/YJwpsctQQiyphMYQIQQaqriVIPVLSs5ByU5V3/8LWn7eYbCUmSWowN/3b70Aca7YxDMEdxfQ+eCNaBVg0qSAzPu5DMfOUnPXbtj8hyVN0Mg8cGm/lLotLMZiftsOUj9qG3dGDLCvvigIV3TmfZuIm5Y9PkFjfxWQkU/M9f67bbbgzblz6XtOMPa2bzRDpAmMdx1N5Pb0LK1pm332/tte0D1XbX+hl7GYzjZy8n9y71yvHKFw8HXtcii24cpbjwCNK3N31qyHZ2IxmNE3Ir12ufeDeMJ/nbhbMi2DlOlbPwuMpZHLUdRGP49o977Cc/qSZOZc6+/LE6O2xlvZOKhWFQhWdDVY22MTNlH7yy2x7ZCh62fvuXd9TaGcfhVJIbx5wCJhl6InWqwpC5yXcrUm1UQajA3xz2vhkMa3fgKbx5R8EefCJh9z6adRlqook6G2L9SZIqRzgpMiS1m5FqN7KDzVmLvXRdk3MucsSGHkvfLxwsSeIMDhjCMdtHq+xz3+i1m+/GwCG91JkVJbDx3T89ap/6u4W2qhXJo9YOc+eL5lybXtEj2olEbyu/PvmlHrvrHqR0aLvSsZ2ou1N2xDIcDyVYUaxHYHhubah3fIDVToDtg/86YHfeRt7ymmYn3bX8LrvqA7V25qHERYQRjcfTSAZxTMGc4yPfyNgPbkDyTyrWcZwNo2HCqzHPDtdU3iD4nSUNHAcl6EHw+7/kW7D7fEvQyOd7//O5b8/3P9c79rz/+byjcs//MAbQk31524kt0y68mh1fcTxih+4/Yl/4eKu9+6Nb7OktIGIAMI/4X4hVzJ+m3Kl/3dwLIVMXO6w0O9zBiSfs7z6yj5VRSf3TlajYapezYEHkIP1gee9tzF38KC5wmxPpxxF/TwD8U6F+O+xAs3NOarITV5HCC1VAUxoPNCaSjbsNEajzsU3spB43u3/9lK1/GgP32ibUxRBtpExe/cSiZ+HX0L8y0pt1x0btgBWEniGi/DReoiOoH8YnkZIhBVGMuCQBoWowGi/PjLqk5XfeVbbfP0TIj7oGvNsgGg6pBsjfLwCqBy1olwZCR41xQOuwvfScWjv0QFQqqGnqUB8IIWdA/lsIqPmTX2fs1vvTNg4CWnfYsH3xY8usn53uAxtKduODYbvjqUHr60MFE6pHypa0liRJymFQTl83bQcckLd+gkzLzqiEii6bgTEay+G5550gfPwo3plOW1MD4w5TkqeBkYYpu+OBkP3+AcIqoM51eS/FWT1r0dixd4UQX3hq2RY1ka4tg6SlgKoJKazCrEiSKOLWTC4feZmW49hzYjLwk+ux0Rxuxl5K3qkyAdDkAi0sUlhI3iomUOn0qG9yjHRZfXbuKSk7+/hGW9GMlICsALLZy2KP0zucs7u3mF13S689sRHiE23nedkuwYTwTugJNpHKbFO2Vc0Ze/U6swMPasQOLGYtaS7AiOTZRGzrLRPLqoCKsmi33TWJXVqzhdh9T8j9ktuqQOhVSIhCxSHbZ1GIHNhp22+fsC1FhdQGkyhVtlKKbe0u2FNb+uz6u5N2032o75GqVGGXk6etLJTZEZ30blBwAABAAElEQVSlG5yRN56K1oE/mvt2Fyp/dN073sw/y3O6EDwJE1AL8ZTNeJ6YYpHYqC1oH7G1BzbZEfvHbJ82JCi1dUhDNf/iJ4B91vrwWAF4mbLuvpJteAqV/YZqe2JnLfZxOBkw3nJgKSOtEoEOJHTKzS0duni9CCqo05HC7bOUNcP6ke/20DD2rBB22e3KVlJer1GkN9OhcWtsqLV77zV7bANSE8ZZjljyrg02GME4qF9RMQQY4E/luuyil5TtzLOakT5hFkG9UtGNETvuyU0T9uAjJdSsU7arB8kwJhr1NZvsX69cavUNVXYfm6br7szaXU+NER8OhwCkW7FQE/mgSV+JU0Z1osvOPLOW+pC8MTDjWerFAUhOIbLRStekiCUKjoO5aKhL2aPri/bAvdNWn27Cu58MFeckrb5+HFXyJA4KScJzyDYNdTgTXYWqsrYe6XqEQOPNjOsmczAmKaAcyoRfZBtajXmH4DTC5vvS03J26pExW7asASYTGMEZrIhoq6c/bL9/dNh+8psBe6obphxbs3/7SMiOZwP24LYhe/Dhkv3m9qxt7aknmwsaBzbm1TjHyJbvhCOmURljSsO8SDUp05zxHM5MUjdrnWCjmCLndpkxmEIS98vbh3lfGmm7GFucImynveUCpH6nLqDfqGEZly4cLH7xYJ9de2vWBncuIUMTdszlUWu2Hfb2Nyy2w49IAWusPxjEWx/K2TXXTaARqseeDglhod+WEJPvB+8jYxRqetmtCmew3JBCorFgbLTJ0lpx6k7Ws9/cirGegxDZDj65K2c/uG7Qfn47uLgGU4swTnSo0tUv9VXq1Qj2ytMT/Xbwmir7C+b6gBUR60AqLRtXGaFISrwFpvnO3+2yn90btx1jzTgyEqoGPg/wh2nUWE7Yhedg8hEexsabdT3JZml0nNZAK1lHUUxQGhoxSyKNXm1jmoDs0CCky9GqZYzjgL3hPOaSjUAOtTaRpVAlj8KoiellxTAP6fpa1iwpI9vi9qt72Kg8hCq6BrqFPWycTcDyxpxd8d5aO3yJbAQRwrD4Pntrj33zW9hjhvZBTk5PGDAvPhEt9+Okv3Mjxo95RY5m/1te+Ai86BnAoOvzCYwPt6AzAiEUJwBJPJKztuaI9fWwOGFopBbxSh4RNi1bh+/ct3b+snuQLZkW9TQ7lTiGtqq3lG+lVnaz2p7t9kzl0XlfnrhxgqawTh1hl31MlUPSeLXhUVqTBOE0yJsW42F2+GpTjoCk8CEY3aI4hDkMgwRlNyTHBKc2o2LBvSQi2v3JSy+bZfcG4xKFIZQDTFkEhh21vMrEUCgIcQimSdLOScQ5ddhp1LDgpeJxnp0aLjV0j+IU3CD4JDGlxkCE45MDpM4pwbCijoI5qAGx5VEVdA2Q2xbmRSn1oAzEkivYkQfFkfahrtwu4tmMXQiSJ4J/hjBwlgNNif4USjCMEHsxU3GuywFDjLcQn5s9rW/XV75onhw1hFSV31mMS6GYoW2oYrCFc2oy9ZFnPSpWZ57Zp+CM/H+GURGqPm9LpHfRY92gD+c13k6yg75JKq/6VB1IDqInFbnaxUc36naqE0+hxwRCbD5gnGGexkZR66OyTKOyrEO1qnhWWfJ2DpEhYHwcBixSD7ImWDPjVoKZUHvETkgurbpSvG+cRMEZknvWwPx0dGBEA0FwKmwkGkWE+EPYguFfie0PhJNxkaTDUxzfEXmHqoUhUkxNy2MTM4O6JvruJFdS48TRSiGPZvMRYgMh43lVId5PhMvZA/meufapiyrPFwGrFc/FAArW5GQQpf3ytpTHbR6mvIQ6SdklUrUT1giRcZ70VKjVUkKtPkQKr5ExGOYCzDOMhuBaKnPZvxapQyYLMmKXXZeIldqi4vrEJIroZGEiq3i3HFOU1UT5bl1HdTOTIBspnZpCgqhsQwlUYw3MmWBCcjZhEQ84OlBxUOCP6I9s6saIGxfBfqqpGWLLWolMxbEV490ZmTiAF1AFVtNupamrIRfs8UeGrJuN1eNP4ZhWSDmTlDjG/BI6ywtaazeK6lAbl4zarw0p8AsYuRaFESWpFZJKaasaR/KlwMayy0riSMTy4xmCDg+NwFBL8pRwqkDZTVIN40Of5RXMgfqudilmWhoYlmScCwyRH029I4YYV7EfR7PahGJb11jtGMDQDLZ60zLFoa/jjBf2pBG8n4eHh+2QtRm8+hP2xHrGFVvQaFW9heXxjTOJMiDlWaRiMLM5mGwWl/CbtNaaO20A9M+3wLdR3vNiwOqB34TwJky/QoxIitw/Mm6trWVrYNM4ST7aYcIyFckAkYjVI5Fi/RHPUvaistcdy49YQ+sEnsE4K7Au+ruxfU404kiDTRsakxhjOMmaXNQyYm99Vb2dvJbNMKYdCoKsjbG3IdQY6aM5EGw7KHHjqrmSt71U7biycT9exD8csH+9DjhNNqEBEFxpPjWXolUlNp1s8Al98H/Zew8AyY/i3r928mzOl+900ikgoYgECBAg0gMjQCYIkfEzYAMGHmBMeGCLZHgEE/8GDAaeAQO2ZaKxCY8sySSBJJRA8XR59zbvTp75f77dv9/Mb+Zm7/aSOEnTdzu/1F1dXd1dXV1dXZ0mj1WD2PGNwZOEB2CKOHfftSePdg27YOx+la/MjxLwINl0dwFf9NuLC68Eu/vZ7kQU+JOYGPBFQ/EcGCz0gG6sdmWx385i6iQ/uepHMwt5JlPgSx9SP5K20J3j7ZqI6K9xCUyhT5q2N4irMIZM6KnyIZgvprA9jNkF5y5gu7xoe7b123/dzMTMhuh39Het3JHAm/EIrzBE78N3/rpS/tOcqvMUUuBeKQCqQTf+VFQtl8Km6ShSr/PoGJe6I+2zTVB6vjDI1rCPSNTY5eo6izoKrgbU4J3QqHgK/qqBe7ngVNp8rAQDcYJOps5d4EglMWwn2NCZtXwpoU0MOIEQpcOeZQclQ27nhyvIQMxbwoY6sLvCGCWNwIfpmMGfOLjuHWK85dGJVTBtRAQYLgMIywaeLbmo+/wEEKCfHxzlLFuMTLs15RbEsV+QlauHCsKd1PtiXLLN0TmYGRhmJs2yLDhU8IkmOIiyfGf4RtWjJdAsA7bWQ93OO3DzdCRn8Pf5+6uvOsrhigLWlDWlJRKg5JiSwlMdbC0YCgMXMYAQLZiO2VK9uwEQ/MTQlI+nE/eqGJe+8Stmp8FNzoq1gy8cdpwbGffk69PRVwMmINxRXq4etUkFYUSDNpWlvFUW2anpPM4alVZh6Toc0DSYipEqnnCSoArXdu1CMN0AD8Ka/aucElIluIimBewimVujMRBdQvxV9Won1Eoa+rtyJBAGQFITGTFerhrkxbhVhrIGDxi6o4mrhAhNdBuElTJggYAE+w1u04FyJ7KPCh0RcOJyRcRAXqEPyr7M+TqkjCqTBkdtapB7pyQCiAahLuqnDNE0F5Cw7QYpcvb12kBB9S+NoPDSecSwCNd/VHd0POK7gjsayJ+dXFWIeUgokqZZO0+1iQoUAnw9bN9+FVd5elGpxKQvzuSvgt+0PHVUY2lYslWSzV1J7MyS9PVikdEbQVw8QMxhgbM+JUhI6Jf/T7ntUR/xS83gS53VxCPokwmOAdQmri4mVqKHdwYuDFwrcuV0/Q7Qaj9EJg/VO9o7BAvZtkqbHfSEoEzEgRgyRdFqg7Q91CJ4Ci6AXKkFX3XAF9ptF+1HEz3ZCztNmIhKWSQyyl5aDtML5FuQKxR44BJCRborSxkpA50Ccd15a/A+B8lPyck3joZRGiO32YtYwf8ADy4E1/eQjtX+q7SXks4kln0bngYQe51AqTOniwhQMhvIgGdKk061KYgiYdhtrAOGTmjK0wdUujgmLFl4c5WJdRfp+eR4cQHa5Jio5G67y577kB320j/ZbIvTk2gp+2zD+lEbHQd+N+6cWEWSEYjOopc7LCFfrfbwRnxedsH8UW9LiV57wWV3seIzjmIAd1q04bB9Ci9tKkumccau+sW9VAEe7M7tpiGp/WfgwbLn0woGleH6r68x1arqhv4vjanqhFCFf1NzoMOfAu3HcW4SJelHRepQArRzws63JMsR2ggGFUR+VQxpgrRKrvYHBMFQW5FCw3+mPTAJkLcEQ7NbYcIvc4NMEsUH9V6gT6jf8soFn6beEv1L/yVy729lOtIJh06Be7EAGBCFRilxQ2OoBjNnxM+9FybUuPdHPFIxM+6qYJPADEu+kXTAuNviRDN3XMglP3ArrA+UMB43KLCsgT4GROg0Gglgvo6V0nEkFkkoiTHgyRVI3HVMMhL+EXTV/xRUhgLMVxoRFUfMU3sc9c8H32kBQ1DHooMCS4KmF0d8LN/x/H3rryApP7JxeMTY/dXFEirDE+/EGGCi5C+fT87+BzuyimbEMIwEDE4OlyVhUExBEhDgIXSQqbSbgl33LQezk0CioHFK5RCrYpwEDu94L/tKgZLDbVFOjohVLoFmnHBplN7n5e/C31AA1LOWglS25qA3DghXcgN3sTwxNQ3+2vzhW5B+wQJ6k63D1S3wBPE1eShCMAlesit1S0IMGhIwyJYBBdwBpQFFGk2Pv1omtUI7US7OnIGyqj1o4qE27NoL8FTbclftBkjoLHq4kxMcPiqDD7pzfzSAErN5CTwSGmJstBH93Tfhwwe3eYEXEv6EYyO4WO6RJPVQb9f1N+1vBEr57i+oHGFwd8R3fuskp4CP2o5qQgSs48ASuFxWaFLi0pNQ9c946EIDpDLXn2joLu5H+YjOqqdG/2EA5J2njGrD37t2LXrzzwnrDMT+K5dI8PB9Jo0y0c6VEQO+06qRtoYrDglNNdzbaDKVRQCRr0H1SdmTVpgcSHOE8kQNgXS+jTj4+k4aRGPiIywE2iWVRr3aF99R0WGmrF17olQed186ifsVqdTcV0X1/cq3eKXnz4EhJv1SgpPan89B9eDjNNqpZA/eqZ2roasrCyq4St50mjC9p/3qRZyNH3Kvwwqhqz+VUDZ6YQjrTzAlt+q7g+jJy31Q0UrgUZFuFWFO0aRDl0ZbvRIbZf6pHTGXdv1Jdt6yI5UQpn6g1QeoDf7qW9CRXc4611vtqwyC0uKKZ8ahNW/YwY4938KCPf3cJXvTC4c54amfXeaz9sFPLLKUnrHeQbSi3Zxuw47cgX5OgOKUlC3Hx7GRTNj91gxAC9WIp1MBoVQujd79r3faR78ku841CMIITBRE/ErasSrL/dIUiwe6MqofwEBci6SdeN+YTCx5rz4gAc/TyvUayhfWNX2J8rrJHTFEN5VXcBwvo6MphWgCC4d++oJATB2IHyuaC/U60Du9FAxqhHyc70jVM/9r4OwcttPeRd80Jkny26hzwgsImGTj4Hs3aSHw8OpyCn6iGfpXHQEwSp+Dv1fPuHcHGqMaoX40w3CPrm25buPetyeAEolTaChQwycxjEJvfdMM79o11PYQhYNn7sxM8SsXF2wxHhij2L5wUxzt/lSnEKPVMqfLkBdiderSYfACnX9KOebko6oDukGApALpWX3IKIWvciOuYxDhew9nuV/FFzAtXUigKWNEL2fEPPFBGqcMg644vDo5sfkvTYGYjLQYYlpi4H5AFDQ4vosJQxWzdqUjAwmKgfCnGpIey9OFXbkestBwsSV8iKG4EzpEJxEkShSBdbHdDT/KtzkknEq4+V3zkxtJHBTVhasOZeNwVP5gI4TaBMUVoszLKTtUgXuK54uJeiaOxhfwEig9XQRIicRuQ2xJp/yAo8FaXzWI6kbs1rF2PopRq86d1Kb4Sq8fBT1zr7hJhAxdJTi68cfHDCJJkKbtCEfS/GFCUEaPkSu3EyREe3CVBt11xXrhWA4nUHwfl6vadUPw0td9g0gT/iE7M2hqcBepoCmwBU915OP4X+XvsVMsPoYD7L7g27zxDnGhsNMGu3aqE10EE4JL9KB0Lk+RXpzGHZFHe/YDur6qbP5PeAhPtX9NBNQvhb0w13RJX3zwHEMwnZsnXV06/1WDe0rSAnCUPgzSPKn8vsz+rTsBAoHbHYUGxo2gdGCkC2joeEvh7zRMTuqHBzghTPxDUaCea2DEYXVD6ZTGNTy1agcoxN/nIg2X07Y2Ml3mDloID1cWYMBP3COrOaJzlaVomcaqEblTKnBU7U69EJmcwIhQiqaK3Igr0wjRUkKp32QltLVfNosZ0eIsO2KfVLS/wGdjP1rU//uvO+wtn2UFZGw9vmjNJjBHqExRxt3aMMhqCy6wBph0jfXssQvO3GMve85mlpAByDggzR01bkPpAU6RgT+Dnybywl016qjGRNt7E4BWtD3m1b4J8l11romFtMfqH77/qk34NuyugPH8jloVadxX/+Md56tVkydtToK9a19qK0RWXHdUJe9d9UTSBhC4+PxEf2GseMKsC9pL0+x6Fe/yaH8V07d9lUXfFLjvkps0ISeTHrV4/4WbTjgKFIj24qMA/m4ASYNUUDMJC6Pm5N8idATtRxfH5/SFB58s+BhJy20QAghiXC6xW/fgWyOXMOY+VzrNPsFlqO6lWbROECHQKcSggokSDFrp9CXIOyib8lfXVLmikCUr6Yve6a9ZG8OboOMKnBhEPfC+QaEgr8bH+l27G+EhgcVlLT2JMnYcAewEirIpyIYyzQiiT27AEDpCpB5COoYvgm+iiQu+rI4h8az8lJULLh/d+TRilj5E4QevIl9CNiO6hLBWNoNswHVV5GB6CkiojQb3XMcHFqcEtAdX2np9hmXTvDtk1gFG9bQBjiGiYKxblys/wsi154Ab61mw3HJnCIpnF8jX5eMfHCE13PslKaVUAv2pdv1tAEJP+w9hmaKx2rR/wWtHa38+rU/saQsORBbYBq3BXu+I5jbdKLoeCG6C5G+D1qA4Lmbwtv3FlZNPrsQBbN9/AsBKxq2LJ1y4i7ZfVxsuqmJE0iidCz6HRhlUc0x2+JUw775SSAfXR3XvajADRBCXW5oKVt/Rkq+CfhvwdK/03gjBD5b1WLoJgsdNv+GGHW8cEH7WlxB/XX1evlqDNuii0oYQoJSfhNVwcPbtn3hRxPiqcrqC6qrgAfpblc5lCTTUca4ONAv2JdwHlkvOjwTSAwdFCnmI8nGY8I4rApQru+tE4Xu1LdKAkK9ffdT6Ce2Vvqj2qb6j4GIgeCXQnnfnd9i7XoYvzwvX8SVmX/jZlL3hizM2su4EnLf7zWEyP3C2gAiHPdRrkklylVWdueqIffb/Tdm1s1vt8jfjKNqNA1I0cNDA4gRuidCQUe+lSD+SgIYxDWhKQPbl07JpGNwKS7C0G6V1+L35Skld0kZ6V9OuTlQaffe8wNdvEI+LF66boS335OvY911R3rcJgEALl5/LQ9+DjKUiYFLkg6gevvd3B5P3cjh13jdToHUUbv56L3g6/EbTaISHTI4I81NTjmmJM2jcTvMXAI705+BNc94hywrxULcMhRrH04J+Gn5vvkZgecmRz/tN0Jy8/hRNE45k+hi+rw8JfkLPF+UcflXMsOz+fn+/jk2052dNAJse9gfwbv5GySNMvJ456HqMI3VS/9h604gT3tXbSUuxw++C0NxW/NBWH8hI57+3AIgw3FYsjt5zFGufS3P5hOO+cUJ8WksQvl/J1af1sA/cf1YC8cBxXGn42bdEWnb0QryLw30MNY7wUlyPKzdNYV8o+0JuF6cJSMvDcvF5X2/L7bFpAbSfx0YegWwbxG2830/ig/i0DLx90NeL6EufTm/EulVsvZGtboYVg+LSLvuzF7KznyP9FnFen2Cn+Ve+uQOH0puYgGH3JwwRPGXioSAR0pmdsNysHbY1tIcjq4ftVnY+T0yWbD1OwTUVZJHZbt/Ksm8Ke07qXnKRF8N8/uiOPTIO6v5+PP77i+G/tcSjoOGb8HpgGAeK0QaSE/yi9I7CcD0x+qJzfxQpcK8XANs0v6NIzpWB9jj5DhBWgJ7CeevKoHimsNK4zfGW63zNsQ7tqUHxxt2hQVo+1XKQj1S5loMfYnSk8pEWbt8Q6kL2/eLfHAg7aXpa4+hZDs8V2sNXjCNXLpfRIf8cCh7HEv6HVvDWUrfWoaC2ay96r7QHyz+U7uBCVCt0cCkbsZvrqV152rfPBoTmuyiVWinYHLP90/7TyxrOTUjQ/GkJNM8ZmqedWLKn4UpJ5x/3IPzdzvGME9vZuYsfwhI7id3GDWdbKNj8aZWHpVlpH2XHp3Xb+fluzh/mMAKWwCX2p9kQc/3Ogn3/Op7YDe6c7qMpk4DcqNcQ10MpZ/vSH9rbEI/W1Ecar+Xyac33GH0W+keaJGFRjxDsjrgdErRz7VCgQ4EOBToU6FCghQLSlsv+UR4HutiscfqJuBlCG1fhKDqFhcUcHg9wrcJo6raqMAHTUr5MdWV36f4QJBEh0exxljFmRTFO6BlZVcYna9rtcJeg+E38Ee7K4zpFZonkpw0rXoIIry67Y+wnxO1oSDpR2NxrAtv6dzDUaE2rZxda4B4MzP3EddOleh77iXgwn4IyHMjGeaUgOwLgSinVidehQIcCHQp0KHBUKOA0XayYuo164bh8FHJqXnJeaQZSt2hTBtaPbGgYwqk2Dq74k90e/j657WfPAgu9VsT/oSRBLd/W/xRdO2vZUVzFfUsiptNDpuzhnFGcRfOXxA7ytp0Ldvm3Zi071IdnArlP8do/wRfOh4a3Ui8fjpQQsXwOh//FlR0wocLrSDcNwfMbZg4f1xCCx1m28npDDkdICJQZgYcYXt3jYf2008AfFsC7PbEMNFrCMSfVtsGxBWXXwJvttlpjtH8+lDTtId0b3vq2sG+L8AzkyNGqXQ5Hjn6H236XxS5oh8vDXzblkStcC6T2NrqHisehpmtB6p76GAw00jj5IaJREFFGuzpbQ7gxpPV9/blp8GqFqlj7wmzYCtahNN80JQFXwDrIwXt3CbLyg2iYvCmhfxlFqf45+tJH0yCvzTSKEjWQaIYf5NNCJ2+L54HX2AVdKHIogI3jQxBH+tj5bV49aJs377Wbrt1pyTHO153LW7c2t0TQkLAln31yw1fBP96W3r126UPXITAWeJ+y9/7jDOfyrmOnMGKk/AKCpXzluc01ICAXKWFVOMEyQPXAtI4gAdZ6ktsf4aNl6dAaWKWr06Kl/GFW9WuIiHuh+vMbZeTEXTSWo/Fws1Ydpotbr6A6qCb863A9noBykq/sIeUOSt4AnNsqESAMkdvwVXuY+hqlhZ5pCeSpPx8CYPXn4HV4WQFdHM6AqWICUHK+XRH85VdSW2tCvA8EJ8xPV2CJvg4uEwz5BZbfSE0m3AaqwJ5fbToEH01+oPt7vgDYpoTt2kSbaMfcq0PB+1DSHHMFv5sQuqfQ6mjjebThH0x1Hku4HAzex3JcN26uEMFjgf6hQBMOYH6wW2EBVhBNZZTTdIl/8pXn5ICg4Bo4DxSUkjP/pN/DCDNh13Myi05z1rnLOt5T4WUvWGW/fduttmPPKk4PYWd2DC0eA30gGqEdxFEzMLIlRIGlO+2yvxi3M9dw9BzCzbs/cav9+L+7LcUZvVMcMZrCT54cZ8dxFK9QwiG09+kngc1jHNLKRVjRj28VEsiSOIyWjCOn2hIunJRR/10RsCCShykvDNo5nM3ipAZ3PXkEXO9iTNFE3wPTOADYdJEYiBjsTslKu9OXdPITG2kQkkO85W/w4OELb7/lKo4jcHdikJxuO2NLwdMf4WAENZ/CCWHy15HB+XdPd9Y5615YlNMt0VzCILSICpgHzEO4ChXKjN9EuVEaHdY2I50OxWTB1aGHWW8TB4TpQLqf+OiZb7ms8di561CgQ4EOBToUuCdSIOT74TVaBg3BGqRbQ7t3TXH2TcIApgEn+GuKHD60SxR+49rms7QjOlfYOaf3Y14kQXjbJmEUWJvPbimVOCmdxsFpIk44EQrBaOkG5BB8/bovILmTKePjNJPuth3bzE7YXLHTNnRz3jdHnOHDb/VQ1h54Vp9NbZ/gXOGqLS0iuOG5vcQxjWWO8FC8RClvJ/XN2utelLbHPGrUchgJvutTt9jXvlWxntGNNlvGfQy7jCX4dIPr8CDnhnNweF5nC6MNlMZHoZn0++JaL4aL3HhSOmnTxkZTHOfHmevsRxFc0SIgRxB55TB9AiqMsoyNpW0tp5/MLVBmaakcUMEK4YXXBk6Nb5FowWd34g07r4cGM7Z6XCdKIfQs4ZoH2L7+vEawCYZLG8knchvNVfdyVbZ+fZKz1TO0C+rM2XGG60RKuJ/ErcD07KJLqK7a6EjaTtoid0Jxm5zy59lLKxq2u0byA+TBZycIc61Ui5bhVKBTT+mzcY61ndjLlATBVacUESlShweA2ch82U1lkSid2w4FOhToUKBDgQ4FAgo0qehWPtishH5es7OSmCuNoyU+CTgeTwmYOn1FA6YG7GhRmoWgAH6grUF3SFwESBLUUt324X+ctU1jCTtzEw7qy5yExKHZJ65L2HvftMauuGbRrr2uwO7gacvnCpxL3WOrOFP35OMrduH5KVs1MGBXs3P4bZ/cazdf02fZsW6b4lg3DkEmDzaWyP8grsLkRUZ6KifQg1yo9XLysfsJZI6VkkKwhD9pw3LrdCLklUMM0nDK1k0+C9F7IfAimznSCrMAxUOCrdoSXLlJU70IX9mHumMyQTgRkztu5aWPPgvFW1lQAmlScdWDQKw/CbBapvUUDQBFNXUC3G5mpfdNweMrWiwyCdDZ26K5lq9FK2UlPFeMKrCltQUKd4JNe8NTkFbv3dGpwJZWUHAPJXSd/HymKJ3QoUCHAh0KdChwj6WAmHglGLB0bWXqGnDa2fs1O49vU/ymQbAVquK3GcoONFC2wHRCCWBCbaQb7IKsmjV0B8irDrcZTycAMmBKiJD2SF9DgdAvIbaUO4p/BCa6Mmz2WAUGVjaXsPHULfbiZw/a4x85ZoMZd75JQA2PZwmhUWKFHK6rRnQ/kZu2L/xw0b7872bbpsasZzBpi6UlnEF7gUYHp+iQUJ3s4oQG8pPNl4Q0neEjessBfCjstJ5v3VISIqq0CroKCwkjOn0Fgc1JDSIMmAFTgoYL0fIHr5oudZh6q9rysFJoL3XSSLEkf4VhvgIaAg6vEWjRvOpwfVp3TCLwUyyza5m2jFBV4Cx2BW+/CG0jS8Bhjk2CWh2mUoUxhLFQ1JKqhCrOgHY+G6X981q6Npg6OgnKsoG8BLfCJh5WlmUt4GihIzaT2ItKI+yowU8dfrT87QALJkBF5SoaQJ0b3p1J8y5m8ws6Gwt7S6cZliAeADgQzEg+HQEwQozObYcCHQp0KHBPokBjSGOQCAa7w90EEo4jjg5tB9AohZpi+w8HGoAiMJ3wR6q6vBCCDsBK5AlDKLSFz+4azasON6SKjxnCdto0hB5pvcIQCp16DoWqVgEihCbRUfdamsxwfFsae74KLmA2b5my887usgfef51tXttlfX0s1SWkpfJC7Rxx7todsyt+mbPvXV2yX96atv5sHwo/joiTW0AG8Dj2hO4MN+wE/aYEry0SYZSnyu5w5cEJtCF9ouVXIVpDhCaC5DVFYYkCIMBw/4JH3e83NMFU3XkcdQqR7pZP3wZuFP8ArmAIQwdXsPlT0DF3IebuBT++KoGrMoTg28D08X1qB5sXOlFFuKJD46mhBtU7/VOow9RDFK6eWwLUdfgJJ5WgjM2eh4LoLtoE6V39BWnDfFpA1R91LJ+ng2CiXuW5yrGCmlbEpPoLYQrjoPwHglkHzk1HAIxSo3PfoUCHAh0K3IMoED1K70ihreEwGEuOFMhl4WhZbyVBg1tEbltJknocCT2BDFF/13qzHHwJC25vgEvgBQhHHQZejb0ZVD05jPEX8iW0PiUbSJdt/XgVjSAFQ/NTYefvwlLepuaStndpxGLpCgd9JK1Qlh9BtgZIe1Mntm404IfY+efwqXGtJ+B4ucbb/d0JpgRXHxpwQ6FBSISgGu/2B9F/k6AThgaE8M2hXZ3tXwOsE3gFKRQEhd8+OFIZ+7xbJvsQZwlkDmZAjjC9u6pyCeG7ZUC1vPZIO/xbvvjHgMIBbL1zR3i3jetfuv7hBOMGQTxOAe5E83RvUH9ZnCP5hlneK3cBh4XrXDsU6FCgQ4EOBToUODIU8AO4l6MQI7AbyyP4pdmUme3Wmc1a/ozbLTsTCH5saAlGYtltJVi6Sw8W0d7EbIk0WuLVsqZgNYZuYRkICXWEW5/rHw7hJgrL3+t3WYFhBTk0476CBCuKEsXTC++OTiE9hXMrnH1etEZoPEdxdouygWzVNMFYKbyoUFVPw01DXmtk3O4umr7ddwFycerAvRZX7Sagh+wBm8IBYTZidwTABi06dx0KdCjQoUCHAncjBZoG3aOUr4bOwxFyWtEKYXWxWUOhiIqxiik9VlhOTVnLcM8OU9nzKcifX4mNJ10FhD7eyU4uXNYLB3Ef0/+G8KPvDvdeMFvlBME8GnkdNq7t8ApoeSRxXo4mRwX/JqCRwjS93/fBTyLaSJOtIA5C6Ivm0hEAo9To3Hco0KFAhwIdCtxtFLg7BJCjmYfsyCTE+l2e0gKy7BtIfhIJJejJibMGcrfhQAodr0K822gcZnQ06RDmcSSudyeeRyOvA8JsI88tRzcn57UKe8tFPoT3HQHwEIjWSdKhQIcCHQp0KNChgCjgxnMEP7/9QTtTpQH0K3eyM5MJlzPjCuN2yNahwDFCgY4AeIxURAeNDgU6FOhQ4GApcEA3LgcLsBO/iQJSvtQHyVCK8yKfi1eWE94geEWNV++4qFFNj1MLrUyVs+wmHEmVnXDsUuBo1c/Rggsl62372KVqB7MOBToU6FCgQ4EOBY4VCnQEsWOlJjp4HB4F7lMCYHRCFpKt05VDSnSuHQrcOykQ9vt9+jov3I5AbLIUZ9l4+yFLmCYaZZ98oh/b3LfCWC59azyBWi5um2w6r44CBe5TA+hRoF8H5B+WAsdm+62r2luI004V2iau9ma1Y5bt3iXqLyOstA1Mh0m7/FtQ7DzezRRYrq7aodGpv3ZUufe9C9tEUN9463BBfd3dsxwXg0lod2YXRyxUtTynkwbgGtop2e7EjOWI5O39QybiHUxwuED7EOIV+SobsYpbHlQin1D5R7iRi60v/qSP5i+JtpwuksGBbu/rfaJNnXi3GwciXOd7hwL3fAocmwLgsnR1XnvqLE+sMMpro6wx+j4EF/0evhMDb427rA1GmKhz7VCgQ4F7AAV8z/ZHaCHwgXHNeQWWR32M9XHHMYgj3hwuOhY4vmkfqetgSyi3IGS5r/jmAYV8JsqHvHAauhqOfmmfubYaKOhXscOU4TtdxdTbQQrzV5xO6FCgQ4EOBY4tAbA+G4uyKs/KNDMXY/Xb6kP2xozdzWD9Eo4YvIKbUHMNd9v7r3qhdCFs7t1/oOq1/txP47gcvYrEdtv9Fasp3Ndn0E3EuJse6u1E+YU1tIK8XR23xOvUXwtB7sGP9XYRtAl8sUnAqpZT7lTWWgxnvKgB+zhIvopPtsJ82eZLu6yc7DHr7oM9FGlN0sj59J7nROgRtBXBbN/qgt2fwCArHwJY4l3hO3d6qoOB9lE5gqc7jorzPcWDvFAYyZdb4eXydXCDhhxcwpiC7yEQO8xf1yCejpXaJ7TAcN/v7X2iiQ4rpIkIc2+nyz6No/Pi3k6BY0sAbENtna8nDlZEmquyXCN/S03BMTg/L/Yn8amfekasmPLC7pgiUp6exUhDCErqDpwmC5QAfGRJSJoBEujUQU7qcc+djg9t7gEhFPwdqtSd6rcT7hsUcH25XlQdkS6ukWSpt2rJVNlSMU5n4Bz5Sg5tX26v9WWm7cyTUvakx/TYldeX7Ss/XrSewZSVcOiLYrA+eayDjNxoQunbFr8SJhAM3HOFg9l5Lrnv4kE+lpKK54QnQ3g+5d4gFMZZiiY90luX1qUbSYIcwxfAQ3sp9geXqucfTnIVWfxKgeNlG5NV4Iq36RzZpMPCRan/hLyw/uI+dwPdI/UUntfqa+w+R4xOge9jFDjmBUAtcbhZMlJZLJG0fClkvqopGD3CmoQ6zxHFAfkOQ67CLJ3DTQmNcMYY19C2RkxTaVy6ZNLiqZilNWKQUwW7oErZs+gYjEGMMxQsFaMTjlUKYMOlEVBNgOagwVZH5PyhnK4eq1S6L+DltH60A/X3VC1txblFfLMtWR/9fO3aOTvr/iV77CPX2Jb13baas1y3z04QN4fQmEZ40kxQU0YFNab9hZDvxEiLgMUxD1phlk1hnrQyL/Hz1aBRqmESnNDGqxRxEvClNAe6lkiYg9nF6kKg4oZ/uqtYNsUB8+Uk79Fgkt5BCwwOJWwKc70TXxO8qpvBEpujyjShLZVwWsz3aDjmB4Aoskf4XrSSMK0zef2YgB4WW1B3OkdI3yOcZwdchwLHEgXuEf0/gRavXChYeWHeBrthgBXsdei4mtnWyurGEtMkGIrRwviTS5zNqJl/wrqzGZgzTJaOnUnCBrH1qbo/zZTjNjFdsdkF7IBycElYciKRsN7uOGc3dtlSsYJQISHTaw3dwEJO0XCPIGAU4XvRvWpbf07bw6HrqXRjeKuWK1ai7rqoOw2MYbx7UfE7RWmhgOpYfVSTxgr2eFmphMvTtmXzXnvUg+J27uk9dtrmjTZG31YvXiqgDWRxeM8UKSsDKPOStJNgWdZxlEDIasmn8Sghr4rNHYJDOWbVuQXr78s5AbC7mrQyDKpUBrZbOpRgQUruYwhtEhZduq68LcwmrJoYtnQvKx3OFhFx0qVRTlo61gQ2bQuTc/Czaeth0qrvZUqay6lta6ZDTCdZwsXgc3EYk1p+HBvHhcWyFcppS2e7hQAfhMjBBVLVl8ajKQ/XD2E5on0L4YYT9fD5YK9awhe+7YJq3snMkKAKvUSjLKy/yokecYhWoE2UUQAkoHFNK0L880F0awexzbt63bX5tpJXbWjikh0NuEcD5nJlXGley5W/HdyVwlTaA8E9GFjtcAnfLZfP4cJvB/cwYR6z8ov6miawTNBtacnswScv2gde1UN37baFJdnq0EnjcVtaFNV95/QaH8x5sj0wwLIlSTzQm4UJVi0F8fyOOc5oJG0e9lkodjnhb3K6ZnsnK3bdDXN29W+X7Pc7Rmxyttu6+1MwzS7L5YvwTC3vKCuxFncTXLl0wh+EAmEtJNB2xOJJ2zNLzaLBFdse7UlbX6Jii0wWqq5hNGrtD4JsJ9OjTgG1Bw3uJYR+Fgqw9Ysh5FXsTy9da08/p4eBvcAEr4t+Dz+gbaRiZSYPWSuy7Ft2dniaKhxc0JSjq1a27p699p6/XmUnb0jZ3GQBPpGiTUr4knbJt1TFlRlLdw9CHfflWtHS2B6Wu3rtf394wn7zu6wluzNWLvEdZlMTw4EJio9VZ6bsdc+I29OfPmzbJ2bIs5+Ny1UEQLgaEm9FfEltn0sPcl53GkEHnpdNpGxgoMs++dW99qHLU9bfn2RiK94JfOLe24Mor1AvKjchH5dwnKdupqYL0AKhOV6hbtgy5JbNlSIQ2h2Ezs+9kwJhywhbyr2zlMuV6pgVAD3CVAocLc7y78xs1a670eyUU5N2yjrpfPTnO2lr4WqGwGa97ut8Lm9zGMVoZldkVBCLT6eqNjSUscFUxoaHu2zzMHBOqNnjHzRoS6U5+/ktSfvmT+P2o59us90TvdYz3IsN4hLCBTZFMRZuYBqaOeowcDEOL1o0sLhvNqVG+e+uOw12qos0w2myuMue9rBR27wpYdNzMfvFz3baxJ6MpXv60eKCEcyeuX1jIAiQVO11wj2XAiH71jW810Q5yapBiYrvTo7aJz47ZTdeP2vPv2iNbRqqOO1bFzaBhs2ewuz8opVjaSaG0gA2h9bn5q/KEy0Sk8N8PmtXXV22wZ4+O3ltr/UihKIfhE/syx9CviXTkptnzH59PasQ83A0NFDIhxF24oxUYIESAjN2+9YFu2Vrwk5an7FVmV6gey7YipOeBUbLvlPwvVtum7dtty8AY8jzU0lAFGwlfCosv67hveCHod27A8GNpone7w+mvq0UrmCGcLUMr6A2Ie2wlAA1NLNx6qy0OGNreqp26ZNHEJKLtmciZlf9dNJma31WjPW41aIaEwNEaSAI4oEwUE5HKoQlCOEdibwbMBulORJwQxyhEoCdgN14dUTuGvgeCXAROrgO5/uwh3yk6KGJX5QWRwKuuI2ncUiFhob60Fpn18nPZ/r7hwzqmSsI88yKZ9i1d/zIpJ23YckufcJau/B8OilCnWecwIHXYuZiXcmC/fC/C/ZvX99puxAcF0q9VoDZV6oIb10lyyQWbe1Iwk5cP2jn3b/LLnhwj/Wna7aQL1sWRit7QJH6tt15+9Q3ZuzL34F5ZMZYWkF7iDDZxczeLw+EiDdX7uEuYYRQO9cWCkTaihp+Scu+aP6y+Sl7y0u67OILxxD2Kmg3YrZ7JmevfPsuuxZtbiXbjzCAUBCTeXxze2srADqNTUvencdjkgLOAiSo1XD3rhBVU5GHgDizhAyawD178/bYR8zaJ1+3xpIlBIAkC6hlzEPQCD7nbdvtv34zYEMjSbSD2gSidPsWN2w5Eu3qgUmgBK0EksbMTMm6uxO2ef20veCJMXvOheNo89BOs+tYQkcXeBRhILFU3H71+z32hX+ZsV/dvM7uYgk605ewRIZlXfB1NmhO2JAWj5zgaTl2puycX7JRHs4eXWQ5e8H+9JLj4GMpmy+y2tGFLbPsB0mXYAReYBnzo/+y2773iyXbuh2zmdiw9fQmgN+q1WrmXfVyBTcytlFQiaP0dS/5abcEfCD+F12iXekSsLAU3OVCFL8ofIYNF9TP3R8kYs+3w7s7dZN99nUn2Ekn9aIdLqEdTtrvr9tjL3jfHbbbziEObYSd4YkumQcph+Xz52MkLBNvP/i7xHX+prz0Fw2C2QbuIcAMBTSvAW4Dd8UwhV8Dz2a4UdzD+wPg31T+MI2/Lg97pTAFJ8Q1pK/6WviOXhwqcw5U/mbUGk91WFG45OqyaENnh1Ib/BsQPSNzzx5np+mnHE4UrGL65la3fJ9mzunDQeAfHz3zLZcFyf4wlxDpZXIXA9JScCZetPHelHXlhm3PjgH7wQ9utY2ba3bKcQNu0E+iJZRNYBqG/uutFXvZZXfAWNfYztyozVYGWW7pw9g3jc1glo0kg7Z3us9uvMXspz8r25U/n7FKctrO2NLDDDFpJZaGFUZ6a3bhAwbttFMydvN1c2ghaywvw8TRLMREeBf2LYAsEvd9G0TvXA6dAgFRNUBq93Y6lbTp+Wl73IPn7dXPWo9pADqcZNzmFio2OpC24TUp+/YVS5bHFrRI/AzpBCL61x6ZTu21p8ux97Y+sAf1Gj6HNQgrhknCF3pjNjWxyx7PpHG0PwtTLsP8E07YuvyHC/b7iaxls0zsNIEkvlyqtAbBDuHWv/FCmmgNUP0D8Cf40BK85TdX7rILH9RnYyPwHIAmeC/mnU7WEPqK9vq37LZtuzZZkSXaniG000w6S3JMDRwvACo3CS1urYE7Vi16M9abyFghl7Frrs7Ztq0le8KF/SzzxtzSdgqepE1sGZ6//M3d9qFPllF8b7YsWslM1oz5LQOH504NIdNls+xPVA5uN64IWms4EP+LwpFWrjW0S69o7fKKphVcxYvC1EAZDvJKX2WCmI2nbXF+rz3/2Rl70oNHbWI+Z5lM2qYXS7ZhQ7/txA7zh78sQO8hyzMhiKEtdu2oPsBHc1WO+ouG1ufw23Lvg++Rz74d+HYlswE1jPajSiRRmE30GvksTbJQ1UWbJOUhw4dIJPei9TkKkPs2n/VKNKpSCcK9fWj3IfIuchumV5+ROQTN2gfFCfpb40XwrX6JAIrc1j+7G4AASDRxwhTCX6NPLJuoGUTrU1MyYIOzcvH00MemCEHqdu8igCOfHZ5A1KpCnLqLoejQZ7ciyU2D7pFEEVDtbsMW0O7bMfFOjVWhDIeck9F2fMkSo1VbSozYf17FugmhFvT4ctBKfnnzlM3Hui053G9Laez9MiWbTczYQoq/5ILlUkVjxcaqLAPnBwbshl2r7F0fydjr/3YKZlCxdJodgczsUfshDObtcaeX7VPv7LWzT5yw2kwZJpx1G0kaHUhYiOjhn57/gEGMqt3fHxClI5+1ykgHqBVs0/HddIs82ltsvGjRg70s71jOxjdyj/1TqbzIwMy+TNeWgga1P4Ta0a4t898fkPvwt2OAfq4n8iNtWAltmHbPaqPX5NSCq5hqxQt/eqjCqSUkqH1oshnynGgNCp40UF67FenngTRTJtECLmbyeTYT9JFX17BdfRPru4SKs0FgQwjaP9kf//t/zthU6Tj4T9bmEA5n2f5bQlPYYOAumfsRXFm1aijJ5xdsvroXHjhngxs32VU3Zezqa6bhVSqjN29QOfLEvvI3E5YdB49sjmXgos0xqa0hIApdsUstH+vvWAoagN0gLPKuJKjOiBf2aJVLCoPw2XuB4Am4cQZLN2Byr93RSfxBHrdRukB4BBsFk/D7/ow3CbjfSQOWzrBAD9nF47XaI1gSFrzA4JI5XFPsLM9kZD945IZSUEQzHbeenqRl0hI+fZs8HI8GgiFBUvQdGkzb2GjaTUp8SQ7/V/D7++K2hjanSfjhBo+vfmWyFbe1q1I2PMQES/VHPRyJIFirxjO2fm0WxY42/RwJqGozXawEJO34TZiYDSbcxE4t9XDAS+EkoV20OOG4jG05Xjh7k5FQFyX8D7YMR67VHhna7QMFWkJQZn90RDboQsQEzlu7bD7RY7tK2tUGkw90n+EMKYatXqWYZbkWWRmO10WHr7HDD1NtVPrdGIinLM+S8AKr30sw5yKdvXdsrf3g6m77s7dvs9sn5TeB5RiYQiaVdoPH+oGMveeNm+1+G/fiVmKBWSQNRgKnkOuEu5kCqk8GNAbuErsb52bjzImSaGbF/rW7U9ZcaasuJWwxx47uGNK+ep+rqk59OSLdR35C/qGl3nyeCV3JD05qP5okyQ6vMaBodn3wQTNy8ac0sw9MTW2JjUdLTEyWJE0SanqpWTvctkAOc0tsXmO3ymRpmvxLpIsjQEj4kRZCLFlY+LQef3E2CTEM2rEB3MV02y40WZNEm2RCqrhdCJJKKVaoN4XyMCYtQ8RlkJBtISi4IYjvghz+cXtMBA2aYV3tHyFPlzCOKKW0oplqT9XqQyOeg61lfbeezjXBhKCKe6Bc2kVdxNuDFvIX2RyjMA1hy6UMpj7iM2hR5aORtuJcSwlPFwsakoU2FfUy2Av2wQ6+AZimi7TJ+hMwrWol2NGt/NyrppgH9+BgkkS0kJeLAUwOYkcIZ5FftNfq2OCAhOGQQgeHY1NsCuzqkp8M3h3Wro4hTKmfiTSihqdJU5qDfuiyEQS0cUw/MuAe1p+HftDA6glCGm/aELOR4aTbrCqKSICTyBDmU09wgBtpEt0klj6vOls93mUD/b6vh41DdRD+HQBc0+djUgAMG3u0IkQ0MTD5u8JUA18HCduL7YsLLe1Ndi6ofBwzZlEHponNj6NUENF1Zjo0TFGOpSuspU8sMm8e67Vf7dhkL3vn7+yOWTaSwLFVYQmWaYqVgq3Ftczb37Da1o3NWqyE0TgdVI2xJfsmAncejjwF1BZUb1qK78kO2o+vKtltk9hfZbXxh52P7Jqkdu3yb89bbjGODRi2XhXNHqMt6sjj1YF4DFOAqncTAfhCc1CboA8zjVY/1i5i/a0sRHu+v3dNDFiVGqsEkroI4hACGWPjgYTNudwCS77g0dVPm2Sy6XiI0rf+KXUQGAi7WAWRm2lj93IFLcsS8RfzYuFq7T4oJ92Xa9j7IehYLIemj13O/DVElyDyMXQ58KBOWbrg945EUBNCq0SIZ5z0gmarhgdHhO6y1HYuki+calX1GWNMcJ+UhhG1ilud//he3mlB+zNqEzUbwn6zWMjb9344hWuYQQbdPHzGTRHcdw/R/6o+pVErsio1j5udIkKkBuDDDSqVNNLyTZgHtmxIwf5wwZJecDyCs/NV24PXi8VF7X6GioeNN2Mok++p6TKbJuVv0msaDwtp4eRQrkHfit12R8V27cGjA+8kYGlpuDFxO/icNGmTYLVtZxkb2bJNY7+rXffBIuLBAwxSCGVtPpuZK9tNt1Rt67aiE/zUKg85QAu1izh7DxZpa7+/rcLGLuoPkyeRSTSBHIcUWrnhIQE5rESNKVsDjOvcjUfXEugDrqGyiaOMwCbmmoDJtQvy/1aRQaebFUM44jofWS4vP9OEm0I8yKea0QwPVf7sfA3Just+s22Dve3vF+3jb2KGCHVjsQp2NSnLFUt28ni3vf753fbyD9yOr4WNVsrncTHj1cdhRwp3nkVxU0WtfGCJpjyI+7qAs0xrEBKtoR39W+McK88Brm7pyjV6ZrPppO2dydgr3n2Dvei5W/DzFrNd+S776jcX7bvfxjlvT4bd32z8YeDXcpoP4RWhwHGZFRbwnk6/FRbzkKP9AdufqqbdhgQp4dygQV+vdRW41+wRXuI2TAT8Q81BAgJxqjL+a6nnsN+227DAQrKD539Ir3xoZ3Ir4xyTKy/3UdwGPTV8p9QFX+GKO2fuJcQ4DudBLPPrndILUYRLWm2WQqlcJacxlJjjyyLli+DJ5rVEHpr4VhCclLvyCoPuVK5gCh2+Xvaq+O3o2y5Bu80i7eLpXRPMtmvSvj40AMrvoSil01N0vvMidI5RxlWsxuQlNEHPAjxfaiJvFuQ4vOPxWi1Q2gRttEChu/sy9otrCvby995lL7lk1Eb6c3gNSNsn/y1vv/n9iGXZFKiNY16zp7QaU7i0BE1C5WbAsZaAvNJSBbdB7OCp3j9agPCo9NIQuYTUqQQRmRP44NMre2cTR6R6Ve4HZpCYdqKUSsMEhMFpAVtHvXPL22p/5CtKCW8XVgAziMklEJrgrzlW1PLFYgMO3w4Y2uTlVneUMOD38qW5F023NOiuKNQ9VelCWCeix8rxV18HcxLNYy9eUfmFR7AJpCFYMnk4UBGa8Pd9UnBzCO+LO3AHxXfn0kllcbAUh5sA/3g7Y2NfNF8+1/SEn9JoAliznXvYmKQ2HoIhD9EspIV4haLvE5SgJbSXoFoi3d2PQjNEVeX3T55iTvqno6vAYgIBHV2s8EcMqAwF5PZDv2IYDceqDdiuFsjIdT4gpRECcwt5Gxrrtp/+qmRf/c6MPfNxvcxo2EGK8XaW5eAcs5tHnj9qj7pizr76sxkbHBy0AtbV3gakHTYhVm2u5K1y+kbd5vuhvnJAD5x4hdGaACmNwkGW1Cc6wO9K8aH7uwau9lxg9142PWi33ZW0N/9twanGF7HFWsIEIIvwl6Nzs3BAK1Ci/SPg8udHmgLX35ZL4iLuH9bBfg1ROxp0XQkuRyp/RzcKoTbdlgmFyBwFGoagw6uyCMvlr9KFhSzPU9r/Oi4bJvOJ/IfGuxXdwdxdoWHANKIQREOmlKCmf/5LeF0R6CASQ5KDIN1iBiJXwlGvztx9ST3f9BpI2CFplgvtvoSY1zP1Ny2vl4N40O+FwrKw+ei+qSy+PGpYssuT8NiNUFMo7LQMdr+5yoi4PQKNFxRDPDQw+tRKBzholmOZvpvVg+9elbGf/WrRBvuKNjWbx/3LkCWxB5ND7pUskTrUQFHVrjGmXg1h5pGrK6b7ibxsuuWjA+gvki19UKJIaH2MPLcfSxpw1S4cf1MrgnZhfvtpIJGMl78N+7qjL9HC5+VTLP/FpVU9RaLIzs3ROFLWyOcV3u6bWGOJJEcnfB8uEUgveGpvyik0OXDa7Uhh1GVXSh9vWgp+AT0k/0goFT1cXYdFCq8qz0EEV/6DiH/3RFUvCv6CLt/I15Xas7cITRvfuWu8b6WKnlvfNZJKQxTDHqeWK7olgH/6atF2FuxSpgAAQABJREFUzOUR/nR6iI/HIQLM3Gv27KeM26pk0Z0AIC2SZtPYFdf/2j0ra1Wg8HMdhQ7Osr6vSGHGt3YNo1GeBq7t7hxsIuugFMeIokXVfQDc5a14/Ole6fYX/HfPPJUmTKc0Ssmr+p/e7S8oblOI4CW4YUMXrq4JEDmEH6ZrYMvMh9FVzLwrm7Z4b79N53H5g8uLNDN8dDDA0zRAg3E4KDQwaMDxNNBMUEsvYvwOD4ij2CJPSCPRS+OLrvoYvg9xO9A1SOboFqYVLM349ad7/elb/fuBgK7wu/JuCkG5lJ/Kqz+FMF//5IpZr4N9YISRAliuPVM6nZ7jaMh3l8aVp1E+0bA1v2VhB3noe/QvzNrDD/H27TQsUxhHJ8JoJk6s4FWYm786etehh6kO7RpAjOR1aHCWT4WgCa5aadi/tg1MnCDaEEaXh+kp4ynkaSVR1ZFEXUd/tE8JkxJjvSi7P2jtvwl+KAYLluBLaSfYulee+r5v0BfhBSos+Rbx/9Ob5Oi+6Z32v56XsI+/fwyfn5OoRNEOItj4uBosWQXgz9e9oAawGfkWcMSdwB3YfM+A/T43YnsRCMt9eJGNl539dxXtoqyJQj7kMdAvUPhRm3HaHdeWea+4NDxXLP0IC16qLerP9W+VFYAeCreKRgj5tYPNs4cfXPUc/eOj/jlNmeACM/xTPmG+YR4uLT9RGD5WAD/4pneHEurwBSfM5FAARdMEsEI61AkVjXME7kUuJxCLpi15qigHHUgUCniuLvhphesq4iABCxcHh6vg+no+SCBtoofT4Tafjr1X6lqqsKaGvR80mytQFdz8JkwavnaSOg95mEuKfQO37uyx/7yiYH/6BPmJYmMB5jpy51DiVPmzT8zYA7ZM2Q9vYkMIwoazewjFaXqzGHPdHxbZCme5aFAJ3NFyCC4alBxGFErCh44gEo5xxPsazEdcQeUVLLdUErwTNB8CavCoBiEcBTODP7EiGyHEU93AB0vVzjcJQdpN5DfTeChivvKdp9bl8nWtC35MWYRdl/Diu4QizWgcwwOuDqbXEpds8YSOdCu6kRC8XNAnMToxfi4uRQ31vsoq+En+FNQhtXNSuxa1wiXvfW4GH8IORg5HHe5VzhzfCjiBVPwe6qhYwuavhFOfTBEn3i5nn6HK5LNxZVGVySZI5cmwC1A+4Obnsdvgn5zFqjdL+HfPTMc0I1N6B5E0wtPRhHji7RL8A/A8NYKo77VDviyqDwmnjqbAdAOU4JJefxXVCZCcICWAy8Bt5NByF9DIvWVpg+ROYNCdtswoD9lOaSnS7ZAUIRQHvDTA6hQLZSqbW2HiS0Wb5S7qjy3sU7Jb0j8ZrWtzVJW6qDGZ0jKTjjKrt23oK/q5OnDlVDsCBwxy1Q4E3zUSXSMhxN+/0pPHw/UzlQcYFeipmbHacVgJDp7KAX5d6h+OEkrtv6iNO1rwo5ZElTpNjv+qeAcXpO1z9AJACMMN7oBRmb1o4rHwpVC+YcyV5yW8VT/+2pzOf3FNhh9yUUbuohu++v8ukdqDoKgPqcYlfDleobZJm3Y8SuQMgIo+6g/qL6JzhQbvaOYyEcgwd90r+DyFp5qYtGRqK2Ib4h2KrW7mk3seqSU4t+vRtWG+EUv7+rVcViqpD8qWssDmr632jlcM23MeM2Jb5wuWKk1SxyyvsyRs2Pw6ursMVC5CWA4P0pV1kVOe8joFBsbVDdOXKXg5v2ijQzj/19nJFNyNCy62+F8AyNHBtxnxW/UlHRsqu3ERU8KZbMGcT0m1eZKJAsJJpxVV4HuhGw+1YQnzTjDW1ZFMP2FQah/U31Q/Wgr2vAOornD6LtryTd+5Kq77F9DZIRHA0UVlceNM5N2h3KptNDA8FAj7phE8wa2H6H395ZG5adDv8OE14X0Eca7T+AjCVGnvQQKgIy0oi3mGnWP/1PDx9h9n3yr3HafE7q8iS8I/uKJqz30Cgg2DWRg0NvdhxP3YB3Xb969H3QYHk68v18E1iLgsfb7ORYM6JEwmzZZ+DQASFmv0+DK7zrh1HTWFUbd2IkkoyGGkIvcVCTgBSV2Q6Oj7uX7D8su5tQZN/mjFWbRgJQS/SQxax4egE0xGRx3lMdDV1nw5TS6RZ44lUjdQkYf4VTadcnBKLKfWeJHivWwmCzARCbwZfQdRHaElP1oylhU50njMdoOFRgDHGYVXe3rrrews3BDMQ5GCaWbehdAlgUK00GktjvmhZk1nYOAw0JIbDISPAIizhtxO7zzdRbOqBAg5OwPmztmc9fXssvuv77bbt5EwHuwCBoSnHYyY+pKNTwVwchydwafg/FzOCYODg2z6KYhZYx9CeRN8kw/BPDhi6807P1iqTahOtftYwofyBgv++QHeZVf/oZYkbFFW1X2c+kiDswYZwSsyKHjqecaeTrOLGTVZgfcqsVofORxkUAroxK/uPHwNIBL6qDLcCMg4vkCbCe3VdI5smjopQRylUxoFfxWsoJwqB2WW7ZVwS1AeHc0oZ8g93ewGZKfhJDZBap8lKi/NsprM7kr4VdMAJTDqJxm1e9pREdsh4SgBQfn6H93sJxCxi/ZQYblO536LnqrTEjT1SzqeA2iHbpydhFl8vYFFAFC5KZugZGpg/KdFO9MStUP/JYi+wougy8bHi7IegitPkN7fy17t8INw39eGVbXRIJ+eKupnlBsrFlemKD5qr+qTrmbpx2X6RQJXE0lOPKrS51VXNf6oRuqLtsmIod3Ospl2u+5pyzH1PaCI2sqrMQkiw3qfjbsNGhxq5/qMhH7xJ/472MJZMFSPKeCXqUhN/EDMTyqBm6Nuu5Pd9M2C5ZK32V+/cZ094wE63QTXXjPwVoS/VbgKmXc24niCAKITcuAhboJNnkFJydvDXYWT7ny626aps8W9k3a/VfTlwT7bPYeTecrqJvbCQ6WjHamfOF5PA9ERfXHSz9LmaVjWl4VnFnD1I4kCeD20eYWCdhnT2KUAiINLQm0V1zEFNjFK6AsnWSTxfM6liv6I9/sJZhlekyF9jIpQvxVPrsDEvN0a/UD8m/6UAr4XBrV6pcrjP3mLN7ldzUAUxxEP9q00ml/n/r5CgWNTAHSjva8CNU/P0nimAWuw16xVHVmdcvkQsjnPigVH6ZqD71ThO/oCgXjM2ApVPPZzZudVd6Xs6tsLdv5mhCdG6iSDnP4Uzjs7bb19uxnEOUietH6nHbNU7t0AAsMogm+cg8XV1Sdnl7BZKdvqAWzVuubZfj6A9MVZlJzovm2yatv3chZoss+6cfjaRf7FyjyCnRgZAhgZJPFKX41N821I3RhMp2AmPbxHYMnHbXpq3rKD82xSGbSzT+2x17532mYLmJqnsza/hAOKwpytZtv7FrbU97OxpcbAuTtfxSGtFrWzOLJN4jpC55gyrIBnGf9Ys7kuHNvO2pb+sp05hOH6gC/f7qk+m5ioWC+CWhF6iF6ayYuiqhsxLBfE1Qgp6k4Dw1448iKspwchI4aLil04Yc0mc7ahf8FO4Fi+7kqvzU3kbOtejIp7YO6azOvILnY+qvYkYummFptnmWaKazfC8pCGDjR3HHeVKNhFZ83am188bttx5/AXb53BtlPOv2HKlNlhI6bHfQwGnoinrMBZgeXZSU6GmbdXvWiT3b64YH/z3lnbPLoGzWLM7phDSO2asxMwDB8YqNoYx4mVYN5TsyXbOYkAkhm2BLSqwoylMRBjDYoNXo0goVqyj2xJC+zAy5cnbHC4bPIlNoZvLmmg8gXcE+GLcuceNiykBqzWzVnWDMwafIW7JhCOACHYMCM9R/oNVOMFwiVt0BsP6zN9gYFIG5ryNNKlhSVOvSlgx1qxsTH1kKTt2o2bkqkSbiLkPJ0BhpGyyqBSq6pN0GYog+tHNPAKdZ6gbePowMoMmPHaTrvo7Ji9+EVDdvm3Ju1zX+f0nLXdOOZGy8Iu7R5ovnp0gc3287Y6223VXI/tYWff1uk8G2LXMVBRP6CrUzg0VCmo3K3BvUOwkONkpzlkMJR7v3Rl0tZmFvBzhkN3BHMJ9jXa8l59nKcfTe3EJdS6AFyOq054IEP9iazqxNyQvRNOubigvqwv4a+7DX+a0FPrJzWRPSSfKozqALuJEgM4nUVHSarOJAh7jlKPueyNUBRUaYw0oUgG9S8hIgz6rlLpGv6KnrKLdm+4ujjUZdirStISx6nPeMb2UF8xjsRchV3cmsElG6KPa1JQANHdkwmbmINPFJkoMOHsxc+qzi52mkD4k1VxzSVUtGPXBfgJ7rd07jHHpVDuPlukPoaQRkcHUbexU3l0gK00lGMXLptu3jsvec5Guoc401ntL+Tc8JRUt81M5uz48V329r88wS44CVhLbMLDDctSsWBTe9hdjfA6y8Sx2oXfT/2DLpqwplI13J/IalwUKcLDETTBq5YvWWlyytYOT9sjnpi1lz1/tX3xG2X7yGcK1rOak2HosDEEUhWpqJka9+w7g78nORgA/lebtcfdf8le8vx19r0f5e3Dl89a9+Yhm5/lnPmpRc6jrtrqEVYlUjmOCdTYwc7TPXnbNUHu/autSB3qZHttMJKmXPbKFtNRppQ3MPrvogFKg61vKSYx8wsIqcVZnIwXbQQ/p2OjS5xSBb8uD9jWHRXbsYcNjXMI8HSmBD5rMwiisDo8IVA15JNnx3SZ+pY3DWkufdtrtB/nOs3VXefngBSI8t8DRj72IhybAmALnTzb8g1U92IWKwnqRC5+EHllqTzz1+57uX+ZXMzZjXfOIwCOOYFJvUXLIlJ6rRvLMHCa3baNI+S07AqD1O5C9A0wd7RpdLI+ZqwLc9M2mp6xJz4gaY94WNIees6gDWVH0CppebOCP8I+286y4/W/W7Cf/HjGrvh12XL4rutjE8OCljzotFWYq2a0GrR4FHtwgk8Z4UWOjsf6Zu1Zf5SwP35C1s5Y022/vZNZKbuWE10DVpyatMedUbELL0jbQ85IgTc9H9xgRzaTz9nPr1+0T/3zdrv1rjUwU5gqzDuNQBjbvWRnbZq2J10Ss8ee02+n4C+pC4aPWGGziwm76po5+9jnt+GCZTOqHPgWQgLrrjAZ8sbPloIGUyFcgGaahSOBuJMLypOLtqp3wS44x+zRD83YeacO20bOXIaP2eJc1n507by954vbbNfSGMwLDR+0BWUoIE9qYsBQgMEKScyq+TnrIc+Hn1K0Z/5xvz3ytM3YBzGgbJ31jJP8HU5oKqrgKA1nHB+S80sL4DxrJ6yZsWdf1GsXX7DWxvGP9fkfzVgfaWIlhIa5HfbcB47bwx+St9PvhxPV/hEbYQRYwAxgZmHBrr62ah/5woTtmF3tZvWMPSAXlFtlD4ITKsC8X8Lf1ISdd8qSPeFRWTv/tKwdt3rAl0ftoZyz7TNFu/m2in32PyfsR7cNMwBRTp15pgGcQcIRIAS8z1VtRLnRWtRQgvg1Bq8UgnYigR/MuYKNpHbZJY+M23nnpu2sk4dsZEiDndkUQvR3f7Jkn/7CLAL9Witg51rVMRU1cKDuJKzoaLUUrUduKhbnNJgu2bknLtiLL+2zh5zaRz4J+9LC7VbDlcau2YIdF9ttT39iys44J8ZpOwPW3zPMWbkM+pRpL5OIf/3xTvvY129AmDvOkmib/dIbUwg3+O9TQHKGwKiOMgj2BfpntTpnjzsnbxecGrcHnzRiG9bRjtCCJBAg8mjTl/IDNjdZtptvGLfjOOlB9InprFcGWLVN9SUpbcQtpOXxdKOg+yf0vojxRtR3HdSldU/BSy4CSahIqK7k+WM1gMmNhF51jTB4rhU+tVyBIftJaVPL2L4mNTki+PSaetSnXu69mqNAS4zyWQgJf6+6VGyZQCSZnSVwfF+dus0efULRHnbekD3qgpRtWbPOuuVtgbjzaAT3LCza7r1V+38/WrQrrtxjt0+MW98op58gVOTE/5gkeLopHyYFPFerRY6y67EKk81M9S77kyfF3QlL9z+5zwbl6Bj4EoZn8a96+96U/eSaon3mK7vpu8NOs98Ffj1UUGHuevvjR+Ow/4Un2IY++BDtr5+JFyKNbVqXtstescYm6ZPy8VqTGzDqVhr7DJruX95YsJ9dG7PuNPExD6mgcV5amiX9jD3tMWaX/vGYnTTuT1Ups6lPWjxpl1UKUVjdKI30VmFgqHC8aDq53R54Qsle8pQhu/DsDayixOy736F/MRlMTiVsfXWX/Y+LYvaQc+J2yuYBG+7rAx94IxTfM120b3571v79a9vQZK7GbFGn19MOySwUyX2tqZ68Jq/KBDgBT80hrD7gxHm7+DEcY3rGALyD1YuucTCE3VcXjZVwuwNXLFffuGi/vjFvd2ydRmjOOjcnbvxAoVCDN8bQ9JfzKXir3BUFrUaF7YT7FAXuEQJgU42ol3ixguv+W6xnc/uP0wTbPRBfSej8+qelgt/fjHHxI5H0gvyk5ckjXGVZGly9imPi7ii7JWHtFtayrRhSjXOHUzhuXZjeZeefOmuvfs4QAy0dFYa4e++03XCblg8qNj4eRyuSsSG0S6eNrrJnnl+1X900a+/7zF7OCx23zHAfO48LMGgJbTDYKt7rYUYShGJowM49o2SPOHfQHnbOuJ22CmauNTDyr+AfrIYPvKHsNnvJpV32JxevYnkFoYwClVhCiUuooJzwT7v43B4799QRe+nb77Tbd+DUFK1OYuEO+6tLsnbpk3psuF8Ot1MMOHKjIa1Llw3z6kkPHcNDe9pe9c6dNlldB7snT9FNI1oYNMBCrxlGrTJMJwt+/dOL9sTzSvZnzx60E47TQLzg4lT5Jq1cDxrSJz8SQWF9r73mb7cimKxDUJarHdFWA7aGMpZRCv22eWzKHn7Okj36gX12xgnDLNtwzJPcJ8CsCww4Rbn9QPBDZ8dSEjTXKIzmLZMu2QVnl+zRZ/bYI87fYmtYsswhDCvEFhC6EIRGNu2w1/xZzJ7xYGmRWUamfFperBXjCFBJG+zvtS0X1Oz8+w3aq98zbdfu7LMltHlxtAaQ1WGp/NScFqBDjXOmC3Pb7VkXlexlz9toY2gTlspF++kvttrObXEbWxW3B5zRb8cxoB43OmJnnDhiF73xNiYh62lXWrJhAQ1g0kjtPyAIMKCKXkkYvjQ03Swp5xd4V5m2x15QtP/17DE7gXYnIaiLdlRF2O1O9OHNP2V//qQ1aIpn7F1/v5taH0Xzw1Au9QElUnm0LLhY2G1rRqftglP67cKH9Nl5Z66xboQ657oCkhfmhq3EMX1Pe7TZXz1l1E7jmEXZRWmg15KYyhNPlG3teMFe/cyNtvnkSXv9+yfRLI0TB3MJBjtVVWtQW8JGH60x5g4zi3ba8Tk2AaTtEacPOY2JbA5zlFc2agnOfu6jXqvdaEOGynb6Sf2Oc9BNEUzSkmddH9Dgrqwk+Hn9X6T9tiKw3+egYgLE6+iDs77ohEl6iFviTLLsmE6hPRO/IF8KvV/I9Y+KJ1U6famLNhgPjG5lR+Zz9z0khCZ60V3dt/BdHRY3WoJNpdAG4xvuuO6t9toXx+zJj97ilmIXOHnk1lunbXGhZoMcV3fc+mE7YShhx7MS8JAtq23uaXl735eK9pXvbGfTFVp4NK4FhNIq2k0tTatcFYRcnbrRlVu0zasm7GMvG0aAGSTnmt20O2f/9ps9KLySds7JcTuLM3lPzVTsLASmxdIu+/CXFx3/q6BZ7ylP2988r9ee8iT4cBFTDVYPpOX1Z7JzSgQd7tLHrakXzdUpBZablhTOmq/YjDnPL4vWj8bfCrvszJMK9uCzhuyC8+CbG7PUe9Fml1hBoQ/MT0tQcyhSLdCPdpKFiOW5Wds4yiTj/Lw97Pw+exC8YwAenltSrSLATvVanknl08+etZc+ZY2dfBqiY20JetBnUICq42p1aWAwaa971jq74OQZ+8sP3MKZRespB3hJWKZRdlXpQNy7yYmW2KFmjJNssrFd9hLq50WP30T1oyXsyjBp32PXXZ9Dm9hnp5+aYCUhYfffULUHbBy12v/QmdAF27mraBOsqOjs9CLL41qxGRrN2j98fo9d+Uvo09ePNwW/fOztHetk7NzcyylwDxMA6ZauZ4aszD0sW0V+6NXn/cfbBwDcQ8KfbCfiCF67d2upiP7LoOWDFiL9/egIs02WwmSNQ4+lzyL40YF1JvHe6e32wku67LWXnmS9MIE79yzZh/7xDrvmppRNFIaRMQdsdWbaHvbQ3fbS56y3nngeKAl7wP2G7O/fMWRv+fhd9h/fL6J1YhCWXVNSy15FBEtmdLlJe9ebeuyFZ653BvYxmGy5KsaYdfZY8yx3jffcaW9791l2Lsfz1Krz+H9axP6mH+1Ij7MFjCWkIcxyckbe1nd32TtePmZ/8pd32uZUv73jslE75xS85Vf32A4YcLyrh13POL+WqkHL8AhVixxh9YAt/faSZy3ZO/9hluXnIQZwXOLgZFUMTKKoziyULV8vg/Asy9Bj6TvsLa9bZRc9CO0Sjiyv+DVHVbF8uGVzxk7aKCYljVI/S89Fe+SWrL0Ijd7ffXrJekZHETrkvwr3LgxY26fuslc+r88ue+oGNEYsoyI4aqOBbM5SDEQKu3HyicdcJzRJIEdyZe6wxFFxC/axd2+241l6GqQ4kgOcLyx36LvZXRMzdu6Dttmn33oWYp9slxDUGKQyCM3SAsgGqIzgltS5rIUZ2zDaZW991YA97827bba21s30Y24XjQZBRAq0bwmW0eYWd9iLLyrbm563Fi0Fg+tEr73iw3fY1ddhB2domGMLdvyWafv7V66zk0ZytgZ7pgef0mPf+CFaT44NKzNa1w3nXQmX+0HgcII4bRKJMY3WdpHBa/P4vL3hz1bbo0/P2G6Wr/7jqgVoV7KzGKg2jqBJrvqJxlxuN9rQcfv19XP2he/gLmOkn6PL5lzbzlLmOUwNHvawnP2f155qq9E+a4AvV/O0TU8fCVhzU7fbO563yV70LLVPNBy0mRJ1mkFATjMREU0kSMah+SLCwcVnjdrO58Tsbz6Da6UBaLGEuEsfUt34QNmhZRfLviMI0vN77rKnPblof4U2qBsNsYbJW3fN2ye+MmPX/7YXDSNCP4LtWWeX7akXr7H1wwjACPh91AMiLyD5Q9NNzdDGEcT401K5e8+vOEbIZbhdYRDH8cv1TQkkjfBFAmcXeBXmSyyJL7DRDBML3hUpJxXGxxXkSBQsN0iL0DbDBIdJjoIEXuUhEVZQ9OQCcPVJNsX6qu80SreKQQUwMUjYwkzOzjhu0T70OoSWsbjNA/89X95u3/oep2LkEzaNjVlvchGNF3zqWccjwPWifctZb3/C3vbn/QjWFXvfxyZQka0jS4Q+hBypNUu0PfGCYnnJtvRM2OdeezxCJMIN7eFz391pb/siPjxzg9aNYDKc2ml//oxp+5MnH89UbcEez4Tu85fPYPfHGe5ov7Sucu5Za3W+j4MPGZnMYDLgzHF4R3uXjbHX2ankngKSrSV2FzFtWUM54rm99ua/7LMnP3CEyRwTpCTmIWgDu+DzsgMWDeeX4Iu0c1FWfCGLBnEe7eSDzpmzD7zpBEwNSjZIfI0PzlUfy8tqf7n5W+ztzxyylz5/C+2bNlXJwR+0KY98aPeVGidRARQWwuR00R58zpC94gUFeOc2Gx7YgoYVKTGY6GnFQjZ8aWwxa7W8jcRvtw9SPw88dRAbbuqRZd3PfGOn/eM/yxaTyRUYrF6/YK97zbCdvw47SXz9Ce9eVklOWp/iT5Nz6h2+LAfXSSbKP8N1zk81owQfaZW1DC1yaX6hNtQJ934K3AMEwGhTFGPxHXslVeNjhuklFIT3B0qtgUnLhczWEXqW5jX4IthEt88GzNrrZcjJ/WeWKEUJGrSFua32iuea/a+nbWSQLdiOfNpe8J5ddtdtI2jPVmEWwyAAc76xMmi//Rr2f9t32YfetJn+z1IvwkMG8ekDr9yAen+b/ev3Jy07MgrTlY2UhByEQBjXL35VtMevXcKWBmYFc0vEe8lbCJit35i2L7z/dJuFXm/8p1227Q40iVOcY5y81R77yG572hM3aIXG6bWkHSqA+Onre+z1l/bYQ9EojnH24of+eYf9+vdYGs7PWKqyzR52dr/9z0s3sltOuj4ZOTOYsXHkokcM25f+6w773S6EX7zqa0em3LOI3jJ8TsrYhI0ZF2zCducVG+209X32Lz/ZYZ/8bM52zoxjx5RiZn6nveGVA/Z4BI8CA8QA9kUi6h+dP2Sf/9p224vALJK7ARa69fL92puX7Jobq3YyQmgeDpaGc3Wx9KNdrIo5h5NPxEEEAYYP2SQxSGRYWq/lBuyan8/Y8RcMWwHhRYbTcqwZk5U8eV7yGBjz89faHbtm7JvfS9i12xIYhU8aYrPd/7gk34ftdDRa2riRxgfhYmHeTluXsksfVbD3fxVtyPB6hB1pWcVZaUsSZBZrdiYnyLzuWVuskkMzBf4f+PoO+/mvBmzNllXY9SyhlRy0391ZtMs+vNs+/r/70d6WbeO6IceQE2isZLujwcw1Nn7bB4iE1lPOy0sssQ5g67Rjdq894owl+/9euQp7q4x9+huT9vHLcSiKpizNxGKse9Le84ZNaPM02NBG0qOArtjjLxy2r/x0jkGuzwtNtKUy0kcWW6q7tifsVywzPX4LWh9OxelhclIFP2lMlhjH/upVp9gpG4fs+9dN27eunLc7tlMXs5y7Svs4+7SEPeePh22ojwkFJJexfAFNxQseO2A/+Omi/fxWmVSg7dRHL8sDF0GGAb+PJeyF6W12ycU5e8OLNluRZbwaWpuf/37R3vzuWds+MWBEwdyMSU/XBrvha7vtGz/Zam9/zfGc6c1kRwMwfcgPdRoUIRd1pPbiKUsbkjChV0FYKddQdA2egqkWKJ4QBsEQr1Cr/qOHVG3Tml02wBI2Fhz4ngtiKaGC4y3L5yp8tVGixPL3SSesdkm0Accldb/+JxD33IMmtEngF1UwTcpou9rEtJt296iTpu2zf72BnuLxfv8Xpuwz/5ZC6zeKHR60wgyghI+9/76mZNffcZ19/C1b7EGbWdJlwllAeHrGo2gfCDnv+OBeG+hebTMS7ulTtAhs39I2hQnKs/98HcIfS/YIXXvwtfqBz01gK31/W8tmtRJaw5Idbx/+9O9s3cBOe8qj19pQz6KtGeHUgxnaKMLurqUee9nHZ+20DQiiW7rsGY9ZD7IINAibmpDJ1vVbP5mw39IOSmjGimjMtEtWdam2dBVtdb5v1FJMZn/9m5ydvqFqa0c4LhQemEbwg6sisDIBpdIW6KtK6+xdqQtnm0ob2z2Rtit+O2UPOYXdwpjmcFQv9SmOhNkKE/MXv2LETluz1r736xn72S/zdvud2HejPbW+RXvQaSl74ePo08PgSv9MZ+Af4p2PHrVv/XDWvncjE2h2HlfUGCRAg7cEzAyS7nTtdnvtq8cR/obZZHUXNrvj9nW8U/zNPyY4amxMU1SSJOymbTl77bt/b1996yl2PKsI2pgmjbhc5tTQhk8w6btl6yJMv4LmcM7+9WfTlsGkpQwP0MQybH6+9XR+7wsUuAcIgGE1RBliwCjDT8teFU9/0bTLRq5/0GzKpSOpturn0ZBJu+TlP31twMtKrQ+3l3NR7RweyqAhmZ2xix9ftNc87UQ2JjDYM9B9/FM77Te/W2Ub1qSwHcPiA3mkzCBdgOmMrltlP/510j78mXmWYHrIq4CWC9sM8rzspWvsrj232HW/w06sB20FGpsqQmIaLdlXvpmz665EkHrHJjt5tZZbGPhY4tBu3uPWZe27/12xt36Us41La7HRYeDrGsBFyoD98B/uwL/hXnv1s0acOwJkBLezT7twn33xarvmtqq96OU32c27WKrJjLrdgylmplfcPGFXT+6w979mvWUYQLBpRqvBGY3YWz2SQe2aL81i6LzGYiwxk5nNwVY1Ay2wZPOAE3fbx163muXkXjfo/N/PF+2u2eOtzAaEeDxn09P99pkvztnDz10Fw1adQSOWbEdHMiyTm915S8H6erHJYxlaO6d70GRefW3RnvqzvfaSZyBwPGcYukkbJXsiXz97UWVo4EPGYyBjU4+E+go6BDaNfPAjE3bdz7bae9+0lkFCtm0IDCxhyk5m9eo+++jnd9nnvl22ncUhqzLYFqur0RXF7Fe3TNu3f7zV3vf6LfaIMxHTqcdMCsGb8LQLx+2LP7jTZkpasmXg0FIgTFy78uJoWS55+Gq0VSw1s8NY0+7bYdiJwWFbxHAnXWTwQZvTO9hrV9xStn/+wYK9/OJxWze6jXa3CI5bILbo4gfpsAWGsoP7EPzkyVvatSHyqiztQuCo2bv/YrONJkt2A3n+3T8v2p7kcVZiM0Y/lb9rW8q+9O877AK0G1Qrg4k0IZyMOIK9JpqbJVxluF2h0KmG+w0kWpvYtcpe88YJm3x20l50ySo3yCQRdHUU1wAD6kLvsL3wHTvtyusxgyihxUFAYcjEVtPsypsm7Uc33Gx/+6ZTbVM/tKE/xTUokv6pD0nbb26co62P0TaRJKlL2QIuMsjHmaikMB+4+LFL9qYXnQQdqe/uNBsHuuzF/2cKLU/KsixtabNWlQ0NOhIyizZxen7Y3vju223krWsQ3AfoV5rMsSwMOd0yJThJUytWIcFN+GhY99R2pFjhD2lcxbifJrYjaDL50Frg/3zq8cATdBqP4yXK9VAC7Zk+otMv4rTREIogCwOVgqZAeZSbFilVPt8uu+mfJTTq9xvchWZpMzZ2bPxA6/Wta6fs0/++ZGPjG22uPAP8lPWwc7scyzMJ7UaTfLy9DVp//j2D9GWWehEOc2iznvqQYdux+077xD9ts/7BTWiM827iU0P4OG51yh5+HhtBWMZNJ4fshjvmKDrGBaTfy7F4hS5ML7oGraf/RPvIv91iDz5vla0fZXm1f7sl9uaof9ojBtO/vCvO6R0Ju2bN7ZgxjMN38PVJ/9JGoO2Tebvsg3sQqDdZXhMuWpuCJqLii9U0G/X6kMU4C/5LTOq+8r299o7XZO2iB6ONQwhPQA/V3VKhCM9ehI/2MzGAfwDG9YlUmc0bcXvNm5bs5c+p2OueSfvElCEuo2VWfNh7wirHuL3wPbfZr36lidQQ7mWwkwW3pYmi/ei6vP38yjl772XDaKODmmIQ6EFAu+jhOKS+Aa0cTqir1KVwl/DXg5YuN7/T/vSSQbvojDHoXEb4W2t7mdh+7HMV2vawzXUtgYdsHjkWc2QYLXiv/d0XJu2jr1rjN3hQLpklzWIK8pKPbLMbrx1lc18JMxnskbMnIvRDq+hsRzRzlNv3J2jV+37ovLnHUqDd+HGMFUbNUX/qNFwPYpriBbUwfbtr+6JKuyWbmqpmv3TIWIIzIREEFcJO4GHzzIwSyzK3QyzNUkCewfycdXvtnc89DoZXRfhL2u3scvzBbxZt9RAdmmXPMjM8lC8IGwyK3O9kJj8/NmCf+l7Bfvm7PAMhGkeKq46ZYXnrXZeusQ35XeBErs5mC8ZHhNVrB+2WqTX2w18vgRlMR+p8aCSN2627E/aaT7C7OLnF+vqTNjSwYN097JLDPUBi1Wb7zNdLds2d0lJJWPAlk1ZhGoHuL/9+ipn3ZhtaO24cr2sJdprlmTWOb1pr//WTmn3/iglsHiUUiUF6upy+eZB7XIcwc03yxzzXM18GgP7UNvvrl69ywt90jsE9zY41bH3y2ICV0Wpqxj3bN2y/K4zZtoklBi3Sa3av4kCDmpZxgamqj6HpVB4qa5odsoX+tXb5f8bYNSxNI/aRBLk5UFiAMSZIlCJunCVgvS6x61XbadLjq+zbN/S5Wbr3K4YwDi/X4P/OLy/YO7/UjfeYEWziONAbjdJqlksGuovWOzZot9c22t9+eVKWnm50dTZcwBwfjNs4h6HLdUySkVeUkeaKhmRZNkpsWi9Ca6DWwG92PLsFayznDLCpJMUoM4CjyUoBTWB/2v7lu2X7xU60Ea7tYxoAnSWWaUAXWepB8IM/DfL6VxR8RaZAG9ewVPvSMRtA8JBGowft9GBmkDbGkizLUzOcs4kxIzsH0UaxRJtgaauEEKcg7UGFHecML9CRdg7daT1uaS+Nq5cEwv5XrkrYEsKmyqupkegnH2Wvetd2+9rV7GLGNqwb+P293QjwDPTds9a3fpX95MbV9pFv7XTxddC5lndVspM2mvUnl1z96pX6mXNfgcA2v1RmqWybvfJZG8ADgQr9NQt39v4v72QnMbOE/h40xWjWwXEODVCOEX1qgaUwNvbsLq22931xgTRiIdDMYas+Rj+knBIGVTtqZ6F+UP3PL4v5+Hw+QKDsikG6pjpyqfSFP4SCaXae7lxagvZsJFqs2vQS9RD50/P+/qYWic/u/CkEgUUmbUlgesnT56rfEOMyNJBIoUBXdHxNAo06U09pq33wxUO2gd3/ebwICMMv/YhduFk06ggnZSZL8kJQpU1oqXUGzV2ibwAhY639yzdZ8qUWiriUymZ6EfLzdslT1trZJ5XYmKPd+JqIwQ/p32NM8saxIawifEnoPXn9gPWyilBiMpFkxSKLdrubPtJNP9gxPWZ/d/ltdt0sdqZMiuLYnsZlu0uTHkZFuXoMExAmFyqXgqtK8JiVy6HuXhsa77NRDALHWfIfJ8EYZhSrx1KYwyRtFO1jnL6ZZlI5GRu3j37L90TxYNWY7Galdda8Q/77lINOy9A3HS+aRAjt66ftXpVE0ASW+pi+01CpBXv3B6btv3662vK9oxbDk0OWGfIgrmFWYZ4yun7Evr81Y1/42h44tcxVmITIHhEd4kkbEfZ64JhUgHgoCyCOr6IYpc/ssOddgL2osHBFjtt3birZb7Hp69fqBZPJHnixBEmjTazp67Hv/zZpNyB0JhH+ZAMpHj2BXeMtWwegHeYRqT4b78cUiPpRX1V/8HQEHYLvE2orjT+964R7HwXuQRpAEZ9W6HqB2JvC/lulBkMfZ//xHKjID/0CluKZqHuNEBh58jEDkLNTnAaCRqTAjE0+zYrl7fbMp/fj5gTXBM6WJGbX3iQNF6p6hIkSluDa1i/UxHZ0NqjKlIQBlplpX/6tW+xBJ50F8/XwFmGsx5/WYw981Ixde8W0DfcOMGPVUlvMFhgQa7hXmJ3S5gU0hCAtmxVpn377u1mM/vOWwWB7jkEwwVK2Dp6XLSEW9ggHNfvpldvs3E0nMOgxAJO/llNuu33O7toxY/1DY7aEV1T513PSKPlo1hiP99l/X7nX/n/2zgQ+8qO496WZ0cxoNLpXex9en+sb29hgfAABY2OOcDs2RwKEvBwfEkKAB8EJkANIXgLkvTwIkACBF45wJWASwJAYHHPYGMxlG3sv73pPraTVOdLMSPO+v+rpmZE02kNrwCbq3dH/6q6uru6urq6urr6ODSCwRXEq8oYx9nSxLH3YtS8TLKXqmPUMGoXC2Ki98Gl5O3t1Hk1SiWXNTvt3NDwD49CBZUM5Tk0xg5YNZYmyalhvDCKVWHHQ6ulBAgYMmusU8LRpRPY0D+xmWY0ZsJacFV9BDEyDnpbd5ABGb9V8pDHRMrscXB86NGynb14JTMqigZQwjBCaz6NJIh7KS8olgRZ7Mb6Ps1s7x5LlAzuG7Z5t7XbBKT3sfpQciLAP0+/DtU95L0wXgVEHuStPjVUlkEbZS2A7i9MMjeE13fb5r+1HeMUWa0Unk4NRxJkUv1k7MJS133jdIINMJ/Ze3SxxSxsGrWlnLgQKMEF2PX7VPYXTtzw7TDvZgFRAc/3cp66yfuzeJtEuann8jvuGqMcxS+aw12Nnb5ZBRHZk0pRocw+k9QHAgfofvSFr/UQ8RgotFxW0vZLnickJ2lfOcl1tTAioc7Soh9F6j7K02NezEtgsqtEmNQilwF/LXyNsRsmyOePu7w3Z4es2WC+TEK8o8ujs7WKigvDOwBXqnG/ShiQy7Fo8aDdc38FEqs21IVrau3vPiH2bpaz2TmjEPCiJfWCFHfPSN2pQa6UfjiOEtFE323buZ5mMZcT1ndR/0Bxp8JPAp6AyxqBWLTlpSSGAq0INENDDQAegMsn6s/dttW/fwwBOXyhhHiKzjsa8dd/4PBcH2j/tNpfmbPKRIXv1r3XY1WjDphCi22inwlnZRxiqMk1oQ+unrNjAZtidPTmMnd2VKVxZ9WOnhp0n2vXd8Ikd28EUzwWy9XVH6PAGpZUQLpc/BbTseSaUN3111J59dd5WaXZEU0hhYtGDsPiS5/bb994xzisqEa27+pnaO72LZzbuaHUC7wnPe3qHvQvPA/lVJ/nqBIvMVsmgNSSPf/q3rH3p1hF23PaThp5FXWmCQYeER+KflQ14anuNQV1jAqGqiD22fK6KP4oSPgFTRKIridrU+Pg0vDplhw6M482AyTHCofimuqU4QN3LRMhDvVieH6ZYepA4OFactEOYBXUiZAo3pZvA7mHvwUPW14/mD14iN1HuRBsQstksoxjowmTmu3fttfHZPsszSSdLD/0rezD/GLLJ6lKseH8bqwaT1McVF6yxtXgJmMHuUIoGhXvvHWAjWp56bffVYpkdOKYAZJ7EeFC0XbtG7ax+tH20izQT7akpItE4ZuijsiMXr3P8HOLyn/+uFHiECYA0Yu80oWNWHxatu8D09NkTLRpv/gfNdujXDCQasHC8iR+9VpbTNKCEQQlGgbAkprhngJ2PMJVWmO/o4VG7/PySXX25XMYg3FXtcrbvnmKGmse4PeAhXlbDSQMRTyWWfTPtnbgr2MMGh2k3WodvwPhURbP2+Cd22T9+Zwwc2G0HsyVHn6WKOcnjfC1UizoO8yhhgK0lBZngaSbvgi3gJOi1shS8m8FTQQKj+3TD4Hjg0CSDK4bybAoRxxSuLmPgCkQCQhtLr3v2YL9TYvkSuHISq9CBZtF3sVFuacTYo0y5xISn2SmdQyA0+yG+7b78nwP26a9Msft1oy+NTsMd3c6INHJuKiP5EJxIlFdLOHGI5ovqALDuukDCIwPhNMUYZ4OJgrDhtQ+E0zA/d9nDW9WpQ6RMuk+hoZiUKwgdIaJ05MOnEKA5qy1e/ykJqQhHPrQqrUpFBlO47hmE0dopnpi4GijZwYxgE3x21cshsWqaZVX5VBQWrnWFTqewA/w9f9Jjv//Oe+xb9/fb+lUb0Z4iXDGYZPH3JbcaRQ0kCEiis+pCdeiCSUDbKVzFWog4fN/ABBztgu1GK4ne1+7cddg+/+Vpu+VWtB4IlQkEyhzCmJa/JdCpktW+FVRrCuoDeil6Bcj85V7flUTD5TjLw7If9eANJbQZ+SCbxHOvHGXrvFpp7DSwJhBCtRsiiRuW8TE0R/hDXJFXOw055Fkj1pncGqPocnLdGPoaG462rJixp2O3KWy0uUjhbmy7piY5+o/NWNJGofRwZKtFcVpJxJO7izF8AY6wc9jQQKmOJFwo1PmEP4Qye1mqz4p0HCHm7SRqSCfeIe3OTw5V7O7BPmwVmWRAu6wmgQ2hNqA3vKvdqg2SphWhvjDE2bVozxXUMqXrC6pff+V/9F4EmZFQTFQ5wm6lX/QibF1/7SpVJ4kDjBHckwwcgLY4Gp5FkJImXlpQ1Z20iJokaLdomjrdNdRrX/vOsL3gagR/4GXR3mkSfMkFOTTdI3YXrrHSefFA+oomalJvASsFH1Jb/q3rNqFZPGDv/8Ru3q1hlSFtQ2hvW2Zy+FbFbQ8wE2iCZ+EPSSYqmsy7pk5tQhIXz42BZkw7gR+I5+ohFMyFM8XUMZ+u6eJe2j1YChNAhDomwuxvc2jiV/LVKZu/ACDk4U0K3Fl8oN2qXSNEsfKjIJgKvnsXehUQtFBoOo9QefVZeJUxSWhhcnJ4NItLFjbFufDIRBF0M2xqa0N5gELYaVxB9aciyun0xg2YPYDXDO2x2uRt6DAMj/VspwfwRRthQc7Ur/gLLq6k2dc7b8c4zqadFFEw5HFXo9NUnIZCbn4j9VTH8YcyHnOIfepoCX4aMJXnscI9VjwXK8di+fw04J4gzEeQAKiW6l1xMbIf5f3xtXR1b3VCeatfvaod4YCOw73snHz3Ikxk74EJ2z/MzB7mp/VFuf647FGdhqkJDEYalYDSIJpA+XpSV4lY6FMoUeiEWnbLtbexI3at3b21aOsvQeOBEKKdkAqnbm5jpQ57LLYNJtGwzWok8YGUrKuaqzp0LOiYrc4ywLeypCBXCfiMIB4sgnTKu8zMfLoo1yYEzwLu46KopEUN0MB3hPnoKIaZuB7Ey1U+6aoCm+GtoktTSoPM8UsgRGlpL83y0Ec+s9u+8h/DtgubwgMwotZcH27lmM1rjQMiwwb9pBHZ4ejEkhACdQRY6AtHoVMjoJ5hkNpt5wzdP/K9etVFs3MlqCbnPgRfbgSuBLkobwbdV/gutHQsXWCsdcDUqDg92MJM2RhRYonKgzqhd3roGySj8J6/IbWWElN2+/fH7IbLe6D9GLZQ2A8yopy3tt0+/efn2Ls/vc9u+sJBTjHIsVzK7lAcvU6iMdHpLS0Mgq0gGvm1rrUgMlWD6sIFWeJOMoi1YEf6VnbV/v0Xpmzb/ZNoSlmOZflsFrstVoC9jlsh7gxqUtmwSgAOoANQqtgFs8bsYl7ViGEgqVZKRMWvJGpF2yWkBUf08ckTtFI7kdZ8tgwuUtESYh7eZaqAFF91qJMP5OT7wgtLOFEPQlMQAnAsPoimtYjjdGBo+Za/wGoQ6QAsOOq7MzoekFYbQjUTf6jfS0iio9QQcnyqKY7lovSqB7W5WqFq4IUXG0EoexajsTYmFwW0f2n62mJjxvw8VUdyupzOIsgjKEsvFIJypOH6c8jQiwLxJeRL4zNLw07LthjfjWefNmHnn7aSSSJtgcmQwjibk0QnJA6vM+UVg/qMm3XQHt2EFXOL720bsxcoAvRSX9HJFp0IpmeeUbHbd47g/D1Pacu2Z3/J9uxG0D+JzRlMujKYOsyi0XrV81fZReewc/tDu+zOn3SxVLwCWzW8AiD9p9DQJRFCM+AtDabYkdCRXa1zUhVuXtArUUH9Q23A/86LF2A42+GzTsEJcH1yUk3jk5GGsisbwaMle/8Sz2ikjb7LT6l2kqeoG9kRx77qYBwVae7VF9hKJkmSEHAMV+8bvPH38qPqXBrOqFViwQOqNPgKeZyoy8m5KslbexVXCaFlXs+g5WXW6HF9ooPD68mJw/Ab+VBV/4NKMqPhX0NP8fjLf/57UeB4+dvPgTpq3Q2/Ws9TZ6m2/EWwckbRmHbB/cKEgijI6hoSRXR+6IZVwcg/7Bakg0kCImzbvt8ODaO5Q+tTgPl151P22PPZrYoVVhKXLlruU5gYk08zqctil/fX3sU1YOinfKdwZzI61W472QnqgQ6ujQfKrg//bJvWIDTgKqDCLNflv+qoIXxDUHUGmkgolAZTHV3cypkoX9Xtg4jFsVkIhSppKK8giMGJQZDW3+pdDJHWsCLglvkJaswvLLWQimjtMEP95Nk+BSMamdho39+xygaYtbb2rrZplid1MsBsCwwJJq98U+ws9Rm6CuZB+TFcipMS/HxXv2v4o3IRTW5a4ikHKk89BPYW2FwDq1MU0gq0GKiCDzDVpCJbrVwuVJBWBQOfAEWbRmSVEwdfxV8YVB7N/uX3rh0buFu+VbQf7RxHK4ZetDiKIEBNIMB2Ywv0phs223v/rM3OxzfY5NAo6dg8w28cOs4iJAd/ZwvzaHwjDFVWCdTajDGF4LRjpM9u/0mvFTInWWVFlzEMsJzMwIGz3BKmBDMUPE08De5q1YIRg/LUUmlcZo7vdfW8+KMBN5I8pg3fgEn54zBTh+xfPQ0OYfheTVVty3pSmnrQvd4W2D2clWxCXfGsCiP3wyPSZrBo7sI+r8izCpEHgh6IqgFW+pFYlsYcFInPAS73Dppkusa+KVBHD8pIsaoYVC9z0lHOXAkn6+WUscnbOqSNKbMcd4w/VEnEpd1xlW1sLG3C26k3XM8ulk9ae3fFpDaBgJBCoihjGnDxo5IsIBKf9hXRHB8vuG2xT2LUOeIHIIoW0oKrP0t7JiHwe1ux05OGDjMCQXFNMnHXbSBCcoL4rFIwWS1w4ss/f/EAvYVlzxk0sCzRZhLTaBOLdsWZHfa+Pz/Zfu/XivCMrZbGr0pXWxCSKqjmZuhnag8SnlywUkUtErzM/FnIu+oJFEcQVDyFAK6RB4b3R/ob0zbGUZMsSzKk6LH9NH6P7XyGccD7DB+rKAR8FNl5THzLFeS0wdAFe+5j0TtQOMjN0xgT4MDjq2l4RwrgYFuZro8hmhTcv33Qhe+Qt2AL7nIIFIg0fyTQ46HFtc4xHrZlV4H1U9PlKi2TDxbejY+IdWjjGtYijPnXhcm1OUOOO5WfhK/20iCuFoIgN7fTzNgX7+rErcJKOmEZ2zp8LrUftHWr5FCADRlIEYKg0MK0LGgeArOVtxF9EUMrafZMecIxQDA5BIZhDHYVtPwi1qrOroGvK8NCDOWXXZ6oIWgSvLQxJIQAX/fMFxnqw1AqphC/KL7KJXY6jXawCsVx1gKRBkrFcIEnchzF4l6PYsTsQ0ZzEKgbaCsowhTNIWXDhh26kCv3EjAKLBmV2fFXgulPYI9VZuDSwJNKIihTFmnbBg4csA0r0fBw2ohCHExKqEEn2ZwgQUqNVQpR4aE60nJNVlpAhN1CkNr4GCjjQMBI/+X+QnGryiY+8dL/hqvuBRs0CNAcvMMzeVA/4Uf+lJ2Skz+w/F+1XajsSkSQ6Cww4Un1wI8HmQwUOdngTe+/nw0AaPYwxC4hGEpLJk2kbD0fhZb3727cYH/28glbN7LfVrBJo40CS7swy/lo7jQYemqsjz9tUtBPm5YcdzB0Y3aQkKatA1uiDheu5TNOrQLxUIIdrjVm0AYVcbg8imPyDauxk5MmG0FKQrVCBQ2u3Px4n6uVyL/4d+VH7Oq9LiGh/uosGYWy3O/whMgM5dSeyR9ctazOQppv0lE82ViqBNpEEuD6BZCUHdrKnGINJ9woqKpVEuU3Ma56IRXtUVUglz/KUX1LL7QDXO3QlR7kR0SBIGXANQyIKoNoqPT6ttQg6hJUPi4hpzostVv1kRn6QQa66DhCmQWq94rmx/JTG1U8pdG9nEsrhE006juiMfmof3Bl1c/7YsBGXEcbtcZty0lB+x9qL2AqrX7AUb05BNFUE5lAJyY0EFKOzrUBYmCsnSV1BEDvexy35uYqeBnJsrkJh/VSAMueraOz3/7zlhb7p5sP4JsOGzl22mpDSAaDNW1mYwXUfuNZ6+x9b19vT9oyZO2H9tk6tJIJqeJZupYoEzwBUmZwUbli/QUsA939Cx91Fc66k7DqExGede6tfjqfXT+H4QUNMEUdtT9tMqMThR/v1CZEVfFt0V60jcGT8yB+N007lAMDxVM78JZPVPEdbYxDaeu7gmOd1aD4jSZLKh95wO21ZK2d6rsfVM/BnAbaivcrnHmy1ppGbZK+XVLjph35BJF7mRJ1oV3euFr1K42vRg6z2+/hSLgkGndMmlxMpB6Vn/iWWKZP1ikj03DvM+o3jT/hVQvqQ/FHfFHnmH4xTeO1BpSb+P5Y4SleTNN4bQZT32tw1Zobf6rdhudGWI33jXCb3ce4no9UCw0w9S5+b7w2g9P4bk5cwQu4BthLhNkAX23gkRXEbGrCx5FRV5WrO0F5vzv6nxBPHSJHZ2rBpujkfpbpzsBIhKDlXzWcVJolDc42/RZHoWUwMpeWRD7K8izhyu+V6sx35XreMERO+dBGi4BPaIaK0YiVOpgYppyejo6iwq9FEAMIcbVRRKm1GxiZwO/Dl0ZIeq9YWlrVcBO+CSfxCh9soJ+YWhhyAz6B/cS04Rr+Kn2AobQSpsQuhUNjEI4SfiRaIrc4AyKdEbUAAEAASURBVJSmhugweTBBs5fBez9yBwMEzDKbs/2coTyOI7Te5Lj9xi/hZPV3etg8A84Aq0EnfXjyG8/S+0S4czoE6yfRRqEeLzwv/Osx+KOr8K6FatKmzYuX0rIILw0QDGGkryZwADWMa+B0I5rIxnKK9lHK5HHns9pe85YdtusggxGMeopNANIst2sDUWkCP2XT9ivXbrQ3v6mH4wN3WjtnA+Pa25ENOTgGQG5+1VtRwusa9JIQM8VAmiX/XoSOfnZf5okwhVPwwvghOzt1wF7/gmn7w5fhwJp0FbSNoOMlEywNpC4ONCUKERYLmB+EgUbpQxC1YlsOBaLm4keuTk3/owbgN55WOLSyOSDfFgYzL7unQ/h134ihLsLkJeSl8tfhBWop97l1phghn5Aq0K2adXx1/NcItgY6FlKgRE0Gc++JElzCNxfo+OpXaK0TVxb9KR7fNUCjQAzB60cUDy1aUJW9cquSigctUyLo4zonjzsmBZm2BGGJ+KrrWueqIe/x1K/ruBFPBFYNB0bkceKflGvCJJQLh4rvEi9nNtjb34svys8PYEOIAMM55yWcM2tiJy1lqTTOEZZJe9cbN9jzn8JO5JE98GDZCwJHhqAAUzlUvrmYxVz1Lfwa61jtK77XVfwoANCN3ig4ouH2BP5GXuvwAanyh+oJeWmir2qaw3M8d30PcXTVMKMNZDrC7o67Ju0n2JDX+gkxLzyri+M8Bzh1kx1qaGBNrq3YSNeCKx/kPztj06xt2dQFTRGuURrcfu+Y3XlXm5sYafexlo9jyU+guAuSCmYjngsiLPFF4EFLTLxoskjzcJVgX20YDddFEx/xgyCq8jXRDTD9zRHTHO2j2rT/k+D+EMKO7ONo+T9MvkMCerD+1StrcdTiLPHYYgc4GkTEYjJIYymM8S/Deez6bhwlszyrbwWMhrW08aVvTtuOA8xy4WXIN45XO2t7OQZQCZDKW0KfQmtK55Wy3Ekj0+CqMKdJeM+pvytgNN0YZFCv+LOTDIDcC7/IRAIcAZgD0Z+8TYPH/C9hUBCM+KWKQGOmTe4VW2l0DX/rkQIGehup3pA7qgppr8qcPCIr/eIou/04D/eyDZP26pdM20ffnrd3vvJkO3kdzRGBRTJ+pJO0EuKazliq6AbI9by1JUYUD6EayR/CfeObaqTaJdJRLxohxPsYcU6p+OhG306Jaoz5CaqvNfuXJkDuJOTXMde92n68bYO99LVb7aZvH2KHMQ5rEfql7Mim8IWW49SO6UP2hPN67W9u5Gzi7H7Lsdwnh7CJJoNtxK9+JUONMvFUCzVGQjsnsWRYKi0MI1hMjNrj1++1v3pF0T78vzrt916yjk1HEJ1leRVDAqmumth4O672CcFZPMylcnxSvUXaNUurfBTUcuq1FVPzQQAkmNCG2jRDUlwNpD6SI5Sn2W+OQ2LZnMac1IMD5rR0kosCujbFg6zk8N3bl4A31qk/H8+fiLd6mO7jc4AR3zSWNMYRHWo/yuea/UWvIkvAOQqQIStBCCHkrEGoSjNeo9dHWcTJFrS5dhemBUO8JbSRNJOQKCCJVnVoJNbkByJqoHTtWZVgjdqwWFx5P1BEFzOIJxyH0HqOdq2wd37Q7A/fMYRTYjbWOe+U9oqNEK0IpLh70QTzzb9xul3HMWaVsTHLEUk215HvhXKJavEulLdGu/AoAhGDMvBBOLaIL/u7Rr7HN48/F1YE0XhVjPhrfB/vBUf5qZ1VgfolwNfHMK7M5eyN+cZ7SsbmLbd1zJZtbKrbPnHTGACY0KMBlEZ1U3cbRyxy7OXgIDviJfixyYY6bG/rYKPZYTYhtmP1l8IsSTp3w+XXCMvF7BqGB6s9aHVFqw6Om1c4kU4wiE9rJ7WuoW+eIECSB5oGumsVQLCl6Z7T5k4gmzrFtQlTXPrEg8ip8qvNanOUwkNB4gBXzYixFNgl2kHE/0SwDtzhRCD8zNLSgWgR2onmnYzmcWTkQzwRKRCq1hUbMNaSRphpx5cJNWLykN1de2mPXXOZDMcZxGG4IryMt/fgUf0D/z5uZZzVyv3CrDoWnUq73XSsFHVUDcEOo5fzI1PYuwmPMkYdvtTEkzMooPs/MSd+ajIZZugKwfAaGy0GvyGO9tl7UMIkBtTkKUbsh9k7doJcy9TThlKHPJRPpJViBZqIPvquEK+CEr7663l/wgJEeFnPLUAIMMJQ4nJKdYASotJCJRlchjgdozS23645f9w++Oq0feaPU/a6Z/XYKnZ+fuhf9ttfvHvAbd6kmYxQ5cdKArZopHFAJoJa4gwagRArtIeYIpZQeCoydcmrObJTFXnRJKQNZYp/9b5evvBW0GkagT6eKOand6o1peDnCUXx8KiOq+VZnXWgA90P47yYLZgsk59mr/nzov3Pdx6wbSMsK7PkVaRw7niXE0EmWa69FKP5X38GS7cTg2gRsR3ytuWQBf0IgRLQljRQZ6F/hk0fY4eHMb3aZVdfedD+6k9y9t4/PYmTCdbaDPm+/yMHORf0QW9/OgkkCgSyEUyQp4KEwmAfqnIvhkOdJp6IP6KZIEggWzwoXUyrug/3EnKEi2SYIh1ylE0KIQgXxeH4qzUyW8BZMC1c+EkrJpEjwBPdiauseU9LcFwCjPiX78COQq/qXqhGASzCibGPfCWh8veLMgy0CzAiHfTEN8fmyNAWfJ3XWAVFRfNQvRFd4juRSHFEgND+w+CvncdT7N5Wap0WEe1rV/R1c0JNO6sZaI3hOeIPKosLUALKT9DdHymEEs+TaYMHMopD0o4HxyUlBuTIW7cJ+fIErs42v+nWDnvFHx60f/n6MFIpy5hocac4Ns1dBaH+kquS37xhlW1eN8KJOmisaKMosyiDxBx+4KVfY1C9iXcFXirra7AhXw3rPrRTkKC1FJaaIMS6qUKpFsOfBDv+nILhWZO5UHfVNA0Xj86zWugczKoPAh/qIH6N10CmmMrrD9Sy2AWXsZVs7Wu3T31lzP75PzlhCFdeOkllit+LOMnpqvNYNdjGQQMFTgRBAzj54IN21aN3269c048bJjbktLfbe2/ilJE72oGDr0dMTlJ4q0hiTiFhP9at5lUaT04kaKxqz7VaF7bqYSPfCQIUvfSjEatddOTT1oG7Hi3nu10y3+oUXBrmwrCTQxr6erKuiV4alLmpYvvIsjLoPitxGaZ38f3c2Mf+5PwOhEXnfvxYrgDnMKGBDhBCv6UE53dLSfizS6Nqir9Q6RpMkLmc2TfHQ/EVxBI0w9WvOYXEMEQE2ZZItVpBWnC3KOOtnErBYeGPDh2nDUYln0rqNJ/83ID9YD8zU7bU63BtQU7TqcbHR20Y33kasMRgkszMFE47qZNZN0yYFq1BOaAScExVmbrmcLJfUkV3dmgfcahseKbjtweXLcMICrIZkwCo2XwVUPU6t3yBGarUIR+VMdp0xErXl/C1fhegzIVFNA+KFb4IegwBgp6Ul+aVsicJtiwaYEQblsVHOC3g7En7h7d029+8sdue/Lg8/qlS9pHP7bGnvXa3veEjafvUtyZtYAKbImFVz8AZgAbkxpdukwLthEkQWGKCOj4RQ33RW5W/MehdLXbtpjFG/V5tLrjECC1Gdj5zQ6Rq+ND4WV9ks1hgJEzAePeVRmwog6uXPpxYf73NfvU1++3T3xz23d2qb5Uzxw5PYfeUx/Ra/4ohZtekBUZVHlOkRYNwVdoW2nKWTTYjaGSecHHFPvbmlfauV63nKCtmkZzw8PYP77Rf/oND9o5PsUHl25N+tJ3yUBNVkGDgbluo1Vi6ADl8X/g3JFQRqHl6gNpDaL+imrQ7qttG2oQamA+1HoMkjkcBFyF7BhEsCDrGLLqBOfXkLmylcD6s81zV8Rju5dI49njlJ82VyyNkEzAUhUOe4g1ycK1+qVyFZ4yjvI43eFpHn7s5gEKOThN9Is6cSckxZUQiwdZPsBHe5Og8hHiN5SAKccQnRQPVq3iLNhTJlcvegUDL4HBdi7sVW9mfwQ63k3YDlkgEPujwXpC9HqGjm58Aj5bov5hrEBqJxZLkzp27XDDUZrk2OmqWgopvtVU62ImO3V9fi90z2WOvflfSXvmXO2wvngGkkZqW6xnwk6/AvlzFrryMc3onC+yAl5N7YajJnPDiviZcV4vPJUk9BnzU7gLx9Ve4xzC3dhVbMQLNQhy9C1DCs+CKjhFeNf/4sRpVOUs8DdQKcetRQq7uwD6+bMgjgBDvJ51rWuVyy2xVD3o8VgRaOtdw1vK43fT1fZjISJkww6Q5aW95VY+9/JnjdnbPTtuUvs+ue2LB/vKVZ+IUehJPAinij9i7P4QrnTZMbfD1qHFNtOvCMXpvNyYa3l9qCJ3QjSYDeTZDrmcZXyY+UateJc9xw1Y6wZBj7jbKvGFtEj7IqAeJZG7lfOq4oTYmoE4of39fwtauSkATXA1BHME/kSA+oklvB6d2nXISdsur5PR7qVQImIjnh3LTl7D7PHkTv5NSuA+SZw7anaT3JeKtdZOHdfCGQGdRF9W8XgKFHAPI3DlbNYqNBYhklpG7+IPU6GWdAMGsR2evyYYrxokdPzAK3qrimFllENQOs2kjnTtoL3rxSkBP8I6NDXxrh/jf+O6wfexfZ2x1dx8HuWOrhxBDe+RkDBxwDrfbnoOo6CW/wfSSiWC0fuomTl/gJI5hfEfJMk94aTaqzRvBgB88VcMskzDlxa5QQ6iYjkzZQxX9YCu2gYW84c7Mkhj+BJZVZW2+zKcWoNLpJwYoIVF0C8xHQpI0YeFNjBfZld7GoG8EZ0b1t3qlp0ivkL/ehqDBTJouYaukOkWljO/AWXYaVyYesFc/K8GsfgMwOPoJBj/Gbri/eM9u+8DN7KbtP9VmunTM0RgNXPjKBlI1zIyPziOfW2HbCwME53xKuNBh6founPQtlJIHfxNooCc9ioFrwFX5NSCGDRsqexBUFc0HFcUVJOKEGtCXENzPH99VX4JJrUOLQH8Nn3HJVcJvoA2RBJ+lW51z25vaYyumumyv5a3AOcCj1GERY/xUbycbQDrs99++1+6+LmV/dEMe9T4zf6zs5Y+sA1+4Pf3s5t2OcTebOdxNh0AvGkQJSkbaLANnembU3vyrSXvxNb1oYtFD4v9voJCxV//1Nvy4dVtrfy9OnOlLvbhXYZlaQbvYVULtXhZdUiyvSlOEmORfxeCcSNBCR1AFdJRvFTEuCZaT1Vc1LMY245ojAWwIcfOMWlaIrfyrGrzq8nULV538sHVv1dcjbjTS9FMtcJ19Ws5W9u217bg2yXI+tlXYfa9+xHKialMhzpS14zy223hVblnKl9bA67WuvNX25uK58FmQFUKZFTsUDZqo3PrjA6z4FhM3tWXiCoMU9pFhXYFd2J5XKLGD44+30fig9haD6FGtI6GnfpbyylA9xHjq+7RBnt0GSThQNk1w5Z49Sb8szbTZAw+gib6Mdu7p5Rtu1lbhy3PzmpJ9d5f4H7STuQsn58iDOesQ/LTBRuWiP2K7mm3DcXumx7FTcaVJumffhN2zlw0hTGDY72W5GZyjt45ZOw6X97OwMUWkAjtTdPxjV3+f3XRbxu7ZPWB/+YZ19qi10ErtDGCIOfjA45wXji+Usxtvb97PwQVeGZYBY5lZNcFOMIWZzQSSfgFe3wbflzgmtqog3F2gCI8BHO/0RaHeHvSkd/EX+IbqM0w6Y3zFI1Tprmxc18NN5B2KqVYtId3rhwqbpb+oJuqxuCW4xTawnJOhOCjTfguY+GnL3Sg7E9NdZ9jr//Iu27lN9rCcAX16yp5wyRp71f9YhfseDgGAAefaWVNHm7ofur/3s/vsM5+csEp+MxozhD8oqr5aQpooUedyIyaeLfpIqyb8A630MpTREWv6Z+F3ySBTnEpzkGMZ3U+3mh3RBPeIYU5eAa5oHWom1J/q7fCoNrjQo5kgzKJskRZQQfnODceCf0ihfEZxSi8+UdQBCQThHELthsdqJnNwjfEar2q/wlE2rRU7NMShAmySkiu3wBsbYSrd0XGVBlT93ANwheehIVoJ/dqFP75FU7MQ6Qgwa4Cq8LiofT7sg8imalLncOfMMMEkwlMGxtYYYmfvwIlxGjcsGVQ+LalpF0x01mtU4Wswj8uIElQkGGi9vi1HGqZe5cMYxr88bWdvpkL5qErIoLnZsX/K3vQ3u206tRJmww4rkBJ/TTJjzsLYJiez9o3vDHr3luDSwsCis3vX9GXwdwUsPH1KFtWuTgl/YSFCzB+mJ+Y+y8kMlGnVShloM7wxWMMKcJBatJtvgRFndAA7LhRosBok1FpFgdBdRAmxltDIfEbK9zBk60v4+V8eRCv9QmylDYFXsbkveCNNSviuvwoxN64A0qxMqQVTjEb2fhN4VL780Wa/dcM6aInTYJY2M/gQ+8JXH7CPfgmhb91K0uEbjKUeeD00i8JcqFsJ8n4OM7Skxh2+xiwNc2JU6pPamRg0hHx2DIUBd1U069j66/Cn+lGDjYJyFUNUqBbDIelZMWJJBV9JxNRj2pAs4BsG3wBDS7ZaSitQtt++frW9/20d1pXi1IoS596yZKOa1OkCozjLzq/ewBmsBfv0Vw8i/MnuSTAQGWRQL2MpkBKzU74SbaI2d+4V4YJvMkNIMGuewq3H056StJci/FXgylr6a0202T9+aqfdfmer9a9dQWlwxzGJg3EalBvv0/40GCnoHFc5Qk+7jREU0Gkkapf6Bx6+TOrU8ehKUb2R8BE0ud5n/W1opQFyjK8ksXZ0BSZ/Q9VwBzgN9Kr/TLbNvnbHkA3hbkmnHSjI1+UGTtd56dP6LIPmuBO/KjMw3gr+59w9BmklLEirqg3vyM/gxYNCLVvKzX0rG5SSTFiCC6QQ5Xj/hnYSgetJeVFvzqfQNFIgTTBE5xR2na0M8hGNmFbXOUH0qf1oC5FeNAYJ+Wl1EPKRWKEgCgpmgraj9uIUpZOIX+hkD01y5ZD49u+yWoEmMCFv2x4C7a96PMJTcsT5k096ZvEbSIsoMuHSJFVt2jVHCHEnr0O7r11dwJ6R4A2vuum2URvkGMkMm+GmZsY5V/ugvftv8/aMJ43C/4DLNln5nMzJW/LYpOXWdHKaS4e97R3b/Hi1WSYO2kAncZz5tteTFvLJgZ9nBT8OUwo9qYwK3SwPru7GxhV+W6a9ervj26wm2XJ5xKQ+HPMnkPxTOrUFvxHtIv10p9TzAi/UwxW9lkTP1Wiibyu00bPGk/hen0ONxPQae/S2nqdutSNc78RDNcmcZWVpfGSKHfpslMFv4tDoYdu8KW9XPKHTLnrMSo7iO2i33T1p2zl8YJqzt1kysPv2FuyTX95pL33j3fauf8LJfWYlU2nSJ3DJ0zJB+aV8mHXXZfsOFdyOzAUM8tW/pQallFA5yhn3BwamMV9hmgB/EOwlBWgQ/6UYV4soAPbuLyL40DYAKSFQfCFMAo4nBxG++iO9bAr3H5yyXXswkcEhvSp2iRg3IBH60Tj7B3bsmsJpN3wQfJca1L61eqGgiyZq24G7bWfBl/S990Nn0XspYemYLSW3JaUJBQuMzPdUwvhgZNICVJlhlT6hY5LHhtWojZOjMDEd+C5jTM1wxQjoXPQz+KYzshIagSKMSwedZ1FbV6Y4I3L/fvvjl6Xt5Zw4kHD3LVrKxU0Jdn9v+KsdLKetw9O7mBtzed5rZp2WNI5WK9+Rs5u/OcDZvuq0obDSXuSpuut+ieN/6Ih5VHgtdERSgi9l4+dzdphHmllrX6ZkG9eqWloZ4FgKxBbkZpjqd+/LWBa1vxqA2pPKrFlAMAaNlR8an3LWGzUKXSMDCnRS+jCQkGUIMTlPopcMjT1VJKzHCh3OBTI6TvhUT0jfYaCGUVMncsshoTbJlLkwe9Aue6wEWgZnZqcZDmVX+N53ypxJuYZBgfNZsWHpYDeNdl6HsR2/btW6FSayWSkzuy9VDrPcJyfCwGfAZjgiL4gBUrUloTpK1LEYaaDTHGbhyNMW+B7YstAW2w/BDZo1lauWMr4nloB5Gi1Dhl1e/jZGBW8GANqX8hP1lVaTgwRSxikb2+yqx7RZmql9WxqGDJVS6Wm0dJSF9pNhE8httyIFE0JqCYnoimbkVihQvJaRx2r2B8YGHWVXlc1M2xUXS8QjFXWe1q5jCHL/Pe2YJGxgVo1GiHLmkajyCIzyUKayY83jgJWl2koZYUVFl0PmDBpvlVsabJ3SoAlJLTSgqLag5UVn1tUI/ll/+NHM+B7uw+eYmJYCAX05DAR8Nk2n1c7V7TvTTLCwZQSnKWbCOj1BtnsvvKbHHn8eZ+sOcO5vF+fYIvxwKJgLwpqItKRxSkPDKhZY9nRBhYzJX0HirJYn1YzclQ7udqgMfroSSb/jCOprPsEjTbSPi26atDKBDpe8C5SLNsxEwM/vppxz2ueC/ALRtJFI7VV0K6EV0rKpTnshJ0pRH7wUu5KYJF4op/iEOAqLsNgsM/lgG/j9D6TsW3eOoDlD0YfQJLutKRwFP+GSvF14CkL/SMHy4FUpQzj4XAs2zBLMpIkVv8uy8/T0NdPWQ77SFKc5B33nQNk+dzNn+mZXBU01QkySM7BXtifsec/osXVdeE3ARxROERC2O2j7nAYzMclxcp324DYEwbsnmKBk6D+B5rPi80yUwIa8adf81YYvOURWmfTOl7+IvqIza2u7cDnDZCFf0VF22qcPbRJjlsqM0H6wE5VmmPr0KQ7ApGmP7QBgfqs2L7hqf4IdnvWOIHrwXvSf816fQEdCoI58rPdVTxX+VOFqMhPy5FoNZEOZQ5vXZpUKJzi1MBbIzGRFJmfZwpA98ewd9v63rLVzTsrbv3x5xr6x/TT7nbcethv+cI8993UP2rWvHrDnvnHUXv13HXb/zs12ct9Gyik7MVo4NKggACo4/nQ+ad4lRh+53VURPMrFhT36ocYO8QXVXvwdJWnTzyKV6Ov097pAeQKfKaEClLPtKFwuWcAUfkKQTJSPzEdkeiB4+unTUkNM6zbT4CzhzfNaKsD56RweNFBveAgAqxc9IoL4sOxMxBx00HgCw+98h3ZHqfMEsgfv6GaXnNFtl53G0Tp7xq07zTmKqEmSrMa2wdwz/DTp1bm97Xitz3HuZQafVdODaKNSu+1/v6nDfvOZnK3J+oUaQ4Kzb7cyQ/i9t+y1H+9Za9MdHF8lBsDyWgvaEc36xBB1VmOFUy+27+2xj31xNxU/w7FAk+DKkV4sl1x+btaueWzBygdHbAX2LaUinVJTReFOXj1w4jTnp565ftQecy62Mgh/6bas7R8t24c+g7DZ0cfpDrA/WpTbP4jR0MA0+XMpR5eq0CSaSLhJo02TLzedZqKK1k+zYPmfkz8o2ZnUGmz1Rh1Cy7ASqGS74HTXH/5r2aAFoS6DGtMHaGXkjZCOBD469kuD5wzwW5l5VxCw5fGhb2XwSZWAZlKNK+Qw6tUSdxcRVuHuwAqjtlbLnWlpv9BMuCNthhwGZ4OZd1CB+WQPGyLKHGvEoE45kqTXztUE5dQQqECxw5W/opMc0QqeBDZfiuG9fI9J+E4y655B8FIQ7WJ/YoWWeguCiNqWGHvQ9qEdRgCnYOAlplRl4nyPaSWcS9gQoyeaMwA5+B4eBVeY2TOejOathd2NUx1etiJOwXT8m5a5/Wgq37mnDq7lbjb/HJqxfe4yhoHHRx7AVMsovOcEhBbhIW1CkfOA21jG6+1l9y/MIgwyOlMV8wlcQyQY0Dl211ZyqsAsE5Z12MJwAKBr/aCEg03RR7QJpIsCZSptNjmGv0L87ml5tQId0hwn0godYtlVXgWxUNkqBTroSUOuJksa+FnGoH1IwAppq4XxiwZX2ibtRscMziDkqXu4T00EymTLavvov43R/6AOwoXqmuaKgN1ib3vNSrv4jH3M6Pch8LL8jKbTWBIuYoIwQtp9g1vtmU/ptvPPXE+6aZZlWJrHqbr8wrVnBumDQ7jLofw6/FmZAjycouBFOvKfav9whGiTOuEjm57EzgpaEeLs3E/GgcbnncakFLOIFSy5ZiCenM3TYb0NS6OrMtWCYIui8JMSJidl+oImVuoXZdKtWCHhiBjQQ0FNUlOjfLtWGziuUQOy4MNr1AbkwH0E0Wg01Wcf+twBO+QrFWqbyj/FieIZu+HpWZwyb7d+NIUpBGYdPVcuowmkq2iS0EHb6bKD9tRLdSyfhB5p6HL2/k8Xbc9onyXY1KVJZDKRR7uc8bOhT8GJ/RMuoF9zBvEKVmhKuDwqo2GWpktmDeInE5PBLlETN4XtO9DmMQkP9p50SNqdePf4RBL/g6IS6aF3mV3gEhOvemzaUpyPzBQLPqWzz3Pgwak6oykbQpsmbfYsTrRn+DGHJEyChxqtJjPgwJ14wwx9hyHGv4l0iqr5gPq0Jj867QMyeIgsQO5wtMtW/E+bp1SJUvyKxXsOANK577LthY2HtKGYrj0TT21hbBI+smXUqS05Ocw/fMie86SSvePGC2z1iozd8e0h+9QnB63E+eATmT7bVzjD7ju00e7jrPnhln5rXbHKyrmcHSxMYVMJLtCvwok7LZVucBLNgM9Ft5Ta25qPJ7wQOrEvBwyP/jcKYRLWosCmlqicPDcAulBVLevRIYYYMX0U9oSwC2nUk5asY/BNIdU84rujXdW8It70Psqt3BTCVd8i3PD+6H/VeiJeugaYgUcdPfXRY8i2UPUUcBSF+flzSCuKOM40tgbyhI9H+CtID/MgPQ/FRVrJ4bqglaWFcRwDT8/uscvZSKDgk0HFgT7S5Ohw+Xe+5jT75cftt7axe61tiLMTD08xeMFkJrCtmEQ4ZDArjLLDchgHxLkD9lvPnbSP/tVGe87FnTYLfHXINL//+Mag/eob99jtB9ZZkcFykg5a0bmOLFumtBRNo5HwIUe1Olu2LbfZ/vnTrXbb9yYxXs3BADUgaNHW7A2/tc62nLLbJgZ0MkQHK77YLbFspV2/MzDKytQP7HdezPZ+BmxpV2Th9tZ37rFt+/s49gn/ehqYqHQd7ZTP4ngaLjVOWdIsjyk0tAfr4TixEu7629iNJKNczfj0kxDc1cFxTkUGdwgnvNRgtNNYoQ1Yk9MwWjQUPQhmaiDSV0rbmW8HMxxezzBQZiQh0ZN0HqVCe5sGJGlaOeSes11TGuCBr0FjdExCFhI4tk8SyBSuvqrDktmtNowT4sP4/Fq5apu9+AX93gVngKPZq2wF1/S02YWXYAN38D4bZAfxZk7KOPfcCZhwwXrxZZZDYCxSznx157T8iol5Si7OIuBPTqjdcIKEzqTlndpIG+VQeyooHTvlFFIIRqEkKi8betBU5NsztDfoCoGcSTLI5FlqSqKVrbBc3131pZZkMA4nUSBUQo/xCdKy+6ud0VyCsWb34/j3E8O9+PROe+nzGYQP7uU5jbDNqRDyzcdutInp/XbqGRPgofNGabOEW76xn6O0EF5piy6MqgCLBuqJ9q/BNMngNz0167jIWlELx0qpvnTVVWmbaPm+PTh0wPYNfN9OOeMnaGhWOVS1Iaqeuhqxk09K28bTSrb94DaWC3fYlgv22ymnD9L39mHT2oYgnmOAQVigLSqI9gqaXM2gNZTWvQMapnxZP9BeS/xdnQzO1FCRONJKKmipXKy4nTYn7W4RG8kc7ahCe1WZNPh2ku7OH2ftPf98AAfXCBFTCAys7YrZrqFNv/8tJ9nrX1y0MzoOWuc4fuSG9lnf1H67dN2o3fjKXnvdb5+ESYLyCf1FohLOMeyaS1bYhvZ9tqn9MNcZ68R0AaChP4Xm6jg2/VOtDgllbW30C+pzkKXNdH7Uzt7S6UlSvqFnnLakyAm74ZfX2DnnI6weOki/yjBJSrsTborZPHifL0Nn0RahDOF276HtdtaFQ3bued1oe7HHI48qKg7jrDPyCF4FWljKunPwAR0/g7SSok8WdYQhS4Z3cfzaez60l76vPoSAAg+T4Pbsx/XZS56ToY1utw76VwJnwokcvQJ+lcu224G9e+0ZV83aBVu6aQOYL9D3Pv7lYfvUl6YwPaBflcNGOPWFIqd9jMs5Hb3qt1+80TavHTA2tdPeqQPOI87mtYsbY4iOB+y0UxBSaKFZ7VrntJJv3T5hWSYxMl1IsWSsCVCaGa+Eua07D3k59S4F/hIEn/v01fbiZxese3ybrSsesHUz99rJmZ/Yy55asDf/9kr3hdnFunInu1XFi6Tt7ugU0RHEabviD23URZEdyxOcEZ6Fp6Wx89FEQMqFdvhGmbY5zaQtywRHjURLlAp5+GzAMWs98AU3NaDeQpWSD6tDM9hSTmNX2d0Z0sgBvoL41Cwumor4/OxsR2hlApdgk5jk4QvPS9ibX7EWPgJ2TKrPO6/Trn0WbR+t4MhI0SZGBy1ZpL3p+DzMI1DxY0aUtC7OEu+gPXbChzLMphKaIEiYRXsaeFkot3qDWo5+/q+xETl2zf4oUvgJlv9443D8Gf5NO2v8HZumMcJdmCdgY5ZzP8LrGPQX+Tg36pynOelUH/pV4cRvNbhzUjZ/mJNGURpx0r1Cs3fhy+J/62lUP3Nh8NiYr+O7OKRmX5Irzv+jNzf78HN9F+nlSMhGh46E1mBkmE0CicN26vqS/dp1K+2ax8NgEcgkrMTlPs0YpCpuhxE94dIeO29Lq63rTtm6zrKt7ZWmY9rW9kzYmRsTdvGZSbv+qQn7rRd229WPyVgvDFbSUAsM7+6Bor3rvdvsPZ+A4SQ3WCkrbRGiEEyS8xFgWtJChUFVtnE8UD18o/Oly9327W9ttTPOrnB8WwfLVezEooMmGbTOPb/PHtxZtN27xunwZXYOI1yUJ2xN+7C95uVr7JrH9fiMeBzh7o/++od2650weA5HH+MIpQTvKix9t8K8JplJW3nYrjivxV7+rF7DuwLMSewTLQpl6O3OYVtTsvs4k7OA0X8aRoBcZ7PjzJ4HR23z+iJMfpWdthYhGO2TtyNmrh2dbTY6krRd2yWY0S3YkOKCXDFho8NDaI3G7HloSM86HYEXo18JTlOkzzEAlzjIff/OPbbv0GHw6PYjzyawhUjODtizL+1j8B33ZUTtaN2AVvAidriuQktyKWe8vvalm2zL2qzdvf0AS0JoZBHiUpyZqhn3+ed225lbKvZLl87aH7xkvWsKbv06msYxZuulrbSDNfbMq9hprWqA5Y7BLAtMAjq6WQ7ZPWp79uzH8FwDLYyQb2ODY5acHrRnPqHHnodWaBYHqmo34rEphLY0gseO7QN2CJua6RIL+GhnC8AtsbQ0OjKK9uuAPfXyTnvBU9iU40t6pGW5SkdiaWDb92DBBh+cgC7kyYAzgibr1FXT9jQmF+PjE3bho9CM4OPrm98/gPYtZ4x3Nj06amedjF/EV2xkAJSAn0FAq9hb3/8gzn43+PmvUjAo6BJ/c7qKHugrjF3AQNvKMl5PbtKuPL8D2hcQNtGTMLE4CyexZzOQrEOjcO1lLfZ7LzvV2ARnu/cetpW0m7I2GdFW0phGXHRhr206edSe9Uspe8PzN9r3du2373yfwQbhrr9t3F72nH577LlMDLAJ0/LPtAQJyjyBkHXXfQfRvE2iuOn0E26kqbUieB0e47SCAbv+md32uHNwiqxJFfUsTWkKvMvJTvvJfXvs0EHafKIdcwqEQg3QtLOu9l6784d7ra1/yC4+dU3wdaY+y2RMLm8uP7Pbrntyrz3pwkl78sWT9vxrUvar166wX9rSYe/+12/ghmjSTt/Y78s+SfpTEY3fmadk7XnPXmnPvzZv/+NZbXbnjsP4asRZsjRVaKm0DK0Qhki/9T/q8RJtRPMKE6qxQyrXQTtt/YS96vr19tgtOdytUCb6SBlBSEKHlJ8SHi67ZC2K7YoNHpqwA/uHmTyimWHAZlEeeNrmVq1sslbbbKVCDmP8PTU9aX2dg/SFEhPKU2wltG6BJ0irofYrTXYRWvau6QJmlrY+bPv2cABgkYmghGa+J9Sv0IZ1pPvs3h+wVNzyIEdYroK/MbGl5xYQth99Hpvcpibs7nunmIzoOLcJm5ke5pxvNFLYof3+r23AZIP+T5v6xH/utb94H7vYOzfiBF5Lr+qF2FSz+lEcP4wrrXbr76EvICSfy1GZ9+GY+OAe8qUNTSGQzxQetJe/IGtPfvQqm6Z/ZHJ5+9vP7LSb/4tpYGev28k6j2cCpmsFPpVOD9pVF7NSA0HlTUA0S7LcecVF/fbEx7Ww2lKyp12ZsZc8Y709F56648CAfeZOzmCezkFzdsnmBnC43mNPugheg7CZgK8XsE/WhLkl3Wn3/WQ/tIPTl2h/1Nf0JEYFMMQuBPtf+eV+u+RR1CXCHNnSt+QejHK05O2++3bZwYFRKg3tKOYdbkepekBgX50bteuftdb7yyyCmiwrRmhAafhLhVN57t1+yAYPHobHo4llXjp22OyJl1TQnCJMSdCVIEdRL3xsp116cclOWVW0k1a1MBGm3bWy2pWl/nAzVSzA/1BkjzIBmJjkWDg0iflsljakzQ70QdpHCFIC1HlJ9SW1d6LhxCHMxUDwqgLq/Ct9T8Kl/zvmbIlYS9cEcvzm17mYLPrkeUdcHHwTOh4zgotmswDbObgq/8XyFsiF+bec8RJa8cMl1BpmQAm+R4eH+dBTtvQdtt98atJO25K3U9gdlsaeQzYe6HDAPsyo6sVQ+vjTTE1Bug8GamdNMsjWfEVB+nipbFsZ5Gdt6+5h+/gtA/bZrxXoQL24ZMFODclK9kxSQaObI76aWyM5g8pXeitxYnW0ZHkMG8X77PdfvsGe88TVMMuwA7PCt3E6/y3fGrXt29lFx2z+pJNb7VIY0ToED9iIfXnnpN349zuwi1mDJonBiiVkEGbwxv4GBphAU3T1FWW74Zmr7HHrlKv0XY2Vq7LLEHrGfrg7Ze/7+Kh97fsse8A9Vq2etN+/Dvc2bEohO4LSxqB0glOxew/N2j99ZQh7E2bjM6ttU27IXv+8VrsY5rOinQEb2IEKoodoLD0oGsCJYfvod6cwQm61sTFmnzk0eWP77A9/t9Ve/rg1NgHD1lLBJMs+nWh/WmWXg55iPxq3//UPP7av3VK2v37z6XbluSniIriST4mGkEOrJC3k17eN2x/8OYJkMo/GsGTPuKhia3q7yVuYCxfVZ8SJARobou27xuxD/zpun7mjGwF2n/3KU/rs6Qhwp+GOwiXfWruLNGQQZBnozq0pe89HD3CWLprA1n7s5fbY8641e9HTe+xk3ChQG+Q1P7C8B7O+Y3vR3v3JEYQV7EXZKbkuvdc+/Po2O+XkHmCz/I/W4jv3jNu3cf8yNjJmJ23ANc4T17BhSFsFEnbf/gm78e3bbduBzVZCY1GAXhn17nmhWcvXUXyiQB+Tke6Zrfam162wJ527wkbQEMgmr8TSpzQEgXGafedgwf70vQft8H0F+8BbN9O/ZLaAsAENOkV3ncdKRjffOmK/+3+LtmJTyn4HLcTVj8qhJUYbCvEXojZrw7TbL3xz3P7hExO2b3g13XQGe7AD9ooXrLSrL221lVIKs+S4sFQMjAjNX/zmhH3gX0Zw/9KDkI4wQd8SzSV0D5V+aL/5oj77o2vXMsGgLaJBkX+0Eu5iNIhLkFcfUMcp0W8+/O+D9td/t8Pe9Seb7EkXIGgUx1GCSfuL0ToansPs2HtwX8m+f8+kfezLszZQ7Pcdm9r4MB8/tXxBl2AmBZBOuVnbjT3WNe12OYP16WvFXTSbXDxEmg3goueH+HL756/utv+8I4e2jZUG8JHWU7nIlijNuufUFALPhUV74VP7bcvmaWiHBk1rjI6c+l8jlvBGNGIJtMCHcLFyz49G7ONfHLEv3b+SDSDqE/Q4JrBJ7AjzaLOtsNWufbzZ777kZOtHI4aXQCaT1Cs0/d6PsD/+3oSNUx89fRUEjy47ax2nCNO2hiZm7MbPPsCGhFFbnd+CfaG07Ai6wJYgmsWutzIyaM9+JvzsJSdZnn5RSbKpbaJgX/yPCdt2HzgiXD3qwpxddWm3L7NmESr/8vPD9n8/NmX92T48MsD4fOYjikMRVj/aEaQPF++2V/9Bn73q4jUI6ZpAIARzncUUJycbDrSKSFLw9LS99+P77B8/i9F8qtc2bpy0333uSnvMmSyfY4YS+n+9nkIutD9OKbn9J0n7wCcP2B335+2c9SgKnlaySx7bzaRK/N6tEUmongaOHtBWYmf6uR9N2p9/2Gzf4TbMINLWnhi0111ftl95TKel22U1qVzCuBN4J7jSYsZY+fjmbfjp/HiL7ZzuRRhmo/Z5B+zDN67xEz7kAqRIw9EEr8snJcpb9q5QnXfjfDg8hq9RViD2DqeY0E3aTk4Ruf/+lO3dN0X/z1oeZ9xT2KBq5Ky3mca2EzCa+4aoy+GRTwFpeeaF2HLnvf75PwpVNW/6tWu28mjwHv2YHFqWlO1iR5BcCWg5chRbByxLiKlOpaFT9jcMEzA6CQQZlk51qodWCLMZmJ6WmoiuXb8TzLoHOEx+54EyO3Ym7fs/Mrvrh9iKGNqkjo0sS7Asx7KuhD4ti4nhN8zNyS8GqdCVO7M6OmYBxtOa7URLcoG9jYH1C/+x1a57xko770x2qnUlrJdB8zlPhIE/UeKo8ES7xrLzl9iZd/O399i/3QqM2VOZ0SE8ITAl0WZJ+FMO8i042zLM0s8Glk8y9pV7GeRYYpnAfnCWmbHEsDZG6xV4i5dqfgXC8nmncRzQXeSFxnHdejSoW/ps6y6WGNhdPDQ26i4HtLqsQra7Adw0O0Rb7SIG+H/7KoIrs/TunhbbclaWXV4l27mDvWUsn44cRpBmaRK9D+Vlxg9D7czn7cxzOq23bx/aLgY04CZTG+x9f7PV+vcP2LW/zA7qxDjaAZYJ+baTc4+/cOtB++RNU7gQWEc9ddlb/nqvvZpj4a64mOVD2e1QjkOMK1/6+oD9/ScmWdZcbz2bhuz0LV02Os15mfcUWNafxmeYaMkSLaRK4RuuFeP/NEtyG9h88ZgLWu2zt7DLu3vWLjyTekUre9s9iNssh40y85/G9s6N9tGQ9cqhaWfa1qxlJ/hps/bDH45Zd9tKBppRe9yjNqMha7U7fqBddLhUYeebtM9y5JxhUNZycAXD9w0bsnY2WtLbvseEADlj93jWfvXth+xZVyO0Xpm3TX1o5sDjyjMRjNCWiu1qGHjgQNG+ejvLaZ/jtITRdVbBnmpKNkVobciG8jUPqj6l1wklagOyI5LgM1laaW975w4r/GYKjQlaWb7p+BrZ2u0hr8/csts+eDNaqKlzsPtqwR3N/fbW31tLubswXUBCIwyOTdlnvrTLPvw5BMHKRuvp3k9bXsE5pWX7/iS2RsSZpv2WoKGWy7Xs1M3A3spmg4vO6rcvdnESAe0GCRrt+7hdcN4mdiLO4tJC9IOOdHS1hTQ7p7QMmWlDA5pvsQvQXK67fQ/LfZgVdKE1ncVtDv1Qmq516TPsk3+/13Z/a4e96FksqZ5NHJb582gQRSOMRJhkkMfOkn2Mwf+r305Y98rNtEt4CN9G2Hv97Xu0zDhjd94zZg/sg1YTnO1d7AjLkmhhpclqRm/RVwO2KI6S0DV5a7pn7MorsCdmQvOjvZwNDt+Qre00Dpedj5FG0JSylWXMVpZstbKRaivamee227k72+22/9JmFYQZbTCTVovIqnP1Y/lDO+eMDjvjtJSNDYE/HQKlLhokhEP6iEQSnf0s+mtFXjaYOU5JaaP9XHhx3n7wYNFu+jH4orHTqQfIb1aErwyzuSqbO8U+fUvB7kCz+vQn5+wpl+fwjYYbIYSoS89F28QvcGOZOhTZQDKFc+Gife4/xmz7oQ7sSBGoBRP7N7ViCWPuD42l4M7OTvuXm4bRiN9rNzxltZ19VhobwJS9GH4YQhiCxuBF37h33D72+b12+w9ZRs2vZekY4gLT81ZFaACDFgVwTiXX2vvevdvWPks4n4MLFBi8myD4rNYG6Zffurts/++Lg/alHyRsXe/J1jq8x1atGbczTl/F8nuL/QQ+NopnhimWR71e4Jvylafzs6WVO3lzys45vWB3Ys6zYcV6O+OsFDamZduKlnKa8y61UuJLwNhEprTRCP6XZ2l906nttn7tIBp8NL9MSvrWVWzL+Rvs/kHcX+F+pwBu01PSWGqDF+NVnrOhs3Krk7fzL1hp624bsh/cxUSrux0BvMW+fPuoXXsJZygXMQ9hw1YGJcIEArlWnlopszTMOWieozFqUqVJjXODi7ThrhcN7ozd88CgfeQrw/a1/4LPtXajfVR7oRHUJr9Ktxz+u1HgYa0BVGXoUGxpvUpT7OplF20HmgsX+FrY0cZsR4NHmQ6hoL/aYSv3LzM0cLFb7e5FicHggpCCmlx81bUgjCIzdOKJQqeNMGMqIAik6FxtCEDqZOpA01ry9Q7i3EdZeIAHzQl61E+MvkinnGG5Rj7cZJ+UZ9dqgR3Ecu3Xv3LGNm/WQd3gSAJWvNxOZ3wsbTv3TtvgMMtIOErNdcpgl6VZlmS0NBHOEUafRxoZamewJZmcQMOIMb8E4lGUuNoNnARX5aPBQIwhySBT4L3s09qwtZkBtxKnlUiTlsK2qogQDd/2wVeQNalkiGeHqpyvYq9SYMdym2yDZE9IHmUOakdunWZgLRbb0XShJSDNLJodLYvLFLGNjQFFhIHWZBfLNIgbMNcW0R6bshQM85Qts3YWAmKRJbNRZrj3shy0Zx9DLUbNWjOeYSCQe53EzJBddAFL6Bs7KGsRLV7C7rkXhkn9zOAvJoFNXZl8yjhKZQHHigipsyydiD6uJWVQpFYpC/XBjlhpmtrSLMczKEkQzmndFRpMTGcxBUdYogQa0jPUm9pLhuW4WQZwtpgg3KKHZLl/lvKWOM0kw/KtfGvJr5x2o7OnE/hh0NMyZDbFYAjdSyX88EGwKdpkCk1LmgqcGhlBWzTBEnor9czyFRrSFEucI7TFvQcNrfAkS/QJBs4u6MpSP81oNskSNRgm0XxA7jnatjB8uqzgAqAmIb6bFXzkCLod90cZDPmnJgbs/Ed12elnoO3ifhTtxH33JGzPAP2E9aYplmkTLMllEYyTxWG78pIuW7Fq3JeQdm9P2vZttK08gwmDDSvL6FXYvQwN3V6KOtYxVco7TX/NIPVDFpb8sGvCdKDCUmAr7j+oJSYp0A6hqA1HtUVUUUWE76JOOfHBF6GRgS3PYNraWma5k2U3Ng4lWZJz9yz0iaC3R+uNsNpG3yiOjYPLqG04qcLkhpNBVsgeizodx25016jdc3+BPtVvbT09eB05ZC97PvXApoGvYdu7Yw8aMhwSJ5gdtlAHaQQiTfSEoygqWsege7UPBfXz+JXi0ldoY9AkUcFmrZ0bUsrFzyjuf7RRSCxEAkbkG9pZjZISLTZp+SErum1iKxMI7bJVX6zlrRsSS1tbYANUOoufUPV7Bm/Zos1M0U8Z/AFBYJkQDZl4izbRZDizvBX+M41WdApBsS2LEAEwzSVVW8JJ5RB/ccGZ5fsCPLWjd9Q2bUrbhv689eXpD8SWEDHEkuQBlrn3Dmjy18ceG45zQ+iQ7bN8L/ouZXYHJ+AHQQNHnYObTgGRZjbJLv51myp26qYWX+JswzZ3dHSaSeiU7YH/Pfgg2tqWFdbe0elL+xL+ZlvkXkaBmofPu9BCBSTRCLeCd2VkB/4C25gMtuNXEApgDzmAT8j7trbYnp15xoq8zbJiMUXdaOVBdrFy2yUbUpm+yNPCLHCDvRo7lOn/agfaSJVAAJXJT5YxR8fbzc5O0BbpXxSvVM7Dn6v8D0F5BjMSTFQZe2ahlRQPmPKI/tRbpaANRyOclKHVAfo6RUrQl3UKlXTFtGLqSy7ImOiz2uX+Y9M5m0gMYNaCs2LGvd99UcqedlkffIvTQKg1bdhS0wB92hhlgBaysIDhOq3UjCQYagIuu+sW+iiWHfbZb4zaO96LwmBGu+Whl5i+t4R6+6RJ1tsf98vhF4QCzlvmluVhLwDS12jcCDQwTS2tamcqbdnV3lk6jOy1NetV0IxdnRmeC1PUPIg/Ui2ogYtpQAB1FI9Jx5SuIIGgKK2NuLO+hR2yeqTzM+AotLAtXwKZMzV/M/ePupB+ATK5idD8dx0CQkIarUQrLmkKLLkMY8OT5OBzWQ/KN2GL7HEQ1iQs5WE8EpYK05rBwTxBi2G3mpnKIWZBxwfPVs7zVFGkIdBsGz7h3Vj0KnpZpHmAAVHKFCOQNF5yR5HEHqQC4Bk0RGTH1gyYgwu5IRvRWu4XhH2FXYRylTALU28Fzxx4ys1BCaah8ydn4DgaSDRgaYeeJNRWRhcZN1ew4dMylOwkhUcFBplCKBzHaFw0VirF72bwTWG8V8QFhYR5GamrjBJ8D2OvNQWt5FInyZbSNLNrmQOgSLJecOiiTYySH/t5YJpAdJcYyhOBi3In2KihsUjVKwezU2hKy5Qhy5ImimHor1E7DCyqP8eJetFyCmY9uMGAbpRQNNCUQCw3A9Gm1Y64l6ZRAjPgPUhDrKY4i8ApVxXaeFHEdhNquSAsXpujLUzDiYewDUsw2LQwSVAdahCfBnaOJaMVsnlDEC6Bc4I2Ivqp7SWhpfCkemthoQAosqolEok6bgG4a5og4ghaYtkAKr1w0uaYdrRmEwjF09BR5XPhmbjj2A8VwUETiS5202bR2hSQcmgVYYIEvtJKZ6CRyu80cLxkg8aylAhBPaQptAz1GWtdMJ0FXhv1VkRCVN+V3aYor4vopxvfHQ+NZXs3Do1m2OmtndIhFjmpvfOk3e1uP8VzAdtWLW0jjrjAgodiio/dE1qZcoqJAkJdO/XegsaywsSqxO7zBFqjDPTX5irxFR9IwSNDvlpJABuycgQdP/UKBWrNv+meLk09YueKoIqozWoF/AT6q9Vr40BIHvB1zSFlVHrXegoW5XLBhqXRIqYBiA4M2lpnCMHTE0cLfVkmezNMQvxQSezdAB/sXqG3E87/Bjs/wdXkRK1QQojahHbrhjJBY/BWHKepisikDi8/bn86gquYwwiDM9jGZSmbqCHXOz55ZnIs+9Ick2wd06jNPnRV8NYUSr4UoSuCm3qIWG8ZAa6CsJPG1EXa28OoLdW2tYFO/FG7ubWKkKJDdqAZVROQbZ2EtYrsCdGuOX8RDrS5Cu5RVANqK+LgWdpvAYHLNa7Uq/NcyqFTEjpknkC7kzkDSeELpKFtt0A4eUlQ/5UGN9am8lZQjvRg3yokvqFySjhT31Df9/i0m7n8j/GJJVxp3kWPabS4WgmSm7AMbSMN/9QmLq8HhHKQcd7I8OP9TnmnqC+1sWnylPZ+ovUQ5cHIaTJna+BVm9sK9oLnoUDYPM6kZtJOPfk0W4vNttJWm6nQ91CsYHuLokAadY0XMqMZoU77Edrf98Vx+98foBWyWjPB6oLTmlQRhnBQk1gOv2AUUKefFx72AqDm4graiaU5qzMBlQOGpnFO76r9loauzinmyTtas5go/ci/u+8y3dVowD3/Zasiv11iJw4WThGYvvKDFUiwgbEpNApK/qL6x9Nxr2FXQQKgcHIxgY9ya5EATgZNhzRvfkqGw1VK8qFzMkaKr4E3eYID+9K8Y7uDUJVVGAI3LFbAXGGcPDqD8AFJXEDBhTmVRrRCmGPgEP5eJuEFg1I6SilE+Xmq+h9eixJyJFvBVkRDCMO8RxWCTn8SSfTzYUfAPMBowFvMQzWiAVuaxkAV8mQQYL3VhTlkVwYHlYErwpW0kNKKiDE7YwdHCRBlNB2zDCaqS8ZnN2CuIFjlEKa7aA+p2Sl381EkXxceHCNyRxvhwhKuS4SB1xv5ebmELwOLYFaAg/jlJKiTgTu+BXoFOrW4hpPXigRT1zKrGLMELJ9UeC7KiJ8uRJTbmDBwko+0QLz3WpHHFwv7AABAAElEQVRArfKjomkjfcqXuKgN0QthR8qnMtrLGRh3qEWdcyvNH4OrIyncPBv/E1qmYAOz+hq5OpRJRYk5A1vnf7oRPe+koQ6++hiAoHvoXWg9GDQ0IGRYAlMZpMFSHRXQhkwxULeJftSb2pf6ljcm5au25Bhz8fwps7QoisRgH/ujNBHSVqlpKEkYyEMagRON9U3lUt9UZpqIhSmDnqtt2eNKkGLzCBORJP3K/eIRRQKYhlVtipQGvIxApQE8R93loaVseccQhAuUSz7phJuI6s1VZVBRVEjCXAFQ+Qc6exTu/QqeOkM5LFcyrQSA6B7dQoRIfBZhFJSd8uGqmDq9QZvH5D9TPUvtJgaPQyZ6V6bO1LblYF5BcVEPg7+oI0xCDnKRFKYKwNHESLyTi7RcHktAlZ6HIL4HXCQgaQKYA3+qmrwkzKuta6qsMkoLRhyRhni+OYb+KAFDuFDbnm/gU5pkIkgl2BABjEq5nW/ApR6k7XVtoYouJAhyS6XlUrB0XuDIwQvV/6OdstNiVku8ojWtqIKfO5DRJEUb5CI/0k7zMsJgGYFKeEthUO2xjpNo7nUN3k4QnvW/HsBDz2p//PddrqIh//y136m8fPY2qpTgAH2Vn7uMAlk/2pNnP+6TvGTKohJqYizAsgfXG1WRX2mzkBfaQGfqWGoC4b2acSM7NmZXbBm0X3/pKjvz5Db7+09ut5u/hu0pu/9W9GLyw4p6T3fZVvYm+WXY5Nfhm5jUfzWOpdCYlhmHZij4Ljb3vfT1D9jBiZNAGz5LplRJLSwLgDVS/GLd1NpqvVg/fwEwcNs6Rtype6ijLAzqfuGbjyvVCDGuvvqvylRCZw2RXCtXjR8uAZYz63DLa7p4BOYY6MEhzkl5vA/OPAVJ/IbOjwgA9JhpYBoSntyPlAOP+epB9yG2UgT0QloX/KpgxJMV1HlDECMSE1JasS7FUGR+agieLkAL8Rshi/uLpSmS0umbJwhR/a9gNLzz5AFGiBQx0lNML8EjDDIRBzFiLzeED6mJwzvdywBeQoAGKRcuKZzbOfFN/CqwT26E23xcImoO1KERr051DbM+8PMu5iw4MZnj5898peLUTMPXEKPxMHrPAigBkyq+lCcMt+G9f+SPBIpQLtqANzbFr5aHbxpsVD3S1The3j+UZ8g3CoERXrNrpJ++xfYs3GUKoDZYBQXdNWgpTqwrMHE6MngjOLlw5gWH2kSMJRGOAUh8o5wIigvy+qovan8Baz3FuBI2BYu/DidSP3wPaaGDg9NTbH/c1kKAGh+VUgJtLGto8Y5yIKxDC32DaOQd6CwNkHYf61+NzBHocV8D5uqTtdBwq3fxMVLCacKDl7WW6Eg3oltI7WUEoGA2UihwkxBLgoVCzLdeB+F9/W/EKNBFACVYSawMvDhC0He+UW/VquNBaWP6CDHG17OA8R2hVEFNTSst9RThvQtZAu4hwmxI6zD0XfFjaiGDAAyfkPY2tGMoA3KaxDg4JVH2XDQxIoH/q8PQO4UAsxqdZ4/sX+K3IKhVXwkPJ0JjFMEIcOJVTwFShKcrvxrd6jGcn5NeQh86asBjCoJT9uzA/fbrL6jYS68/zU+zef0nhuwfPjttGyv9bJbCVEITABq2u9ORvTuq9ZV9JWxoD9v1V/fbBQiD8gerjVFQ1IaYcb/wtfvtx/vX49aHuoAwzD8iytwsDMI68J6F35bfPHIp8AgTAOuEVoMMbC526Phcj3Pku9hRBWnpoS5wHRmGclPnU6deGMS89DbiFGIoZiN28T4KyIEGc+PUIYS7ECemDHDDUD73XfjSiEGE1DxeY8w6BjFuTBuhxmt14GgoZxy0Ywxd4zuH5n/q8FTb9ac5qRoeIh66OtUbvi28jbH1ZSFsvYkx5n8N7+PXevoYr/GLvjYEPqksjbC9PcekDVFP5DbSUjAcm9qgFdtcHXrtk+ISOU6aopZG6Z0aDqiOeR1CuPM4HjcWppqgFlHiS70eG7/GFCFqzLGWcMFNxFHYRPw1tjpMrtLWRpjxu4A00iUCbfwe3y3l2liemF7vIq9Q/42tMuIW4y3lWu/PdWii8NKCYJC2mnwBlGoW9ZxCLrFselLZ5n8PscLfIPjHOgg51CYbDRE1gYr5C54mDgtDY1uK30O6+TiE/jb/7VyI8Wsd0tzv9acYU28aY8f7esyFdzFtPa7eaOLn00YeJMhrQ02n7ba3/HqXXXs5BxqgEfzgJwbsj/8fWs9VPdYrO2dWVkqsnrjgTwNGzmMZHuGd5fvi9Kitadtvf3vj6XY+LonkOFyuZHaPT9mLXjtg20bX4M8VUwLsEqUJrGOzEGO9Odr35qmW3z6cKRBXkB7OODbFLXSh0CRjd2oacdGXx9ecFbuRydXAqtfODz67m/tSsVz002yVhyPhrHyaQJ0LkKcII17nRggQmn07tq4eMWgGQTnF7/E6N/f5T4qlBa4a0vMiKBcNjI3Bc/Y/IQ8N0P7YGKl230yw1sej4VcXRGqgFr1pDmshTs3jzQFLojCBWZh6TrymD0eCvzg8/9JM8iEPMQJ91+CtoGhR8Atvwvd473EaH+bdBywWw7OR5o3384Ac02PISdjFotWX5ZrgHKPXYDfiGD4ea/+rgeBGKWP7XZBFNWJ8P//aCGcp9/X+3FiWY4OkFHP5WhVGRPLYwBxzLO+lVJS3M/KYm43yZmmZvwGLKi7V5+Y9PMSBrXpa/XUBtJ5UrzyE/hafjnydi1ezuI0ZNN43izv/3WLxEVGhjfpim+wm7QH7k9f22VPPYUOJDdnWB1rsI5/VMu86drizoxhK+alGrBeINvqpLSSxN5SbqT7OlB/elbd//cJeBMDTEQClBeT8k1E2rk3KsDrYH4uvCqOIVbzyajn8glPgESsA/oLXy3/r4okhLYeHhgLHSkuRPAp/MedjTRvj/zyuzXDUQBibkJbDG0Oz+I3fl+9/hhSgbuZVz5Izr60eA0HC29EFuCVn1SThiecmOkiLp5NYEmxgmR7Zb7/+XBy1I/wNsCGrv6PXfnT3gO3Hl99Mnp3G7LxuZXNJgiVfGVUobSg3drE8lXB0dABXXa3sWp5mE5WCbN0V7rqrYCN4nkitIM2k7DIX9n2PeCx/mig7Fk3WTFnSLPJPA2azfPSuWV7HiufxwFTcnwbcE4TZfFK1WMGW3y9TYJkCyxRYpsAyBZYp8JBTQBpsTVBktJDFLcwVuG1SaNf2acKDAxPoAdm0oQ1PRAzyHLZ/pHNtvTSrsq/0TW7sPG7twBYyZX39PZ5eWlJZoH/11mHSa4OcREbsfbl63jw9VAK5Z7j852FPgZ+/BrCJBLt0qfRh0nyblKmxJUTj7MZ34T7gf7RSLJ0+C3M8+pujYdMMwvGnUYq5S1HN4C7l3fHjMjeXE00/F9pP/2np+P5s29WxUuL4y9OYQru0jz2EuMeTIsJWmmNtvw9POseSnPj1WMq3OK2Cpd6SsKhqc8Lmq2OF0KS2j9Zm5miNJETND01gKkoTuGFjSjU9oEQ7ue/J4hN1RS/LtARp93BMZYc4XarUgg9VJD+h4CY1fJEg6CjxR5pQOeLWs5xMSx94vi8hc0JOe8r+/dZD9oN78W3Y24ZLnkk2lbBcHNbPXRxUfketAc9MMRWalT98WfC3GVkaaVKD+xDCXIAEL2r56GOTvJrh6VEX+6CPhBrcJjD9u8ea+6ex/HO/hKcaTD02gdsMpaPBbMjn5y8ANiATb5uVKX77RbieaPlONP3DlYa/qOV6uNJ7Pl6/iPT/WZbpWPM61njz6+eR8vzzLt/PMv/GIXkp+fqJhVSs4MgFj8QvbQSZYlfvBH4b5Q8gmC0k7NFnrbbuz4+y9NtrE77rVwIiC8AICfIF61CQBmfxmdXlR3AO28XnHbRLLtoC8IIdwCPPuz+Ib8HMRuDjL1NpfEc2Ip+SxwI0ForXxxNCCY4nxZHjRlQaUYv3R0758/vaSIPG+4cKo2ozqVXXicA9lsnaicBfTrtMgWUKLFNgmQLLFPiFo4AGd3ec70uvS9/SVSeMXDUFkWccz+nbdf4lC7Q61UXvn/mYXnv2+XgF3VuwtbmO4LAcVaqcxuA23o93w2Ug/v/QgXIucGdqwF5x/Wo2k8xwlnOrvfn/7LTBkQ1WyaE7ZMeSTi1SkDss6Qrlhia4ovHXx/8HcO530CWU40/eLEWkr75p97ieA4WaxV76u4dSqFTx3Qco+EZfoHHn+9IxrKcMLo7qsOtfjv9uWQA8fpotp1imwDIFlimwTIGHgAJltFfzf/LNGNYw510fgvweKhASQjTQS3CIP9nh+W8JIorgzWIbJHs8nWNenm23L32j4OfaFHTuL6fYpPD3d+Mr19lTLx6w8qEHbHZSp5TgWJ1DBWbZEDKF5m9wsmxjw5O2IrvT3vDKFXbx6Rx1WkrZ2/5uv912V85mOjl+j5NRZogv4USav+AL10ukUvFbWvClZJILbvwtDVLAwoUn4Imm2hxTxnG77iUELgl+bFdeRgmS+odVJNpU+V7U3vTq/vSlog2sgK/81ZY5DSYhH7LK9yEJ2qZH3eHEXk69RSXlp1913nDcufz8/QAeN8rLCZYpsEyBZQosU+AXgQIS/uYH2Qc21cgczbapBmshzPl51J+b5HTM+bAAW1WhIJO4cBLgNoGpD0eAK4zdHpAbDeZ5jsYrTT1oN/5Gr73wStzAlHRAnU5dQXXHUZE3fe2gff6Wads1mLZh/PqVWS7u6+62DrR/528q2suf22MbV2Zs59CkvfFvhuyOu7ss05XlTGhcwXDKT4kzk2fRCkoCjNhKGFSQ3Wx8F97M+1ujs94L8xjCUnKj1i4sTde/x7vatZEmNbgSzEQHrhAjTXlF5xJubOSgXshFjVqymV/dRpi1jLiZB1/aSu2vyWaSnHmOtrVKgIROt2lGgcXgxjyAH4QxzjLHy7zOeHeH+uQT/DsGqrrQHdMcA8wQVcK6hFXOYWeXuJz6F3XEIUeFiliCWdsJfzSYMW+uywJgAzGWb5cpsEyBZQosU+CnS4FGkeF4BMBG/45NMWwY4Jt+b/qyiahztAG0lg8imc7MA0RF5/xqdPbQBKbeN4EbaeECj5JJ6OFYjlRrwVb1clTl8EF78dPb7MXPbLc867sVjmScQdhLsUlER2gOjpZslPOtJQB2tOc8jVAamp2wW/5r2j74kQm7Z5hdwD1oCTk1pIXj8/pXECExZYMIj37EqqRXiTxVtOsn+AjpeqiVqqH8Ln0QRQJZR77VursSdmgQH4Xj+Cb0nT6NolQNQh1oI01qcKXlEym4Iuh05jO2sj+FEGy278A0Wk/BpgzECacSBXC1nBph1nMCSZVTQQKmBKoW27A2be0IzfsPluzQcCEcbwj9/ajCELn+dzG4HgNcBZ//qouVfW22aX3S9uybsQODOg9b2IEzQXR2Wvu7JjTxWNU/VZyDZlL2oC225bQc5U7Ytp3TNsk52EDzyD4ZORaYDfAflptAGvBbvl2mwDIFlimwTIFfIApooIxDsY6qXBB4NX9Y1LOO7jtyaALryAn4Oj8NmTTDaQ6ckEaDsYQUDe0uQ9XiNIGpb03gyuauHkQXtDqc9yxZo8i53JZfYX/6jyP25dsO2fOfULSLL1hnq1fh4gWrvww7SFb1tvDr8GIozcGhIfv83WP2T7dO2o/v7LZ8dqO1dZZtmpNBXCOFQFUqScCREMHZwOTowkgdiap7mYYX3ArLuOt4Ic1CXAkgvguZ4gumhLOj0mUOTep0U3pPy43sH5U/qFeP+AvCX8i1niY8E3MOzPB2blzB0y84xhaEMsB1JGk4L1tvGuEqd8KicKufuagGW1ErCn+FbDbiKi0gLYX3Dl2VxU1ycZcgAQCRAiZa+uVU7nQCjSi7vAHLcfEEnYOOcN9I6MXwVJ7zwrIGcB5Blh+XKbBMgWUKLFPgp0cBCX1xeG2qAeTj/KFKzzr7+8ghQj1yrCN/PVoeSl3HPyy7KY2W/8J7CT5zocx9aswfnU7DI+nZlduiA7sTGtjZ4YvD5862tE0cRogbn7b+3qStR7O0cuW09fTiLzBNzkhepamKPbhnynY8MGUHhmUTuNoy2Ta0UdjO4Qi6pVWwJYAgObh0wrMfXdOYf0Rl4Tu9WUwAlPChMqfxKC3NnY6cO7YwP596/UmeETVduOaqZeCoEYx0Vh5zl5j1Zj5MvYshwtdV9IB+bSmWgVtwjF0IZEFLJyFQB/HVw5Fg1mN5G3DEVXctlsm0+kktRTSvKslc3HimPqTIPHJgSgBMnxggrsvPY472oLSTUzovWngGR0GBFhJtFwnLAuAihFl+vUyBZQosU2CZAj8TCjzSBUAJDuHf3CE9DryN4kJYomx8M5fE8wXA8DUsJXseDPjy+5dOp10Alt2XNEHTmAS6ZiwhYUtCY9paZpMsZ6Ysi/AhQWy6PMX7mepSLCKIhD9HUn+knRNedQnE5UJHYCG+etNMAAzCiSeyFIKoaCP8pB1VCOUP3xf+nZ9PpGCIGbRawjNQW7Fd66prFVjMR4/hXfxSjTDnEuHrGu4F2U9fqRnQSeQUTQJdaq/nwFn4EOqKv4ANy7UBvsqvO0F1+jcmhf51mjd+qN+rHlV+Krf6MtA3Ca2TrLGrDcTz0CMtBLMpFZoIgMtLwHVaL98tU2CZAssUWKbAMgWOSAEN6EGjo6ue5ob4be7bY3+qVKJQJkgt7q6lxE7gIqO6lv3SrbxrY5AnWoIdwAraZCDbvTJnBE+5Bi7BbmIt8EqCqIoDXFyY8BRNRQT/cjx/GkuvZdQA+ghaqOMBTlzHH1RFB4WY35EFS496hD+CFeDpbwqiOurhVU2gcgDVd0cAVv1ULTPxgwAZhfiYMpYgPnM9BtiS/TwidolxCTrF6S4uaLNrKLiEaYB5nLfLAuBxEmw5+jIFlimwTIFlCjwcKRBH1CgmHAuOMc2xxI1xSBOzaGZvFQdtRV8K+JiNJw6CRQo4HPtLvjyz+WPGHThLTyUNYBUfLtICySbMRacKO0TRDoaf4vB7SEIjnEiIYwHcmK5Z/Pj9oYTZLJ/4LuQXhCzeHU+2EUS8Kq3TlxsHG8sSI+ja7F3j96PcV+svoBlgnSBE9pUvh2UKLFNgmQL/v73zgJPkqO5/Tdi9vaQsROZEMAhhcjIYI0QyNiIHC2GQwYANmAzGGIyMAYPhDxgMBhs+lo2JAgwmGVkYkXOOAiFEkBAIhTtd3J3w/31fz5vtmZ3ZndmZ2endfXU3293VVa9e/aq66tevQgcCgcAEEaDT6rXgozogKSE+38Xodr07sFG7xe5UOq9tWLCdhFvrcmHa93J+fU5ly1lyh+1glvoqmDEV5tvpvJ0sH77zBBWrzWYggy66HdgIovtyzNJvB2zd6pl6Plr7vOc2LO27qz3J9BnNytcr7e58ZmE6y7NXvJX9wLrSfhkgnV5pOa697vVOY+U5gr3jDerb+/kZNHaECwQCgUAgEAgEAoHVIdCLAHfwAycNiM9umE/Lm4HF/HKFpUp0CFt6O3yWItCrTJaGynzapI/LMWE9TPr99BrQPwjggEBFsEAgEAgEAoFAYNIIVJZyvkknGfI3KQKLtuFNCkBkOxAIBAKBQCAQCAQCgc2GQBDAzVbikd9AIBAIBAKBQCAQ2PQIxBDwpq8CAUAgEAgEApNFgNlRfGM23JAIBGZDArbGwdd5+QQBXOP6EskFAoFAILAZEQj6txlLPfJcZARiCLjIpRO6BQKBQCAQCAQCgUAgMAEEggBOANQQGQgEAoFAIBAIBAKBQJERCAJY5NIJ3QKBQCAQCAQCgUAgEJgAAkEAJwBqiAwEAoFAIBAIBAKBQKDICAQBLHLphG6BQCAQCAQCgUAgEAhMAIEggBMANUQGAoFAIBAIBAKBQCBQZARiG5gil07oFggEAoHABkag3vEt1SyjZe2tNtKWMT1k8nW1Rg8cR92bcK30N9VH3XOuBy5p3DIBul/hDZpWTz1bhdcte1CZRF9Ort1vpTGMzFaUjgPpOA5+JMC45Vqi3YB0aLLiRVgAV4QoAgQCgUAgEAhMAgH6x+7fJNJBZnc6XI/qJiHTFO1SrDkGZbtljEFkl5a6HI2PLJHnOpdgKpLt10sCrtYDffmNkQmZji6vpfdq1euOZzigsuT6eXeYYa5dzWHiRNhAIBAIBAKBQGBdIVAqlYxAjJv4TEIeupYr5dTWecREiN4UM5FYzjKeNqLMfOG3RbVP8ndXf96QPPvJfItoyNXYSSBySWRMzvSUvmWxq6aO9XpjZJ2R2VDGa5JFGTYkl/NRXQwBj4pgxA8EAoFAIBAYGAGGTb27rfUYluOe8ZScRK5XHK5ty3Lp6iSRpcjNcklDwM1Up0fOux5mFNLpTj8fJa9/mimlqojawkJdnXKW7ij606dXyk39SqlSlc71lOalM6Sn3sqWbrWInLRaaVhRmKBWRv6aIiXltHWuavH3H6ynek2YKE0wQq65AWS2QuqAUhDKUtq6tSrZlbR330KanwfnlsKOpstfjKwgOc9c+RETwkPU2ZlKOuLwaqqpMK/YfchwLrfKLSO0eYEk20smYVwfP5bSEYfNpJmZcrrsinnJbdWNHnXCUsjLNY+uPy2sSzpu31ZNVz+2Kn1r6de/qadStSH5mb1t2PLLtFU51WvCopyufY3ZdOhQM/3q0oOq0w2VWy6/qLSSnjm1wwKYAyNOA4FAIBAIBDYYAt7fK1tdXeVIGUVstVpOW2bVjRrLFLEVaVmkt8OLRz9TVyfilTY0memcy8TwYsUJFN8IVjPNzpbSjh2VVJHO6Es6bfI3tGz0IscNkZNSOmyniGtFPiKtEKFVO4+qI/gec2RZsgFEpBgSL1DQffUus4YedVQlHXe1kghbJdPZBI4mlxeBndsrwjilncK5KiKfudXJ9WxCULfOldOxx5TSta5RlvxZw8Cq3iqBCAvgKoGLaIFAIBAIBALrBAH1vavrfnvnz2Tpz/x8PS3UZKFTpz+qfDp6ZMCbIBHzJrelNxyilYAdWudOLXprqSiE08+MRDpiVdu7r5YOHCilQ7V6JtJlrSSsXyL4S8b+AzXDYn4ecpWRy+WiLHfPjFjoJZ32Se7PL0J38oO1sSxrWEbgLH8tQZbH5YR23UPWZZfX0x6xoAOyhprOXWGGuUQXfhgQL7t8XlFn0p69C8KkJivxItUiW16WK0Fu+VMErNe8bCDvFxdXZA0tqQxrZim2NIdRNBd2UaucZ5wGAoFAIBAIBAIbAQE6XCNo6m2t881lyjrY1vXABCInhPldpUYX2dF9DzKoTMJDcHA2EKmL9pCyKblIFbh0+ZVF7yxy11+XiTdxanUNVeuX2ew0x1BkygiE5KwgqkuyS0TvjPwenBex1NBkRcPMw8taFO95c5+6MrFHw8oMdXKvlDNXev7Aefg0mzakDADlnExPd5gjerku4HlIpO8XlywYqazIxNqdJ79eSWfCZWH5q4F2vR1cfMkBYVG24XwzEQ+jaFfYIIBdgMRlIBAIBAKBQCCwMRGAKWVzHEswlZEdFGaRxmBFy1+vRrxLy2uHVc38856rEd6Ok6Viw+ySPBYo2rI5YSi8t1xDqFcmO+JnF/DSbDalRyjbELuR4SHm+vUQbV5BAPshE/6BQCAQCAQCY0GAfrvRmhOW78N7Lezwri6fMHF67bmn6WZLnGxySywuyKxISD5tIhpf6ZLgenZ5ty+R4TpWdFZSR5yXCwny+x6J+8vpT3hmuJnTRV4COnbL86A997Zr33SZSj1HzFzW4uKBfI4UeaC5e4s5LomduUyAaJ/n9Oh72jOtLPcdRjlTUfbKQYT3lJnXYFFIf+LXhQnRl5GLxLadr4U1sq1MF5NTqGx4HHHmlpGZBWDIm+KzvzqTUP2HFC7WEXR1p3D9ZPYgjEEAHbc4BgKBQCAQCEwMgXw35Yl09I3u2efYK36voITrFTbrQldOsVfcXung59RnsTPuF7K3TvnQ1sebR6eObdmd3vmofc8zmb0jtn3bJ33F9LixGGnxTME6LnpEG8KrnW/itOR2+OX8BxM7RuV6JJiRtMUbi+XZ8ltV8spxRzxddFwvpreas/ZLx2oiR5xAIBAIBAKBQCAQCAQCgfWHQBDA9VdmoXEgEAgEAoFAIBAIBAIjIRAEcCT4InIgEAgEAoFAIBAIBALrD4GYA7j+yiw0DgQCgUBg3SEwxqlLy+Z9rdJZVom4GQisAwSCAK6DQgoVA4FAIBBYzwhAynqt+J1EnmJYaxKohsyNiEA8KxuxVCNPgUAgEAgEAoFAIBAILINAEMBlwIlbgUAgEAgEAoFAIBAIbEQEggBuxFKNPAUCgUAgEAgEAoFAILAMAkEAlwEnbgUCgUAgEAgEAoFAILAREQgCuBFLNfIUCAQCgUAgEAgEAoHAMggEAVwGnLgVCAQCgUAgEAgEAoHARkQgtoHZiKUaeQoEAoFAYJMiMMy3fEfdM7BXWqPK3KTFFtmeAgJBAKcAeiQZCAQCgUAgMBkEGqVm6kXMeqVWbQ5B1yS329W7PXTNfodDSF0qoUc6FmgYXZdKTamX3EnI7JU2foOm1UvPUWUSf1C5g+rZT6d+6UxC7ogyYwi4XyGGfyAQCAQCgUAgsBwCcEL/LRduiHuNRkp1/SbpmtJ5nGkgrwEOE3DI5odDZz/PfEb76yr7cTRpWWzKryEleQkYl1zk1CVz3BiHBXAcJR4yAoFAIBAIBKaGAB0klj9cXcdBO95elrqyrCpt/w5rTiYVbmZn+lNrB5SByVLXH520z1t+XCN3Wae0IA9oz7+azIuVSl6XHrEHkLkYK8OlIRYBiSqVSm1CoVNdt0IOK1OywKMh5SEp5XLZZCOt7DK5yJ9zjcun1cYaaZ2ubjqLVEnJJr9WkA75HqWnTG52yqUc0bkp2eVK2XQ1tHvpadH73eCmXLv8JFMKZgS7maqVShIi0rszfYuT19U8uv4oDnm1/JaEb11yrXaobpQltwTWXXFWkpkLHgQwB0acBgKBQCAQCKxPBLx75ejnK+Vk0HB5OW35dLz+k6fLcnKSjzPoucmWAHGoVK2WW52/Sx5USv9wkIXZGQmXyAWRibyu3Tyiv5SuO4pYkiD0rYpIGVkb0VTVxkEKI3eLiDA6H5yvZda1trLtky6llrs06SJlKc3NVdOM5B88VBe5yg/or0auVGyRvLmZStq2rZrmJffAwZr8SW11MslJU+SvKbI6Myu5czNGVvcfQGeIpmirRPckw0RexqFVuEAgEAgEAoFAIBAYEoGKCA8WntJqet9l0oKUbN+mjl5ysXrxG9Uhoinr0GE7ZtOOHZCIkpEG6NAoDs0gfju2z6ZrHjcrgpKRQEtvBMHoxVDqFpGeqx09k44+asZwaDax3Y3BCYujjqim6167mrbOVYQNFsbR5BIdUr1j+0zade1KOkZ6Q4hH4H7ivXohkGIcweK616qm612nmmZny4tkeJWFGBbA0co7YgcCgUAgEAhsQgSc4ND3Wsc/IgYQB1zFyGQpLdQWiQ7kZCQWYZL1R3IgVQw1o7TxnVWSBxdpR4GBNWr/gWyYEsKCy/7a6cB/fGhWfEfEWiRHBGqhJotlrSlssIpChUZz6CXDmcmdn2duYSbRYB5BNPmuN+pWdgcOltP8PNZc/LI5gQwxt6AZIhXFF+mt6EVjYQEs9FsQIVQGsroiUasBmmg3ftShUbEcIiMRNBAIBAKBQCAQGC8CdGLM/cMNMwew1yrgjlW8HfO2WvKVhlEzsYV6zvKXkTQROPXGzPnKO66Qu6xrp6V0FBQygvhFUtIj/sAySTnTH6ulEUGRkrriIx9S0s7KkDIt3xLAEWKJLCc5TgSzfK+gfy7/aApRxUFyZkR+0L+miXU2xGx3dM+GVlsXfsjr35bJzUweR6OQumR4mTmLCwv1dnol5tV1lZ+Jzsv1tPJHpZXppqFaDVlXq5lVcUGTOZkPWCopD0oTnB0fje3mJSw9z+lfsvNsqB2+Oj/PkHU2tIy8gcsvl0pYAHNgxGkgEAgEAoHA+kFgsUtf1HmFLnUxYJ8zl9nnds5bKbUDY+HJUvZjLqCdtoPmbvTSFd4DkTJLl3p1D9MmDbn4w5yaXEVo5iyLxEeupzGMPMIiM59zrkxv0JDgFoczsYPqn8kkSkYqa7Is1mo1ERxkZv6r1dcU0Z/MHqdFPJIt06V5u18Whox5eh5r+WNGhKFk6M28Qs39k+WuWoFm8cogmfZX2menQ+CeRYBILmheoeFgf9AToUrTpA9XlkEAW6DFIRAIBAKBQGB9IeBWv7zWK662zQfuce6riZfeymhHntRUvNft6srdOyMsWR/dS9fuDhjZjZZVyAkUspDTk/TkLERL9V30ycuFirjrsEa554AyCW7zE3U00iZFO+YqkpeWzGH0h4g5xm362+JM7o8Rs6/rq3+r/BTRzlqAkgYWwbYFrZ/gvnIXI2RqZYLN4ierXzb8i9W1FU5HPy2V/WxRRu+zDBPyj4UyE5DF9TrWjtdPzx7Wxu7615YRJ4FAIBAIBAKBQCAQCGwkBNqkMpepXn69GXcuUtdpTxnG0VpMsxXeyHCnV5ek5S4Vsc0ZlaIuVySuy4jb2ATQmXAP5rsMJnErEAgEAoFAYF0gsOqedPW5G2eS7c48UwfRfTv0rrDDZKCfXMvKCHJdh37y/b4dB0wHWUusWh2CdDGgrO5oa3ndLx+jYN6zboyAxcYkgF3Ery7El2KU+VSX3ljLOhJpBQKBQCAQCKwSAW/qVxl9VdGsA19VzMEiTUr+pOR6rsYlf1xyXK9pHSeRj3HI9GF0cNmQBNAbhcW5HJqWKaLXLPlGj0zT1Di6rfZZrB6LXHDxbPFunAUCgUAgEAgUCQHWhoYLBAKBQREQhcyxyI1FAJ35tbCwpd5G9TQVVZMxy6UZTS6FBC7IIqgVOiwpt+FhEFlEhbH8xatBgV1/4TZHLtdfuYTGgUAgEAgEAoHAuBFgpTLcxkxc+rNhCCAZYsURRz7H4qtlGDNvJHZ6PJQatapIILu2z+rbf1tSRZ9rsR3cFSk/54Cvzmx4AghQYJUd4m8gEAgEAoFAIBAIbGAE2sO/rY5/3RNA8uFkraEz5vstaCvOhlhcc+Fg2qr7s80tacfsjL6j10zz9f3a9md3OrT3N2n/vl+l5sFfiiw2tB8Qu3ezb89moETKoxgvA+Ft8DZwpY+sBQKBQCAQCAQCgQAIqP83CqDNqtcVIF1DvOjOgO7iDuv6VIwYTaMpi58+Gr2tMpeOqc6k2fl9af+lX06X/ubc9JtLzksHdn831fZdlJqHLlPsBcSECwQCgUAgEAgEAoFAYNMgsL4IYM9iySx27BJeZoNEfXZla3kuHb5d5PDyb6fLfv6xdOlPzkm7RQCbjStFD7EXtmYH6hMwpfI2XUECmSfotsSeCW0MT+YAKJ98X/Gww3emrVvnZBFlZ/FNkPeNUYKRi0AgEAgEAoFAYGQEik8AO6x+GdlrtAgcH11h3h/fCqyL+M2WDqbK7M50+FXnpF9966z0ox98MpUO/ghrp8ihzJ0VFoEQWxRQRKjBeW3/UhA3KBeC5DVF/LbMbUkHFw6lpz75SemFZ5yRLrn4krRt+zb73E4QwaXVIXwCgUAgEAgEAoGNgUDGo8hL8QlgD8RZx8IWLyURuFm2cqnPp+1lzfMrV9OF578+nffV16aFfRekir7BV5qpysLFR6obqVHvGu4V0bNFIEYJcwlt0I2jsX5i+7RPySi7W+e262Pa1XT00cekubk5I8VBAHP1IE4DgUAgEAgEAoENisC6JIDQmLIsWQ2t6J3X6t7DZrel8u4L07c+9+J0xcXv0ApfMbvKDln4tKhDli6b8WgFmDftZSw4GwzuKt18sK5b6/qylS/nt5ktVIPfItI4jrE1zLou4VA+EAgEAoFAIBAYCIF1QwCha3xMuyKSUta/mZmZtHDwYDpi2/Z02U8/nL7zmeen+v5vp2pZW4M26qnWhPjhNC+wNe/PiaBPd3MiZME25Z+MEdrcSZDCmurgbEo8ItOBQCAQCAQCgcDmQGDdEMCsOLL9/eBz+7XKd8fWbeny774pnf+FvxNxuSSVqhXNY2NdcN6EB3XMX2+Ogo1cBgKBQCAQCAQCgUAg0A+BwhNABiehb01t+NLUPL6aLHzlQ7V07PbZ9IOvvjHt/voztKFzWfP8lJV6TYEVelPs5devSAf3D1o8OFYRMhAIBAKBQCAQ2EgIFJMA5lb+MkcPEginK2mRR23hQDpyx1y68vtnivw9PVWqooYLWtxBHEZ7FR7GmBOR+XGryxLYGcYCbOg/GZFexCYI4IYu7shcIBAIBAKBQCDQF4FiEsCculrHK0oHqZvVli0if3M70t6LPpHO+/xf23w1tn8xtmdz1xQuXCAQCAQCgUAgEAgEAoHAsggUkwBqdQbf82VNKo6VqaXGQW3zMptmrro4XfCp54vz8RUPLfgw+6DC5Yd9w7QFbOECgUAgEAgEAoFAIBDoiYANmva8UwBPhn5t+FerU8sihFtm96YffvElaX7vl1NJe/w1m1j/YHth+StAcYUKgUAgEAgEAoFAILBOECgkAfS96BZE7Goif7WF+bRty470yx+/R1u+nJmqWu3bqLHgA5SD/K2TuhZqBgKBQCAQCAQCgUBBECjcEDBf+ajJqscAcCPNaKi3rq9VzKS5qz6TrvzGCwSbNndmuBfe50O9fmyButkWdxSkLoUagUAgEAgEAoFAILBOECikBRBmZ9u/VOZTTZ9x2zlXShf/+Ox05RWX6isfW7TlCyO/Yn0igXA/CF/+t06wDzUDgUAgEAgEAoFAIBCYCgKFI4DZp9myr32k5v50+MxcKu29IF183lkGUKORfc8XA2B/Z7RQt7uP/WPEnUAgEAgEAoFAIBAIBDYLAoUigHzqrYEpT0O8mvqXKrWZdES5ng794pw0v+e8VKlo1S8LP+SM2vEnXCAQCAQCgUAgEAgEAoHAUAgUigC2NRexq+nLH5XGtjRX351+feFH7NbyVr927DhZlwhQulHC67LoQulAIBAIBAKBdYdAYRaBePfPEHBJ5r9KrZkOq86k+pUXpCsu/qyZ/Bp1ZgZmzhaC6NTmArpnHNcdAhnl429m2U1N3knctOvHImZLOmseapE1LCJqoVMgEAgEAoFAMRAoDAF0OKAC2bc/tA30TCNd/qvv6BvAV2rxRzU1+NZvgV03GXWSWmCVC6IaNCqriratY0G0Wl6NoH7L4xN3A4FAIBAIBIqMQKEIIOSvoX5VHwLRELC2gSnPpysv+24Lv2KNVufJHkTPf92FTbjusN1h4toHfzUHVPs71huy9Bq/oka4w8M83WONjotWZ9eShNmuqFKupGqFeskXacIFAoHAekYgXtjXc+mF7qtBoFAEMMsAnXzTOteF+SvTnt3fNO+mDQ2uJovjjeNkrgFJaTn8qlV9tbhF9rwhIYz/8mEJ52HcfzMfoXl1Ef56/WDaok2+K9r/sf2Jvw5gpkEA8yTUzyl7dFxI2qVIVJCPFnYS/Q614yIQCAQKj4C37YVXNBQMBMaEQKEIIN17Rea/UlNkoKRPvTWuSvP7fyxfPvvmnT8d7ZhyP4QYJ21O/GZmZmxVMtcLCwupxpdJejji5cPOz88b+cPfZfaItqm8sKFpymeaKW9L3/zG3vTtH+9JB8ssA1p0FPkUil2pOunLdOEK8l6RMne4+bHpZjcopYWGPlNYziYuEEolmwWOv4FAIFAYBHhu69pEtsZP7TXtrx5me55R0q4Lo20oEghMHoGpE0DvXv1onadIVbW6JS0cuCTVDvxSTyYWl2z/v6xDXtsOloYBosdxbm7OGhFIHz/ctm3b0rHHHpt27txp5zQu+/fvT7t3706XX355OnToUDsslkJ+EEGXidzNahGkJGsiUKVyOb3pbZel9719f/r13OHpN01ZAsHFEG790fXauw4N6CU0F7WuQzXNVfakl/95PT3kbsepQ6HOllNDHcpU1Fx7YCLFQGDdIED7Oq92+eCBA6muo7W9aE8bo3vhAoHNiMDUCWC9o0/nQeSBbKRZza+66qpLNCfsQCppWLCph9YNK21jIKEn+Ow6MaOx2LJFXyChATl4MJVFVk488cR073vfO935zndOJ5xwQrre9a5n5JB7OOJcccUV6aJf/CL98Ec/Sl/9ylfSuZ/8ZPrSl75kMpANcUQeYYm3WRoiL7KM/Mm+K+vZj37TSG8+u5wOHX2tVNrSSEc0ykneqWPmZ0ddMZjX/A/kji/RzGoE+PLdjfSGD+5Jp9xVFkCbC9iUzgVQcs1RiQQDgWIjYFY/Rmp48RbhY09Zb29pi3F+LHZOQrtAYHwITJ0Admal9SDC9GAJFfWyeK3xGxoNA4QMYoa1jnOseFu3bk0POuWU9OhHPzrd/R73SFtmZ9vqY/XbJ6vfvr17Lfz2HTvSkUcemY4++uh081vcIj3kIQ9J82qAPvOpT6V3n3VWeuc732kWwhnJKCu9mu5tJhJo5auyBWNlPF1y6d403zggvA9Pe/YeSiWt+qbcjVc5ys4c/XpKRxaAzB+qpxlZqfdedXnavXdrutphW61jgbRyn2obLhAIBKaPAO05Q7+8wJf5mIDaHCd/09cuNAgEpodAoQignlN7C+PhtC+BLBwyImiWOHrUNehVLW29EUJMmLsHCWG49oEPfGD66+c/P93m1re20mKI9wMf/Wj6/Oc/n775zW+mH8nKRwMDCYTIMVR81FFHpRvc4Abp9ne4Qzr5pJPSLW55y3Ty3e9uv2c+85npla98ZXrLW95i8rAwQjI3FQnM1fumTLnzWgK+RQVflcW3JAtwRqWyQFb8a1D+OZX6njIfVUWcFmpSSEPBrFzPHAyVi+yDhkEDW7DEIRCYMgJGAEUCg/hNuSAi+UIhUCgC6FahjAjKMNT67NtaTqqCgEH+sPYd0HyRa1zjGulVr351eqgseAwbnHfeeel1r3td+tjHPpYuuOCCzILVp0h/+tOfpq9//evpPe95T5qVpe+2t71tevCDH5wecdpp6UY3ulF605velE499dT01Kc+NX3rW98y0uhDzJuuoZIhsK6Nvhsa/jfWD4lSRcCi5o56UQSHGl4+WH6x4GYuI38MXOfULoLKoUMgsGkRwIBAm86P8xjq3bRVITLehUDHFKuue2t/2eo1y62JfZOc39crc95QYL2D/N3znvdMX/jCF9IfPfzhaa+Gdp/z7Gen29/udun1r399Ov/8881axzw+yJ0v7oBAQhT54YcswkAUPve5zyUsf7cTEXzDP/+zzf87SZZB5gY+6EEPsmuIpzdUvXTcCH55cuRWMmuUmYtjhZ4PUcAcO99jsFcMtX1ZQFVDpUAgEAgEAoFAoBcCUyeAVfWe/Cr0our3sfiUNMRW0ZqPZi1bZbuUCBI4+7EgpPvXK6Mr+Tn52759uxGxxz3ucekjH/lIuu51r5u+ogUcJ598cnqFhmwZ4oXwQfB8tS9DxJzzg7z5cAPXWPQYLsafePwuvvji9KQnPjHd5z73MSJ55BFHmJXwmc96lhHPzUACvTwoRVxT++oxcNosCSv9y/YB1NwdWdf4MXG7MK7NTzUUzFyFDte+2eEbF4FAIDA9BOKpnB72kXJxEejuvaauKd08SkEKS/oeCM6/s8BDvJQMWpCR/0DQIH/79u1Lz5al71/+5V/MgveZz3zGiNrXvvY1s+YRDsIHycPa5z8IZPfPrYEcccTjB3nEKvgpLQj57d/+7fSud73LyOMrX/GK9FfPe56RQCyHpGWWsZFzV1wB7YYZFq+SLheI5w2GGnrnlc7vXjiYhHGH8uHpccsNeYHAekUg/4Su1zyE3oHAuBEo1hxA5Y7u1O0/485sL3lu+YNwQf4e+5jHpH/4h38wgveNb3wj/f7v/75Z8CBxWPOc5NHJQtCWc90dMXEtnsjjfq36PVyWvyf++Z+na17zmrbghGHml77kJemSX/4y/du//dummhOYNdAqfYaBcSO02N1RWxIzueP4SwImdOIprUrbjf7SsCpQIlIgEAgEAoFABwKFI4BoZwSwo9f2C47dnW5Hfoa6cPLHal/I3V3ucpf0+je8wTZtZg7g6aefbuSPIVksdwzfEg6HFY9rJ4EQOyd83gH7kbCs8MVqiKsqvbqu/1lpsQgE2TgskGwH8wb5s9iEOYPoxobTEFCXb4E32B9m0lG6bj8zg+Aqi7ohM3EWNZthaNMLwKuX+dgSGhJMr45ojOW3I3r3dcfNiV1QN7w+M/XAty9y/4klHILXBQKjth3elq2LzPZQsvMZ7REgvAKBTYhAIQkgDysdOHMBO90qGUGnkPaVD7FCsNizD6sbRAvS9SzNx/vOd75jG0Azh48GkI7VG0LIHCRxUOfxfLsXNpGG/O3Zs8dWHLc7aqWDNfKNb3xjuuMd79hOY9QGfFA9pxMuI3+kXVaZj2MNrdUfyYP8ZZTMSeF0cjjJVL3uUJ/58WJCXcWflw+/P0kdQnaxEfD2p9haTk678fYck9MzJAcCa4nA1Alg/ksgbeInBJgL1mwNB5bUkeVdL0NO/v4g5zSIdIxz2n/vgKx6f//3f2979rFj/CWXXGLWt9vf/vZpq8hYXZ0qX/r4wQ9+kL761a+a+Gtd61rprne9a7r4oovMCsTwMT/kYn1hjh9kjw74uOOOS+eee64t/uAe1sBbt/YTpLOGcKILCx24D+FkbuBzn/vc9Dd/8zcmC7+NaAVcpGXZalr2A+RfdtX9AtC/ZKkhWP5wWXyd6BOCJgmTskT1lNbLc8mLB1KL6ZzcUW8renm56qqr0tOe9rT0vL/6q3Tjm9zE6hr10MNNOxfogdsshGTa+SV92pUFjTKs5is1lBZtGO1SuEAgENhYCEz9qc66g05Q6ZNZNsE9znv10fJetaPzcUsJ5O+kk05KT3jCE9rDvFgDP/vZz5olhUSwEELSWBnsBPC0Rz4yPVtWwiM0j4/G0RpaEUXPTzVnebnyyivTne50JyOA3vHxnWCcdxCcewONBRALztOe/vT0tre9zYaDaYR94Uk+DvHWs/OyzXCDrrEGWJtB68yxHDR/Hr6h8oULYk3Uhjz6YkdVJF5fAmjKKjaOt4dBFZpwOOqB12Vw5AWEDcs/qW2F2Ffywx/+sM0vPagXjiKQQNd3wrAUSrw/79NSCsxpV2hTNrPzdmYzYxB5DwS6EZg6AexWKP+gOgnsDjOua0gg7hnPeEaHyFlZTPiqB47NnJ/znOeYRfAX+q4vxA5ry1ve/Ob01v/4D/sWMFY6LHbIgygyT5Bw//u//5v+4eUvT9/Ql0Iuu+wy66x92Pj//u//bHiXjhnnHbktNlGHzUKQ61//+unPtUgEiw4kEwI4TvI3TlmWiVH+qOCxVED7SlgBnc2tQiYWQBigDSc3dusTfJfJenqEfoe15xiuQmzvKFJ0BFV7yxzA18kUdY4f80jvd7/7Gfk7/PDDEwuY/uAP/iB9VF+rYTNz6s60h4Op4+iBvuhCXd/ojhc5HHl1MujHSefdy/x73/9+eqUWtm1t7Ue6UvpeTltEGq/U98zvqhfkP33sY21+MvOXve5NWv9xyp/GMzpO/UNWIDAJBApFAP0hZSEAQ8PZAJ4u8qxwRBRo3OiAGHql07zzne+cTtH3fXe35uLZfnPq1H3Ig86TzhTy518HoTGH0PG9X77y8Vu/9VtGAGnsIYDesdERf1xEj7TwI10aZa4ZTn7rW9+aHv/4x5vlhgUg3CMcje7b3/729Hx9eo4Nol/60pemX//619aBdJO2lRrzEeFas+jkoyl8alQCWe50ORCx4mtsmctqD6O38yq/7VXhvXd/+v17NNKp9z8mfeCcWnr7B4T99ko6uMDcOKyvWpDTrlzEbwtzob2PuaCNhi5Q1hw3MkLoPq0bYz14B0x94oeF+r73vW/6xCc+YXUU6zJ1lU8UPuABD0gfkiXw2GOOMR2mUV9cX76FTf12i7n7jxWcggkrKb/UaxxlBfGdtHNcnQBeeOGF6d/OPNPaJuqKPWtU/j7O72M15GWWdhICiDwI4Hp0k3we1yMeofNwCHi7ybPVz3kY7vcL52H63e8neyL+6rcKRQA9kzyswLwWe8L90R/9kSV7phaA/NaNb5zuw7YvWtzBHD6sdXSkj3jEI9IZZ5zRUagU5LwsdVj63nPWWUbWCIuD4B1So3kHfQMYgslwMsSQDgDnhf+iF73IOuhjr3Y18yMMjs4aC+EDRf5OvOlNzZJzphpwrIU0yHSiLsMirOs/WWnz135N7a2os/6PWb/Myrokq19JGzM3W6SMRUTXOWY23ebYw9P5V9+TFhq1NKdvDDc1NzAjbUqxnRCpD++IvpY2QMqduseRDhmH5c/JH3UWgsXxsMMOS1/60pfSM2Xh/g9Zq+nIqZsuwyJP+A91nvrK8DQvOf/+7/9uulKffWrFhFWYinheBimHD33wg+llL3tZ+qCOlAfYOwH2zmDcCrpcJ5snaC4o7RfpUmf8fr90uU846gpzSpkLjXPyt1L8fnKn6d9+zKepxDpLm7rqbcV6LPOxwC0M6Ctox3ph4X7cByO/7oeXc4B+98ei8wBC0FPKFosAehfsx6X54M5oj7J3SHSGVxPxYpgMx8bPv/u7v2sE0MCRHw0m7g9lXaEBpcPC+X2uaSR/+KMf2XAvHTEEjTfnRqtz5msfEEBkEZ5GmSME8yItIHm1vjPMAhTmafncv4rCsgL5k1o4AgHEukOH6ZXHlNhgf/TsZMOzOnLebYzDy12+BmiKu4VtiDjqEbS5o6J4qth6YBuam7mQke6Dh1RuCFZkVgZXWo2bxbfEGI7MUsmn5Wl2HHMB7BSz4xo4b1w4+tDiA+5//3TOOee0rdPUL+5Rl1hhztSEl2hvSeJQV3Fr1fiQJuSPRU+QP6ZEPOUpTzG9bnnLW9rUBu4VYX7iuIvPn/cXvOAF6dvf/rbNzWROJsOwXo7jTrNbnhPA448/Pr3whS/svj30tcsbOmJEWFcIUD/5Ud7+DA/y4rCuMjmAso6Bc4ay8GBqGP7ehvKc28vejIw3LX/u00fBATwcySEHTPHjHmHy9wmzFs7LlLQLNwnHQBEKDJQwmX+pwy//Wxqin4+D7cTuhBNOsHl2P//5z9NPfvIT60jpkCBnOLfa3fY2t0m30Y+HAD8HkDA+h+/9738/l22S5mkwvEwnCOHEIQMHUcRBPBmiocPmHvHouC+99FKbz0UY0oasIgNZG4sIUuLCzclXMyN0FRUxnwX0X74qNOTPFIFsmgDLRnTBnD/JwXZYFSGrNvVglkSqSxnuCzPI1RCz2F+jrKF4Ba7LWtgoiSrqZ9MOFJ+jLRSRvBWdkjWnB37Szhsdjm3yp+Hdj2iOn09NoHGhDkH0qF/Ub0jHda5znTWvM66vE7xvalHKabKkU7dPPvlkW1BFPUZXwuI49vtNGt9B5bt+/cJ7Xryt+Gd985uFYnxR6HTtK8qCpO4XyX6yxuUPzpRD9486MsiPdsfznT+OS7+1kOOP6lqktV7ToGzpIylv+qHva+7oi1/84vQ///M/dk098j50oDy2nmsP68+GX/c7ejiva/3Cuf9y4frJcn+X0X0kn+SX/pb++ZX6DOy73vnOzk+SKgzPMn33RZoi9k//9E9m0Pm6pozNiif4c45sI4nClK9/8UL+GRmFIJT4e1or6dSt4yDXLtPTID9MEXrVq16V3vKWtxSPAHqm6MxtKxj3aB9H72y9Et/udrczqayaZMjsggsusO//cp/GEudHvgiC82FaB5Z4OL4bfMmvfmXkkYpDOAr35je/efqd3/mddsdMWDpqwtBxX3755TY8hz9bveCYH4jDCkiHuWvXrnRjDU/jPH3Pg3lukD800tng70plzP3sZ6RPIquaeAAANtFJREFU3E6LfLXSV946NsQMF8QSD9RFLhp6M5NbaJRVHiJ/mv+nYlF5iARqSLheX9CinsyyawEL+Ie6RnlzpFHhIX7oQx9qda4X+aMBv+ENb2gLQCB/1GF/m1+L7Lm+TkaxdD/8YQ9Ll/7mN+lmJ55o81uxCOLI1yC/tdB7pTQ8X8s9e15O4E1ZMQWEPT3pUP/rv/4rPfkv/qJN0D3sSumOep/6wotq94+Oa5AfJL1XGY2q11rGX6lFWUtdCp+WnknqCn0b5OdXmn9OHfL6r5Nls+DhIDj5euMy+kX2sDw7nBPe2q0eEbjn8ji6wYV47jw+137uaXC9nCOHhKWfZleQ36jtYi3AVeqPiYs/KdG2ghUfbrj44ottodRXvvzlxNxfC5PTB1wIB1ncofUDvAy6I5/8kO15z+fFw3H0+8jDeRy70B/8PW1k4ojDD5zY1o42me3ulkfBok7nD305lh7c8tUtCzPIXwcMcHC3vtWt7EihuGNhRt45gE4A6dRwyAJQSB4V4Fcif2d/7GN2jw4Y528ADAPjXJZd6I/rcfbZZ7uXHb/whS/YkQr14/PPt3P2HcSR5sZ0mM1VcZW9QcqbMHrENNS7P81V9qXDtujTejOltHOmmnbMVtP2Lc20Y05D9HxUWq6pY1OG3dpWzZ3bKkug7jf1m5krpe1zekh6wYoVMP8zSYt/LIrpm4+sB20xyMhnXs8QRL2aUWf88Ic/PH3gAx9YYvmjHhLmRje6kQ23sncl1/jn5Yys1DICPB2eE+o3c/8gqzxjttm6pjKwLyZzy7iPfjwn/X7cx0rlz8oySU/8Fs8eDT46ef7Qq/sHBtznZY18Ul58XhL3elkJsABAvPj0IzIJP2lHGvkfOtPB89K54k/h2C7Lf47BpHUO+WuLgNcPtg2yxZA68qIGUfE6akf593Pcp07zPFNP6B/9x3PTr//yOITh5+0BMpR4OznkU3fxX5BsyA+EhrqJv4ckHOkSzs+p78h2f4T20sfS0PNLf40eRx99tI2msJ0bxInnmrSISxjkskgTXZj7D1k8KD9enAjHj3OMPfTp11Rfzgs6/sRHjufb8+7Y9dIP/QnHPWQYFtITHLh2Qkgb5G0n4Qln9xUPIkjZFo4AetXKKFq73Fsnfrfbf7BrChYHMLira4Uv7pdiwjgK6dOf/rQVJp0mYOFHeOYHsnkzIOKHLIDOu7dpzz6c+/tbCfMMeagoBFy3HjBxCgq5OCb04zDVMr8Qx/eCN6bLypS/ehQEzmCLQAjPNi9bm1tTfc9sOnCpyPiVjXRw98G0b/ehtGd3LV1xxUI6sL9l3RP0C5epIbtCQ/iX6wG+fDYt6HflZaW0/0oRwSaWQr3lSgd+g7rBQw4qsTOcNwDUHerHqVq09N73vrdN/uyNTvWT+krdvPa1r21DNrt27WrXVeqxy+mUPv4r0vH6TeP2MJGfz3/+8+lqxx5rFrDb3va21qju3LnTGj/yRIPa78d9yBIy/bkdv9YrSyR9Gl5wRidvuMkvz3v3j/vEIZ8QrKdrT09+1BdW9zM0jBWADiaP2cqarC4EaXT/sB4z3WXFn8KxIb7/HIPVaTKdWJN+TqeTq/Gm6vWDesvKdTCj3eHa+zTC9HOE474/J9R96hj1xeqaCAf13cNxdEcbRT0kznYdISf8uHZikw9v9/T8EG+LnscjtOMGOjJHj/TRg3aDZ4xrtnY7QpY8dKGtYUEWcb1Nyct2nTgSBgdXIOwvtT0blk13pAlGjB4ik5dbdgihT/c2gLCcExcSSF9OWPp82m/0Iz/kH/3Qm2vaGfDKO/QkDGEpI+Kz2whh4RjoCAa0OawlOEz3CM8PLNGD9QY40l20QeZTmeI5VQJatXReff+KN6y6XtnY4gVnX/PQkUoKe2de1emPfrR1oPhRwBxZ5PG1r33NVv5C5SgMKhr3qQgMJX/ve99LN9XCDcClolEgt5Kl8Tbq+L4s0zAFRXjiUbFxED3eLq5+9avbvoPnavEHcSl8D8McwI3sKF1DQ/Py7BOAKxW3KkpVEwSb879O97jzEek61yyl3QcvTY3qwVTDjFgVzqrnNz1hp8F22+uV0nPvtzvNzs2keZWNpv2lQ5pvWNtSTr+8spQ++aV9KtBjtVn01oyIrpT+GhYG9YUVmKdqDt273vUuW0hwQA+4Nx7UFcgfw73naKEF+0dyzUNPXffGe61Ups5jQXii9rD8qKZGkD6WS1Yiv+Y1rzG9qdsr6cXzdZgardtpFSor8Y866qip5AfceJ5pPJnry9ZPNPI8szzHyzm/T17BhfaNNoDFMMdotT/WUWuI1Vh7e7KcvFHveX2gI+Kb48M44lLXsGoyrYX2sK27BC2PxDApjT/sItUYv+yNJpE6m6+3fr5SPnk+qA+Qm/M1csWQKXPZedYhKfSDzEuG+OB4JqhT/Hgm2Lye6U8QJdo2RgxupC3WiGc7bsiPZ4iw/6PRNvptdvEgLRZa8kze5S53SUztukrWdfrxvaqrD9X0Eyxvn9b8O+o97SJtJKvbIVL92iKeRxzHm2gKFhzgRzLIoL/nFV2Qjc5M97j+DW6QGMH72c9+lq573esaHuAHaWQrOYgZIzOkyznEFMLHll2QSCyMOEb8yPeuXbvaRBE9eQn7kngEuzs8+CEPsbmGtEfIhnewYBQ+caxeuMH+E9pNhL2MsVJCTu9+97ubDPIE/oUjgJZ7NSWMvKnrsssFWhYrDHX4AjPvBpmr3xFe8ck8FYwVeTgqFY6KiANQCCCFjGOrFxzDwGeccYaZebn2CoJG1jhKJnJxriUdMYV9f63WhAC6TCsAdFFYKpGnzXAw8/52tqwDVOxbacUki1RwHs4uNsAfvWtaLjLLm06bIg8igfxbRLGV0VZhs3dfQ+HmSsJNL0iPuFct3fnEwzUkIGtSlUU6mPZbcRJvnHvT7W+8Nd3+JoeRgP5lw7Q1zQOsVsrpmxftS5/7yh4lLcug/VPDlKnVVgFxFa9s3PP7nsyEjjz01I9Hqz4yCdkbDid/HAlDg3G2yB9bGUEYaeT8IZ+Qaj3F+lspUyKYF0t950fDxre2/ZnpGbmHJ43nf2haBhYzhr0ZOuF5RSayBu2ceohe0cvlO5nGggeB9Zcz0h4mP64r8Rka/+53v2sEcC2eac8LadHwM6/rb//2b609GSQPnlc6KzrAx2pfwDwBFBD5h25FbNc6QLs5WOuE12F6+fqQP++XFcL4Cw5t1bkyYDBKsV91nD4WaxaGERY+3Pte97K+EKLojrbqLG2lRjzqJ4umcD/84Q9t8dSPf+/37DmhnaMe8vu6DDFY2WgPeLGkXaTdY9cD60/VRnxZJAm9vqNV+LQ9PHfEhQzxRS+mpZx++ukWJp9PwrijnUEnCBUvoJC93Xrxg5wiB1II+eIcy9619CPOj3/843RnjRoilzb6kJ4ZCB4WSX9BN9nS86z3va896sfzRZxvfP3rtmCEfVxPOukke6HHH6vehZqXCclkfQELdMCBPKMTbSMyCPMv//qvRpLnpOORwpT25itf+YrtSED+CFtQAtjud70cxnb0gqZQ+T4mjgqIowLhsKKwAoq3FUDCekH4W2s1LhWMbR28EyA8LJ5Ogh3z2RTaOwzuOSG8vwryDJFH0qBSIs8rF503FQx3lsgnjk1zcW94/evTmzSJ/ERNnsfx4FBBPR/muY7/+KMGn+Ic2qfF8/ZvCcdqm4UhzjK9k++ZLelTFxxKu5NM8/s0JFxlcYcIfVlb8dQOputc67C061pHpIsu3Z0u+MnuVNEcwXpdxEHWwwWVbVPzBn/2q+2psnB1vVxsVbpqmKwBWJJ6jvRJU5TtEQSVRnWULWVMXeHBfupTn2qNHA0pxCFP/qgPWId5ceAtlbdKGkPqF/VsLZ3prTTRm7dNGqeTTz7Z3rq5ZisSdKMhp+7zbOUbW9cVP/Qnn8yBPVN7B9KBPOZP/iSdKyu7u15x/d6oRy8Df5ZZMQf5owwe/OAH25s2jT956OeQQfnxQsfQPItB3ikSTxk+73nPs/bACb6n10/WqP6OldeJYzSv6VnPfrZNWh9ENvHJK23lFeoA765yxXn7NoiMaYaZ0KM6zSytWdrUzX6OezzLECCeje+IZPARA+oXVnv6UO5DkiB5H5PlDiJFu8BoG2QPgwu7FTB3GQsWcahXF4rE8NLHnrj4YRHDukUdJC1+tDEnqd+95z3vaV/omtM92kDi09ZQ35H9h3/4h2Yd5HmGnH1cW2dhcfzc5z6X7n3ve7flepvkbRC684xiwTxBFja2ZsOixmgdzzUOYodO19YIDP7051gA97R0RRajBVgJmU9IX89LFPrTbrON1w1kOUQPLIgM4SITEk17QT7YUxgZ6APBIw1esGn7/+zP/szySXuEruSRtQy/kQXwbne7mxmuGEGChIIni9FolwhbWALYv1ntVxVX9qcgvDLTwVBpcdtUEDgKH2IHgO8R+C/QXB06M4DFjyOWPAggFQwAcRQK7mEyNeOYEMpwHPIAmk6a1Y+YppkPhR9yvXJRsUiXrTK+9MUvWqdIeh6OFcBUDiqs60fF9rxYouv+D5Y5/TMrW/8Gh2zWFIYtgvaJ6JWqx6Y3v2efhoL3pS3NLalaUpnUKmn7zPZ0YM/P0iNP252efuqR6exv1NKrXldOWw+fSfvnsSDJLM/egXVt5i2ZpdltqVaWtVD/JBof/nS5Xn5dQcZw6fWU8mdYg2Ffypv6ypH6RP2jDtMAsL8e5n/qFI0F0wYqCrfWLq83k6F5Q6XBZw4sFkG2QoHMYVEnbD9HveY+zw/PyCkaaoR0fVrx3/GOd6TTTjut/ZLlYfvJWq2/60cZMMH89XoRw/2FVvGybyfPPs9iv/Td38vqQx/6kG0KTZ7+8i//0haCUJ60KR52tboOE8/bDerNy5SPUR31EOd4jSov4k8fgWHKkrDUX54T2iOMJ5w/RFMbMJYwXYAwkDu+avWmN73JpkqxDygEiJehW9ziFtZ2MceeOBAd2jKse8y9Z1gYayAEEEc6yIRA0i8yDEx/SV0kHs+cfVZUYWh3sFTTBqELuiETd6YWpGHouetd72pxl3sOGcK9ocgZCz3ZNo6t2Whr0R9CyfPEBxzgErt27TJLG203w8C0YQzHwgvudKc72Vw8CCDD0UwbgxDSph1//PEmTwzPhqchlbx4QmDBhfbG28Qr9LUw/PiSGISQ59oxYHgYsnkr4Qkn4R7xGFV8whOeYG0ZmDIFZe17CYN++T90/3zia0kX4UNwy0fve9crNkDylsBbCc4/k+VA4fdhNdg4KgzOGzpMsjgnfw484ZjPwxsJe+zg+KIIzsP6SmInjK7P72neAu5sxfU3HK6pADjmNWCFxKH7RnVUxoZZ+ZaUfFeWqSGQQC0MKGtjTs33K23X/LDtmhS8/ci0oIre3LElVbYfl+ZmdxrBmylr4c6OI1ParsnC2/VdYP3StmNSdef1Ul1+B7U/INMLtD5KDRqNmlJYnod26TSeSxohnNcZ3qhpxKgzNHz8nPxh8uctEKIFSaEOcn8a5M9zT50mD0zMZrIxDSXkh8YGy8B99SZOo0mDxDNIo9X9oxGngaQA9qjRZq4Oi19wfNYOx3M3KZcvA/LDcMzX9ePtnW9z4+hk+KFr94/8eP4oK4aoILB8bpLvivNlEPIH+cN5O2AXa/DHywi9u7FHr0F+1E9w6v6tgfqrSmKlFmVVQjdoJK//qphWvstlk7pEXaevYhs05uNB9nhmIWFYznwhxm+rnYLU0e/SpvFs8BzfRF+qgahgBaNtYA4hc38hNixcQB8jdWrbXDfaQ36QIF6kiMeReolOvgkzaWA9xFqHnvxYfY9FnvaSPho/fwb9SJ69jeHIHETWDGCxxAJI20aeIaFu8OGaUUXyT9uGFdDlXShrJs8becSRN4gj8THwoA+E0PKqPHCO3gwXQx4hnegLDuSJvIIbbQicgWeWvJMXSC3PNfsXWx5bFlEwwmGIIjxhJ9eKWlKr+8POHSjmD23G+7hyn9XJ9VhOwCgAHNYTnFUcVTI6ry/KEudz9gAW4gX4vKWwkpFzKgZxABJTK4XBJHHmauGHHJyTNqyHFB7g4yhEOvF73OMedu2dm13oD2ng/kRDXxe25gD6A2A3NsSfrEyz8oaAaS8kCNgKeSNWpRWOId2FhVo6UNOqX5XVfp3vq9G5ydJUywjz1nmt9pX/If0Oto+EPZAO1fdp5l9mzZVdUJLHU89WyMKytyFyOCbx4mhEqTvUMeoFjSTWNQgW9YnJwcTxRssiTekPzwT1lOEYGj0aHN5iaeQY8njsn/6pNZDkhUaz34/5LsjA3b31jHxNc3d4k+eZIg1vYCeRVS8D9uPEgbVb9tGd8kB3Gtn8Dz/0wkKAxfLJT36y4fDMZz0rvfzlL7fyogOY5rOMfujcjT16DfIDf2R0/yZRDuOQuVJ7Mo40NpsMf/683fm5CA9WvV27dlnb9EXNU8Pq/xntrMFQ68c//nGbIkWdgzRR/2gf6Adpt+hnsVxhwWKRB1b3d7/73SbT0wBj6pynjQz6c+ojR+RwjyN9MH6kxzU/ru25VT0nrn+nu9+z6LLQjRdAhl6Zz8zwKkYZhmrZ8gXSRzq0xTcQyaW9hoihA3F/rHD09ccff7y136QNEaYtP14kj30D0Y0j+vEjn4QHHwgg1ziw4L4/g8jiHj9IHqSS9olpN6TPfeL4kW1oINZgn9nvTex0/vBZrm7HFx60RVvbmVEISqCTUbpmL2Q/MikSB9MGPEDC+TJvxuDpvCgkwKYgAZ6VNEympMBcFmZmHIs22FaGoV5MzYAM8MjA1O3DwFQQ3kS4ZlUQw8pMTKWSUomIQ8FDODGX81DgYPYbyXkxc8yG/bHssfynk4hxPxsezufefFV2KrNSNgxve1hpHl+dB72ictOwLm5WYUo8YJWqLGRqGDQHMNtnUuloKFiPlX7IY44lx06HD98axtlhaRC7N64/1AMc9QLHg00d4oc1Dauakz867HwDaRGm/MefJ+ox9RmLAEPZWNDfrSNfBeGZ8ecD/YnT7XjGcLyk0ajRaDK0QgNGHH8Ge8XtlrXaa974cTfWGzfp0A6Qbj+dCePtAvObIKzP1nw79gLk+XXyN0mdB8mr6+hhue5uX5bTMX+PuNRZyjvcxkGAMrZyVvn2czwHlDvPJcOZ1G++igHhyT+jPOv0dTw/WOSoM/SrkJSPasUuO2xcKEsZfvx4yYVwYQ0jLs7rnOtFX00ayPKf60kY+mtc/p7ppLrKffzd+bmngb/rz5EXul27dtlwNFY55vuzkIQXVV5u0RkyeJTyzTULN7EUYo1k82fabayI5JfnjB/tCAs0pIilxRE9SA/dwYBz2lAc99CPZw0CivbIww/yCKElLO0jZJx7Ho+49B/co4xwUyeAS5v8rCvOmn3TcWJ/WKaOg4TB4JlnALDeCEIAX3jGGdbxEM4rE5Y83uQBFIApeOYhQNK+1yKVb9OegBBALwAnjw984AONHHrH5tY/LId08lhyGM7jbYJKz8pDOj1M6zxk+HVXXHRbr06PoKmuam3kXrRM16zz9TtZzqyitzKZrzOtfZ51hxD89OYnAgntK5cOSFpGmPVIqbz00GfJKaSftI5GOBXJAuRTkF/LechM0yw1vzeuo5ctZc1b8rnnnmv1jmFe5o+w1cAd73hHm1tCPXUy4YRxXHqMQw460XihI3Ub/c/UvBvqMuSPhmol/T1fNGY0XGDCixOO528tHI09jontOMrIj35uHrk/rvcbNeeJZ/xxmqtD4+sEqV+8nIiJn/bSAZK9Wkd5UN6e99XKmUS83k/0JFLaoDL1LPdy1CHKm7rNcC+kh76U+aUMAeNPvSAMP4wa9IUQQdoEnod/17xgRtzwO/XUU83KDvGBLP1Mlq+XvPjFJsPldOjRagO624L8tffBHg+dXS/8CNvrWeCe+Ss8Yeiz2WWBaTcQ1VvIMIM1ELKHrrTHkDDyxFAvI4yXyRrHnGxILAYg+nVeCCGThEMu8/k4gg9HnL9g0t/j7+0G91xXC6vwXBPGSKO4CG0qMiGftJt5h1y2xqHtRebUCWBeOT9Xfrx7dq+xHB1cJ3gM7bD/DgVDh8T3/iggKilHOipW6JyilUkUBIABMh0wHTKLMnDM4WNlEytvqPQQxfdpafeLVXExG+Mgibh7ahl8SZPAmSNAoZ188snm/99anYNj9S/xqSQ8SI985CPTK17xCrvnpJEC97zYjQ30J7O+Le3YaX5sf0AdO78Wkg9LM69rhoZLWuFbkiWwnL1KzMvUPCt/2QBNjj1nmWkZyfrlXV5m3r87XP7e+M6pY5Q19RCrEdMLdu3aZfWFVCh7wnh9pB4V1aEb+tIQ8QwxaZsJ2TTAPGM4b9B65cHvQUwO15syBBBccJN+BjxtnkXcTnVKgzrPN2/3zBv0F0CXOaicNQnHw6A2ZZ/apHdonibto+u/UvqUARYQVhgy4Z2J/tTNotXJfk/0SvnbjPfzdZRzb2/MX9f5+5ArrjmyAhYH2bmpFj3uFcFjGhT1wX+MfNG2EYZ+ji1MGIljrttjtLXQtWXxQxbPOHWIekV412Ol8vBweR2745Af7lsYHXH9wuOPVQ0deC7Y5oU+/dd6KWS4mpdDDD20b0YAW3JZMPJBhWfbGPJD24fFkDzR9iGPF1raBbDAEY42Ef3w54jxx4dzue54rnTtDj3BGJ6B3AtFUC+XRZYN+JGFP+kSzsihcMVCWzgCSHGQLS3ktEbJM5gdFzPc6T/YlRcyQMKSsSSw2MMJ4Ktf/WoDC2kelrlLEEAKB0chUyB0Yk4AH6qvHeAIi6NjpqPi+lGPepTFoWCpBGznAoFkiJh0GcZDzrc01Efhkg7yKSy2isC9VZPIcfhtXEfZyqKqQ79SHpR+iXJgB9RCoi3pspreOiV5j6ifShXW0IJwUGmt4Gt4oHHA8UbMfms46g6NIg85DScPNEd+RXc8SzxzPBfUYfLC+TCOZ8Pn1PqzOEz8UcJuV6eF4wsFwzjy7R2HN+zDxF+rsLy0MnWCDuNpT3uavZx6mS2ng4ehLClTVlNCACkfyosyJ0wRXDG0KAISK+tAuZnTkfaGa+oHjr/eglLGlC9HSAZWMH5slnyeRtOuq50wfOsSBbTn1xeE7dq1y16okE9cCBRDpBAm+mYc/SAWRdcH65rXJ/zcn7B+7X69rgmHszy08qaIJhM9yAfOZdhF6w/3aLsgTRDdX2sRyw80xw8/8oIjHs879f9ayjtEDCsgOpMXLIXklTA8L8cff7zJ+762uOIl37eTQw5xIX+s1sUayhYzyKW9R1d+7ghPGtyHYJMOnILpQyySwR/eQrkRnwVt+OEK2XtY96dSoqDMeY3rqH5+c3VHB+C9stQ9TcOsrLR9gIZ2uaZB8zH3/9bQ7Iv/7u+scpKSd1ys6mMYeJsK9mFa/csn5KisNPQum32PIIDuqCyYfokLAWQuIY59eagQdOoUJB393U46KZ1++unpExoC/LYslRQclQfXq4LajXX4R+9h5MgGYPV46x+LQNR5tAt/yEyprsxqI+mmFoFUqzvT2R8/kL781W+lq/Ydm7bMHalFIOqcuN9Rp4ZMYw2C84BjJaZe0ABQ77zuefLUA3/43a+oR+o1uq6WsPJs/JeeRVbj0XDiXBayx+lcHnij86u1qv+l+n4vm9rybHs5eLjl0iaMk79Bwi8na1L3XC/qGXu3MTQH3tRBv9crbe45HnT0vk0HHTVuubi95E3Sr/24TzKRDSTbyk7l688YVnBIhNcLskoY/PjEGs8JpIUpKuxdxxeAmO/LggO2fWI48rNaEMLIGCtp//K5zzXL2g7F4Rqyw56fN7vZzaz/2yIS+AX1kZ/S1zsYXbP09Id0cBAyiBQ6uJ/d0B+u8ec++lte/Cb39fP4nj9u95Llfi6DZx+CxVx/5v/xzPCi7joQjjb7cPlj1fSVwISBPHIPMgi/uKFG+DAIIYth5XtpdNDyKhls1P5+jQpiYWQPQ3YqwVIIf8ChhxNW15H8whHcwMSUNLan+T1tpE25kVe2DGMTaXQxP5NWqD8qPOkDCRQO5rLDeBp5rxwABYhMPH2f5vo98o//OD1Ze3x9UBZBL2wKigUdvLWcLjJGZacxZ48zVgJj0mVYCjDf3voOMJWLTgpH5aViU2HwJy4O6+GztCLwPve5j12zOaM7GlQepJe29uhi3yQchQuBdN08/Ho/Zo9zlgt7p7Fixrd/eefv5OM7FtSdZkNvStrr74q9W9Olu3cJPw1FVGks1DkhoBXR65jHHeaY12OYeCuFpY7ycPM2h+OFgBVlF8qsf4FeMi7R0AN1gU/D3Vp7Y9FRe2Owkuxp3veGCh2Grcfkj2GVvBtWRj7uMOeUg5eFtx/DxF9NnGHkjxrWcaQj/ld9PWBU519OGlVOxJ8eArQp9EWQBubGs3VR3nGf/pPFHH+svpNFXgwtniTDBcO6GERYIcu0APpRVqaymApL38M1YgbRuUpxmVcLYYEY8rWO4/VyR3j6TcLzyUGMJehCPSVdHNf0xxxpG7wOc/Rw9PEQLe7zI6w/i8ghPoTMLeD5/HWfu3wJt21bIFHoR19NXkjL9SAd5kOyCpe5jfT7vBzRhoARfTlhGd6GJPPyxFecmJIGaURn2nr8WZ8AMcQYQFmgNz9e0uAhrhf5Qi5xscKy1oApaSxCY8Eq1lXmK0JIwf8Tn/iElV0BLYB6qxT6c+qgsQfhMmvQ8qTAAg7wxysIgPHD/ZOWmz9AgJ2kyst8nX/8x3+0Skih4t6lpeiniwA62BA8hqOYv0ch4z7w3/9tR1b84KjEPBwsJOFLDhQ2pm0qB/v3MFTCQ4OpFpMsFYICJs0XvOAF9lCwp+B7ZUWEqZMm6bvOloj+uE5+vf6OWRnw6XEr4aaGHFTs2BCyO0tzVM7dqAmTRZfdYB8/jNts7FwXGyzrCx81yWV9h9cpi6VrLQYe3LXStQPxWteDCxgsJGXKijoe4Hdqxew3tViJBxtHXeAt+/Ha0JN6hArUnfXiRqmv3oDT0I0iZxisPB1/7vx6NTKGiTOtsN7mrSZ96iFlU0Q3zGNeRP3XQiev25Qj57Q1rML1+buULc8B93gWIYD0aRy59vsQjF27dtmiSEggcegPMZowTYAFEnwmjvAQG77igRzIElY1Xm4hS495zGNMDjIgNf78kz5GF7Zkos/Eue4cIUjIxvqF7uTD9ebozTZDuRAjXliQnZdjF60/yCQeuLDKd9fxxxsJZJoXQ6zkDQtnVfchk6QNuWSKF2SYuKwZcANOWxfJP1Lk8YlPelL6X22PxTQw+ACklP0SwYX5haSPfqRP3sBml/Blr0Suuc+Pc/DAYABxBlOsixA/tpHBWgmmlANrH9CzdONHHXI88nme0jmVSwWqT3ht27o97bngren8/3tUKs+I+S5g/VqOFgynsgMGSHSubN7MilveVDC5Yj6FudMgUolg0Vj8KDwKA6AJQyVknJ8hZJeFJlQ64ro5ljgATiFRkKxAZnsXvsd5xhlnWGWlQvHN1zO1UpK4MP9zNQTMA0alQGfSzzv8BnWeZyosleQlGtZiniH5R3evmIPKGyUc2UD1hZomrqrIP31eLZ32gkvTTmG90NDeTtrWpTOnSq3HuDAbhi+6zhgGlbxEKSVPwxkdYRdjDXzWSh8bdVmLTOrS87DZn6YP/r/j0jUO1+fXRDLLtop4tE6QRpGvTXxOb747hAfDBzQIDI/w0uDWqIH1joCBwCZH4CrN9/aX6E0OxbLZpw/wfsDJBf1Wd7+DEPqTBUalWudc07fR1/FFDEgQK06Jy3YtDItyH+sV/Sf+pEF4LGnMycdowqIirNH0SRBF5BKWn6dhLX0rPjL9HnpxjmMqAnMXOdbUnxIX52EJRVx5tIkU9z0c592OuOCBzuQJud6vezxPn7j4kVfyya/bIYf+nR99ss+ZBA/4B37oiBzic04cJ7V5mR4G/NDLRxyRCTFlT1X6DvoXdDbduhUqwjX9LHsBLoVrPNpRQF5IZlkRuBAxxspZlPGGN7zBhmcZf+fzKcx/YJiWvbyo1FRMnLN/4uYdhQSBo+B9Q2lMufh5wdGZowOmbwoD8sdE0Ne97nUmigUp54r88SFn3jooLNc5n9bGOefNTA+iyj17fEfPmSDTE8h0Arf7jS5zLSTw4J6hlwLqRbejDvAA4yDy1IvN4rz+b6Y8r3XZOsarTTfKZrXITT+el72XIe0PfhCOfs6/OuRxISTEY3gXORAZJymQGfzoA93PyQ19LP0l+wgiC2sZhBACx7XrhB6eFkfXMX+fc5MP6SK+9O9138iU0sFx7s7lc52P5/7gYf5K38kd8f2+x0EH/Oj33c/T4Mg98COv7P4xK1wYUeTa8498D4sM4nB0mXm5fo9RSHCB29A7QPoIh0zfeoc8EH4x15ZMMf5gRKHKLe3axkMNAMN/5HhGIPM5lSfJFMsbCCQQYkYHC9A4NrHF5QuE+4RnAifOw9qF/hAWkH2OHwWAIxz3IIdYDykMhvXY9ZwHhomafy3LHA8K5A+HHHeuO8f177I88BeixqbMLAZZzO36z+GwOeDhpWwhejywNJw8zFiBcUwE5rcxyn9wdLzeDx4jQg6LgGO82uOw6a1V+I3QUq4VVp6OEwrITb+ft0F+JC79GRYt+jj6PORAhujPaNu4n3fE5aWXI30j94nL0CzpumyOfk78POnKy/N7HpcjLh8XPXAc/b55LPMnH588sT2ME1nHKh8d2S7fdc/LsHPlifThIMiinQcz7jkmLtPjckSuX+fv48cPfcAQayBykUk6lAv4cm66eeTiHDNWmmemNqpmdHC8j7EXGpUOMgche/TppxtYjL3z2arDNJkTQL+j8XkmfgIq8ZzsMdnVv9MHsPlC8YoOQSQO4OO80rD7OR08q4JZfcx8BPZEYjPMfLi8TLuxAf9QstkiEJV8j6HeDZjlZbPEAwrJY/oBdROrM/XHH27qU7hAIBAYDIF4WgbDyUN5n0M7s9zPw+ePxKXvI54TFdoz+j38XHY+jveJTpjyaebD5c8Js5zz+37Mh3U/P+bvDXq+fOqZ0Qb5/usnl/vd+Ses84de8VbSO99PONlzmR33egmfrp/Mt1Ig/4k4Fm4KzrGr5RWRI1YWOtn3a0sW5uFB8CCB52oYlsmYrLjxff6MoatC4/iCB463G5yDC+jIwJ9FHnwHkcrNZFHSgfjxndC/0Mrj//zP/0zHacIqe/6ccsoptgCA3Dqh9MJGtutsiY34Z5yyVqsKw744NQvZWZMNnKkBg5U3XwJZ/Gm+hchjrx/fDTZiOcrRNF27P95w5I+kPu56sHY5ipQCgekgMF7TwXTyMOlUvV3xfiF/3e8cnXrdo//D3/uufuG64+bz2H1vNdf5dPPng8rK67NS/EHuLxeGe44X+jmGrutycQnT7fLxPG5eJn55Q1t3/Kld0/VnirVIwGBcYNX6AjpgYX6FnL1du+HzuTfmJfCdYKxzz9HXO9gOBj8FNvM0S7qx4uEgkDh/y/GCxLSLYw8zHKuBcQz9sgjjta99raX5ZS0yOemkk2wvQayM3eTPIm3AP15tKWLOjQaKpPFvszt/gPPHzY5J5D8QWA0CE+5CVqNSxAkEpo5A4QigW4SYJYBVaK1cngQy9g6xYwXvV7VPICsxX659kN785jfbxFTmJtApQwhZYs1QHdY9jhBIfsiA/GE5xL1Lm2OyJJz9gfaLLLIJ5EMf8hAjeq/Vwo+7agGKfx7H5wA4iVwrDKaZTkb++EsN8FowTY2Wpk0nkv8NbqdcKit8AoFAYG0Q4Jm11aA9rCRro0GkEggUE4HCEUBg4oG17T1s25eWBzfsjp2M9Y9bWBDKOSt9Gbpl812+8/s3L3yhbeDI4hD2DmLBCI6NINlryId7fbI+lkR+LJHHmndjfUCaFb4ejz0E+YLIVzU0zIaNT33KU4wIYvVz8od818uP+G00l1n6MotfVdiXm6w804olZVQzKu3HHoH8pukge3VNRm3/VBcbus70p8aGCwQCgSIiwGR92xJEw5LhAoFAYBGBbHxy8boQZ8z/y3f3nYtAJtvZuiXQ5+9ByP7uRS9K75YF73GPf3z6E22keJQ2oSTc85///PSkJz/Zdkpnt3T2PGLPHeIcrQ0ejxU5ZNNLhpGZyO8WvfP1yZtXvOIVNgeQlZ7csx3JaahEglyHQhTGxJWgPFXaapsFqYie/rDTs7y4g+NI052vE/jjPEx2Nf6/nibpN1U2XENGrZzEUmso3eE8RodnXAQCgcCUEPAXaI7hAoFAYBGBQhJA9oJjSYU/r82MAS5qPcEzbyTcqseR4dwfirTx+bbXvOY16UFatXsvLQy5g4aI+ZTNHbQ5L79+Dksgq3vZOJrv/rK6GCsjw8YMF/v8QeI7SfSj69NP9vr3x9bHUnUt/d/STJeV5lNFXtv1KbdsILjVaHfzrFbGl+6UN15EIKQkzdoRLH5YArmoaaGKvsaYrmEWS/PVDY78stXeOgkXCAQCU0aANpQ91nBsBs0L+uZpX6cMfiRfaAQKSQDpcLOOvdX52wHf1vUaQEoDAfnj6GStKiLINwpfp4Ubr9Xn4ti0kc2gr9+y8mH1g9QRhyFg5gdi7fve975nPyd6TvyQSzgaKG+QyNrGJ32L5L5k32LTp30O075HaU86rHJDswDO2ZdARL5U5JQ8c0IPtc7ByN2kawT0jzSwAPLT54VTWcpU1aHMX3kgHbdDH0PfyddL9BmeMrV20hopiXCBQCAwFAK0uVta7SztiW+7MZSQCBwIbDAECkkAwbjOU7pkeG1t0YeU8YOQMT+Pn5E3EUGseny945xzzkn6s6JiyOBTLMxF8TmCRIJkbtbGiCKulPXJvHojnXCNLenUe82k/zzrh6kxc520T59VwwQMAYP8MSfUj+C2lq6kOsCDwg+dy6qcM/p+3WxzPj3swUenbeJ9+/WpwpnyrD65w+eH1lK7SCsQCAQGQYC2lhEX9tPkawk8y+ECgc2MQOEIYEMmH3ifrZ1d0pOu/SPr1jg/QgL3tT7FBRlkkUfeOWF0Pxod5hMy7MAegO6QR9g8+fM0PMxGPzpPmqkII+3/94zTrpd+5xZ70g/On0+HNARcYwlIq8hBebZH8ef3i5wMXlgA+THzj08LcdTHzavldOtbHJlOuMEWaVnTEFM1LdClqFxxWAvDBQKBQLEQYDUw33DVm3yxFAttAoEpINDJXqagQEeSdPDWf7LCUucwQXNOFVqXUzpA2HBO1NwqOKg6Hs/Dd1+7/2Y8lkSsKrKo3e3mR+kHAsyl8/LnmjowDVqFHjirkDqiE3rgP28EvqIXFewJ3MmWiegkXCAQCAQCgUAgUGAEikUAW0DR1Vp3y58CujwRhMSZ1U965umKq+33uc7H8/txBDc+/zej4fGZVFvgE0KssgVN/bL/mgvIAgwnY2uHWqaFkz/oXVbeWPqqZe31qEmB2AQzR2h05Nr9sjvxNxAIBAKBQCAQKBICxSKA6jMZ9aVDRbHsq8AtuKxPbRGC1jAbd3yIsBVqoodeFjsndXT9vZzf516v+L3ibCa/zG7mdElz7WbWz9AMuufpXrVloQzqt5lqcOQ1EAgEAoH1iUCxCKAwzIiUutboRddnjRpS684hU6xrQwqYcPD+6rA4qHNQOqrshAsjxAcCgUAgEAiMDYHiEUB6XBtWdTK4eBxbrkNQYRHIGXcLoWM3qbPqaZp13ulPFAuRjVAiEAgEAoFAIBDoQGAas+o7FOh5od60c7ZXdK89cQrPNUegk/YtJt/PfzFEnAUCgUAgEAgEAsVBoHAEMKN6+b9rO8+vOEUTmgQCgUAgEAgEAoFAIDAZBAozBAzl037AWgnKFjDZXDBtDGK59vmARgvN1JIRRG7yfdZut5YLQ7rTjutAIBAIBAKBQCAQCASKjkChLIBtKqeVAIVSrOilGPoFAoFAIBAIBAKBQCAwBALF4lligL4qdNHGN0RuImggEAgEAoFAIBAIBAKBwIoIFIoAZluAiPoxBCwyWCjlVoQyAgQCgUAgEAgEAoFAILA+ECgUx2IIGMtfWUywPRy8PnAMLQOBQCAQCAQCgUAgEFg3CBSKAPqwL18C4dyv1w2aoWggEAgEAoFAIBAIBALrAIFCEcC21U8nrOQNArgOalCoGAgEAoFAIBAIBALrDoHCbANjyEH8sP71+h4Y93ps+UKMbrfUpzvE5rx2/Py4OVGIXAcCgUAgEAgEAoFAoQig8T5Mf61FIItETmfaI1BfCO5RYkv9lvr0iLYJvZz4NRrZd1Z6Eu1NiEtkORAIBAKBQCAQ2GwIFIoAOuErtRaB+Pg0nHBmy0wqVeSzhN15rMWii42gF7HIn0EAFxYW0tzcXDp48GCqVgtV/HlV4zwQCAQCgUAgEAgEJohAsRiAuJwNASvD8LxGi9uVyqU0f2hhgjBsDtEQQKx+kD/cgQMH7LhQq6UtOuPoVkK7EX8CgUAgEAgEAoFAYEMiUCgC6EPAfN4tvwhkdm5LetmrXpmOO+64dOjQIbNc+fBlqbQ0C1gOl9oFN2T5DZ2phoGc0vz8fLrZiSemQzoyJLxv377ecy+HTiEiBAKBQCAQCAQCgUDREVjKnqaocUbaWtTNhnqz8d6StoS+331PSbuud3yq1+upUqkkiIx4otxSqrfUZ4qZKnDSWAIh1OVyOchfgcspVAsEAoFAIBAIBMaNQKEIoH/9A3LHeaU136/RqKe9+/amhfpC2r9vv1kA6/LLPhu3lO4t9Rk3bOtbXkmEryEiPTMzk7Zt2xbkb30XZ2gfCAQCgUAgEAgMjUChCGCH9mJxJZb+ykHotm7dlmYqM2nH9h1mAWQIOOarGTzxJxAIBAKBQCAQCAQCgaEQKBQBdMud1nxkrrVdCReNZkYGOVb0j2MJM2G4oRHwxSAcg0QPDV9ECAQCgUAgEAgE1j0ChSKADa3eqMDpajrqV2roj1xFQ5bM+8OVS9nmMByDvBgkq/oT2K0KtogUCAQCgUAgEAhsCAQyNlWgrDDtD6WqOik166ZZRYPArAwOFwgEAoFAIBAIBAKBQCAwOgKFI4DQPPb/a63/GD2HISEQCAQCgUAgEAgEAoFAoAOBwhFAtGOrOmx/TgJ7Gv/CINhRkHERCAQCgUAgEAgEAoHAoAgUkgCy7DfbEsZZHkc/HzRrES4QCAQCgUAgEAgEAoFAoBcCU18EUs/xOk6x+sFKyzppWwDbZ72yEH6BQCAQCAQCgUAgEAgEAsMgMHUC6CSvQ2l5dhBAC9QzZEe0uAgEAoFAIBAIBAKBQCAQWBmBwg0Bm0FQf5j3Z+fKQ0/q19Nz5QxHiEAgEAgEAoFAIBAIBDY7AoUigM7pGjphB8BmKfPJiKDTwc1eZJH/QCAQCAQCgUAgEAgERkOgUAQwnxWoX/tLH8H98tDEeSAQCAQCgUAgEAgEAiMhUCgC6DzPhn914dcj5TAiBwKBQCAQCAQCgUAgEAh0IFAoAohmbvmr6IQNod3lTt0rjoFAIBAIBAKBQCAQCAQCq0CgcATQ8wDha00B1Bm0kF+4QCAQCAQCgUAgEAgEAoFRESgsAWwoZ2wGHS4QCAQCgUAgEAgEAoFAYLwIFJYA5u19TVn/gguOt+BDWiAQCAQCgUAgEAhsXgQKSQBZBGLz/5wFmikwKODmraaR80AgEAgEAoFAIBAYJwKFJIBM94Pu1UuZevOaDFhuMigcLhAIBAKBQCAQCAQCgUBgVASKSQCVq8IqNiriET8QCAQCgUAgEAgEAoEpI1BMniXzXx1gfAh4yiBF8oFAIBAIBAKBQCAQCGwkBIpJAEX8FkQCXbmY/beRqlzkJRAIBAKBQCAQCASmjUB12gr0Sr/S5VmyGYFBA7tgictAIBAIBAKBQCAQCARWhcDUCSBf/Oh2LPeYxb91r7m4I3R30LgOBAKBQCAQCAQCgUAgEBgSgakTwF52PXifDf/6TSOCLTY4ZAYjeCAQCAQCgUAgEAgEAoFAJwI+za7Td9pXIn5B96ZdCJF+IBAIBAKBQCAQCGxUBApHAN3oV9NEwBI7QocLBAKBQCAQCAQCgUAgEBgrAoUjgORu6SIQNoYOMjjWkg9hgUAgEAgEAoFAILBpESgkAcTyx+TEvAEwhoQ3bR2NjAcCgUAgEAgEAoHAmBEoJAGsawagEcCW1S8jf0EBx1z2IS4QCAQCgUAgEAgENikChSSANtgbfG+TVsnIdiAQCAQCgUAgEAhMGoFCEkAyXZNmwQEnXfwhPxAIBAKBQCAQCAQ2IwLFJIBifvYt4FyJxBKQHBhxGggEAoFAIBAIBAKBwAgIFJIAlsX2yiKBbdKn82aYA0co5ogaCAQCgUAgEAgEAoHAIgKFJIB8Ci7/iZKmBoMbMSC8WGpxFggEAoFAIBAIBAKBwAgIFJIAYu3DAuizACGAYQIcoZQjaiAQCAQCgUAgEAgEAjkECkcAjexJwbrGfxu+DQz8L6d0nAYCgUAgEAgEAoFAIBAIrB6BwhFAsgLZqzEBsJSpV8IjGKBACBcIBAKBQCAQCAQCgcDoCBSSAFZE9toLQMhj9/Xo+Q4JgUAgEAgEAoFAIBAIbFoECkkAm2J/M5A+Z4E6hgFw09bRyHggEAgEAoFAIBAIjBmBYhJAZTKvWJC/MZd6iAsEAoFAIBAIBAKBTY1AnmcVCghWAjcabAgTLhAIBAKBQCAQCAQCgUBgnAj8f64aWiPkpfZQAAAAAElFTkSuQmCC", 
    "RulerGuidesX" : [], 
    "RulerGuidesY" : [52.0], 
    "RulerShowing" : 
      {
        "type" : "bool", 
        "value" : false
      }, 
    "activeThemeId" : "e59eeb42-ccf0-4a36-bdf9-e630fdab686d", 
    "firstMedia" : 
      {
        "type" : "bool", 
        "value" : true
      }, 
    "hasNotifiedAboutHFRMedia" : 
      {
        "type" : "bool", 
        "value" : false
      }, 
    "projectDuration" : "04:05"
  }
}